0
SECTION
2
HEADER
9
$ACADVER
1
AC1009
9
$INSBASE
10
0
20
0
30
0
9
$EXTMIN
10
-177049.526008
20
-126662.949863
30
0
9
$EXTMAX
10
76296.59678
20
53644.948033
30
0
0
ENDSEC
0
SECTION
2
TABLES
0
TABLE
2
LAYER
70
17
0
LAYER
2
0
70
0
62
7
6
CONTINUOUS
0
LAYER
2
RUNWAYS
70
0
62
8
6
CONTINUOUS
0
LAYER
2
RUNWAY_LABELS
70
0
62
8
6
CONTINUOUS
0
LAYER
2
TOWER
70
0
62
7
6
CONTINUOUS
0
LAYER
2
TOWER_LABELS
70
0
62
7
6
CONTINUOUS
0
LAYER
2
VFR_POINTS
70
0
62
3
6
CONTINUOUS
0
LAYER
2
VFR_LABELS
70
0
62
3
6
CONTINUOUS
0
LAYER
2
AIRSPACE_LABELS
70
0
62
2
6
CONTINUOUS
0
LAYER
2
ASP_TMA_DOLSKO_1
70
0
62
6
6
CONTINUOUS
0
LAYER
2
ASP_TMA_DOLSKO_1_01
70
0
62
6
6
CONTINUOUS
0
LAYER
2
ASP_TMA_MARIBOR_1
70
0
62
4
6
CONTINUOUS
0
LAYER
2
ASP_TMA_MARIBOR_2
70
0
62
4
6
CONTINUOUS
0
LAYER
2
ASP_TMA_MARIBOR_2_01
70
0
62
4
6
CONTINUOUS
0
LAYER
2
ASP_TMA_MURA
70
0
62
6
6
CONTINUOUS
0
LAYER
2
ASP_CTR_MARIBOR
70
0
62
4
6
CONTINUOUS
0
LAYER
2
ASP_RMZ_PTUJ
70
0
62
6
6
CONTINUOUS
0
LAYER
2
ASP_RMZ_SLOVENSKE_KONJICE
70
0
62
6
6
CONTINUOUS
0
ENDTAB
0
ENDSEC
0
SECTION
2
ENTITIES
0
LINE
8
RUNWAYS
10
-690.425803
20
1017.433579
30
0
11
692.958729
21
-1048.679353
31
0
0
TEXT
8
RUNWAY_LABELS
10
1.266463
20
1403.1154
30
0
40
1266.730614
1
14/32
0
LINE
8
RUNWAYS
10
-349.789472
20
653.13676
30
0
11
319.345364
21
-343.971498
31
0
0
TEXT
8
RUNWAY_LABELS
10
-15.222054
20
1573.320919
30
0
40
1266.730614
1
14L/32R
0
POINT
8
TOWER
10
-319.432654
20
-155.462739
30
0
0
LINE
8
TOWER
10
-1332.817145
20
-1168.84723
30
0
11
693.951837
21
857.921752
31
0
0
LINE
8
TOWER
10
-1332.817145
20
857.921752
30
0
11
693.951837
21
-1168.84723
31
0
0
TEXT
8
TOWER_LABELS
10
1099.305634
20
1263.275549
30
0
40
1266.730614
1
TWR
0
POINT
8
VFR_POINTS
10
1467.594342
20
5312.646742
30
0
0
LINE
8
VFR_POINTS
10
454.209851
20
4299.262251
30
0
11
2480.978833
21
6326.031233
31
0
0
LINE
8
VFR_POINTS
10
454.209851
20
6326.031233
30
0
11
2480.978833
21
4299.262251
31
0
0
TEXT
8
VFR_LABELS
10
2886.33263
20
6731.38503
30
0
40
1266.730614
1
HOLDING E
0
POINT
8
VFR_POINTS
10
-1020.92048
20
-4818.446451
30
0
0
LINE
8
VFR_POINTS
10
-2034.304971
20
-5831.830942
30
0
11
-7.535989
21
-3805.061959
31
0
0
LINE
8
VFR_POINTS
10
-2034.304971
20
-3805.061959
30
0
11
-7.535989
21
-5831.830942
31
0
0
TEXT
8
VFR_LABELS
10
397.817808
20
-3399.708163
30
0
40
1266.730614
1
HOLDING W
0
POINT
8
VFR_POINTS
10
17206.91843
20
-8277.841821
30
0
0
LINE
8
VFR_POINTS
10
16193.533939
20
-9291.226312
30
0
11
18220.302921
21
-7264.45733
31
0
0
LINE
8
VFR_POINTS
10
16193.533939
20
-7264.45733
30
0
11
18220.302921
21
-9291.226312
31
0
0
TEXT
8
VFR_LABELS
10
18625.656718
20
-6859.103533
30
0
40
1266.730614
1
ME1
0
POINT
8
VFR_POINTS
10
11528.000501
20
10934.167416
30
0
0
LINE
8
VFR_POINTS
10
10514.61601
20
9920.782925
30
0
11
12541.384992
21
11947.551907
31
0
0
LINE
8
VFR_POINTS
10
10514.61601
20
11947.551907
30
0
11
12541.384992
21
9920.782925
31
0
0
TEXT
8
VFR_LABELS
10
12946.738789
20
12352.905704
30
0
40
1266.730614
1
ME2
0
POINT
8
VFR_POINTS
10
29840.916756
20
19304.674641
30
0
0
LINE
8
VFR_POINTS
10
28827.532264
20
18291.29015
30
0
11
30854.301247
21
20318.059132
31
0
0
LINE
8
VFR_POINTS
10
28827.532264
20
20318.059132
30
0
11
30854.301247
21
18291.29015
31
0
0
TEXT
8
VFR_LABELS
10
31259.655043
20
20723.412929
30
0
40
1266.730614
1
ME3
0
POINT
8
VFR_POINTS
10
-1999.311093
20
21837.448217
30
0
0
LINE
8
VFR_POINTS
10
-3012.695584
20
20824.063726
30
0
11
-985.926601
21
22850.832709
31
0
0
LINE
8
VFR_POINTS
10
-3012.695584
20
22850.832709
30
0
11
-985.926601
21
20824.063726
31
0
0
TEXT
8
VFR_LABELS
10
-580.572805
20
23256.186505
30
0
40
1266.730614
1
MN1
0
POINT
8
VFR_POINTS
10
-467.917356
20
14640.665712
30
0
0
LINE
8
VFR_POINTS
10
-1481.301847
20
13627.281221
30
0
11
545.467135
21
15654.050203
31
0
0
LINE
8
VFR_POINTS
10
-1481.301847
20
15654.050203
30
0
11
545.467135
21
13627.281221
31
0
0
TEXT
8
VFR_LABELS
10
950.820931
20
16059.404
30
0
40
1266.730614
1
MN2
0
POINT
8
VFR_POINTS
10
-8762.966507
20
-9451.568765
30
0
0
LINE
8
VFR_POINTS
10
-9776.350998
20
-10464.953256
30
0
11
-7749.582015
21
-8438.184274
31
0
0
LINE
8
VFR_POINTS
10
-9776.350998
20
-8438.184274
30
0
11
-7749.582015
21
-10464.953256
31
0
0
TEXT
8
VFR_LABELS
10
-7344.228219
20
-8032.830477
30
0
40
1266.730614
1
MS1
0
POINT
8
VFR_POINTS
10
-17568.480491
20
-17976.513512
30
0
0
LINE
8
VFR_POINTS
10
-18581.864982
20
-18989.898003
30
0
11
-16555.096
21
-16963.12902
31
0
0
LINE
8
VFR_POINTS
10
-18581.864982
20
-16963.12902
30
0
11
-16555.096
21
-18989.898003
31
0
0
TEXT
8
VFR_LABELS
10
-16149.742204
20
-16557.775224
30
0
40
1266.730614
1
MS2
0
POINT
8
VFR_POINTS
10
-14250.460984
20
7073.23271
30
0
0
LINE
8
VFR_POINTS
10
-15263.845475
20
6059.848219
30
0
11
-13237.076493
21
8086.617201
31
0
0
LINE
8
VFR_POINTS
10
-15263.845475
20
8086.617201
30
0
11
-13237.076493
21
6059.848219
31
0
0
TEXT
8
VFR_LABELS
10
-12831.722696
20
8491.970998
30
0
40
1266.730614
1
MW1
0
LINE
8
ASP_TMA_DOLSKO_1
10
-154670.758872
20
-33945.340106
30
0
11
-148630.261356
21
-55813.67568
31
0
0
LINE
8
ASP_TMA_DOLSKO_1
10
-148630.261356
20
-55813.67568
30
0
11
-140973.292674
21
-53682.439586
31
0
0
LINE
8
ASP_TMA_DOLSKO_1
10
-140973.292674
20
-53682.439586
30
0
11
-133316.323992
21
-51582.090971
31
0
0
LINE
8
ASP_TMA_DOLSKO_1
10
-133316.323992
20
-51582.090971
30
0
11
-125659.35531
21
-49450.854877
31
0
0
LINE
8
ASP_TMA_DOLSKO_1
10
-125659.35531
20
-49450.854877
30
0
11
-115811.64281
21
-46732.75667
31
0
0
LINE
8
ASP_TMA_DOLSKO_1
10
-115811.64281
20
-46732.75667
30
0
11
-111472.69389
21
-62639.808676
31
0
0
LINE
8
ASP_TMA_DOLSKO_1
10
-111472.69389
20
-62639.808676
30
0
11
-103815.725208
21
-62639.808676
31
0
0
LINE
8
ASP_TMA_DOLSKO_1
10
-103815.725208
20
-62639.808676
30
0
11
-96158.756526
21
-62670.696156
31
0
0
LINE
8
ASP_TMA_DOLSKO_1
10
-96158.756526
20
-62670.696156
30
0
11
-88501.787844
21
-62670.696156
31
0
0
LINE
8
ASP_TMA_DOLSKO_1
10
-88501.787844
20
-62670.696156
30
0
11
-80844.819162
21
-62670.696156
31
0
0
LINE
8
ASP_TMA_DOLSKO_1
10
-80844.819162
20
-62670.696156
30
0
11
-73187.850479
21
-62670.696156
31
0
0
LINE
8
ASP_TMA_DOLSKO_1
10
-73187.850479
20
-62670.696156
30
0
11
-65530.881797
21
-62701.583636
31
0
0
LINE
8
ASP_TMA_DOLSKO_1
10
-65530.881797
20
-62701.583636
30
0
11
-57873.913115
21
-62701.583636
31
0
0
LINE
8
ASP_TMA_DOLSKO_1
10
-57873.913115
20
-62701.583636
30
0
11
-51429.297808
21
-62701.583636
31
0
0
LINE
8
ASP_TMA_DOLSKO_1
10
-51429.297808
20
-62701.583636
30
0
11
-43283.133904
21
-44292.64578
31
0
0
LINE
8
ASP_TMA_DOLSKO_1
10
-43283.133904
20
-44292.64578
30
0
11
-47685.890896
21
-18872.25005
31
0
0
LINE
8
ASP_TMA_DOLSKO_1
10
-47685.890896
20
-18872.25005
30
0
11
-55342.859579
21
-14640.665342
31
0
0
LINE
8
ASP_TMA_DOLSKO_1
10
-55342.859579
20
-14640.665342
30
0
11
-62425.55561
21
-10748.842909
31
0
0
LINE
8
ASP_TMA_DOLSKO_1
10
-62425.55561
20
-10748.842909
30
0
11
-54768.586927
21
4231.584708
31
0
0
LINE
8
ASP_TMA_DOLSKO_1
10
-54768.586927
20
4231.584708
30
0
11
-47260.503747
21
18903.13753
31
0
0
LINE
8
ASP_TMA_DOLSKO_1
10
-47260.503747
20
18903.13753
30
0
11
-47154.15696
21
18872.25005
31
0
0
LINE
8
ASP_TMA_DOLSKO_1
10
-47154.15696
20
18872.25005
30
0
11
-46239.57459
21
18378.050376
31
0
0
LINE
8
ASP_TMA_DOLSKO_1
10
-46239.57459
20
18378.050376
30
0
11
-45941.803585
21
18810.475091
31
0
0
LINE
8
ASP_TMA_DOLSKO_1
10
-45941.803585
20
18810.475091
30
0
11
-45835.456798
21
19088.462407
31
0
0
LINE
8
ASP_TMA_DOLSKO_1
10
-45835.456798
20
19088.462407
30
0
11
-45154.83736
21
19212.012326
31
0
0
LINE
8
ASP_TMA_DOLSKO_1
10
-45154.83736
20
19212.012326
30
0
11
-44920.874428
21
19397.337204
31
0
0
LINE
8
ASP_TMA_DOLSKO_1
10
-44920.874428
20
19397.337204
30
0
11
-44899.60507
21
19459.112163
31
0
0
LINE
8
ASP_TMA_DOLSKO_1
10
-44899.60507
20
19459.112163
30
0
11
-44389.140491
21
19860.649398
31
0
0
LINE
8
ASP_TMA_DOLSKO_1
10
-44389.140491
20
19860.649398
30
0
11
-44261.524347
21
19984.199316
31
0
0
LINE
8
ASP_TMA_DOLSKO_1
10
-44261.524347
20
19984.199316
30
0
11
-44091.369487
21
19984.199316
31
0
0
LINE
8
ASP_TMA_DOLSKO_1
10
-44091.369487
20
19984.199316
30
0
11
-43623.443623
21
19644.437041
31
0
0
LINE
8
ASP_TMA_DOLSKO_1
10
-43623.443623
20
19644.437041
30
0
11
-43729.790411
21
19551.774602
31
0
0
LINE
8
ASP_TMA_DOLSKO_1
10
-43729.790411
20
19551.774602
30
0
11
-43559.635551
21
19397.337204
31
0
0
LINE
8
ASP_TMA_DOLSKO_1
10
-43559.635551
20
19397.337204
30
0
11
-43432.019406
21
19304.674765
31
0
0
LINE
8
ASP_TMA_DOLSKO_1
10
-43432.019406
20
19304.674765
30
0
11
-43261.864547
21
19551.774602
31
0
0
LINE
8
ASP_TMA_DOLSKO_1
10
-43261.864547
20
19551.774602
30
0
11
-43283.133904
21
19428.224683
31
0
0
LINE
8
ASP_TMA_DOLSKO_1
10
-43283.133904
20
19428.224683
30
0
11
-43006.632257
21
19335.562244
31
0
0
LINE
8
ASP_TMA_DOLSKO_1
10
-43006.632257
20
19335.562244
30
0
11
-42900.28547
21
19150.237367
31
0
0
LINE
8
ASP_TMA_DOLSKO_1
10
-42900.28547
20
19150.237367
30
0
11
-42815.20804
21
18964.912489
31
0
0
LINE
8
ASP_TMA_DOLSKO_1
10
-42815.20804
20
18964.912489
30
0
11
-42708.861253
21
18903.13753
31
0
0
LINE
8
ASP_TMA_DOLSKO_1
10
-42708.861253
20
18903.13753
30
0
11
-42453.628963
21
19026.687448
31
0
0
LINE
8
ASP_TMA_DOLSKO_1
10
-42453.628963
20
19026.687448
30
0
11
-42368.551534
21
19335.562244
31
0
0
LINE
8
ASP_TMA_DOLSKO_1
10
-42368.551534
20
19335.562244
30
0
11
-42092.049887
21
19737.099479
31
0
0
LINE
8
ASP_TMA_DOLSKO_1
10
-42092.049887
20
19737.099479
30
0
11
-42006.972457
21
19706.212
31
0
0
LINE
8
ASP_TMA_DOLSKO_1
10
-42006.972457
20
19706.212
30
0
11
-41815.54824
21
19582.662081
31
0
0
LINE
8
ASP_TMA_DOLSKO_1
10
-41815.54824
20
19582.662081
30
0
11
-41539.046593
21
19922.424357
31
0
0
LINE
8
ASP_TMA_DOLSKO_1
10
-41539.046593
20
19922.424357
30
0
11
-41134.928802
21
19860.649398
31
0
0
LINE
8
ASP_TMA_DOLSKO_1
10
-41134.928802
20
19860.649398
30
0
11
-40879.696512
21
19798.874439
31
0
0
LINE
8
ASP_TMA_DOLSKO_1
10
-40879.696512
20
19798.874439
30
0
11
-40730.81101
21
19551.774602
31
0
0
LINE
8
ASP_TMA_DOLSKO_1
10
-40730.81101
20
19551.774602
30
0
11
-40475.578721
21
19582.662081
31
0
0
LINE
8
ASP_TMA_DOLSKO_1
10
-40475.578721
20
19582.662081
30
0
11
-40092.730286
21
19737.099479
31
0
0
LINE
8
ASP_TMA_DOLSKO_1
10
-40092.730286
20
19737.099479
30
0
11
-39794.959282
21
19335.562244
31
0
0
LINE
8
ASP_TMA_DOLSKO_1
10
-39794.959282
20
19335.562244
30
0
11
-39284.494703
21
19335.562244
31
0
0
LINE
8
ASP_TMA_DOLSKO_1
10
-39284.494703
20
19335.562244
30
0
11
-39093.070486
21
19459.112163
31
0
0
LINE
8
ASP_TMA_DOLSKO_1
10
-39093.070486
20
19459.112163
30
0
11
-38859.107554
21
19489.999642
31
0
0
LINE
8
ASP_TMA_DOLSKO_1
10
-38859.107554
20
19489.999642
30
0
11
-38795.299482
21
19520.887122
31
0
0
LINE
8
ASP_TMA_DOLSKO_1
10
-38795.299482
20
19520.887122
30
0
11
-38561.33655
21
19551.774602
31
0
0
LINE
8
ASP_TMA_DOLSKO_1
10
-38561.33655
20
19551.774602
30
0
11
-38050.871971
21
19150.237367
31
0
0
LINE
8
ASP_TMA_DOLSKO_1
10
-38050.871971
20
19150.237367
30
0
11
-37901.986469
21
18810.475091
31
0
0
LINE
8
ASP_TMA_DOLSKO_1
10
-37901.986469
20
18810.475091
30
0
11
-37710.562252
21
18594.262733
31
0
0
LINE
8
ASP_TMA_DOLSKO_1
10
-37710.562252
20
18594.262733
30
0
11
-37476.59932
21
18378.050376
31
0
0
LINE
8
ASP_TMA_DOLSKO_1
10
-37476.59932
20
18378.050376
30
0
11
-37178.828316
21
18316.275417
31
0
0
LINE
8
ASP_TMA_DOLSKO_1
10
-37178.828316
20
18316.275417
30
0
11
-36774.710524
21
18316.275417
31
0
0
LINE
8
ASP_TMA_DOLSKO_1
10
-36774.710524
20
18316.275417
30
0
11
-36413.131448
21
18192.725498
31
0
0
LINE
8
ASP_TMA_DOLSKO_1
10
-36413.131448
20
18192.725498
30
0
11
-36009.013656
21
18130.950539
31
0
0
LINE
8
ASP_TMA_DOLSKO_1
10
-36009.013656
20
18130.950539
30
0
11
-35413.471647
21
18130.950539
31
0
0
LINE
8
ASP_TMA_DOLSKO_1
10
-35413.471647
20
18130.950539
30
0
11
-34073.502128
21
17760.300784
31
0
0
LINE
8
ASP_TMA_DOLSKO_1
10
-34073.502128
20
17760.300784
30
0
11
-33180.189115
21
18007.40062
31
0
0
LINE
8
ASP_TMA_DOLSKO_1
10
-33180.189115
20
18007.40062
30
0
11
-32329.414817
21
18254.500457
31
0
0
LINE
8
ASP_TMA_DOLSKO_1
10
-32329.414817
20
18254.500457
30
0
11
-31861.488953
21
18192.725498
31
0
0
LINE
8
ASP_TMA_DOLSKO_1
10
-31861.488953
20
18192.725498
30
0
11
-31393.563089
21
18161.838019
31
0
0
LINE
8
ASP_TMA_DOLSKO_1
10
-31393.563089
20
18161.838019
30
0
11
-30819.290438
21
18625.150213
31
0
0
LINE
8
ASP_TMA_DOLSKO_1
10
-30819.290438
20
18625.150213
30
0
11
-30223.748429
21
18903.13753
31
0
0
LINE
8
ASP_TMA_DOLSKO_1
10
-30223.748429
20
18903.13753
30
0
11
-29458.051561
21
19212.012326
31
0
0
LINE
8
ASP_TMA_DOLSKO_1
10
-29458.051561
20
19212.012326
30
0
11
-28947.586982
21
19119.349887
31
0
0
LINE
8
ASP_TMA_DOLSKO_1
10
-28947.586982
20
19119.349887
30
0
11
-28607.277263
21
18995.799968
31
0
0
LINE
8
ASP_TMA_DOLSKO_1
10
-28607.277263
20
18995.799968
30
0
11
-28415.853046
21
18748.700131
31
0
0
LINE
8
ASP_TMA_DOLSKO_1
10
-28415.853046
20
18748.700131
30
0
11
-27905.388467
21
18686.925172
31
0
0
LINE
8
ASP_TMA_DOLSKO_1
10
-27905.388467
20
18686.925172
30
0
11
-27735.233608
21
18872.25005
31
0
0
LINE
8
ASP_TMA_DOLSKO_1
10
-27735.233608
20
18872.25005
30
0
11
-27522.540033
21
19181.124846
31
0
0
LINE
8
ASP_TMA_DOLSKO_1
10
-27522.540033
20
19181.124846
30
0
11
-27182.230314
21
19150.237367
31
0
0
LINE
8
ASP_TMA_DOLSKO_1
10
-27182.230314
20
19150.237367
30
0
11
-26990.806097
21
19242.899805
31
0
0
LINE
8
ASP_TMA_DOLSKO_1
10
-26990.806097
20
19242.899805
30
0
11
-26565.418948
21
19088.462407
31
0
0
LINE
8
ASP_TMA_DOLSKO_1
10
-26565.418948
20
19088.462407
30
0
11
-26416.533446
21
18995.799968
31
0
0
LINE
8
ASP_TMA_DOLSKO_1
10
-26416.533446
20
18995.799968
30
0
11
-26097.493084
21
19119.349887
31
0
0
LINE
8
ASP_TMA_DOLSKO_1
10
-26097.493084
20
19119.349887
30
0
11
-25948.607582
21
19273.787285
31
0
0
LINE
8
ASP_TMA_DOLSKO_1
10
-25948.607582
20
19273.787285
30
0
11
-25650.836578
21
19397.337204
31
0
0
LINE
8
ASP_TMA_DOLSKO_1
10
-25650.836578
20
19397.337204
30
0
11
-25459.412361
21
19459.112163
31
0
0
LINE
8
ASP_TMA_DOLSKO_1
10
-25459.412361
20
19459.112163
30
0
11
-25289.257501
21
19057.574928
31
0
0
LINE
8
ASP_TMA_DOLSKO_1
10
-25289.257501
20
19057.574928
30
0
11
-24608.638063
21
18995.799968
31
0
0
LINE
8
ASP_TMA_DOLSKO_1
10
-24608.638063
20
18995.799968
30
0
11
-24310.867058
21
18995.799968
31
0
0
LINE
8
ASP_TMA_DOLSKO_1
10
-24310.867058
20
18995.799968
30
0
11
-24140.712199
21
18841.36257
31
0
0
LINE
8
ASP_TMA_DOLSKO_1
10
-24140.712199
20
18841.36257
30
0
11
-23970.557339
21
18934.025009
31
0
0
LINE
8
ASP_TMA_DOLSKO_1
10
-23970.557339
20
18934.025009
30
0
11
-23757.863764
21
19088.462407
31
0
0
LINE
8
ASP_TMA_DOLSKO_1
10
-23757.863764
20
19088.462407
30
0
11
-23353.745973
21
19150.237367
31
0
0
LINE
8
ASP_TMA_DOLSKO_1
10
-23353.745973
20
19150.237367
30
0
11
-23162.321756
21
19057.574928
31
0
0
LINE
8
ASP_TMA_DOLSKO_1
10
-23162.321756
20
19057.574928
30
0
11
-22502.971675
21
19088.462407
31
0
0
LINE
8
ASP_TMA_DOLSKO_1
10
-22502.971675
20
19088.462407
30
0
11
-22226.470028
21
19212.012326
31
0
0
LINE
8
ASP_TMA_DOLSKO_1
10
-22226.470028
20
19212.012326
30
0
11
-21779.813522
21
19273.787285
31
0
0
LINE
8
ASP_TMA_DOLSKO_1
10
-21779.813522
20
19273.787285
30
0
11
-20992.847296
21
19428.224683
31
0
0
LINE
8
ASP_TMA_DOLSKO_1
10
-20992.847296
20
19428.224683
30
0
11
-20631.268219
21
19428.224683
31
0
0
LINE
8
ASP_TMA_DOLSKO_1
10
-20631.268219
20
19428.224683
30
0
11
-20290.9585
21
19397.337204
31
0
0
LINE
8
ASP_TMA_DOLSKO_1
10
-20290.9585
20
19397.337204
30
0
11
-20120.80364
21
19181.124846
31
0
0
LINE
8
ASP_TMA_DOLSKO_1
10
-20120.80364
20
19181.124846
30
0
11
-20142.072998
21
18964.912489
31
0
0
LINE
8
ASP_TMA_DOLSKO_1
10
-20142.072998
20
18964.912489
30
0
11
-20248.419785
21
18872.25005
31
0
0
LINE
8
ASP_TMA_DOLSKO_1
10
-20248.419785
20
18872.25005
30
0
11
-20248.419785
21
18594.262733
31
0
0
LINE
8
ASP_TMA_DOLSKO_1
10
-20248.419785
20
18594.262733
30
0
11
-20078.264926
21
18594.262733
31
0
0
LINE
8
ASP_TMA_DOLSKO_1
10
-20078.264926
20
18594.262733
30
0
11
-19312.568057
21
18038.2881
31
0
0
LINE
8
ASP_TMA_DOLSKO_1
10
-19312.568057
20
18038.2881
30
0
11
-18738.295406
21
17791.188263
31
0
0
LINE
8
ASP_TMA_DOLSKO_1
10
-18738.295406
20
17791.188263
30
0
11
-17823.713036
21
17791.188263
31
0
0
LINE
8
ASP_TMA_DOLSKO_1
10
-17823.713036
20
17791.188263
30
0
11
-17674.827534
21
17760.300784
31
0
0
LINE
8
ASP_TMA_DOLSKO_1
10
-17674.827534
20
17760.300784
30
0
11
-17568.480746
21
17667.638345
31
0
0
LINE
8
ASP_TMA_DOLSKO_1
10
-17568.480746
20
17667.638345
30
0
11
-17589.750104
21
17235.21363
31
0
0
LINE
8
ASP_TMA_DOLSKO_1
10
-17589.750104
20
17235.21363
30
0
11
-17632.288819
21
16802.788915
31
0
0
LINE
8
ASP_TMA_DOLSKO_1
10
-17632.288819
20
16802.788915
30
0
11
-17525.942031
21
16586.576558
31
0
0
LINE
8
ASP_TMA_DOLSKO_1
10
-17525.942031
20
16586.576558
30
0
11
-17355.787172
21
16401.25168
31
0
0
LINE
8
ASP_TMA_DOLSKO_1
10
-17355.787172
20
16401.25168
30
0
11
-17143.093597
21
16215.926802
31
0
0
LINE
8
ASP_TMA_DOLSKO_1
10
-17143.093597
20
16215.926802
30
0
11
-17036.74681
21
15505.514771
31
0
0
LINE
8
ASP_TMA_DOLSKO_1
10
-17036.74681
20
15505.514771
30
0
11
-17164.362955
21
15042.202577
31
0
0
LINE
8
ASP_TMA_DOLSKO_1
10
-17164.362955
20
15042.202577
30
0
11
-17079.285525
21
14980.427617
31
0
0
LINE
8
ASP_TMA_DOLSKO_1
10
-17079.285525
20
14980.427617
30
0
11
-17036.74681
21
14949.540138
31
0
0
LINE
8
ASP_TMA_DOLSKO_1
10
-17036.74681
20
14949.540138
30
0
11
-16717.706448
21
14887.765179
31
0
0
LINE
8
ASP_TMA_DOLSKO_1
10
-16717.706448
20
14887.765179
30
0
11
-16696.437091
21
14918.652658
31
0
0
LINE
8
ASP_TMA_DOLSKO_1
10
-16696.437091
20
14918.652658
30
0
11
-20950.308581
21
-13188.953799
31
0
0
LINE
8
ASP_TMA_DOLSKO_1
10
-20950.308581
20
-13188.953799
30
0
11
-13293.339899
21
-19582.662081
31
0
0
LINE
8
ASP_TMA_DOLSKO_1
10
-13293.339899
20
-19582.662081
30
0
11
-2509.775671
21
-28570.918652
31
0
0
LINE
8
ASP_TMA_DOLSKO_1
10
-2509.775671
20
-28570.918652
30
0
11
-3466.896757
21
-30424.167429
31
0
0
LINE
8
ASP_TMA_DOLSKO_1
10
-3466.896757
20
-30424.167429
30
0
11
-4211.324267
21
-34315.989862
31
0
0
LINE
8
ASP_TMA_DOLSKO_1
10
-4211.324267
20
-34315.989862
30
0
11
-5700.179289
21
-37003.200589
31
0
0
LINE
8
ASP_TMA_DOLSKO_1
10
-5700.179289
20
-37003.200589
30
0
11
-6253.182583
21
-40339.048388
31
0
0
LINE
8
ASP_TMA_DOLSKO_1
10
-6253.182583
20
-40339.048388
30
0
11
-4317.671055
21
-44169.095862
31
0
0
LINE
8
ASP_TMA_DOLSKO_1
10
-4317.671055
20
-44169.095862
30
0
11
42.547223
21
-45435.482526
31
0
0
LINE
8
ASP_TMA_DOLSKO_1
10
42.547223
20
-45435.482526
30
0
11
3275.489555
21
-47782.930978
31
0
0
LINE
8
ASP_TMA_DOLSKO_1
10
3275.489555
20
-47782.930978
30
0
11
2573.600759
21
-51551.203492
31
0
0
LINE
8
ASP_TMA_DOLSKO_1
10
2573.600759
20
-51551.203492
30
0
11
1382.516742
21
-55134.151128
31
0
0
LINE
8
ASP_TMA_DOLSKO_1
10
1382.516742
20
-55134.151128
30
0
11
1425.055457
21
-59458.398275
31
0
0
LINE
8
ASP_TMA_DOLSKO_1
10
1425.055457
20
-59458.398275
30
0
11
425.395657
21
-63628.208024
31
0
0
LINE
8
ASP_TMA_DOLSKO_1
10
425.395657
20
-63628.208024
30
0
11
914.590878
21
-67365.593059
31
0
0
LINE
8
ASP_TMA_DOLSKO_1
10
914.590878
20
-67365.593059
30
0
11
467.934372
21
-69991.028827
31
0
0
LINE
8
ASP_TMA_DOLSKO_1
10
467.934372
20
-69991.028827
30
0
11
-2871.354748
21
-71844.277604
31
0
0
LINE
8
ASP_TMA_DOLSKO_1
10
-2871.354748
20
-71844.277604
30
0
11
-5785.256719
21
-70701.440858
31
0
0
LINE
8
ASP_TMA_DOLSKO_1
10
-5785.256719
20
-70701.440858
30
0
11
-9720.087847
21
-70207.241184
31
0
0
LINE
8
ASP_TMA_DOLSKO_1
10
-9720.087847
20
-70207.241184
30
0
11
-12442.565601
21
-71041.203134
31
0
0
LINE
8
ASP_TMA_DOLSKO_1
10
-12442.565601
20
-71041.203134
30
0
11
-15250.120784
21
-71658.952726
31
0
0
LINE
8
ASP_TMA_DOLSKO_1
10
-15250.120784
20
-71658.952726
30
0
11
-18036.40661
21
-73419.539065
31
0
0
LINE
8
ASP_TMA_DOLSKO_1
10
-18036.40661
20
-73419.539065
30
0
11
-17462.133959
21
-75952.312394
31
0
0
LINE
8
ASP_TMA_DOLSKO_1
10
-17462.133959
20
-75952.312394
30
0
11
-21567.119947
21
-76848.049303
31
0
0
LINE
8
ASP_TMA_DOLSKO_1
10
-21567.119947
20
-76848.049303
30
0
11
-25438.143003
21
-78454.198244
31
0
0
LINE
8
ASP_TMA_DOLSKO_1
10
-25438.143003
20
-78454.198244
30
0
11
-29032.664412
21
-80091.234664
31
0
0
LINE
8
ASP_TMA_DOLSKO_1
10
-29032.664412
20
-80091.234664
30
0
11
-32414.492247
21
-82747.557911
31
0
0
LINE
8
ASP_TMA_DOLSKO_1
10
-32414.492247
20
-82747.557911
30
0
11
-32818.610038
21
-85434.768639
31
0
0
LINE
8
ASP_TMA_DOLSKO_1
10
-32818.610038
20
-85434.768639
30
0
11
-29819.630638
21
-86237.843109
31
0
0
LINE
8
ASP_TMA_DOLSKO_1
10
-29819.630638
20
-86237.843109
30
0
11
-28373.314331
21
-87813.10457
31
0
0
LINE
8
ASP_TMA_DOLSKO_1
10
-28373.314331
20
-87813.10457
30
0
11
-25693.375292
21
-85867.193353
31
0
0
LINE
8
ASP_TMA_DOLSKO_1
10
-25693.375292
20
-85867.193353
30
0
11
-24651.176777
21
-88955.941316
31
0
0
LINE
8
ASP_TMA_DOLSKO_1
10
-24651.176777
20
-88955.941316
30
0
11
-22332.816815
21
-89759.015786
31
0
0
LINE
8
ASP_TMA_DOLSKO_1
10
-22332.816815
20
-89759.015786
30
0
11
-21971.237739
21
-92785.988789
31
0
0
LINE
8
ASP_TMA_DOLSKO_1
10
-21971.237739
20
-92785.988789
30
0
11
-25544.48979
21
-92137.351717
31
0
0
LINE
8
ASP_TMA_DOLSKO_1
10
-25544.48979
20
-92137.351717
30
0
11
-27458.731961
21
-93527.2883
31
0
0
LINE
8
ASP_TMA_DOLSKO_1
10
-27458.731961
20
-93527.2883
30
0
11
-29628.206421
21
-96090.949109
31
0
0
LINE
8
ASP_TMA_DOLSKO_1
10
-29628.206421
20
-96090.949109
30
0
11
-30330.095217
21
-98716.384877
31
0
0
LINE
8
ASP_TMA_DOLSKO_1
10
-30330.095217
20
-98716.384877
30
0
11
-29755.822566
21
-103442.169259
31
0
0
LINE
8
ASP_TMA_DOLSKO_1
10
-29755.822566
20
-103442.169259
30
0
11
-27713.96425
21
-106747.129579
31
0
0
LINE
8
ASP_TMA_DOLSKO_1
10
-27713.96425
20
-106747.129579
30
0
11
-24268.328343
21
-109032.803071
31
0
0
LINE
8
ASP_TMA_DOLSKO_1
10
-24268.328343
20
-109032.803071
30
0
11
-25714.64465
21
-111689.126319
31
0
0
LINE
8
ASP_TMA_DOLSKO_1
10
-25714.64465
20
-111689.126319
30
0
11
-28819.970838
21
-113573.262576
31
0
0
LINE
8
ASP_TMA_DOLSKO_1
10
-28819.970838
20
-113573.262576
30
0
11
-33329.074617
21
-112986.400463
31
0
0
LINE
8
ASP_TMA_DOLSKO_1
10
-33329.074617
20
-112986.400463
30
0
11
-35966.474941
21
-116692.898018
31
0
0
LINE
8
ASP_TMA_DOLSKO_1
10
-35966.474941
20
-116692.898018
30
0
11
-39029.262414
21
-117279.76013
31
0
0
LINE
8
ASP_TMA_DOLSKO_1
10
-39029.262414
20
-117279.76013
30
0
11
-41836.817597
21
-115086.749077
31
0
0
LINE
8
ASP_TMA_DOLSKO_1
10
-41836.817597
20
-115086.749077
30
0
11
-45176.106717
21
-112831.963065
31
0
0
LINE
8
ASP_TMA_DOLSKO_1
10
-45176.106717
20
-112831.963065
30
0
11
-47217.965032
21
-110546.289572
31
0
0
LINE
8
ASP_TMA_DOLSKO_1
10
-47217.965032
20
-110546.289572
30
0
11
-50472.176722
21
-109681.440143
31
0
0
LINE
8
ASP_TMA_DOLSKO_1
10
-50472.176722
20
-109681.440143
30
0
11
-53917.812629
21
-108538.603397
31
0
0
LINE
8
ASP_TMA_DOLSKO_1
10
-53917.812629
20
-108538.603397
30
0
11
-56767.906528
21
-105974.942588
31
0
0
LINE
8
ASP_TMA_DOLSKO_1
10
-56767.906528
20
-105974.942588
30
0
11
-58894.842273
21
-107673.753967
31
0
0
LINE
8
ASP_TMA_DOLSKO_1
10
-58894.842273
20
-107673.753967
30
0
11
-59724.347213
21
-111442.026482
31
0
0
LINE
8
ASP_TMA_DOLSKO_1
10
-59724.347213
20
-111442.026482
30
0
11
-63531.562197
21
-112893.738024
31
0
0
LINE
8
ASP_TMA_DOLSKO_1
10
-63531.562197
20
-112893.738024
30
0
11
-66381.656095
21
-111596.46388
31
0
0
LINE
8
ASP_TMA_DOLSKO_1
10
-66381.656095
20
-111596.46388
30
0
11
-68295.898266
21
-108754.815754
31
0
0
LINE
8
ASP_TMA_DOLSKO_1
10
-68295.898266
20
-108754.815754
30
0
11
-71294.877666
21
-107303.104212
31
0
0
LINE
8
ASP_TMA_DOLSKO_1
10
-71294.877666
20
-107303.104212
30
0
11
-74634.166786
21
-105171.868118
31
0
0
LINE
8
ASP_TMA_DOLSKO_1
10
-74634.166786
20
-105171.868118
30
0
11
-76080.483093
21
-103781.931535
31
0
0
LINE
8
ASP_TMA_DOLSKO_1
10
-76080.483093
20
-103781.931535
30
0
11
-75782.712088
21
-100260.758858
31
0
0
LINE
8
ASP_TMA_DOLSKO_1
10
-75782.712088
20
-100260.758858
30
0
11
-80483.240085
21
-96924.911059
31
0
0
LINE
8
ASP_TMA_DOLSKO_1
10
-80483.240085
20
-96924.911059
30
0
11
-83141.909766
21
-94114.150413
31
0
0
LINE
8
ASP_TMA_DOLSKO_1
10
-83141.909766
20
-94114.150413
30
0
11
-84035.222779
21
-90747.415134
31
0
0
LINE
8
ASP_TMA_DOLSKO_1
10
-84035.222779
20
-90747.415134
30
0
11
-86417.390814
21
-93125.751065
31
0
0
LINE
8
ASP_TMA_DOLSKO_1
10
-86417.390814
20
-93125.751065
30
0
11
-88927.174993
21
-96832.24862
31
0
0
LINE
8
ASP_TMA_DOLSKO_1
10
-88927.174993
20
-96832.24862
30
0
11
-90607.454231
21
-99920.996582
31
0
0
LINE
8
ASP_TMA_DOLSKO_1
10
-90607.454231
20
-99920.996582
30
0
11
-91373.1511
21
-103998.143892
31
0
0
LINE
8
ASP_TMA_DOLSKO_1
10
-91373.1511
20
-103998.143892
30
0
11
-94925.133794
21
-106314.704864
31
0
0
LINE
8
ASP_TMA_DOLSKO_1
10
-94925.133794
20
-106314.704864
30
0
11
-98179.345484
21
-108538.603397
31
0
0
LINE
8
ASP_TMA_DOLSKO_1
10
-98179.345484
20
-108538.603397
30
0
11
-101688.789463
21
-110237.414776
31
0
0
LINE
8
ASP_TMA_DOLSKO_1
10
-101688.789463
20
-110237.414776
30
0
11
-104879.193081
21
-110391.852174
31
0
0
LINE
8
ASP_TMA_DOLSKO_1
10
-104879.193081
20
-110391.852174
30
0
11
-108516.253205
21
-109310.790388
31
0
0
LINE
8
ASP_TMA_DOLSKO_1
10
-108516.253205
20
-109310.790388
30
0
11
-111557.77132
21
-108940.140632
31
0
0
LINE
8
ASP_TMA_DOLSKO_1
10
-111557.77132
20
-108940.140632
30
0
11
-113791.053853
21
-111967.113635
31
0
0
LINE
8
ASP_TMA_DOLSKO_1
10
-113791.053853
20
-111967.113635
30
0
11
-118257.618917
21
-112028.888594
31
0
0
LINE
8
ASP_TMA_DOLSKO_1
10
-118257.618917
20
-112028.888594
30
0
11
-122277.527475
21
-110947.826808
31
0
0
LINE
8
ASP_TMA_DOLSKO_1
10
-122277.527475
20
-110947.826808
30
0
11
-125319.045591
21
-108816.590714
31
0
0
LINE
8
ASP_TMA_DOLSKO_1
10
-125319.045591
20
-108816.590714
30
0
11
-128551.987923
21
-106500.029742
31
0
0
LINE
8
ASP_TMA_DOLSKO_1
10
-128551.987923
20
-106500.029742
30
0
11
-128998.64443
21
-106839.792018
31
0
0
LINE
8
ASP_TMA_DOLSKO_1
10
-128998.64443
20
-106839.792018
30
0
11
-135315.643592
21
-94268.587811
31
0
0
LINE
8
ASP_TMA_DOLSKO_1
10
-135315.643592
20
-94268.587811
30
0
11
-136208.956605
21
-94608.350087
31
0
0
LINE
8
ASP_TMA_DOLSKO_1
10
-136208.956605
20
-94608.350087
30
0
11
-136166.41789
21
-93496.40082
31
0
0
LINE
8
ASP_TMA_DOLSKO_1
10
-136166.41789
20
-93496.40082
30
0
11
-138484.777853
21
-92013.801798
31
0
0
LINE
8
ASP_TMA_DOLSKO_1
10
-138484.777853
20
-92013.801798
30
0
11
-139973.632874
21
-90932.740012
31
0
0
LINE
8
ASP_TMA_DOLSKO_1
10
-139973.632874
20
-90932.740012
30
0
11
-141483.757253
21
-87535.117253
31
0
0
LINE
8
ASP_TMA_DOLSKO_1
10
-141483.757253
20
-87535.117253
30
0
11
-141845.33633
21
-86855.592701
31
0
0
LINE
8
ASP_TMA_DOLSKO_1
10
-141845.33633
20
-86855.592701
30
0
11
-142696.110628
21
-85434.768639
31
0
0
LINE
8
ASP_TMA_DOLSKO_1
10
-142696.110628
20
-85434.768639
30
0
11
-145865.244888
21
-81666.496125
31
0
0
LINE
8
ASP_TMA_DOLSKO_1
10
-145865.244888
20
-81666.496125
30
0
11
-149055.648505
21
-80832.534175
31
0
0
LINE
8
ASP_TMA_DOLSKO_1
10
-149055.648505
20
-80832.534175
30
0
11
-151182.584251
21
-78701.298081
31
0
0
LINE
8
ASP_TMA_DOLSKO_1
10
-151182.584251
20
-78701.298081
30
0
11
-153415.866783
21
-76724.499385
31
0
0
LINE
8
ASP_TMA_DOLSKO_1
10
-153415.866783
20
-76724.499385
30
0
11
-154202.833009
21
-76106.749792
31
0
0
LINE
8
ASP_TMA_DOLSKO_1
10
-154202.833009
20
-76106.749792
30
0
11
-155649.149315
21
-75983.199874
31
0
0
LINE
8
ASP_TMA_DOLSKO_1
10
-155649.149315
20
-75983.199874
30
0
11
-156797.694617
21
-76044.974833
31
0
0
LINE
8
ASP_TMA_DOLSKO_1
10
-156797.694617
20
-76044.974833
30
0
11
-157861.16249
21
-76106.749792
31
0
0
LINE
8
ASP_TMA_DOLSKO_1
10
-157861.16249
20
-76106.749792
30
0
11
-159924.290163
21
-74778.588168
31
0
0
LINE
8
ASP_TMA_DOLSKO_1
10
-159924.290163
20
-74778.588168
30
0
11
-160626.178959
21
-73604.863943
31
0
0
LINE
8
ASP_TMA_DOLSKO_1
10
-160626.178959
20
-73604.863943
30
0
11
-160519.832171
21
-73048.88931
31
0
0
LINE
8
ASP_TMA_DOLSKO_1
10
-160519.832171
20
-73048.88931
30
0
11
-160753.795103
21
-71998.715002
31
0
0
LINE
8
ASP_TMA_DOLSKO_1
10
-160753.795103
20
-71998.715002
30
0
11
-161476.953257
21
-68508.429805
31
0
0
LINE
8
ASP_TMA_DOLSKO_1
10
-161476.953257
20
-68508.429805
30
0
11
-160541.101529
21
-65666.78168
31
0
0
LINE
8
ASP_TMA_DOLSKO_1
10
-160541.101529
20
-65666.78168
30
0
11
-160243.330524
21
-65018.144607
31
0
0
LINE
8
ASP_TMA_DOLSKO_1
10
-160243.330524
20
-65018.144607
30
0
11
-158754.475503
21
-63937.082821
31
0
0
LINE
8
ASP_TMA_DOLSKO_1
10
-158754.475503
20
-63937.082821
30
0
11
-157754.815703
21
-61805.846727
31
0
0
LINE
8
ASP_TMA_DOLSKO_1
10
-157754.815703
20
-61805.846727
30
0
11
-156542.462328
21
-60786.559899
31
0
0
LINE
8
ASP_TMA_DOLSKO_1
10
-156542.462328
20
-60786.559899
30
0
11
-156265.960681
21
-60539.460062
31
0
0
LINE
8
ASP_TMA_DOLSKO_1
10
-156265.960681
20
-60539.460062
30
0
11
-156244.691324
21
-59952.597949
31
0
0
LINE
8
ASP_TMA_DOLSKO_1
10
-156244.691324
20
-59952.597949
30
0
11
-156180.883251
21
-57419.82462
31
0
0
LINE
8
ASP_TMA_DOLSKO_1
10
-156180.883251
20
-57419.82462
30
0
11
-156074.536464
21
-56894.737466
31
0
0
LINE
8
ASP_TMA_DOLSKO_1
10
-156074.536464
20
-56894.737466
30
0
11
-156223.421966
21
-56307.875354
31
0
0
LINE
8
ASP_TMA_DOLSKO_1
10
-156223.421966
20
-56307.875354
30
0
11
-156585.001043
21
-56122.550476
31
0
0
LINE
8
ASP_TMA_DOLSKO_1
10
-156585.001043
20
-56122.550476
30
0
11
-156861.50269
21
-54732.613893
31
0
0
LINE
8
ASP_TMA_DOLSKO_1
10
-156861.50269
20
-54732.613893
30
0
11
-158095.125422
21
-54825.276332
31
0
0
LINE
8
ASP_TMA_DOLSKO_1
10
-158095.125422
20
-54825.276332
30
0
11
-160817.603176
21
-54732.613893
31
0
0
LINE
8
ASP_TMA_DOLSKO_1
10
-160817.603176
20
-54732.613893
30
0
11
-164093.084223
21
-56771.187548
31
0
0
LINE
8
ASP_TMA_DOLSKO_1
10
-164093.084223
20
-56771.187548
30
0
11
-165156.552096
21
-56987.399905
31
0
0
LINE
8
ASP_TMA_DOLSKO_1
10
-165156.552096
20
-56987.399905
30
0
11
-166220.019968
21
-55597.463322
31
0
0
LINE
8
ASP_TMA_DOLSKO_1
10
-166220.019968
20
-55597.463322
30
0
11
-167326.026555
21
-55041.488689
31
0
0
LINE
8
ASP_TMA_DOLSKO_1
10
-167326.026555
20
-55041.488689
30
0
11
-167028.255551
21
-50748.129021
31
0
0
LINE
8
ASP_TMA_DOLSKO_1
10
-167028.255551
20
-50748.129021
30
0
11
-166602.868402
21
-48524.230488
31
0
0
LINE
8
ASP_TMA_DOLSKO_1
10
-166602.868402
20
-48524.230488
30
0
11
-167666.336275
21
-46392.994394
31
0
0
LINE
8
ASP_TMA_DOLSKO_1
10
-167666.336275
20
-46392.994394
30
0
11
-165794.632819
21
-45806.132282
31
0
0
LINE
8
ASP_TMA_DOLSKO_1
10
-165794.632819
20
-45806.132282
30
0
11
-164518.471372
21
-44107.320902
31
0
0
LINE
8
ASP_TMA_DOLSKO_1
10
-164518.471372
20
-44107.320902
30
0
11
-160923.949963
21
-41389.222695
31
0
0
LINE
8
ASP_TMA_DOLSKO_1
10
-160923.949963
20
-41389.222695
30
0
11
-156925.310762
21
-38084.262376
31
0
0
LINE
8
ASP_TMA_DOLSKO_1
10
-156925.310762
20
-38084.262376
30
0
11
-155202.492809
21
-36076.5762
31
0
0
LINE
8
ASP_TMA_DOLSKO_1
10
-155202.492809
20
-36076.5762
30
0
11
-154606.9508
21
-33142.265636
31
0
0
LINE
8
ASP_TMA_DOLSKO_1
10
-154606.9508
20
-33142.265636
30
0
11
-154670.758872
21
-33945.340106
31
0
0
TEXT
8
AIRSPACE_LABELS
10
-64387.400628
20
-36432.762771
30
0
40
1520.076737
1
TMA DOLSKO 1
0
LINE
8
ASP_TMA_DOLSKO_1_01
10
-16696.437091
20
14918.652658
30
0
11
-20950.308581
21
-13188.953799
31
0
0
LINE
8
ASP_TMA_DOLSKO_1_01
10
-20950.308581
20
-13188.953799
30
0
11
-13293.339899
21
-19582.662081
31
0
0
LINE
8
ASP_TMA_DOLSKO_1_01
10
-13293.339899
20
-19582.662081
30
0
11
-2509.775671
21
-28570.918652
31
0
0
LINE
8
ASP_TMA_DOLSKO_1_01
10
-2509.775671
20
-28570.918652
30
0
11
-3466.896757
21
-30424.167429
31
0
0
LINE
8
ASP_TMA_DOLSKO_1_01
10
-3466.896757
20
-30424.167429
30
0
11
-659.341573
21
-27922.28158
31
0
0
LINE
8
ASP_TMA_DOLSKO_1_01
10
-659.341573
20
-27922.28158
30
0
11
3275.489555
21
-28910.680928
31
0
0
LINE
8
ASP_TMA_DOLSKO_1_01
10
3275.489555
20
-28910.680928
30
0
11
5849.081807
21
-30238.842551
31
0
0
LINE
8
ASP_TMA_DOLSKO_1_01
10
5849.081807
20
-30238.842551
30
0
11
8571.55956
21
-26933.882232
31
0
0
LINE
8
ASP_TMA_DOLSKO_1_01
10
8571.55956
20
-26933.882232
30
0
11
9315.987071
21
-23999.571667
31
0
0
LINE
8
ASP_TMA_DOLSKO_1_01
10
9315.987071
20
-23999.571667
30
0
11
13612.397276
21
-23134.722238
31
0
0
LINE
8
ASP_TMA_DOLSKO_1_01
10
13612.397276
20
-23134.722238
30
0
11
17249.4574
21
-21157.923542
31
0
0
LINE
8
ASP_TMA_DOLSKO_1_01
10
17249.4574
20
-21157.923542
30
0
11
16526.299247
21
-21497.685818
31
0
0
LINE
8
ASP_TMA_DOLSKO_1_01
10
16526.299247
20
-21497.685818
30
0
11
8869.330565
21
-14239.128106
31
0
0
LINE
8
ASP_TMA_DOLSKO_1_01
10
8869.330565
20
-14239.128106
30
0
11
1212.361882
21
-6980.570395
31
0
0
LINE
8
ASP_TMA_DOLSKO_1_01
10
1212.361882
20
-6980.570395
30
0
11
-6444.6068
21
277.987317
31
0
0
LINE
8
ASP_TMA_DOLSKO_1_01
10
-6444.6068
20
277.987317
30
0
11
-12676.528533
21
6177.495925
31
0
0
LINE
8
ASP_TMA_DOLSKO_1_01
10
-12676.528533
20
6177.495925
30
0
11
-15399.006286
21
15505.514771
31
0
0
LINE
8
ASP_TMA_DOLSKO_1_01
10
-15399.006286
20
15505.514771
30
0
11
-15377.736929
21
15505.514771
31
0
0
LINE
8
ASP_TMA_DOLSKO_1_01
10
-15377.736929
20
15505.514771
30
0
11
-15611.699861
21
15134.865016
31
0
0
LINE
8
ASP_TMA_DOLSKO_1_01
10
-15611.699861
20
15134.865016
30
0
11
-16185.972512
21
14671.552821
31
0
0
LINE
8
ASP_TMA_DOLSKO_1_01
10
-16185.972512
20
14671.552821
30
0
11
-16292.319299
21
14671.552821
31
0
0
LINE
8
ASP_TMA_DOLSKO_1_01
10
-16292.319299
20
14671.552821
30
0
11
-16526.282231
21
14825.990219
31
0
0
LINE
8
ASP_TMA_DOLSKO_1_01
10
-16526.282231
20
14825.990219
30
0
11
-16717.706448
21
14887.765179
31
0
0
LINE
8
ASP_TMA_DOLSKO_1_01
10
-16717.706448
20
14887.765179
30
0
11
-16696.437091
21
14918.652658
31
0
0
TEXT
8
AIRSPACE_LABELS
10
-4346.916421
20
-7925.21248
30
0
40
1520.076737
1
TMA DOLSKO 1
0
LINE
8
ASP_TMA_MARIBOR_1
10
1382.516742
20
-28076.718978
30
0
11
-2424.698242
21
-19397.337204
31
0
0
LINE
8
ASP_TMA_MARIBOR_1
10
-2424.698242
20
-19397.337204
30
0
11
5232.270441
21
-14115.578188
31
0
0
LINE
8
ASP_TMA_MARIBOR_1
10
5232.270441
20
-14115.578188
30
0
11
12889.239123
21
-8833.819172
31
0
0
LINE
8
ASP_TMA_MARIBOR_1
10
12889.239123
20
-8833.819172
30
0
11
17866.268766
21
-5405.308934
31
0
0
LINE
8
ASP_TMA_MARIBOR_1
10
17866.268766
20
-5405.308934
30
0
11
29309.183075
21
-12416.766809
31
0
0
LINE
8
ASP_TMA_MARIBOR_1
10
29309.183075
20
-12416.766809
30
0
11
29734.570224
21
-14270.015586
31
0
0
LINE
8
ASP_TMA_MARIBOR_1
10
29734.570224
20
-14270.015586
30
0
11
26374.011746
21
-16432.13916
31
0
0
LINE
8
ASP_TMA_MARIBOR_1
10
26374.011746
20
-16432.13916
30
0
11
24268.345359
21
-19366.449724
31
0
0
LINE
8
ASP_TMA_MARIBOR_1
10
24268.345359
20
-19366.449724
30
0
11
20950.325597
21
-19737.099479
31
0
0
LINE
8
ASP_TMA_MARIBOR_1
10
20950.325597
20
-19737.099479
30
0
11
17249.4574
21
-21157.923542
31
0
0
LINE
8
ASP_TMA_MARIBOR_1
10
17249.4574
20
-21157.923542
30
0
11
13612.397276
21
-23134.722238
31
0
0
LINE
8
ASP_TMA_MARIBOR_1
10
13612.397276
20
-23134.722238
30
0
11
9315.987071
21
-23999.571667
31
0
0
LINE
8
ASP_TMA_MARIBOR_1
10
9315.987071
20
-23999.571667
30
0
11
8571.55956
21
-26933.882232
31
0
0
LINE
8
ASP_TMA_MARIBOR_1
10
8571.55956
20
-26933.882232
30
0
11
5849.081807
21
-30238.842551
31
0
0
LINE
8
ASP_TMA_MARIBOR_1
10
5849.081807
20
-30238.842551
30
0
11
3275.489555
21
-28910.680928
31
0
0
LINE
8
ASP_TMA_MARIBOR_1
10
3275.489555
20
-28910.680928
30
0
11
1382.516742
21
-28076.718978
31
0
0
TEXT
8
AIRSPACE_LABELS
10
13966.000344
20
-19526.678524
30
0
40
1520.076737
1
TMA MARIBOR 1
0
LINE
8
ASP_TMA_MARIBOR_2
10
26799.398895
20
20725.498827
30
0
11
27075.900542
21
20601.948909
31
0
0
LINE
8
ASP_TMA_MARIBOR_2
10
27075.900542
20
20601.948909
30
0
11
26948.284398
21
19582.662081
31
0
0
LINE
8
ASP_TMA_MARIBOR_2
10
26948.284398
20
19582.662081
30
0
11
25225.466444
21
20323.961592
31
0
0
LINE
8
ASP_TMA_MARIBOR_2
10
25225.466444
20
20323.961592
30
0
11
24587.385721
21
20910.823705
31
0
0
LINE
8
ASP_TMA_MARIBOR_2
10
24587.385721
20
20910.823705
30
0
11
24076.921142
21
22146.32289
31
0
0
LINE
8
ASP_TMA_MARIBOR_2
10
24076.921142
20
22146.32289
30
0
11
22779.490337
21
22733.185003
31
0
0
LINE
8
ASP_TMA_MARIBOR_2
10
22779.490337
20
22733.185003
30
0
11
20035.743226
21
23196.497197
31
0
0
LINE
8
ASP_TMA_MARIBOR_2
10
20035.743226
20
23196.497197
30
0
11
17844.999409
21
25173.295893
31
0
0
LINE
8
ASP_TMA_MARIBOR_2
10
17844.999409
20
25173.295893
30
0
11
16696.454106
21
25791.045486
31
0
0
LINE
8
ASP_TMA_MARIBOR_2
10
16696.454106
20
25791.045486
30
0
11
15781.871736
21
26007.257843
31
0
0
LINE
8
ASP_TMA_MARIBOR_2
10
15781.871736
20
26007.257843
30
0
11
14888.558723
21
26532.344997
31
0
0
LINE
8
ASP_TMA_MARIBOR_2
10
14888.558723
20
26532.344997
30
0
11
14356.824787
21
26717.669874
31
0
0
LINE
8
ASP_TMA_MARIBOR_2
10
14356.824787
20
26717.669874
30
0
11
13378.434344
21
26902.994752
31
0
0
LINE
8
ASP_TMA_MARIBOR_2
10
13378.434344
20
26902.994752
30
0
11
10358.185586
21
26686.782395
31
0
0
LINE
8
ASP_TMA_MARIBOR_2
10
10358.185586
20
26686.782395
30
0
11
8656.63699
21
26069.032802
31
0
0
LINE
8
ASP_TMA_MARIBOR_2
10
8656.63699
20
26069.032802
30
0
11
7720.785262
21
25296.845812
31
0
0
LINE
8
ASP_TMA_MARIBOR_2
10
7720.785262
20
25296.845812
30
0
11
6444.623815
21
24401.108903
31
0
0
LINE
8
ASP_TMA_MARIBOR_2
10
6444.623815
20
24401.108903
30
0
11
5912.889879
21
24370.221423
31
0
0
LINE
8
ASP_TMA_MARIBOR_2
10
5912.889879
20
24370.221423
30
0
11
5274.809155
21
24215.784025
31
0
0
LINE
8
ASP_TMA_MARIBOR_2
10
5274.809155
20
24215.784025
30
0
11
4360.226785
21
24431.996382
31
0
0
LINE
8
ASP_TMA_MARIBOR_2
10
4360.226785
20
24431.996382
30
0
11
2828.833049
21
23968.684188
31
0
0
LINE
8
ASP_TMA_MARIBOR_2
10
2828.833049
20
23968.684188
30
0
11
765.705376
21
24308.446464
31
0
0
LINE
8
ASP_TMA_MARIBOR_2
10
765.705376
20
24308.446464
30
0
11
-701.880288
21
25173.295893
31
0
0
LINE
8
ASP_TMA_MARIBOR_2
10
-701.880288
20
25173.295893
30
0
11
-1616.462658
21
25142.408414
31
0
0
LINE
8
ASP_TMA_MARIBOR_2
10
-1616.462658
20
25142.408414
30
0
11
-2786.277318
21
25080.633454
31
0
0
LINE
8
ASP_TMA_MARIBOR_2
10
-2786.277318
20
25080.633454
30
0
11
-2701.199888
21
24771.758658
31
0
0
LINE
8
ASP_TMA_MARIBOR_2
10
-2701.199888
20
24771.758658
30
0
11
-2467.236957
21
23628.921912
31
0
0
LINE
8
ASP_TMA_MARIBOR_2
10
-2467.236957
20
23628.921912
30
0
11
-2743.738603
21
23474.484514
31
0
0
LINE
8
ASP_TMA_MARIBOR_2
10
-2743.738603
20
23474.484514
30
0
11
-3296.741897
21
23381.822075
31
0
0
LINE
8
ASP_TMA_MARIBOR_2
10
-3296.741897
20
23381.822075
30
0
11
-3785.937118
21
23350.934595
31
0
0
LINE
8
ASP_TMA_MARIBOR_2
10
-3785.937118
20
23350.934595
30
0
11
-3977.361336
21
22918.509881
31
0
0
LINE
8
ASP_TMA_MARIBOR_2
10
-3977.361336
20
22918.509881
30
0
11
-4083.708123
21
22578.747605
31
0
0
LINE
8
ASP_TMA_MARIBOR_2
10
-4083.708123
20
22578.747605
30
0
11
-4062.438765
21
22424.310207
31
0
0
LINE
8
ASP_TMA_MARIBOR_2
10
-4062.438765
20
22424.310207
30
0
11
-3998.630693
21
22362.535247
31
0
0
LINE
8
ASP_TMA_MARIBOR_2
10
-3998.630693
20
22362.535247
30
0
11
-4104.97748
21
22393.422727
31
0
0
LINE
8
ASP_TMA_MARIBOR_2
10
-4104.97748
20
22393.422727
30
0
11
-4317.671055
21
22238.985329
31
0
0
LINE
8
ASP_TMA_MARIBOR_2
10
-4317.671055
20
22238.985329
30
0
11
-4849.404991
21
22177.21037
31
0
0
LINE
8
ASP_TMA_MARIBOR_2
10
-4849.404991
20
22177.21037
30
0
11
-4977.021136
21
22269.872809
31
0
0
LINE
8
ASP_TMA_MARIBOR_2
10
-4977.021136
20
22269.872809
30
0
11
-5083.367923
21
22208.097849
31
0
0
LINE
8
ASP_TMA_MARIBOR_2
10
-5083.367923
20
22208.097849
30
0
11
-5444.947
21
22486.085166
31
0
0
LINE
8
ASP_TMA_MARIBOR_2
10
-5444.947
20
22486.085166
30
0
11
-5551.293787
21
22455.197686
31
0
0
LINE
8
ASP_TMA_MARIBOR_2
10
-5551.293787
20
22455.197686
30
0
11
-5721.448646
21
22547.860125
31
0
0
LINE
8
ASP_TMA_MARIBOR_2
10
-5721.448646
20
22547.860125
30
0
11
-5721.448646
21
22455.197686
31
0
0
LINE
8
ASP_TMA_MARIBOR_2
10
-5721.448646
20
22455.197686
30
0
11
-5785.256719
21
22455.197686
31
0
0
LINE
8
ASP_TMA_MARIBOR_2
10
-5785.256719
20
22455.197686
30
0
11
-6189.37451
21
22362.535247
31
0
0
LINE
8
ASP_TMA_MARIBOR_2
10
-6189.37451
20
22362.535247
30
0
11
-6231.913225
21
22671.410044
31
0
0
LINE
8
ASP_TMA_MARIBOR_2
10
-6231.913225
20
22671.410044
30
0
11
-6168.105153
21
22825.847442
31
0
0
LINE
8
ASP_TMA_MARIBOR_2
10
-6168.105153
20
22825.847442
30
0
11
-6189.37451
21
23011.172319
31
0
0
LINE
8
ASP_TMA_MARIBOR_2
10
-6189.37451
20
23011.172319
30
0
11
-5955.411578
21
23072.947279
31
0
0
LINE
8
ASP_TMA_MARIBOR_2
10
-5955.411578
20
23072.947279
30
0
11
-6295.721298
21
23134.722238
31
0
0
LINE
8
ASP_TMA_MARIBOR_2
10
-6295.721298
20
23134.722238
30
0
11
-6593.492302
21
23350.934595
31
0
0
LINE
8
ASP_TMA_MARIBOR_2
10
-6593.492302
20
23350.934595
30
0
11
-6976.340736
21
23320.047116
31
0
0
LINE
8
ASP_TMA_MARIBOR_2
10
-6976.340736
20
23320.047116
30
0
11
-7380.458528
21
22887.622401
31
0
0
LINE
8
ASP_TMA_MARIBOR_2
10
-7380.458528
20
22887.622401
30
0
11
-7316.650455
21
22671.410044
31
0
0
LINE
8
ASP_TMA_MARIBOR_2
10
-7316.650455
20
22671.410044
30
0
11
-7550.613387
21
22640.522564
31
0
0
LINE
8
ASP_TMA_MARIBOR_2
10
-7550.613387
20
22640.522564
30
0
11
-7699.498889
21
22671.410044
31
0
0
LINE
8
ASP_TMA_MARIBOR_2
10
-7699.498889
20
22671.410044
30
0
11
-7805.845677
21
22578.747605
31
0
0
LINE
8
ASP_TMA_MARIBOR_2
10
-7805.845677
20
22578.747605
30
0
11
-8018.539251
21
22486.085166
31
0
0
LINE
8
ASP_TMA_MARIBOR_2
10
-8018.539251
20
22486.085166
30
0
11
-8209.963468
21
22609.635084
31
0
0
LINE
8
ASP_TMA_MARIBOR_2
10
-8209.963468
20
22609.635084
30
0
11
-8273.771541
21
22331.647768
31
0
0
LINE
8
ASP_TMA_MARIBOR_2
10
-8273.771541
20
22331.647768
30
0
11
-8550.273187
21
22393.422727
31
0
0
LINE
8
ASP_TMA_MARIBOR_2
10
-8550.273187
20
22393.422727
30
0
11
-8720.428047
21
22269.872809
31
0
0
LINE
8
ASP_TMA_MARIBOR_2
10
-8720.428047
20
22269.872809
30
0
11
-8933.121621
21
22208.097849
31
0
0
LINE
8
ASP_TMA_MARIBOR_2
10
-8933.121621
20
22208.097849
30
0
11
-9103.276481
21
21713.898175
31
0
0
LINE
8
ASP_TMA_MARIBOR_2
10
-9103.276481
20
21713.898175
30
0
11
-9677.549132
21
21497.685818
31
0
0
LINE
8
ASP_TMA_MARIBOR_2
10
-9677.549132
20
21497.685818
30
0
11
-9826.434634
21
21219.698501
31
0
0
LINE
8
ASP_TMA_MARIBOR_2
10
-9826.434634
20
21219.698501
30
0
11
-10060.397566
21
21374.135899
31
0
0
LINE
8
ASP_TMA_MARIBOR_2
10
-10060.397566
20
21374.135899
30
0
11
-10188.013711
21
21405.023379
31
0
0
LINE
8
ASP_TMA_MARIBOR_2
10
-10188.013711
20
21405.023379
30
0
11
-10145.474996
21
21343.24842
31
0
0
LINE
8
ASP_TMA_MARIBOR_2
10
-10145.474996
20
21343.24842
30
0
11
-10294.360498
21
21312.36094
31
0
0
LINE
8
ASP_TMA_MARIBOR_2
10
-10294.360498
20
21312.36094
30
0
11
-10358.168571
21
21405.023379
31
0
0
LINE
8
ASP_TMA_MARIBOR_2
10
-10358.168571
20
21405.023379
30
0
11
-10507.054073
21
21281.473461
31
0
0
LINE
8
ASP_TMA_MARIBOR_2
10
-10507.054073
20
21281.473461
30
0
11
-10655.939575
21
21034.373624
31
0
0
LINE
8
ASP_TMA_MARIBOR_2
10
-10655.939575
20
21034.373624
30
0
11
-10911.171864
21
21034.373624
31
0
0
LINE
8
ASP_TMA_MARIBOR_2
10
-10911.171864
20
21034.373624
30
0
11
-10741.017005
21
20849.048746
31
0
0
LINE
8
ASP_TMA_MARIBOR_2
10
-10741.017005
20
20849.048746
30
0
11
-10677.208932
21
20756.386307
31
0
0
LINE
8
ASP_TMA_MARIBOR_2
10
-10677.208932
20
20756.386307
30
0
11
-10741.017005
21
20540.17395
31
0
0
LINE
8
ASP_TMA_MARIBOR_2
10
-10741.017005
20
20540.17395
30
0
11
-10549.592788
21
19860.649398
31
0
0
LINE
8
ASP_TMA_MARIBOR_2
10
-10549.592788
20
19860.649398
30
0
11
-10379.437928
21
19582.662081
31
0
0
LINE
8
ASP_TMA_MARIBOR_2
10
-10379.437928
20
19582.662081
30
0
11
-10315.629856
21
19459.112163
31
0
0
LINE
8
ASP_TMA_MARIBOR_2
10
-10315.629856
20
19459.112163
30
0
11
-10209.283069
21
19212.012326
31
0
0
LINE
8
ASP_TMA_MARIBOR_2
10
-10209.283069
20
19212.012326
30
0
11
-10166.744354
21
19026.687448
31
0
0
LINE
8
ASP_TMA_MARIBOR_2
10
-10166.744354
20
19026.687448
30
0
11
-10251.821783
21
18748.700131
31
0
0
LINE
8
ASP_TMA_MARIBOR_2
10
-10251.821783
20
18748.700131
30
0
11
-10677.208932
21
18748.700131
31
0
0
LINE
8
ASP_TMA_MARIBOR_2
10
-10677.208932
20
18748.700131
30
0
11
-10889.902507
21
18439.825335
31
0
0
LINE
8
ASP_TMA_MARIBOR_2
10
-10889.902507
20
18439.825335
30
0
11
-10847.363792
21
18161.838019
31
0
0
LINE
8
ASP_TMA_MARIBOR_2
10
-10847.363792
20
18161.838019
30
0
11
-10634.670218
21
18007.40062
31
0
0
LINE
8
ASP_TMA_MARIBOR_2
10
-10634.670218
20
18007.40062
30
0
11
-10528.32343
21
17513.200947
31
0
0
LINE
8
ASP_TMA_MARIBOR_2
10
-10528.32343
20
17513.200947
30
0
11
-10804.825077
21
17173.438671
31
0
0
LINE
8
ASP_TMA_MARIBOR_2
10
-10804.825077
20
17173.438671
30
0
11
-10889.902507
21
16895.451354
31
0
0
LINE
8
ASP_TMA_MARIBOR_2
10
-10889.902507
20
16895.451354
30
0
11
-11102.596081
21
17019.001273
31
0
0
LINE
8
ASP_TMA_MARIBOR_2
10
-11102.596081
20
17019.001273
30
0
11
-11294.020298
21
17142.551191
31
0
0
LINE
8
ASP_TMA_MARIBOR_2
10
-11294.020298
20
17142.551191
30
0
11
-11421.636443
21
17111.663711
31
0
0
LINE
8
ASP_TMA_MARIBOR_2
10
-11421.636443
20
17111.663711
30
0
11
-11655.599375
21
16926.338834
31
0
0
LINE
8
ASP_TMA_MARIBOR_2
10
-11655.599375
20
16926.338834
30
0
11
-11804.484877
21
16802.788915
31
0
0
LINE
8
ASP_TMA_MARIBOR_2
10
-11804.484877
20
16802.788915
30
0
11
-11953.370379
21
16679.238997
31
0
0
LINE
8
ASP_TMA_MARIBOR_2
10
-11953.370379
20
16679.238997
30
0
11
-12017.178452
21
16463.026639
31
0
0
LINE
8
ASP_TMA_MARIBOR_2
10
-12017.178452
20
16463.026639
30
0
11
-12208.602669
21
16339.476721
31
0
0
LINE
8
ASP_TMA_MARIBOR_2
10
-12208.602669
20
16339.476721
30
0
11
-12506.373673
21
15937.939486
31
0
0
LINE
8
ASP_TMA_MARIBOR_2
10
-12506.373673
20
15937.939486
30
0
11
-12804.144677
21
15752.614608
31
0
0
LINE
8
ASP_TMA_MARIBOR_2
10
-12804.144677
20
15752.614608
30
0
11
-13016.838252
21
15907.052006
31
0
0
LINE
8
ASP_TMA_MARIBOR_2
10
-13016.838252
20
15907.052006
30
0
11
-13357.147971
21
15783.502088
31
0
0
LINE
8
ASP_TMA_MARIBOR_2
10
-13357.147971
20
15783.502088
30
0
11
-13357.147971
21
15443.739812
31
0
0
LINE
8
ASP_TMA_MARIBOR_2
10
-13357.147971
20
15443.739812
30
0
11
-13335.878614
21
15227.527454
31
0
0
LINE
8
ASP_TMA_MARIBOR_2
10
-13335.878614
20
15227.527454
30
0
11
-13654.918975
21
15134.865016
31
0
0
LINE
8
ASP_TMA_MARIBOR_2
10
-13654.918975
20
15134.865016
30
0
11
-13846.343193
21
15134.865016
31
0
0
LINE
8
ASP_TMA_MARIBOR_2
10
-13846.343193
20
15134.865016
30
0
11
-13952.68998
21
15042.202577
31
0
0
LINE
8
ASP_TMA_MARIBOR_2
10
-13952.68998
20
15042.202577
30
0
11
-14037.76741
21
14918.652658
31
0
0
LINE
8
ASP_TMA_MARIBOR_2
10
-14037.76741
20
14918.652658
30
0
11
-14229.191627
21
15134.865016
31
0
0
LINE
8
ASP_TMA_MARIBOR_2
10
-14229.191627
20
15134.865016
30
0
11
-14229.191627
21
15165.752495
31
0
0
LINE
8
ASP_TMA_MARIBOR_2
10
-14229.191627
20
15165.752495
30
0
11
-14207.922269
21
15289.302414
31
0
0
LINE
8
ASP_TMA_MARIBOR_2
10
-14207.922269
20
15289.302414
30
0
11
-14378.077129
21
15443.739812
31
0
0
LINE
8
ASP_TMA_MARIBOR_2
10
-14378.077129
20
15443.739812
30
0
11
-14612.040061
21
15474.627291
31
0
0
LINE
8
ASP_TMA_MARIBOR_2
10
-14612.040061
20
15474.627291
30
0
11
-14760.925563
21
15598.17721
31
0
0
LINE
8
ASP_TMA_MARIBOR_2
10
-14760.925563
20
15598.17721
30
0
11
-15207.582069
21
15567.28973
31
0
0
LINE
8
ASP_TMA_MARIBOR_2
10
-15207.582069
20
15567.28973
30
0
11
-15377.736929
21
15505.514771
31
0
0
LINE
8
ASP_TMA_MARIBOR_2
10
-15377.736929
20
15505.514771
30
0
11
-15611.699861
21
15134.865016
31
0
0
LINE
8
ASP_TMA_MARIBOR_2
10
-15611.699861
20
15134.865016
30
0
11
-16185.972512
21
14671.552821
31
0
0
LINE
8
ASP_TMA_MARIBOR_2
10
-16185.972512
20
14671.552821
30
0
11
-16292.319299
21
14671.552821
31
0
0
LINE
8
ASP_TMA_MARIBOR_2
10
-16292.319299
20
14671.552821
30
0
11
-16526.282231
21
14825.990219
31
0
0
LINE
8
ASP_TMA_MARIBOR_2
10
-16526.282231
20
14825.990219
30
0
11
-16717.706448
21
14887.765179
31
0
0
LINE
8
ASP_TMA_MARIBOR_2
10
-16717.706448
20
14887.765179
30
0
11
-16696.437091
21
14918.652658
31
0
0
LINE
8
ASP_TMA_MARIBOR_2
10
-16696.437091
20
14918.652658
30
0
11
-20950.308581
21
-13188.953799
31
0
0
LINE
8
ASP_TMA_MARIBOR_2
10
-20950.308581
20
-13188.953799
30
0
11
-13293.339899
21
-19582.662081
31
0
0
LINE
8
ASP_TMA_MARIBOR_2
10
-13293.339899
20
-19582.662081
30
0
11
-2509.775671
21
-28570.918652
31
0
0
LINE
8
ASP_TMA_MARIBOR_2
10
-2509.775671
20
-28570.918652
30
0
11
-3466.896757
21
-30424.167429
31
0
0
LINE
8
ASP_TMA_MARIBOR_2
10
-3466.896757
20
-30424.167429
30
0
11
-659.341573
21
-27922.28158
31
0
0
LINE
8
ASP_TMA_MARIBOR_2
10
-659.341573
20
-27922.28158
30
0
11
3275.489555
21
-28910.680928
31
0
0
LINE
8
ASP_TMA_MARIBOR_2
10
3275.489555
20
-28910.680928
30
0
11
1382.516742
21
-28076.718978
31
0
0
LINE
8
ASP_TMA_MARIBOR_2
10
1382.516742
20
-28076.718978
30
0
11
-2424.698242
21
-19397.337204
31
0
0
LINE
8
ASP_TMA_MARIBOR_2
10
-2424.698242
20
-19397.337204
30
0
11
5232.270441
21
-14115.578188
31
0
0
LINE
8
ASP_TMA_MARIBOR_2
10
5232.270441
20
-14115.578188
30
0
11
12889.239123
21
-8833.819172
31
0
0
LINE
8
ASP_TMA_MARIBOR_2
10
12889.239123
20
-8833.819172
30
0
11
17866.268766
21
-5405.308934
31
0
0
LINE
8
ASP_TMA_MARIBOR_2
10
17866.268766
20
-5405.308934
30
0
11
29309.183075
21
-12416.766809
31
0
0
LINE
8
ASP_TMA_MARIBOR_2
10
29309.183075
20
-12416.766809
30
0
11
29734.570224
21
-14270.015586
31
0
0
LINE
8
ASP_TMA_MARIBOR_2
10
29734.570224
20
-14270.015586
30
0
11
27926.67484
21
-10995.942746
31
0
0
LINE
8
ASP_TMA_MARIBOR_2
10
27926.67484
20
-10995.942746
30
0
11
29160.297572
21
-9606.006163
31
0
0
LINE
8
ASP_TMA_MARIBOR_2
10
29160.297572
20
-9606.006163
30
0
11
32308.162475
21
-10594.405511
31
0
0
LINE
8
ASP_TMA_MARIBOR_2
10
32308.162475
20
-10594.405511
30
0
11
35817.606454
21
-8710.269254
31
0
0
LINE
8
ASP_TMA_MARIBOR_2
10
35817.606454
20
-8710.269254
30
0
11
39305.781076
21
-10748.842909
31
0
0
LINE
8
ASP_TMA_MARIBOR_2
10
39305.781076
20
-10748.842909
30
0
11
43432.036422
21
-10687.06795
31
0
0
LINE
8
ASP_TMA_MARIBOR_2
10
43432.036422
20
-10687.06795
30
0
11
46771.325541
21
-10563.518031
31
0
0
LINE
8
ASP_TMA_MARIBOR_2
10
46771.325541
20
-10563.518031
30
0
11
45325.009235
21
-6887.907956
31
0
0
LINE
8
ASP_TMA_MARIBOR_2
10
45325.009235
20
-6887.907956
30
0
11
43942.501001
21
-2965.198044
31
0
0
LINE
8
ASP_TMA_MARIBOR_2
10
43942.501001
20
-2965.198044
30
0
11
42517.454051
21
957.511868
31
0
0
LINE
8
ASP_TMA_MARIBOR_2
10
42517.454051
20
957.511868
30
0
11
45197.39309
21
3428.510238
31
0
0
LINE
8
ASP_TMA_MARIBOR_2
10
45197.39309
20
3428.510238
30
0
11
44580.581724
21
3984.484871
31
0
0
LINE
8
ASP_TMA_MARIBOR_2
10
44580.581724
20
3984.484871
30
0
11
26799.398895
21
20725.498827
31
0
0
TEXT
8
AIRSPACE_LABELS
10
-505.138732
20
14896.739244
30
0
40
1520.076737
1
TMA MARIBOR 2
0
LINE
8
ASP_TMA_MARIBOR_2_01
10
26799.398895
20
20725.498827
30
0
11
34456.367578
21
13528.716075
31
0
0
LINE
8
ASP_TMA_MARIBOR_2_01
10
34456.367578
20
13528.716075
30
0
11
44580.581724
21
3984.484871
31
0
0
LINE
8
ASP_TMA_MARIBOR_2_01
10
44580.581724
20
3984.484871
30
0
11
45197.39309
21
3428.510238
31
0
0
LINE
8
ASP_TMA_MARIBOR_2_01
10
45197.39309
20
3428.510238
30
0
11
50557.271168
21
6702.583078
31
0
0
LINE
8
ASP_TMA_MARIBOR_2_01
10
50557.271168
20
6702.583078
30
0
11
52024.856832
21
8216.06958
31
0
0
LINE
8
ASP_TMA_MARIBOR_2_01
10
52024.856832
20
8216.06958
30
0
11
53726.405428
21
6857.020476
31
0
0
LINE
8
ASP_TMA_MARIBOR_2_01
10
53726.405428
20
6857.020476
30
0
11
60830.370816
21
3119.635442
31
0
0
LINE
8
ASP_TMA_MARIBOR_2_01
10
60830.370816
20
3119.635442
30
0
11
63425.232425
21
833.96195
31
0
0
LINE
8
ASP_TMA_MARIBOR_2_01
10
63425.232425
20
833.96195
30
0
11
66913.407047
21
-803.07447
31
0
0
LINE
8
ASP_TMA_MARIBOR_2_01
10
66913.407047
20
-803.07447
30
0
11
66892.13769
21
401.537235
31
0
0
LINE
8
ASP_TMA_MARIBOR_2_01
10
66892.13769
20
401.537235
30
0
11
66190.248894
21
1050.174307
31
0
0
LINE
8
ASP_TMA_MARIBOR_2_01
10
66190.248894
20
1050.174307
30
0
11
64977.895519
21
1945.911216
31
0
0
LINE
8
ASP_TMA_MARIBOR_2_01
10
64977.895519
20
1945.911216
30
0
11
64977.895519
21
3026.973003
31
0
0
LINE
8
ASP_TMA_MARIBOR_2_01
10
64977.895519
20
3026.973003
30
0
11
64935.356804
21
3582.947636
31
0
0
LINE
8
ASP_TMA_MARIBOR_2_01
10
64935.356804
20
3582.947636
30
0
11
64254.737366
21
4602.234464
31
0
0
LINE
8
ASP_TMA_MARIBOR_2_01
10
64254.737366
20
4602.234464
30
0
11
63829.350217
21
6177.495925
31
0
0
LINE
8
ASP_TMA_MARIBOR_2_01
10
63829.350217
20
6177.495925
30
0
11
63680.464715
21
7721.869906
31
0
0
LINE
8
ASP_TMA_MARIBOR_2_01
10
63680.464715
20
7721.869906
30
0
11
61617.337042
21
8988.25657
31
0
0
LINE
8
ASP_TMA_MARIBOR_2_01
10
61617.337042
20
8988.25657
30
0
11
60660.215957
21
11026.830226
31
0
0
LINE
8
ASP_TMA_MARIBOR_2_01
10
60660.215957
20
11026.830226
30
0
11
58979.936718
21
12756.529085
31
0
0
LINE
8
ASP_TMA_MARIBOR_2_01
10
58979.936718
20
12756.529085
30
0
11
58022.815633
21
13961.14079
31
0
0
LINE
8
ASP_TMA_MARIBOR_2_01
10
58022.815633
20
13961.14079
30
0
11
56640.307398
21
14825.990219
31
0
0
LINE
8
ASP_TMA_MARIBOR_2_01
10
56640.307398
20
14825.990219
30
0
11
55534.300811
21
16401.25168
31
0
0
LINE
8
ASP_TMA_MARIBOR_2_01
10
55534.300811
20
16401.25168
30
0
11
54066.715147
21
16771.901436
31
0
0
LINE
8
ASP_TMA_MARIBOR_2_01
10
54066.715147
20
16771.901436
30
0
11
53896.560287
21
19026.687448
31
0
0
LINE
8
ASP_TMA_MARIBOR_2_01
10
53896.560287
20
19026.687448
30
0
11
54385.755509
21
19984.199316
31
0
0
LINE
8
ASP_TMA_MARIBOR_2_01
10
54385.755509
20
19984.199316
30
0
11
55683.186313
21
19737.099479
31
0
0
LINE
8
ASP_TMA_MARIBOR_2_01
10
55683.186313
20
19737.099479
30
0
11
56087.304105
21
21281.473461
31
0
0
LINE
8
ASP_TMA_MARIBOR_2_01
10
56087.304105
20
21281.473461
30
0
11
56321.267037
21
22949.39736
31
0
0
LINE
8
ASP_TMA_MARIBOR_2_01
10
56321.267037
20
22949.39736
30
0
11
55513.031454
21
23845.134269
31
0
0
LINE
8
ASP_TMA_MARIBOR_2_01
10
55513.031454
20
23845.134269
30
0
11
52577.860125
21
24246.671504
31
0
0
LINE
8
ASP_TMA_MARIBOR_2_01
10
52577.860125
20
24246.671504
30
0
11
52875.63113
21
25729.270526
31
0
0
LINE
8
ASP_TMA_MARIBOR_2_01
10
52875.63113
20
25729.270526
30
0
11
51408.045466
21
26007.257843
31
0
0
LINE
8
ASP_TMA_MARIBOR_2_01
10
51408.045466
20
26007.257843
30
0
11
50791.2341
21
26408.795078
31
0
0
LINE
8
ASP_TMA_MARIBOR_2_01
10
50791.2341
20
26408.795078
30
0
11
49536.34201
21
29034.230846
31
0
0
LINE
8
ASP_TMA_MARIBOR_2_01
10
49536.34201
20
29034.230846
30
0
11
48600.490282
21
30455.054909
31
0
0
LINE
8
ASP_TMA_MARIBOR_2_01
10
48600.490282
20
30455.054909
30
0
11
49153.493576
21
32122.978808
31
0
0
LINE
8
ASP_TMA_MARIBOR_2_01
10
49153.493576
20
32122.978808
30
0
11
48090.025703
21
32926.053279
31
0
0
LINE
8
ASP_TMA_MARIBOR_2_01
10
48090.025703
20
32926.053279
30
0
11
48153.833776
21
35026.401893
31
0
0
LINE
8
ASP_TMA_MARIBOR_2_01
10
48153.833776
20
35026.401893
30
0
11
49919.190444
21
36231.013598
31
0
0
LINE
8
ASP_TMA_MARIBOR_2_01
10
49919.190444
20
36231.013598
30
0
11
49897.921087
21
37373.850344
31
0
0
LINE
8
ASP_TMA_MARIBOR_2_01
10
49897.921087
20
37373.850344
30
0
11
50302.038878
21
38578.46205
31
0
0
LINE
8
ASP_TMA_MARIBOR_2_01
10
50302.038878
20
38578.46205
30
0
11
50365.846951
21
39721.298796
31
0
0
LINE
8
ASP_TMA_MARIBOR_2_01
10
50365.846951
20
39721.298796
30
0
11
49089.685504
21
40864.135542
31
0
0
LINE
8
ASP_TMA_MARIBOR_2_01
10
49089.685504
20
40864.135542
30
0
11
48111.295061
21
42037.859768
31
0
0
LINE
8
ASP_TMA_MARIBOR_2_01
10
48111.295061
20
42037.859768
30
0
11
46388.477107
21
43366.021391
31
0
0
LINE
8
ASP_TMA_MARIBOR_2_01
10
46388.477107
20
43366.021391
30
0
11
43793.615498
21
43921.996025
31
0
0
LINE
8
ASP_TMA_MARIBOR_2_01
10
43793.615498
20
43921.996025
30
0
11
41985.720115
21
44261.7583
31
0
0
LINE
8
ASP_TMA_MARIBOR_2_01
10
41985.720115
20
44261.7583
30
0
11
38752.777783
21
43211.583993
31
0
0
LINE
8
ASP_TMA_MARIBOR_2_01
10
38752.777783
20
43211.583993
30
0
11
36349.340391
21
42254.072125
31
0
0
LINE
8
ASP_TMA_MARIBOR_2_01
10
36349.340391
20
42254.072125
30
0
11
34669.061152
21
41852.53489
31
0
0
LINE
8
ASP_TMA_MARIBOR_2_01
10
34669.061152
20
41852.53489
30
0
11
33477.977135
21
42408.509523
31
0
0
LINE
8
ASP_TMA_MARIBOR_2_01
10
33477.977135
20
42408.509523
30
0
11
32733.549624
21
43242.471473
31
0
0
LINE
8
ASP_TMA_MARIBOR_2_01
10
32733.549624
20
43242.471473
30
0
11
33052.589986
21
43242.471473
31
0
0
LINE
8
ASP_TMA_MARIBOR_2_01
10
33052.589986
20
43242.471473
30
0
11
32605.933479
21
43273.358953
31
0
0
LINE
8
ASP_TMA_MARIBOR_2_01
10
32605.933479
20
43273.358953
30
0
11
32223.085045
21
42933.596677
31
0
0
LINE
8
ASP_TMA_MARIBOR_2_01
10
32223.085045
20
42933.596677
30
0
11
31755.159181
21
42532.059442
31
0
0
LINE
8
ASP_TMA_MARIBOR_2_01
10
31755.159181
20
42532.059442
30
0
11
31563.734964
21
42284.959605
31
0
0
LINE
8
ASP_TMA_MARIBOR_2_01
10
31563.734964
20
42284.959605
30
0
11
31053.270385
21
42748.271799
31
0
0
LINE
8
ASP_TMA_MARIBOR_2_01
10
31053.270385
20
42748.271799
30
0
11
30712.960666
21
42130.522206
31
0
0
LINE
8
ASP_TMA_MARIBOR_2_01
10
30712.960666
20
42130.522206
30
0
11
30308.842875
21
41790.759931
31
0
0
LINE
8
ASP_TMA_MARIBOR_2_01
10
30308.842875
20
41790.759931
30
0
11
29862.186368
21
41481.885134
31
0
0
LINE
8
ASP_TMA_MARIBOR_2_01
10
29862.186368
20
41481.885134
30
0
11
29500.607292
21
41481.885134
31
0
0
LINE
8
ASP_TMA_MARIBOR_2_01
10
29500.607292
20
41481.885134
30
0
11
29224.105645
21
41142.122858
31
0
0
LINE
8
ASP_TMA_MARIBOR_2_01
10
29224.105645
20
41142.122858
30
0
11
29075.220143
21
40678.810664
31
0
0
LINE
8
ASP_TMA_MARIBOR_2_01
10
29075.220143
20
40678.810664
30
0
11
28564.755564
21
39937.511153
31
0
0
LINE
8
ASP_TMA_MARIBOR_2_01
10
28564.755564
20
39937.511153
30
0
11
28203.176487
21
40061.061072
31
0
0
LINE
8
ASP_TMA_MARIBOR_2_01
10
28203.176487
20
40061.061072
30
0
11
27926.67484
21
39721.298796
31
0
0
LINE
8
ASP_TMA_MARIBOR_2_01
10
27926.67484
20
39721.298796
30
0
11
27480.018334
21
39906.623674
31
0
0
LINE
8
ASP_TMA_MARIBOR_2_01
10
27480.018334
20
39906.623674
30
0
11
27352.402189
21
40091.948551
31
0
0
LINE
8
ASP_TMA_MARIBOR_2_01
10
27352.402189
20
40091.948551
30
0
11
27075.900542
21
39597.748877
31
0
0
LINE
8
ASP_TMA_MARIBOR_2_01
10
27075.900542
20
39597.748877
30
0
11
26820.668253
21
39443.311479
31
0
0
LINE
8
ASP_TMA_MARIBOR_2_01
10
26820.668253
20
39443.311479
30
0
11
26735.590823
21
39350.64904
31
0
0
LINE
8
ASP_TMA_MARIBOR_2_01
10
26735.590823
20
39350.64904
30
0
11
26501.627891
21
39443.311479
31
0
0
LINE
8
ASP_TMA_MARIBOR_2_01
10
26501.627891
20
39443.311479
30
0
11
26288.934317
21
40061.061072
31
0
0
LINE
8
ASP_TMA_MARIBOR_2_01
10
26288.934317
20
40061.061072
30
0
11
26076.240742
21
40030.173592
31
0
0
LINE
8
ASP_TMA_MARIBOR_2_01
10
26076.240742
20
40030.173592
30
0
11
25799.739095
21
39844.848714
31
0
0
LINE
8
ASP_TMA_MARIBOR_2_01
10
25799.739095
20
39844.848714
30
0
11
25416.890661
21
39597.748877
31
0
0
LINE
8
ASP_TMA_MARIBOR_2_01
10
25416.890661
20
39597.748877
30
0
11
24970.234155
21
39474.198959
31
0
0
LINE
8
ASP_TMA_MARIBOR_2_01
10
24970.234155
20
39474.198959
30
0
11
24672.46315
21
39103.549203
31
0
0
LINE
8
ASP_TMA_MARIBOR_2_01
10
24672.46315
20
39103.549203
30
0
11
24140.729214
21
39072.661724
31
0
0
LINE
8
ASP_TMA_MARIBOR_2_01
10
24140.729214
20
39072.661724
30
0
11
23438.840418
21
39257.986601
31
0
0
LINE
8
ASP_TMA_MARIBOR_2_01
10
23438.840418
20
39257.986601
30
0
11
23332.493631
21
39134.436683
31
0
0
LINE
8
ASP_TMA_MARIBOR_2_01
10
23332.493631
20
39134.436683
30
0
11
23226.146844
21
38856.449366
31
0
0
LINE
8
ASP_TMA_MARIBOR_2_01
10
23226.146844
20
38856.449366
30
0
11
22992.183912
21
38454.912131
31
0
0
LINE
8
ASP_TMA_MARIBOR_2_01
10
22992.183912
20
38454.912131
30
0
11
23417.571061
21
37466.512783
31
0
0
LINE
8
ASP_TMA_MARIBOR_2_01
10
23417.571061
20
37466.512783
30
0
11
23842.95821
21
36817.875711
31
0
0
LINE
8
ASP_TMA_MARIBOR_2_01
10
23842.95821
20
36817.875711
30
0
11
23842.95821
21
36478.113435
31
0
0
LINE
8
ASP_TMA_MARIBOR_2_01
10
23842.95821
20
36478.113435
30
0
11
23438.840418
21
35798.588884
31
0
0
LINE
8
ASP_TMA_MARIBOR_2_01
10
23438.840418
20
35798.588884
30
0
11
23502.648491
21
34192.439943
31
0
0
LINE
8
ASP_TMA_MARIBOR_2_01
10
23502.648491
20
34192.439943
30
0
11
23289.954916
21
32524.516044
31
0
0
LINE
8
ASP_TMA_MARIBOR_2_01
10
23289.954916
20
32524.516044
30
0
11
23141.069414
21
31165.46694
31
0
0
LINE
8
ASP_TMA_MARIBOR_2_01
10
23141.069414
20
31165.46694
30
0
11
22864.567767
21
30269.730031
31
0
0
LINE
8
ASP_TMA_MARIBOR_2_01
10
22864.567767
20
30269.730031
30
0
11
23034.722627
21
29682.867918
31
0
0
LINE
8
ASP_TMA_MARIBOR_2_01
10
23034.722627
20
29682.867918
30
0
11
23119.800056
21
29003.343366
31
0
0
LINE
8
ASP_TMA_MARIBOR_2_01
10
23119.800056
20
29003.343366
30
0
11
23417.571061
21
28323.818815
31
0
0
LINE
8
ASP_TMA_MARIBOR_2_01
10
23417.571061
20
28323.818815
30
0
11
23715.342065
21
27798.731661
31
0
0
LINE
8
ASP_TMA_MARIBOR_2_01
10
23715.342065
20
27798.731661
30
0
11
23970.574354
21
27366.306946
31
0
0
LINE
8
ASP_TMA_MARIBOR_2_01
10
23970.574354
20
27366.306946
30
0
11
24161.998572
21
26625.007435
31
0
0
LINE
8
ASP_TMA_MARIBOR_2_01
10
24161.998572
20
26625.007435
30
0
11
24651.193793
21
26223.4702
31
0
0
LINE
8
ASP_TMA_MARIBOR_2_01
10
24651.193793
20
26223.4702
30
0
11
25289.274516
21
26223.4702
31
0
0
LINE
8
ASP_TMA_MARIBOR_2_01
10
25289.274516
20
26223.4702
30
0
11
26203.856887
21
25821.932965
31
0
0
LINE
8
ASP_TMA_MARIBOR_2_01
10
26203.856887
20
25821.932965
30
0
11
26310.203674
21
25729.270526
31
0
0
LINE
8
ASP_TMA_MARIBOR_2_01
10
26310.203674
20
25729.270526
30
0
11
26118.779457
21
25049.745975
31
0
0
LINE
8
ASP_TMA_MARIBOR_2_01
10
26118.779457
20
25049.745975
30
0
11
26310.203674
21
24740.871178
31
0
0
LINE
8
ASP_TMA_MARIBOR_2_01
10
26310.203674
20
24740.871178
30
0
11
26671.782751
21
24123.121586
31
0
0
LINE
8
ASP_TMA_MARIBOR_2_01
10
26671.782751
20
24123.121586
30
0
11
26820.668253
21
23906.909229
31
0
0
LINE
8
ASP_TMA_MARIBOR_2_01
10
26820.668253
20
23906.909229
30
0
11
27012.09247
21
21343.24842
31
0
0
LINE
8
ASP_TMA_MARIBOR_2_01
10
27012.09247
20
21343.24842
30
0
11
27075.900542
21
20601.948909
31
0
0
LINE
8
ASP_TMA_MARIBOR_2_01
10
27075.900542
20
20601.948909
30
0
11
26799.398895
21
20725.498827
31
0
0
TEXT
8
AIRSPACE_LABELS
10
39016.904531
20
28558.002069
30
0
40
1520.076737
1
TMA MARIBOR 2
0
LINE
8
ASP_TMA_MURA
10
-15399.006286
20
15505.514771
30
0
11
-12676.528533
21
6177.495925
31
0
0
LINE
8
ASP_TMA_MURA
10
-12676.528533
20
6177.495925
30
0
11
-5019.559851
21
-1081.061787
31
0
0
LINE
8
ASP_TMA_MURA
10
-5019.559851
20
-1081.061787
30
0
11
2637.408832
21
-8339.619498
31
0
0
LINE
8
ASP_TMA_MURA
10
2637.408832
20
-8339.619498
30
0
11
10294.377514
21
-15598.17721
31
0
0
LINE
8
ASP_TMA_MURA
10
10294.377514
20
-15598.17721
30
0
11
16526.299247
21
-21497.685818
31
0
0
LINE
8
ASP_TMA_MURA
10
16526.299247
20
-21497.685818
30
0
11
17249.4574
21
-21157.923542
31
0
0
LINE
8
ASP_TMA_MURA
10
17249.4574
20
-21157.923542
30
0
11
20950.325597
21
-19737.099479
31
0
0
LINE
8
ASP_TMA_MURA
10
20950.325597
20
-19737.099479
30
0
11
24268.345359
21
-19366.449724
31
0
0
LINE
8
ASP_TMA_MURA
10
24268.345359
20
-19366.449724
30
0
11
26374.011746
21
-16432.13916
31
0
0
LINE
8
ASP_TMA_MURA
10
26374.011746
20
-16432.13916
30
0
11
29734.570224
21
-14270.015586
31
0
0
LINE
8
ASP_TMA_MURA
10
29734.570224
20
-14270.015586
30
0
11
27926.67484
21
-10995.942746
31
0
0
LINE
8
ASP_TMA_MURA
10
27926.67484
20
-10995.942746
30
0
11
29160.297572
21
-9606.006163
31
0
0
LINE
8
ASP_TMA_MURA
10
29160.297572
20
-9606.006163
30
0
11
32308.162475
21
-10594.405511
31
0
0
LINE
8
ASP_TMA_MURA
10
32308.162475
20
-10594.405511
30
0
11
35817.606454
21
-8710.269254
31
0
0
LINE
8
ASP_TMA_MURA
10
35817.606454
20
-8710.269254
30
0
11
39305.781076
21
-10748.842909
31
0
0
LINE
8
ASP_TMA_MURA
10
39305.781076
20
-10748.842909
30
0
11
43432.036422
21
-10687.06795
31
0
0
LINE
8
ASP_TMA_MURA
10
43432.036422
20
-10687.06795
30
0
11
46771.325541
21
-10563.518031
31
0
0
LINE
8
ASP_TMA_MURA
10
46771.325541
20
-10563.518031
30
0
11
45325.009235
21
-6887.907956
31
0
0
LINE
8
ASP_TMA_MURA
10
45325.009235
20
-6887.907956
30
0
11
43942.501001
21
-2965.198044
31
0
0
LINE
8
ASP_TMA_MURA
10
43942.501001
20
-2965.198044
30
0
11
42517.454051
21
957.511868
31
0
0
LINE
8
ASP_TMA_MURA
10
42517.454051
20
957.511868
30
0
11
45197.39309
21
3428.510238
31
0
0
LINE
8
ASP_TMA_MURA
10
45197.39309
20
3428.510238
30
0
11
50557.271168
21
6702.583078
31
0
0
LINE
8
ASP_TMA_MURA
10
50557.271168
20
6702.583078
30
0
11
52024.856832
21
8216.06958
31
0
0
LINE
8
ASP_TMA_MURA
10
52024.856832
20
8216.06958
30
0
11
53726.405428
21
6857.020476
31
0
0
LINE
8
ASP_TMA_MURA
10
53726.405428
20
6857.020476
30
0
11
60830.370816
21
3119.635442
31
0
0
LINE
8
ASP_TMA_MURA
10
60830.370816
20
3119.635442
30
0
11
63425.232425
21
833.96195
31
0
0
LINE
8
ASP_TMA_MURA
10
63425.232425
20
833.96195
30
0
11
66913.407047
21
-803.07447
31
0
0
LINE
8
ASP_TMA_MURA
10
66913.407047
20
-803.07447
30
0
11
66892.13769
21
401.537235
31
0
0
LINE
8
ASP_TMA_MURA
10
66892.13769
20
401.537235
30
0
11
66190.248894
21
1050.174307
31
0
0
LINE
8
ASP_TMA_MURA
10
66190.248894
20
1050.174307
30
0
11
64977.895519
21
1945.911216
31
0
0
LINE
8
ASP_TMA_MURA
10
64977.895519
20
1945.911216
30
0
11
64977.895519
21
3026.973003
31
0
0
LINE
8
ASP_TMA_MURA
10
64977.895519
20
3026.973003
30
0
11
64935.356804
21
3582.947636
31
0
0
LINE
8
ASP_TMA_MURA
10
64935.356804
20
3582.947636
30
0
11
64254.737366
21
4602.234464
31
0
0
LINE
8
ASP_TMA_MURA
10
64254.737366
20
4602.234464
30
0
11
63829.350217
21
6177.495925
31
0
0
LINE
8
ASP_TMA_MURA
10
63829.350217
20
6177.495925
30
0
11
63680.464715
21
7721.869906
31
0
0
LINE
8
ASP_TMA_MURA
10
63680.464715
20
7721.869906
30
0
11
61617.337042
21
8988.25657
31
0
0
LINE
8
ASP_TMA_MURA
10
61617.337042
20
8988.25657
30
0
11
60660.215957
21
11026.830226
31
0
0
LINE
8
ASP_TMA_MURA
10
60660.215957
20
11026.830226
30
0
11
58979.936718
21
12756.529085
31
0
0
LINE
8
ASP_TMA_MURA
10
58979.936718
20
12756.529085
30
0
11
58022.815633
21
13961.14079
31
0
0
LINE
8
ASP_TMA_MURA
10
58022.815633
20
13961.14079
30
0
11
56640.307398
21
14825.990219
31
0
0
LINE
8
ASP_TMA_MURA
10
56640.307398
20
14825.990219
30
0
11
55534.300811
21
16401.25168
31
0
0
LINE
8
ASP_TMA_MURA
10
55534.300811
20
16401.25168
30
0
11
54066.715147
21
16771.901436
31
0
0
LINE
8
ASP_TMA_MURA
10
54066.715147
20
16771.901436
30
0
11
53896.560287
21
19026.687448
31
0
0
LINE
8
ASP_TMA_MURA
10
53896.560287
20
19026.687448
30
0
11
54385.755509
21
19984.199316
31
0
0
LINE
8
ASP_TMA_MURA
10
54385.755509
20
19984.199316
30
0
11
55683.186313
21
19737.099479
31
0
0
LINE
8
ASP_TMA_MURA
10
55683.186313
20
19737.099479
30
0
11
56087.304105
21
21281.473461
31
0
0
LINE
8
ASP_TMA_MURA
10
56087.304105
20
21281.473461
30
0
11
56321.267037
21
22949.39736
31
0
0
LINE
8
ASP_TMA_MURA
10
56321.267037
20
22949.39736
30
0
11
55513.031454
21
23845.134269
31
0
0
LINE
8
ASP_TMA_MURA
10
55513.031454
20
23845.134269
30
0
11
52577.860125
21
24246.671504
31
0
0
LINE
8
ASP_TMA_MURA
10
52577.860125
20
24246.671504
30
0
11
52875.63113
21
25729.270526
31
0
0
LINE
8
ASP_TMA_MURA
10
52875.63113
20
25729.270526
30
0
11
51408.045466
21
26007.257843
31
0
0
LINE
8
ASP_TMA_MURA
10
51408.045466
20
26007.257843
30
0
11
50791.2341
21
26408.795078
31
0
0
LINE
8
ASP_TMA_MURA
10
50791.2341
20
26408.795078
30
0
11
49536.34201
21
29034.230846
31
0
0
LINE
8
ASP_TMA_MURA
10
49536.34201
20
29034.230846
30
0
11
48600.490282
21
30455.054909
31
0
0
LINE
8
ASP_TMA_MURA
10
48600.490282
20
30455.054909
30
0
11
49153.493576
21
32122.978808
31
0
0
LINE
8
ASP_TMA_MURA
10
49153.493576
20
32122.978808
30
0
11
48090.025703
21
32926.053279
31
0
0
LINE
8
ASP_TMA_MURA
10
48090.025703
20
32926.053279
30
0
11
48153.833776
21
35026.401893
31
0
0
LINE
8
ASP_TMA_MURA
10
48153.833776
20
35026.401893
30
0
11
49919.190444
21
36231.013598
31
0
0
LINE
8
ASP_TMA_MURA
10
49919.190444
20
36231.013598
30
0
11
49897.921087
21
37373.850344
31
0
0
LINE
8
ASP_TMA_MURA
10
49897.921087
20
37373.850344
30
0
11
50302.038878
21
38578.46205
31
0
0
LINE
8
ASP_TMA_MURA
10
50302.038878
20
38578.46205
30
0
11
50365.846951
21
39721.298796
31
0
0
LINE
8
ASP_TMA_MURA
10
50365.846951
20
39721.298796
30
0
11
49089.685504
21
40864.135542
31
0
0
LINE
8
ASP_TMA_MURA
10
49089.685504
20
40864.135542
30
0
11
48111.295061
21
42037.859768
31
0
0
LINE
8
ASP_TMA_MURA
10
48111.295061
20
42037.859768
30
0
11
46388.477107
21
43366.021391
31
0
0
LINE
8
ASP_TMA_MURA
10
46388.477107
20
43366.021391
30
0
11
43793.615498
21
43921.996025
31
0
0
LINE
8
ASP_TMA_MURA
10
43793.615498
20
43921.996025
30
0
11
41985.720115
21
44261.7583
31
0
0
LINE
8
ASP_TMA_MURA
10
41985.720115
20
44261.7583
30
0
11
38752.777783
21
43211.583993
31
0
0
LINE
8
ASP_TMA_MURA
10
38752.777783
20
43211.583993
30
0
11
36349.340391
21
42254.072125
31
0
0
LINE
8
ASP_TMA_MURA
10
36349.340391
20
42254.072125
30
0
11
34669.061152
21
41852.53489
31
0
0
LINE
8
ASP_TMA_MURA
10
34669.061152
20
41852.53489
30
0
11
33477.977135
21
42408.509523
31
0
0
LINE
8
ASP_TMA_MURA
10
33477.977135
20
42408.509523
30
0
11
32733.549624
21
43242.471473
31
0
0
LINE
8
ASP_TMA_MURA
10
32733.549624
20
43242.471473
30
0
11
33052.589986
21
43242.471473
31
0
0
LINE
8
ASP_TMA_MURA
10
33052.589986
20
43242.471473
30
0
11
32605.933479
21
43273.358953
31
0
0
LINE
8
ASP_TMA_MURA
10
32605.933479
20
43273.358953
30
0
11
32223.085045
21
42933.596677
31
0
0
LINE
8
ASP_TMA_MURA
10
32223.085045
20
42933.596677
30
0
11
31755.159181
21
42532.059442
31
0
0
LINE
8
ASP_TMA_MURA
10
31755.159181
20
42532.059442
30
0
11
31563.734964
21
42284.959605
31
0
0
LINE
8
ASP_TMA_MURA
10
31563.734964
20
42284.959605
30
0
11
31053.270385
21
42748.271799
31
0
0
LINE
8
ASP_TMA_MURA
10
31053.270385
20
42748.271799
30
0
11
30712.960666
21
42130.522206
31
0
0
LINE
8
ASP_TMA_MURA
10
30712.960666
20
42130.522206
30
0
11
30308.842875
21
41790.759931
31
0
0
LINE
8
ASP_TMA_MURA
10
30308.842875
20
41790.759931
30
0
11
29862.186368
21
41481.885134
31
0
0
LINE
8
ASP_TMA_MURA
10
29862.186368
20
41481.885134
30
0
11
29500.607292
21
41481.885134
31
0
0
LINE
8
ASP_TMA_MURA
10
29500.607292
20
41481.885134
30
0
11
29224.105645
21
41142.122858
31
0
0
LINE
8
ASP_TMA_MURA
10
29224.105645
20
41142.122858
30
0
11
29075.220143
21
40678.810664
31
0
0
LINE
8
ASP_TMA_MURA
10
29075.220143
20
40678.810664
30
0
11
28564.755564
21
39937.511153
31
0
0
LINE
8
ASP_TMA_MURA
10
28564.755564
20
39937.511153
30
0
11
28203.176487
21
40061.061072
31
0
0
LINE
8
ASP_TMA_MURA
10
28203.176487
20
40061.061072
30
0
11
27926.67484
21
39721.298796
31
0
0
LINE
8
ASP_TMA_MURA
10
27926.67484
20
39721.298796
30
0
11
27480.018334
21
39906.623674
31
0
0
LINE
8
ASP_TMA_MURA
10
27480.018334
20
39906.623674
30
0
11
27352.402189
21
40091.948551
31
0
0
LINE
8
ASP_TMA_MURA
10
27352.402189
20
40091.948551
30
0
11
27075.900542
21
39597.748877
31
0
0
LINE
8
ASP_TMA_MURA
10
27075.900542
20
39597.748877
30
0
11
26820.668253
21
39443.311479
31
0
0
LINE
8
ASP_TMA_MURA
10
26820.668253
20
39443.311479
30
0
11
26735.590823
21
39350.64904
31
0
0
LINE
8
ASP_TMA_MURA
10
26735.590823
20
39350.64904
30
0
11
26501.627891
21
39443.311479
31
0
0
LINE
8
ASP_TMA_MURA
10
26501.627891
20
39443.311479
30
0
11
26288.934317
21
40061.061072
31
0
0
LINE
8
ASP_TMA_MURA
10
26288.934317
20
40061.061072
30
0
11
26076.240742
21
40030.173592
31
0
0
LINE
8
ASP_TMA_MURA
10
26076.240742
20
40030.173592
30
0
11
25799.739095
21
39844.848714
31
0
0
LINE
8
ASP_TMA_MURA
10
25799.739095
20
39844.848714
30
0
11
25416.890661
21
39597.748877
31
0
0
LINE
8
ASP_TMA_MURA
10
25416.890661
20
39597.748877
30
0
11
24970.234155
21
39474.198959
31
0
0
LINE
8
ASP_TMA_MURA
10
24970.234155
20
39474.198959
30
0
11
24672.46315
21
39103.549203
31
0
0
LINE
8
ASP_TMA_MURA
10
24672.46315
20
39103.549203
30
0
11
24140.729214
21
39072.661724
31
0
0
LINE
8
ASP_TMA_MURA
10
24140.729214
20
39072.661724
30
0
11
23438.840418
21
39257.986601
31
0
0
LINE
8
ASP_TMA_MURA
10
23438.840418
20
39257.986601
30
0
11
23332.493631
21
39134.436683
31
0
0
LINE
8
ASP_TMA_MURA
10
23332.493631
20
39134.436683
30
0
11
23226.146844
21
38856.449366
31
0
0
LINE
8
ASP_TMA_MURA
10
23226.146844
20
38856.449366
30
0
11
22992.183912
21
38454.912131
31
0
0
LINE
8
ASP_TMA_MURA
10
22992.183912
20
38454.912131
30
0
11
23417.571061
21
37466.512783
31
0
0
LINE
8
ASP_TMA_MURA
10
23417.571061
20
37466.512783
30
0
11
23842.95821
21
36817.875711
31
0
0
LINE
8
ASP_TMA_MURA
10
23842.95821
20
36817.875711
30
0
11
23842.95821
21
36478.113435
31
0
0
LINE
8
ASP_TMA_MURA
10
23842.95821
20
36478.113435
30
0
11
23438.840418
21
35798.588884
31
0
0
LINE
8
ASP_TMA_MURA
10
23438.840418
20
35798.588884
30
0
11
23502.648491
21
34192.439943
31
0
0
LINE
8
ASP_TMA_MURA
10
23502.648491
20
34192.439943
30
0
11
23289.954916
21
32524.516044
31
0
0
LINE
8
ASP_TMA_MURA
10
23289.954916
20
32524.516044
30
0
11
23141.069414
21
31165.46694
31
0
0
LINE
8
ASP_TMA_MURA
10
23141.069414
20
31165.46694
30
0
11
22864.567767
21
30269.730031
31
0
0
LINE
8
ASP_TMA_MURA
10
22864.567767
20
30269.730031
30
0
11
23034.722627
21
29682.867918
31
0
0
LINE
8
ASP_TMA_MURA
10
23034.722627
20
29682.867918
30
0
11
23119.800056
21
29003.343366
31
0
0
LINE
8
ASP_TMA_MURA
10
23119.800056
20
29003.343366
30
0
11
23417.571061
21
28323.818815
31
0
0
LINE
8
ASP_TMA_MURA
10
23417.571061
20
28323.818815
30
0
11
23715.342065
21
27798.731661
31
0
0
LINE
8
ASP_TMA_MURA
10
23715.342065
20
27798.731661
30
0
11
23970.574354
21
27366.306946
31
0
0
LINE
8
ASP_TMA_MURA
10
23970.574354
20
27366.306946
30
0
11
24161.998572
21
26625.007435
31
0
0
LINE
8
ASP_TMA_MURA
10
24161.998572
20
26625.007435
30
0
11
24651.193793
21
26223.4702
31
0
0
LINE
8
ASP_TMA_MURA
10
24651.193793
20
26223.4702
30
0
11
25289.274516
21
26223.4702
31
0
0
LINE
8
ASP_TMA_MURA
10
25289.274516
20
26223.4702
30
0
11
26203.856887
21
25821.932965
31
0
0
LINE
8
ASP_TMA_MURA
10
26203.856887
20
25821.932965
30
0
11
26310.203674
21
25729.270526
31
0
0
LINE
8
ASP_TMA_MURA
10
26310.203674
20
25729.270526
30
0
11
26118.779457
21
25049.745975
31
0
0
LINE
8
ASP_TMA_MURA
10
26118.779457
20
25049.745975
30
0
11
26310.203674
21
24740.871178
31
0
0
LINE
8
ASP_TMA_MURA
10
26310.203674
20
24740.871178
30
0
11
26671.782751
21
24123.121586
31
0
0
LINE
8
ASP_TMA_MURA
10
26671.782751
20
24123.121586
30
0
11
26820.668253
21
23906.909229
31
0
0
LINE
8
ASP_TMA_MURA
10
26820.668253
20
23906.909229
30
0
11
27012.09247
21
21343.24842
31
0
0
LINE
8
ASP_TMA_MURA
10
27012.09247
20
21343.24842
30
0
11
27075.900542
21
20601.948909
31
0
0
LINE
8
ASP_TMA_MURA
10
27075.900542
20
20601.948909
30
0
11
26948.284398
21
19582.662081
31
0
0
LINE
8
ASP_TMA_MURA
10
26948.284398
20
19582.662081
30
0
11
25225.466444
21
20323.961592
31
0
0
LINE
8
ASP_TMA_MURA
10
25225.466444
20
20323.961592
30
0
11
24587.385721
21
20910.823705
31
0
0
LINE
8
ASP_TMA_MURA
10
24587.385721
20
20910.823705
30
0
11
24076.921142
21
22146.32289
31
0
0
LINE
8
ASP_TMA_MURA
10
24076.921142
20
22146.32289
30
0
11
22779.490337
21
22733.185003
31
0
0
LINE
8
ASP_TMA_MURA
10
22779.490337
20
22733.185003
30
0
11
20035.743226
21
23196.497197
31
0
0
LINE
8
ASP_TMA_MURA
10
20035.743226
20
23196.497197
30
0
11
17844.999409
21
25173.295893
31
0
0
LINE
8
ASP_TMA_MURA
10
17844.999409
20
25173.295893
30
0
11
16696.454106
21
25791.045486
31
0
0
LINE
8
ASP_TMA_MURA
10
16696.454106
20
25791.045486
30
0
11
15781.871736
21
26007.257843
31
0
0
LINE
8
ASP_TMA_MURA
10
15781.871736
20
26007.257843
30
0
11
14888.558723
21
26532.344997
31
0
0
LINE
8
ASP_TMA_MURA
10
14888.558723
20
26532.344997
30
0
11
14356.824787
21
26717.669874
31
0
0
LINE
8
ASP_TMA_MURA
10
14356.824787
20
26717.669874
30
0
11
13378.434344
21
26902.994752
31
0
0
LINE
8
ASP_TMA_MURA
10
13378.434344
20
26902.994752
30
0
11
10358.185586
21
26686.782395
31
0
0
LINE
8
ASP_TMA_MURA
10
10358.185586
20
26686.782395
30
0
11
8656.63699
21
26069.032802
31
0
0
LINE
8
ASP_TMA_MURA
10
8656.63699
20
26069.032802
30
0
11
7720.785262
21
25296.845812
31
0
0
LINE
8
ASP_TMA_MURA
10
7720.785262
20
25296.845812
30
0
11
6444.623815
21
24401.108903
31
0
0
LINE
8
ASP_TMA_MURA
10
6444.623815
20
24401.108903
30
0
11
5912.889879
21
24370.221423
31
0
0
LINE
8
ASP_TMA_MURA
10
5912.889879
20
24370.221423
30
0
11
5274.809155
21
24215.784025
31
0
0
LINE
8
ASP_TMA_MURA
10
5274.809155
20
24215.784025
30
0
11
4360.226785
21
24431.996382
31
0
0
LINE
8
ASP_TMA_MURA
10
4360.226785
20
24431.996382
30
0
11
2828.833049
21
23968.684188
31
0
0
LINE
8
ASP_TMA_MURA
10
2828.833049
20
23968.684188
30
0
11
765.705376
21
24308.446464
31
0
0
LINE
8
ASP_TMA_MURA
10
765.705376
20
24308.446464
30
0
11
-701.880288
21
25173.295893
31
0
0
LINE
8
ASP_TMA_MURA
10
-701.880288
20
25173.295893
30
0
11
-1616.462658
21
25142.408414
31
0
0
LINE
8
ASP_TMA_MURA
10
-1616.462658
20
25142.408414
30
0
11
-2786.277318
21
25080.633454
31
0
0
LINE
8
ASP_TMA_MURA
10
-2786.277318
20
25080.633454
30
0
11
-2701.199888
21
24771.758658
31
0
0
LINE
8
ASP_TMA_MURA
10
-2701.199888
20
24771.758658
30
0
11
-2467.236957
21
23628.921912
31
0
0
LINE
8
ASP_TMA_MURA
10
-2467.236957
20
23628.921912
30
0
11
-2743.738603
21
23474.484514
31
0
0
LINE
8
ASP_TMA_MURA
10
-2743.738603
20
23474.484514
30
0
11
-3296.741897
21
23381.822075
31
0
0
LINE
8
ASP_TMA_MURA
10
-3296.741897
20
23381.822075
30
0
11
-3785.937118
21
23350.934595
31
0
0
LINE
8
ASP_TMA_MURA
10
-3785.937118
20
23350.934595
30
0
11
-3977.361336
21
22918.509881
31
0
0
LINE
8
ASP_TMA_MURA
10
-3977.361336
20
22918.509881
30
0
11
-4083.708123
21
22578.747605
31
0
0
LINE
8
ASP_TMA_MURA
10
-4083.708123
20
22578.747605
30
0
11
-4062.438765
21
22424.310207
31
0
0
LINE
8
ASP_TMA_MURA
10
-4062.438765
20
22424.310207
30
0
11
-3998.630693
21
22362.535247
31
0
0
LINE
8
ASP_TMA_MURA
10
-3998.630693
20
22362.535247
30
0
11
-4104.97748
21
22393.422727
31
0
0
LINE
8
ASP_TMA_MURA
10
-4104.97748
20
22393.422727
30
0
11
-4317.671055
21
22238.985329
31
0
0
LINE
8
ASP_TMA_MURA
10
-4317.671055
20
22238.985329
30
0
11
-4849.404991
21
22177.21037
31
0
0
LINE
8
ASP_TMA_MURA
10
-4849.404991
20
22177.21037
30
0
11
-4977.021136
21
22269.872809
31
0
0
LINE
8
ASP_TMA_MURA
10
-4977.021136
20
22269.872809
30
0
11
-5083.367923
21
22208.097849
31
0
0
LINE
8
ASP_TMA_MURA
10
-5083.367923
20
22208.097849
30
0
11
-5444.947
21
22486.085166
31
0
0
LINE
8
ASP_TMA_MURA
10
-5444.947
20
22486.085166
30
0
11
-5551.293787
21
22455.197686
31
0
0
LINE
8
ASP_TMA_MURA
10
-5551.293787
20
22455.197686
30
0
11
-5721.448646
21
22547.860125
31
0
0
LINE
8
ASP_TMA_MURA
10
-5721.448646
20
22547.860125
30
0
11
-5721.448646
21
22455.197686
31
0
0
LINE
8
ASP_TMA_MURA
10
-5721.448646
20
22455.197686
30
0
11
-5785.256719
21
22455.197686
31
0
0
LINE
8
ASP_TMA_MURA
10
-5785.256719
20
22455.197686
30
0
11
-6189.37451
21
22362.535247
31
0
0
LINE
8
ASP_TMA_MURA
10
-6189.37451
20
22362.535247
30
0
11
-6231.913225
21
22671.410044
31
0
0
LINE
8
ASP_TMA_MURA
10
-6231.913225
20
22671.410044
30
0
11
-6168.105153
21
22825.847442
31
0
0
LINE
8
ASP_TMA_MURA
10
-6168.105153
20
22825.847442
30
0
11
-6189.37451
21
23011.172319
31
0
0
LINE
8
ASP_TMA_MURA
10
-6189.37451
20
23011.172319
30
0
11
-5955.411578
21
23072.947279
31
0
0
LINE
8
ASP_TMA_MURA
10
-5955.411578
20
23072.947279
30
0
11
-6295.721298
21
23134.722238
31
0
0
LINE
8
ASP_TMA_MURA
10
-6295.721298
20
23134.722238
30
0
11
-6593.492302
21
23350.934595
31
0
0
LINE
8
ASP_TMA_MURA
10
-6593.492302
20
23350.934595
30
0
11
-6976.340736
21
23320.047116
31
0
0
LINE
8
ASP_TMA_MURA
10
-6976.340736
20
23320.047116
30
0
11
-7380.458528
21
22887.622401
31
0
0
LINE
8
ASP_TMA_MURA
10
-7380.458528
20
22887.622401
30
0
11
-7316.650455
21
22671.410044
31
0
0
LINE
8
ASP_TMA_MURA
10
-7316.650455
20
22671.410044
30
0
11
-7550.613387
21
22640.522564
31
0
0
LINE
8
ASP_TMA_MURA
10
-7550.613387
20
22640.522564
30
0
11
-7699.498889
21
22671.410044
31
0
0
LINE
8
ASP_TMA_MURA
10
-7699.498889
20
22671.410044
30
0
11
-7805.845677
21
22578.747605
31
0
0
LINE
8
ASP_TMA_MURA
10
-7805.845677
20
22578.747605
30
0
11
-8018.539251
21
22486.085166
31
0
0
LINE
8
ASP_TMA_MURA
10
-8018.539251
20
22486.085166
30
0
11
-8209.963468
21
22609.635084
31
0
0
LINE
8
ASP_TMA_MURA
10
-8209.963468
20
22609.635084
30
0
11
-8273.771541
21
22331.647768
31
0
0
LINE
8
ASP_TMA_MURA
10
-8273.771541
20
22331.647768
30
0
11
-8550.273187
21
22393.422727
31
0
0
LINE
8
ASP_TMA_MURA
10
-8550.273187
20
22393.422727
30
0
11
-8720.428047
21
22269.872809
31
0
0
LINE
8
ASP_TMA_MURA
10
-8720.428047
20
22269.872809
30
0
11
-8933.121621
21
22208.097849
31
0
0
LINE
8
ASP_TMA_MURA
10
-8933.121621
20
22208.097849
30
0
11
-9103.276481
21
21713.898175
31
0
0
LINE
8
ASP_TMA_MURA
10
-9103.276481
20
21713.898175
30
0
11
-9677.549132
21
21497.685818
31
0
0
LINE
8
ASP_TMA_MURA
10
-9677.549132
20
21497.685818
30
0
11
-9826.434634
21
21219.698501
31
0
0
LINE
8
ASP_TMA_MURA
10
-9826.434634
20
21219.698501
30
0
11
-10060.397566
21
21374.135899
31
0
0
LINE
8
ASP_TMA_MURA
10
-10060.397566
20
21374.135899
30
0
11
-10188.013711
21
21405.023379
31
0
0
LINE
8
ASP_TMA_MURA
10
-10188.013711
20
21405.023379
30
0
11
-10145.474996
21
21343.24842
31
0
0
LINE
8
ASP_TMA_MURA
10
-10145.474996
20
21343.24842
30
0
11
-10294.360498
21
21312.36094
31
0
0
LINE
8
ASP_TMA_MURA
10
-10294.360498
20
21312.36094
30
0
11
-10358.168571
21
21405.023379
31
0
0
LINE
8
ASP_TMA_MURA
10
-10358.168571
20
21405.023379
30
0
11
-10507.054073
21
21281.473461
31
0
0
LINE
8
ASP_TMA_MURA
10
-10507.054073
20
21281.473461
30
0
11
-10655.939575
21
21034.373624
31
0
0
LINE
8
ASP_TMA_MURA
10
-10655.939575
20
21034.373624
30
0
11
-10911.171864
21
21034.373624
31
0
0
LINE
8
ASP_TMA_MURA
10
-10911.171864
20
21034.373624
30
0
11
-10741.017005
21
20849.048746
31
0
0
LINE
8
ASP_TMA_MURA
10
-10741.017005
20
20849.048746
30
0
11
-10677.208932
21
20756.386307
31
0
0
LINE
8
ASP_TMA_MURA
10
-10677.208932
20
20756.386307
30
0
11
-10741.017005
21
20540.17395
31
0
0
LINE
8
ASP_TMA_MURA
10
-10741.017005
20
20540.17395
30
0
11
-10549.592788
21
19860.649398
31
0
0
LINE
8
ASP_TMA_MURA
10
-10549.592788
20
19860.649398
30
0
11
-10379.437928
21
19582.662081
31
0
0
LINE
8
ASP_TMA_MURA
10
-10379.437928
20
19582.662081
30
0
11
-10315.629856
21
19459.112163
31
0
0
LINE
8
ASP_TMA_MURA
10
-10315.629856
20
19459.112163
30
0
11
-10209.283069
21
19212.012326
31
0
0
LINE
8
ASP_TMA_MURA
10
-10209.283069
20
19212.012326
30
0
11
-10166.744354
21
19026.687448
31
0
0
LINE
8
ASP_TMA_MURA
10
-10166.744354
20
19026.687448
30
0
11
-10251.821783
21
18748.700131
31
0
0
LINE
8
ASP_TMA_MURA
10
-10251.821783
20
18748.700131
30
0
11
-10677.208932
21
18748.700131
31
0
0
LINE
8
ASP_TMA_MURA
10
-10677.208932
20
18748.700131
30
0
11
-10889.902507
21
18439.825335
31
0
0
LINE
8
ASP_TMA_MURA
10
-10889.902507
20
18439.825335
30
0
11
-10847.363792
21
18161.838019
31
0
0
LINE
8
ASP_TMA_MURA
10
-10847.363792
20
18161.838019
30
0
11
-10634.670218
21
18007.40062
31
0
0
LINE
8
ASP_TMA_MURA
10
-10634.670218
20
18007.40062
30
0
11
-10528.32343
21
17513.200947
31
0
0
LINE
8
ASP_TMA_MURA
10
-10528.32343
20
17513.200947
30
0
11
-10804.825077
21
17173.438671
31
0
0
LINE
8
ASP_TMA_MURA
10
-10804.825077
20
17173.438671
30
0
11
-10889.902507
21
16895.451354
31
0
0
LINE
8
ASP_TMA_MURA
10
-10889.902507
20
16895.451354
30
0
11
-11102.596081
21
17019.001273
31
0
0
LINE
8
ASP_TMA_MURA
10
-11102.596081
20
17019.001273
30
0
11
-11294.020298
21
17142.551191
31
0
0
LINE
8
ASP_TMA_MURA
10
-11294.020298
20
17142.551191
30
0
11
-11421.636443
21
17111.663711
31
0
0
LINE
8
ASP_TMA_MURA
10
-11421.636443
20
17111.663711
30
0
11
-11655.599375
21
16926.338834
31
0
0
LINE
8
ASP_TMA_MURA
10
-11655.599375
20
16926.338834
30
0
11
-11804.484877
21
16802.788915
31
0
0
LINE
8
ASP_TMA_MURA
10
-11804.484877
20
16802.788915
30
0
11
-11953.370379
21
16679.238997
31
0
0
LINE
8
ASP_TMA_MURA
10
-11953.370379
20
16679.238997
30
0
11
-12017.178452
21
16463.026639
31
0
0
LINE
8
ASP_TMA_MURA
10
-12017.178452
20
16463.026639
30
0
11
-12208.602669
21
16339.476721
31
0
0
LINE
8
ASP_TMA_MURA
10
-12208.602669
20
16339.476721
30
0
11
-12506.373673
21
15937.939486
31
0
0
LINE
8
ASP_TMA_MURA
10
-12506.373673
20
15937.939486
30
0
11
-12804.144677
21
15752.614608
31
0
0
LINE
8
ASP_TMA_MURA
10
-12804.144677
20
15752.614608
30
0
11
-13016.838252
21
15907.052006
31
0
0
LINE
8
ASP_TMA_MURA
10
-13016.838252
20
15907.052006
30
0
11
-13357.147971
21
15783.502088
31
0
0
LINE
8
ASP_TMA_MURA
10
-13357.147971
20
15783.502088
30
0
11
-13357.147971
21
15443.739812
31
0
0
LINE
8
ASP_TMA_MURA
10
-13357.147971
20
15443.739812
30
0
11
-13335.878614
21
15227.527454
31
0
0
LINE
8
ASP_TMA_MURA
10
-13335.878614
20
15227.527454
30
0
11
-13654.918975
21
15134.865016
31
0
0
LINE
8
ASP_TMA_MURA
10
-13654.918975
20
15134.865016
30
0
11
-13846.343193
21
15134.865016
31
0
0
LINE
8
ASP_TMA_MURA
10
-13846.343193
20
15134.865016
30
0
11
-13952.68998
21
15042.202577
31
0
0
LINE
8
ASP_TMA_MURA
10
-13952.68998
20
15042.202577
30
0
11
-14037.76741
21
14918.652658
31
0
0
LINE
8
ASP_TMA_MURA
10
-14037.76741
20
14918.652658
30
0
11
-14229.191627
21
15134.865016
31
0
0
LINE
8
ASP_TMA_MURA
10
-14229.191627
20
15134.865016
30
0
11
-14229.191627
21
15165.752495
31
0
0
LINE
8
ASP_TMA_MURA
10
-14229.191627
20
15165.752495
30
0
11
-14207.922269
21
15289.302414
31
0
0
LINE
8
ASP_TMA_MURA
10
-14207.922269
20
15289.302414
30
0
11
-14378.077129
21
15443.739812
31
0
0
LINE
8
ASP_TMA_MURA
10
-14378.077129
20
15443.739812
30
0
11
-14612.040061
21
15474.627291
31
0
0
LINE
8
ASP_TMA_MURA
10
-14612.040061
20
15474.627291
30
0
11
-14760.925563
21
15598.17721
31
0
0
LINE
8
ASP_TMA_MURA
10
-14760.925563
20
15598.17721
30
0
11
-15207.582069
21
15567.28973
31
0
0
LINE
8
ASP_TMA_MURA
10
-15207.582069
20
15567.28973
30
0
11
-15377.736929
21
15505.514771
31
0
0
LINE
8
ASP_TMA_MURA
10
-15377.736929
20
15505.514771
30
0
11
-15399.006286
21
15505.514771
31
0
0
TEXT
8
AIRSPACE_LABELS
10
16971.992943
20
21832.617953
30
0
40
1520.076737
1
TMA MURA
0
LINE
8
ASP_CTR_MARIBOR
10
-9337.239413
20
7135.007793
30
0
11
-1680.270731
21
12447.654288
31
0
0
LINE
8
ASP_CTR_MARIBOR
10
-1680.270731
20
12447.654288
30
0
11
4445.304215
21
16679.238997
31
0
0
LINE
8
ASP_CTR_MARIBOR
10
4445.304215
20
16679.238997
30
0
11
9252.178999
21
9976.655918
31
0
0
LINE
8
ASP_CTR_MARIBOR
10
9252.178999
20
9976.655918
30
0
11
17866.268766
21
-5405.308934
31
0
0
LINE
8
ASP_CTR_MARIBOR
10
17866.268766
20
-5405.308934
30
0
11
10209.300084
21
-10687.06795
31
0
0
LINE
8
ASP_CTR_MARIBOR
10
10209.300084
20
-10687.06795
30
0
11
2552.331402
21
-15968.826965
31
0
0
LINE
8
ASP_CTR_MARIBOR
10
2552.331402
20
-15968.826965
30
0
11
-2424.698242
21
-19397.337204
31
0
0
LINE
8
ASP_CTR_MARIBOR
10
-2424.698242
20
-19397.337204
30
0
11
-11315.289656
21
-6301.045843
31
0
0
LINE
8
ASP_CTR_MARIBOR
10
-11315.289656
20
-6301.045843
30
0
11
-8167.424753
21
4015.372351
31
0
0
LINE
8
ASP_CTR_MARIBOR
10
-8167.424753
20
4015.372351
30
0
11
-9337.239413
21
7135.007793
31
0
0
TEXT
8
AIRSPACE_LABELS
10
1140.046067
20
-750.565755
30
0
40
1520.076737
1
CTR MARIBOR
0
LINE
8
ASP_RMZ_PTUJ
10
25565.776163
20
-8895.594132
30
0
11
18887.197924
21
-6579.03316
31
0
0
LINE
8
ASP_RMZ_PTUJ
10
18887.197924
20
-6579.03316
30
0
11
20184.628728
21
-2779.873166
31
0
0
LINE
8
ASP_RMZ_PTUJ
10
20184.628728
20
-2779.873166
30
0
11
26863.206968
21
-5127.321617
31
0
0
LINE
8
ASP_RMZ_PTUJ
10
26863.206968
20
-5127.321617
30
0
11
25565.776163
21
-8895.594132
31
0
0
TEXT
8
AIRSPACE_LABELS
10
22875.202446
20
-5845.455519
30
0
40
1520.076737
1
RMZ PTUJ
0
LINE
8
ASP_RMZ_SLOVENSKE_KONJICE
10
-15611.699861
20
-22702.297523
30
0
11
-17887.521108
21
-16308.589241
31
0
0
LINE
8
ASP_RMZ_SLOVENSKE_KONJICE
10
-17887.521108
20
-16308.589241
30
0
11
-14144.114197
21
-14949.540138
31
0
0
LINE
8
ASP_RMZ_SLOVENSKE_KONJICE
10
-14144.114197
20
-14949.540138
30
0
11
-11868.29295
21
-21343.24842
31
0
0
LINE
8
ASP_RMZ_SLOVENSKE_KONJICE
10
-11868.29295
20
-21343.24842
30
0
11
-15611.699861
21
-22702.297523
31
0
0
TEXT
8
AIRSPACE_LABELS
10
-14877.907029
20
-18825.918831
30
0
40
1520.076737
1
RMZ SLOVENSKE KONJICE
0
ENDSEC
0
EOF
