0
SECTION
2
HEADER
9
$ACADVER
1
AC1009
9
$INSBASE
10
0
20
0
30
0
9
$EXTMIN
10
-20413.044326
20
-20821.077346
30
0
9
$EXTMAX
10
32685.48059
20
24682.012052
30
0
0
ENDSEC
0
SECTION
2
TABLES
0
TABLE
2
LAYER
70
19
0
LAYER
2
0
70
0
62
7
6
CONTINUOUS
0
LAYER
2
APT_RUNWAYS
70
0
62
8
6
CONTINUOUS
0
LAYER
2
APT_RUNWAY_LABELS
70
0
62
8
6
CONTINUOUS
0
LAYER
2
APT_TOWER
70
0
62
7
6
CONTINUOUS
0
LAYER
2
APT_TOWER_LABELS
70
0
62
7
6
CONTINUOUS
0
LAYER
2
XP_TAXI_NODES
70
0
62
9
6
CONTINUOUS
0
LAYER
2
XP_ROUTE_LABELS
70
0
62
8
6
CONTINUOUS
0
LAYER
2
XP_TAXI_SIGNS
70
0
62
2
6
CONTINUOUS
0
LAYER
2
XP_TAXI_SIGN_LABELS
70
0
62
2
6
CONTINUOUS
0
LAYER
2
XP_PARKING
70
0
62
7
6
CONTINUOUS
0
LAYER
2
XP_PARKING_LABELS
70
0
62
7
6
CONTINUOUS
0
LAYER
2
XP_BRANCH_LABELS
70
0
62
5
6
CONTINUOUS
0
LAYER
2
OFMX_VFR_POINTS
70
0
62
3
6
CONTINUOUS
0
LAYER
2
OFMX_VFR_LABELS
70
0
62
3
6
CONTINUOUS
0
LAYER
2
XP_ROUTE_TWY_A
70
0
62
3
6
CONTINUOUS
0
LAYER
2
XP_ROUTE_TWY_D
70
0
62
2
6
CONTINUOUS
0
LAYER
2
XP_ROUTE_TWY_C
70
0
62
8
6
CONTINUOUS
0
LAYER
2
XP_ROUTE_RUNWAYS
70
0
62
1
6
CONTINUOUS
0
LAYER
2
XP_BRANCH_A_A
70
0
62
8
6
CONTINUOUS
0
ENDTAB
0
ENDSEC
0
SECTION
2
ENTITIES
0
LINE
8
APT_RUNWAYS
10
-690.425803
20
1017.433579
30
0
11
692.958729
21
-1048.679353
31
0
0
TEXT
8
APT_RUNWAY_LABELS
10
1.266463
20
183.496581
30
0
40
169.91528
1
14/32
0
LINE
8
APT_RUNWAYS
10
-349.789472
20
653.13676
30
0
11
319.345364
21
-343.971498
31
0
0
TEXT
8
APT_RUNWAY_LABELS
10
-15.222054
20
353.702099
30
0
40
169.91528
1
14L/32R
0
POINT
8
APT_TOWER
10
-319.432654
20
-155.462739
30
0
0
LINE
8
APT_TOWER
10
-452.178966
20
-288.209051
30
0
11
-186.686341
21
-22.716427
31
0
0
LINE
8
APT_TOWER
10
-452.178966
20
-22.716427
30
0
11
-186.686341
21
-288.209051
31
0
0
TEXT
8
APT_TOWER_LABELS
10
-120.313185
20
43.65673
30
0
40
169.91528
1
TWR
0
POINT
8
XP_TAXI_NODES
10
-340.334647
20
-62.177979
30
0
0
POINT
8
XP_TAXI_NODES
10
-319.537554
20
-93.126863
30
0
0
POINT
8
XP_TAXI_NODES
10
-292.813202
20
-133.051401
30
0
0
POINT
8
XP_TAXI_NODES
10
-275.683032
20
-158.606219
30
0
0
POINT
8
XP_TAXI_NODES
10
-253.826215
20
-191.181885
30
0
0
POINT
8
XP_TAXI_NODES
10
-216.625598
20
-246.671489
30
0
0
POINT
8
XP_TAXI_NODES
10
-244.87675
20
-204.508597
30
0
0
POINT
8
XP_TAXI_NODES
10
-181.248106
20
-299.366765
30
0
0
POINT
8
XP_TAXI_NODES
10
-177.23662
20
-305.632599
30
0
0
POINT
8
XP_TAXI_NODES
10
-176.675364
20
-308.384674
30
0
0
POINT
8
XP_TAXI_NODES
10
-176.562807
20
-311.136748
30
0
0
POINT
8
XP_TAXI_NODES
10
-177.124828
20
-313.102674
30
0
0
POINT
8
XP_TAXI_NODES
10
-179.258825
20
-314.674971
30
0
0
POINT
8
XP_TAXI_NODES
10
-183.80783
20
-317.820675
30
0
0
POINT
8
XP_TAXI_NODES
10
-184.987003
20
-320.685056
30
0
0
POINT
8
XP_TAXI_NODES
10
-184.875212
20
-323.998665
30
0
0
POINT
8
XP_TAXI_NODES
10
-183.337692
20
-327.207751
30
0
0
POINT
8
XP_TAXI_NODES
10
-158.831564
20
-363.657448
30
0
0
POINT
8
XP_TAXI_NODES
10
-135.91732
20
-398.14233
30
0
0
POINT
8
XP_TAXI_NODES
10
-132.52758
20
-403.200588
30
0
0
POINT
8
XP_TAXI_NODES
10
-122.97398
20
-417.466897
30
0
0
POINT
8
XP_TAXI_NODES
10
-98.17459
20
-454.683839
30
0
0
POINT
8
XP_TAXI_NODES
10
65.475505
20
398.905128
30
0
0
POINT
8
XP_TAXI_NODES
10
51.508428
20
381.338553
30
0
0
POINT
8
XP_TAXI_NODES
10
43.773359
20
374.436684
30
0
0
POINT
8
XP_TAXI_NODES
10
-33.245027
20
303.690024
30
0
0
POINT
8
XP_TAXI_NODES
10
0.109495
20
334.395391
30
0
0
POINT
8
XP_TAXI_NODES
10
-101.450241
20
-392.868355
30
0
0
POINT
8
XP_TAXI_NODES
10
-34.7925
20
-348.663924
30
0
0
POINT
8
XP_TAXI_NODES
10
-234.056687
20
-177.112391
30
0
0
POINT
8
XP_TAXI_NODES
10
-310.651642
20
-55.22496
30
0
0
POINT
8
XP_TAXI_NODES
10
-67.813943
20
-321.105373
30
0
0
POINT
8
XP_TAXI_NODES
10
-69.817772
20
-295.549443
30
0
0
POINT
8
XP_TAXI_NODES
10
-123.606445
20
-253.070757
30
0
0
POINT
8
XP_TAXI_NODES
10
-244.3109
20
-36.300696
30
0
0
POINT
8
XP_TAXI_NODES
10
-231.781036
20
-54.805755
30
0
0
POINT
8
XP_TAXI_NODES
10
-219.251938
20
-73.310815
30
0
0
POINT
8
XP_TAXI_NODES
10
-202.382871
20
-98.515369
30
0
0
POINT
8
XP_TAXI_NODES
10
-189.943359
20
-117.279513
30
0
0
POINT
8
XP_TAXI_NODES
10
-177.503082
20
-136.044769
30
0
0
POINT
8
XP_TAXI_NODES
10
-159.717475
20
-162.184472
30
0
0
POINT
8
XP_TAXI_NODES
10
-148.227428
20
-179.2907
30
0
0
POINT
8
XP_TAXI_NODES
10
-136.737381
20
-196.396927
30
0
0
POINT
8
XP_TAXI_NODES
10
-118.483933
20
-223.615221
30
0
0
POINT
8
XP_TAXI_NODES
10
-84.179182
20
-274.450206
30
0
0
POINT
8
XP_TAXI_NODES
10
-78.108738
20
-241.590993
30
0
0
POINT
8
XP_TAXI_NODES
10
-235.627132
20
-5.033794
30
0
0
POINT
8
XP_TAXI_NODES
10
-153.088072
20
50.385757
30
0
0
POINT
8
XP_TAXI_NODES
10
5.597244
20
-185.582109
30
0
0
POINT
8
XP_TAXI_NODES
10
-329.921935
20
661.817748
30
0
0
POINT
8
XP_TAXI_NODES
10
-313.957155
20
638.743689
30
0
0
POINT
8
XP_TAXI_NODES
10
336.039087
20
-327.593597
30
0
0
POINT
8
XP_TAXI_NODES
10
323.67002
20
-308.505876
30
0
0
POINT
8
XP_TAXI_NODES
10
660.052906
20
-1071.565493
30
0
0
POINT
8
XP_TAXI_NODES
10
637.986288
20
-1039.235568
30
0
0
POINT
8
XP_TAXI_NODES
10
-722.663939
20
995.912913
30
0
0
POINT
8
XP_TAXI_NODES
10
-703.572053
20
965.473302
30
0
0
POINT
8
XP_TAXI_NODES
10
-347.486256
20
649.808696
30
0
0
POINT
8
XP_TAXI_NODES
10
-325.583497
20
617.46098
30
0
0
POINT
8
XP_TAXI_NODES
10
-83.700622
20
257.331747
30
0
0
POINT
8
XP_TAXI_NODES
10
-44.297861
20
293.39115
30
0
0
POINT
8
XP_TAXI_NODES
10
297.158532
20
-310.655274
30
0
0
POINT
8
XP_TAXI_NODES
10
316.743526
20
-339.826151
30
0
0
POINT
8
XP_TAXI_NODES
10
693.279556
20
-1049.064088
30
0
0
POINT
8
XP_TAXI_NODES
10
-690.425803
20
1017.433579
30
0
0
POINT
8
XP_TAXI_NODES
10
-648.875263
20
954.638468
30
0
0
POINT
8
XP_TAXI_NODES
10
-144.83386
20
201.833247
30
0
0
POINT
8
XP_TAXI_NODES
10
-77.211341
20
101.041718
30
0
0
POINT
8
XP_TAXI_NODES
10
80.772597
20
-134.907245
30
0
0
POINT
8
XP_TAXI_NODES
10
648.633303
20
-982.367147
30
0
0
LINE
8
XP_ROUTE_TWY_A
10
51.508428
20
381.338553
30
0
11
65.475505
21
398.905128
31
0
0
LINE
8
XP_ROUTE_TWY_A
10
43.773359
20
374.436684
30
0
11
51.508428
21
381.338553
31
0
0
LINE
8
XP_ROUTE_TWY_A
10
-33.245027
20
303.690024
30
0
11
0.109495
21
334.395391
31
0
0
LINE
8
XP_ROUTE_TWY_A
10
0.109495
20
334.395391
30
0
11
43.773359
21
374.436684
31
0
0
LINE
8
XP_ROUTE_TWY_A
10
-83.700622
20
257.331747
30
0
11
-44.297861
21
293.39115
31
0
0
LINE
8
XP_ROUTE_TWY_A
10
-44.297861
20
293.39115
30
0
11
-33.245027
21
303.690024
31
0
0
LINE
8
XP_ROUTE_TWY_A
10
-144.83386
20
201.833247
30
0
11
-83.700622
21
257.331747
31
0
0
LINE
8
XP_ROUTE_TWY_A
10
-34.7925
20
-348.663924
30
0
11
-101.450241
21
-392.868355
31
0
0
LINE
8
XP_ROUTE_TWY_A
10
-69.817772
20
-295.549443
30
0
11
-34.7925
21
-348.663924
31
0
0
LINE
8
XP_ROUTE_TWY_A
10
-177.503082
20
-136.044769
30
0
11
-234.056687
21
-177.112391
31
0
0
LINE
8
XP_ROUTE_TWY_A
10
-235.627132
20
-5.033794
30
0
11
-310.651642
21
-55.22496
31
0
0
LINE
8
XP_ROUTE_TWY_D
10
-69.817772
20
-295.549443
30
0
11
-67.813943
21
-321.105373
31
0
0
LINE
8
XP_ROUTE_TWY_D
10
-84.179182
20
-274.450206
30
0
11
-69.817772
21
-295.549443
31
0
0
LINE
8
XP_ROUTE_TWY_C
10
-78.108738
20
-241.590993
30
0
11
-123.606445
21
-253.070757
31
0
0
LINE
8
XP_ROUTE_TWY_C
10
-118.483933
20
-223.615221
30
0
11
-123.606445
21
-253.070757
31
0
0
LINE
8
XP_ROUTE_TWY_C
10
-244.3109
20
-36.300696
30
0
11
-231.781036
21
-54.805755
31
0
0
TEXT
8
XP_ROUTE_LABELS
10
-238.045968
20
-45.553226
30
0
40
122.339001
1
C/C
0
LINE
8
XP_ROUTE_TWY_C
10
-231.781036
20
-54.805755
30
0
11
-219.251938
21
-73.310815
31
0
0
TEXT
8
XP_ROUTE_LABELS
10
-225.516487
20
-64.058285
30
0
40
122.339001
1
C/C
0
LINE
8
XP_ROUTE_TWY_C
10
-219.251938
20
-73.310815
30
0
11
-202.382871
21
-98.515369
31
0
0
TEXT
8
XP_ROUTE_LABELS
10
-210.817404
20
-85.913092
30
0
40
122.339001
1
C/C
0
LINE
8
XP_ROUTE_TWY_C
10
-202.382871
20
-98.515369
30
0
11
-189.943359
21
-117.279513
31
0
0
TEXT
8
XP_ROUTE_LABELS
10
-196.163115
20
-107.897441
30
0
40
122.339001
1
C/C
0
LINE
8
XP_ROUTE_TWY_C
10
-189.943359
20
-117.279513
30
0
11
-177.503082
21
-136.044769
31
0
0
TEXT
8
XP_ROUTE_LABELS
10
-183.723221
20
-126.662141
30
0
40
122.339001
1
C/C
0
LINE
8
XP_ROUTE_TWY_C
10
-177.503082
20
-136.044769
30
0
11
-159.717475
21
-162.184472
31
0
0
TEXT
8
XP_ROUTE_LABELS
10
-168.610279
20
-149.114621
30
0
40
122.339001
1
C/C
0
LINE
8
XP_ROUTE_TWY_C
10
-159.717475
20
-162.184472
30
0
11
-148.227428
21
-179.2907
31
0
0
TEXT
8
XP_ROUTE_LABELS
10
-153.972452
20
-170.737586
30
0
40
122.339001
1
C/C
0
LINE
8
XP_ROUTE_TWY_C
10
-148.227428
20
-179.2907
30
0
11
-136.737381
21
-196.396927
31
0
0
TEXT
8
XP_ROUTE_LABELS
10
-142.482405
20
-187.843813
30
0
40
122.339001
1
C/C
0
LINE
8
XP_ROUTE_TWY_C
10
-136.737381
20
-196.396927
30
0
11
-118.483933
21
-223.615221
31
0
0
TEXT
8
XP_ROUTE_LABELS
10
-127.610657
20
-210.006074
30
0
40
122.339001
1
C/C
0
LINE
8
XP_ROUTE_TWY_C
10
-235.627132
20
-5.033794
30
0
11
-244.3109
21
-36.300696
31
0
0
TEXT
8
XP_ROUTE_LABELS
10
-239.969016
20
-20.667245
30
0
40
122.339001
1
C/A
0
LINE
8
XP_ROUTE_TWY_C
10
-78.108738
20
-241.590993
30
0
11
-118.483933
21
-223.615221
31
0
0
TEXT
8
XP_ROUTE_LABELS
10
-98.296335
20
-232.603107
30
0
40
122.339001
1
C/B
0
LINE
8
XP_ROUTE_TWY_D
10
-78.108738
20
-241.590993
30
0
11
-84.179182
21
-274.450206
31
0
0
TEXT
8
XP_ROUTE_LABELS
10
-81.14396
20
-258.0206
30
0
40
122.339001
1
D/B
0
LINE
8
XP_ROUTE_TWY_D
10
5.597244
20
-185.582109
30
0
11
-78.108738
21
-241.590993
31
0
0
TEXT
8
XP_ROUTE_LABELS
10
-36.255747
20
-213.586551
30
0
40
122.339001
1
D/B
0
LINE
8
XP_ROUTE_TWY_C
10
-153.088072
20
50.385757
30
0
11
-235.627132
21
-5.033794
31
0
0
TEXT
8
XP_ROUTE_LABELS
10
-194.357602
20
22.675981
30
0
40
122.339001
1
C/A
0
LINE
8
XP_ROUTE_TWY_C
10
-153.088072
20
50.385757
30
0
11
-77.211341
21
101.041718
31
0
0
TEXT
8
XP_ROUTE_LABELS
10
-115.149706
20
75.713738
30
0
40
122.339001
1
C/A
0
LINE
8
XP_ROUTE_TWY_D
10
80.772597
20
-134.907245
30
0
11
5.597244
21
-185.582109
31
0
0
TEXT
8
XP_ROUTE_LABELS
10
43.184921
20
-160.244677
30
0
40
122.339001
1
D/B
0
LINE
8
XP_ROUTE_TWY_A
10
-347.486256
20
649.808696
30
0
11
-325.583497
21
617.46098
31
0
0
LINE
8
XP_ROUTE_TWY_A
10
-329.921935
20
661.817748
30
0
11
-347.486256
21
649.808696
31
0
0
LINE
8
XP_ROUTE_TWY_A
10
-313.957155
20
638.743689
30
0
11
-329.921935
21
661.817748
31
0
0
LINE
8
XP_ROUTE_TWY_A
10
-325.583497
20
617.46098
30
0
11
-313.957155
21
638.743689
31
0
0
LINE
8
XP_ROUTE_TWY_A
10
316.743526
20
-339.826151
30
0
11
297.158532
21
-310.655274
31
0
0
LINE
8
XP_ROUTE_TWY_A
10
336.039087
20
-327.593597
30
0
11
316.743526
21
-339.826151
31
0
0
LINE
8
XP_ROUTE_TWY_A
10
323.67002
20
-308.505876
30
0
11
336.039087
21
-327.593597
31
0
0
LINE
8
XP_ROUTE_TWY_A
10
297.158532
20
-310.655274
30
0
11
323.67002
21
-308.505876
31
0
0
LINE
8
XP_ROUTE_TWY_D
10
693.279556
20
-1049.064088
30
0
11
648.633303
21
-982.367147
31
0
0
LINE
8
XP_ROUTE_TWY_D
10
660.052906
20
-1071.565493
30
0
11
693.279556
21
-1049.064088
31
0
0
LINE
8
XP_ROUTE_TWY_D
10
637.986288
20
-1039.235568
30
0
11
660.052906
21
-1071.565493
31
0
0
LINE
8
XP_ROUTE_TWY_D
10
648.633303
20
-982.367147
30
0
11
637.986288
21
-1039.235568
31
0
0
LINE
8
XP_ROUTE_TWY_D
10
-690.425803
20
1017.433579
30
0
11
-648.875263
21
954.638468
31
0
0
LINE
8
XP_ROUTE_TWY_D
10
-722.663939
20
995.912913
30
0
11
-690.425803
21
1017.433579
31
0
0
LINE
8
XP_ROUTE_TWY_D
10
-703.572053
20
965.473302
30
0
11
-722.663939
21
995.912913
31
0
0
LINE
8
XP_ROUTE_TWY_D
10
-648.875263
20
954.638468
30
0
11
-703.572053
21
965.473302
31
0
0
LINE
8
XP_ROUTE_RUNWAYS
10
-325.583497
20
617.46098
30
0
11
-83.700622
21
257.331747
31
0
0
LINE
8
XP_ROUTE_RUNWAYS
10
-83.700622
20
257.331747
30
0
11
297.158532
21
-310.655274
31
0
0
LINE
8
XP_ROUTE_RUNWAYS
10
-648.875263
20
954.638468
30
0
11
-144.83386
21
201.833247
31
0
0
LINE
8
XP_ROUTE_RUNWAYS
10
-144.83386
20
201.833247
30
0
11
-77.211341
21
101.041718
31
0
0
LINE
8
XP_ROUTE_RUNWAYS
10
-77.211341
20
101.041718
30
0
11
80.772597
21
-134.907245
31
0
0
LINE
8
XP_ROUTE_RUNWAYS
10
80.772597
20
-134.907245
30
0
11
648.633303
21
-982.367147
31
0
0
POINT
8
XP_TAXI_SIGNS
10
-155.601855
20
67.816674
30
0
0
LINE
8
XP_TAXI_SIGNS
10
-248.524273
20
-25.105745
30
0
11
-62.679436
21
160.739092
31
0
0
LINE
8
XP_TAXI_SIGNS
10
-248.524273
20
160.739092
30
0
11
-62.679436
21
-25.105745
31
0
0
TEXT
8
XP_TAXI_SIGN_LABELS
10
43.517614
20
187.288355
30
0
40
122.339001
1
A
0
POINT
8
XP_TAXI_SIGNS
10
2.851455
20
-165.700456
30
0
0
LINE
8
XP_TAXI_SIGNS
10
-90.070963
20
-258.622874
30
0
11
95.773874
21
-72.778037
31
0
0
LINE
8
XP_TAXI_SIGNS
10
-90.070963
20
-72.778037
30
0
11
95.773874
21
-258.622874
31
0
0
TEXT
8
XP_TAXI_SIGN_LABELS
10
201.970924
20
-46.228775
30
0
40
122.339001
1
B
0
POINT
8
XP_TAXI_SIGNS
10
19.624811
20
-205.669472
30
0
0
LINE
8
XP_TAXI_SIGNS
10
-73.297608
20
-298.591891
30
0
11
112.547229
21
-112.747054
31
0
0
LINE
8
XP_TAXI_SIGNS
10
-73.297608
20
-112.747054
30
0
11
112.547229
21
-298.591891
31
0
0
TEXT
8
XP_TAXI_SIGN_LABELS
10
218.744279
20
-86.197791
30
0
40
122.339001
1
B / 14-32
0
POINT
8
XP_TAXI_SIGNS
10
-9.137061
20
-162.946157
30
0
0
LINE
8
XP_TAXI_SIGNS
10
-102.059479
20
-255.868576
30
0
11
83.785358
21
-70.023739
31
0
0
LINE
8
XP_TAXI_SIGNS
10
-102.059479
20
-70.023739
30
0
11
83.785358
21
-255.868576
31
0
0
TEXT
8
XP_TAXI_SIGN_LABELS
10
189.982408
20
-43.474476
30
0
40
122.339001
1
14-32 / B
0
POINT
8
XP_TAXI_SIGNS
10
-141.544426
20
33.71319
30
0
0
LINE
8
XP_TAXI_SIGNS
10
-234.466845
20
-59.209229
30
0
11
-48.622007
21
126.635608
31
0
0
LINE
8
XP_TAXI_SIGNS
10
-234.466845
20
126.635608
30
0
11
-48.622007
21
-59.209229
31
0
0
TEXT
8
XP_TAXI_SIGN_LABELS
10
57.575042
20
153.184871
30
0
40
122.339001
1
A / 14-32
0
POINT
8
XP_TAXI_SIGNS
10
-164.972453
20
68.51053
30
0
0
LINE
8
XP_TAXI_SIGNS
10
-257.894872
20
-24.411888
30
0
11
-72.050034
21
161.432949
31
0
0
LINE
8
XP_TAXI_SIGNS
10
-257.894872
20
161.432949
30
0
11
-72.050034
21
-24.411888
31
0
0
TEXT
8
XP_TAXI_SIGN_LABELS
10
34.147015
20
187.982211
30
0
40
122.339001
1
14-32 / A
0
POINT
8
XP_TAXI_SIGNS
10
99.782553
20
-229.782092
30
0
0
LINE
8
XP_TAXI_SIGNS
10
6.860134
20
-322.704511
30
0
11
192.704972
21
-136.859673
31
0
0
LINE
8
XP_TAXI_SIGNS
10
6.860134
20
-136.859673
30
0
11
192.704972
21
-322.704511
31
0
0
TEXT
8
XP_TAXI_SIGN_LABELS
10
298.902022
20
-110.310411
30
0
40
122.339001
1
B
0
POINT
8
XP_TAXI_SIGNS
10
-221.341525
20
23.771251
30
0
0
LINE
8
XP_TAXI_SIGNS
10
-314.263944
20
-69.151167
30
0
11
-128.419106
21
116.69367
31
0
0
LINE
8
XP_TAXI_SIGNS
10
-314.263944
20
116.69367
30
0
11
-128.419106
21
-69.151167
31
0
0
TEXT
8
XP_TAXI_SIGN_LABELS
10
-22.222057
20
143.242932
30
0
40
122.339001
1
C
0
POINT
8
XP_TAXI_SIGNS
10
-160.462498
20
156.749264
30
0
0
LINE
8
XP_TAXI_SIGNS
10
-253.384917
20
63.826846
30
0
11
-67.54008
21
249.671683
31
0
0
LINE
8
XP_TAXI_SIGNS
10
-253.384917
20
249.671683
30
0
11
-67.54008
21
63.826846
31
0
0
TEXT
8
XP_TAXI_SIGN_LABELS
10
38.65697
20
276.220945
30
0
40
122.339001
1
A
0
POINT
8
XP_TAXI_SIGNS
10
-28.388977
20
-39.414154
30
0
0
LINE
8
XP_TAXI_SIGNS
10
-121.311396
20
-132.336572
30
0
11
64.533442
21
53.508265
31
0
0
LINE
8
XP_TAXI_SIGNS
10
-121.311396
20
53.508265
30
0
11
64.533442
21
-132.336572
31
0
0
TEXT
8
XP_TAXI_SIGN_LABELS
10
170.730491
20
80.057527
30
0
40
122.339001
1
B / / / / A
0
POINT
8
XP_PARKING
10
-306.422698
20
-81.9729
30
0
0
LINE
8
XP_PARKING
10
-372.795854
20
-148.346056
30
0
11
-240.049542
21
-15.599744
31
0
0
LINE
8
XP_PARKING
10
-372.795854
20
-15.599744
30
0
11
-240.049542
21
-148.346056
31
0
0
TEXT
8
XP_PARKING_LABELS
10
-107.30323
20
-161.620687
30
0
40
122.339001
1
Position 1
0
POINT
8
XP_PARKING
10
-264.113352
20
-143.77504
30
0
0
LINE
8
XP_PARKING
10
-330.486508
20
-210.148196
30
0
11
-197.740196
21
-77.401884
31
0
0
LINE
8
XP_PARKING
10
-330.486508
20
-77.401884
30
0
11
-197.740196
21
-210.148196
31
0
0
TEXT
8
XP_PARKING_LABELS
10
-64.993884
20
-223.422828
30
0
40
122.339001
1
Position 2
0
POINT
8
XP_PARKING
10
-223.821617
20
-206.993804
30
0
0
LINE
8
XP_PARKING
10
-290.194773
20
-273.36696
30
0
11
-157.448461
21
-140.620648
31
0
0
LINE
8
XP_PARKING
10
-290.194773
20
-140.620648
30
0
11
-157.448461
21
-273.36696
31
0
0
TEXT
8
XP_PARKING_LABELS
10
-24.702149
20
-286.641591
30
0
40
122.339001
1
Position 3
0
POINT
8
XP_PARKING
10
-181.294047
20
-268.598017
30
0
0
LINE
8
XP_PARKING
10
-247.667204
20
-334.971173
30
0
11
-114.920891
21
-202.224861
31
0
0
LINE
8
XP_PARKING
10
-247.667204
20
-202.224861
30
0
11
-114.920891
21
-334.971173
31
0
0
TEXT
8
XP_PARKING_LABELS
10
17.825421
20
-348.245804
30
0
40
122.339001
1
Position 4
0
POINT
8
XP_PARKING
10
-131.722067
20
-339.299087
30
0
0
LINE
8
XP_PARKING
10
-198.095223
20
-405.672243
30
0
11
-65.34891
21
-272.925931
31
0
0
LINE
8
XP_PARKING
10
-198.095223
20
-272.925931
30
0
11
-65.34891
21
-405.672243
31
0
0
TEXT
8
XP_PARKING_LABELS
10
67.397402
20
-418.946875
30
0
40
122.339001
1
Position 5
0
POINT
8
XP_PARKING
10
-263.990075
20
-55.332819
30
0
0
LINE
8
XP_PARKING
10
-330.363231
20
-121.705976
30
0
11
-197.616919
21
11.040337
31
0
0
LINE
8
XP_PARKING
10
-330.363231
20
11.040337
30
0
11
-197.616919
21
-121.705976
31
0
0
TEXT
8
XP_PARKING_LABELS
10
-64.870607
20
-134.980607
30
0
40
122.339001
1
Position B1
0
POINT
8
XP_PARKING
10
-251.436475
20
-74.229285
30
0
0
LINE
8
XP_PARKING
10
-317.809631
20
-140.602441
30
0
11
-185.063319
21
-7.856129
31
0
0
LINE
8
XP_PARKING
10
-317.809631
20
-7.856129
30
0
11
-185.063319
21
-140.602441
31
0
0
TEXT
8
XP_PARKING_LABELS
10
-52.317006
20
-153.877073
30
0
40
122.339001
1
Position B2
0
POINT
8
XP_PARKING
10
-238.554391
20
-93.388171
30
0
0
LINE
8
XP_PARKING
10
-304.927547
20
-159.761327
30
0
11
-172.181235
21
-27.015015
31
0
0
LINE
8
XP_PARKING
10
-304.927547
20
-27.015015
30
0
11
-172.181235
21
-159.761327
31
0
0
TEXT
8
XP_PARKING_LABELS
10
-39.434922
20
-173.035958
30
0
40
122.339001
1
Position B3
0
POINT
8
XP_PARKING
10
-225.914267
20
-112.348018
30
0
0
LINE
8
XP_PARKING
10
-292.287423
20
-178.721174
30
0
11
-159.541111
21
-45.974862
31
0
0
LINE
8
XP_PARKING
10
-292.287423
20
-45.974862
30
0
11
-159.541111
21
-178.721174
31
0
0
TEXT
8
XP_PARKING_LABELS
10
-26.794798
20
-191.995805
30
0
40
122.339001
1
Position B4
0
POINT
8
XP_PARKING
10
-213.160054
20
-131.37903
30
0
0
LINE
8
XP_PARKING
10
-279.53321
20
-197.752186
30
0
11
-146.786898
21
-65.005874
31
0
0
LINE
8
XP_PARKING
10
-279.53321
20
-65.005874
30
0
11
-146.786898
21
-197.752186
31
0
0
TEXT
8
XP_PARKING_LABELS
10
-14.040586
20
-211.026817
30
0
40
122.339001
1
Position B5
0
POINT
8
XP_PARKING
10
-321.227447
20
-69.201051
30
0
0
LINE
8
XP_PARKING
10
-387.600603
20
-135.574207
30
0
11
-254.854291
21
-2.827895
31
0
0
LINE
8
XP_PARKING
10
-387.600603
20
-2.827895
30
0
11
-254.854291
21
-135.574207
31
0
0
TEXT
8
XP_PARKING_LABELS
10
-122.107979
20
-148.848838
30
0
40
122.339001
1
GA-1 start 1
0
POINT
8
XP_PARKING
10
-254.317026
20
-169.310955
30
0
0
LINE
8
XP_PARKING
10
-320.690183
20
-235.684111
30
0
11
-187.94387
21
-102.937799
31
0
0
LINE
8
XP_PARKING
10
-320.690183
20
-102.937799
30
0
11
-187.94387
21
-235.684111
31
0
0
TEXT
8
XP_PARKING_LABELS
10
-55.197558
20
-248.958742
30
0
40
122.339001
1
GA-1 start 2
0
POINT
8
XP_PARKING
10
-130.548253
20
-366.524053
30
0
0
LINE
8
XP_PARKING
10
-196.921409
20
-432.897209
30
0
11
-64.175097
21
-300.150897
31
0
0
LINE
8
XP_PARKING
10
-196.921409
20
-300.150897
30
0
11
-64.175097
21
-432.897209
31
0
0
TEXT
8
XP_PARKING_LABELS
10
68.571215
20
-446.17184
30
0
40
122.339001
1
GA-2
0
POINT
8
XP_PARKING
10
116.81012
20
397.79429
30
0
0
LINE
8
XP_PARKING
10
50.436964
20
331.421134
30
0
11
183.183276
21
464.167446
31
0
0
LINE
8
XP_PARKING
10
50.436964
20
464.167446
30
0
11
183.183276
21
331.421134
31
0
0
TEXT
8
XP_PARKING_LABELS
10
315.929588
20
318.146503
30
0
40
122.339001
1
Flying Club start 1
0
POINT
8
XP_PARKING
10
107.12482
20
387.032845
30
0
0
LINE
8
XP_PARKING
10
40.751664
20
320.659689
30
0
11
173.497976
21
453.406001
31
0
0
LINE
8
XP_PARKING
10
40.751664
20
453.406001
30
0
11
173.497976
21
320.659689
31
0
0
TEXT
8
XP_PARKING_LABELS
10
306.244289
20
307.385058
30
0
40
122.339001
1
Flying Club start 1
0
POINT
8
XP_PARKING
10
70.448706
20
405.285493
30
0
0
LINE
8
XP_PARKING
10
4.07555
20
338.912336
30
0
11
136.821862
21
471.658649
31
0
0
LINE
8
XP_PARKING
10
4.07555
20
471.658649
30
0
11
136.821862
21
338.912336
31
0
0
TEXT
8
XP_PARKING_LABELS
10
269.568174
20
325.637705
30
0
40
122.339001
1
Flying Club start 2
0
LINE
8
XP_BRANCH_A_A
10
51.508428
20
381.338553
30
0
11
65.475505
21
398.905128
31
0
0
LINE
8
XP_BRANCH_A_A
10
43.773359
20
374.436684
30
0
11
51.508428
21
381.338553
31
0
0
LINE
8
XP_BRANCH_A_A
10
-33.245027
20
303.690024
30
0
11
0.109495
21
334.395391
31
0
0
LINE
8
XP_BRANCH_A_A
10
0.109495
20
334.395391
30
0
11
43.773359
21
374.436684
31
0
0
LINE
8
XP_BRANCH_A_A
10
-83.700622
20
257.331747
30
0
11
-44.297861
21
293.39115
31
0
0
LINE
8
XP_BRANCH_A_A
10
-44.297861
20
293.39115
30
0
11
-33.245027
21
303.690024
31
0
0
LINE
8
XP_BRANCH_A_A
10
-144.83386
20
201.833247
30
0
11
-83.700622
21
257.331747
31
0
0
LINE
8
XP_BRANCH_A_A
10
-34.7925
20
-348.663924
30
0
11
-101.450241
21
-392.868355
31
0
0
LINE
8
XP_BRANCH_A_A
10
-69.817772
20
-295.549443
30
0
11
-34.7925
21
-348.663924
31
0
0
LINE
8
XP_BRANCH_A_A
10
-177.503082
20
-136.044769
30
0
11
-234.056687
21
-177.112391
31
0
0
LINE
8
XP_BRANCH_A_A
10
-235.627132
20
-5.033794
30
0
11
-310.651642
21
-55.22496
31
0
0
LINE
8
XP_BRANCH_A_A
10
-347.486256
20
649.808696
30
0
11
-325.583497
21
617.46098
31
0
0
LINE
8
XP_BRANCH_A_A
10
-329.921935
20
661.817748
30
0
11
-347.486256
21
649.808696
31
0
0
LINE
8
XP_BRANCH_A_A
10
-313.957155
20
638.743689
30
0
11
-329.921935
21
661.817748
31
0
0
LINE
8
XP_BRANCH_A_A
10
-325.583497
20
617.46098
30
0
11
-313.957155
21
638.743689
31
0
0
LINE
8
XP_BRANCH_A_A
10
316.743526
20
-339.826151
30
0
11
297.158532
21
-310.655274
31
0
0
LINE
8
XP_BRANCH_A_A
10
336.039087
20
-327.593597
30
0
11
316.743526
21
-339.826151
31
0
0
LINE
8
XP_BRANCH_A_A
10
323.67002
20
-308.505876
30
0
11
336.039087
21
-327.593597
31
0
0
LINE
8
XP_BRANCH_A_A
10
297.158532
20
-310.655274
30
0
11
323.67002
21
-308.505876
31
0
0
LINE
8
XP_BRANCH_A_A
10
116.81012
20
397.79429
30
0
11
65.475505
21
398.905128
31
0
0
LINE
8
XP_BRANCH_A_A
10
107.12482
20
387.032845
30
0
11
65.475505
21
398.905128
31
0
0
LINE
8
XP_BRANCH_A_A
10
70.448706
20
405.285493
30
0
11
65.475505
21
398.905128
31
0
0
LINE
8
XP_BRANCH_A_A
10
-321.227447
20
-69.201051
30
0
11
-310.651642
21
-55.22496
31
0
0
LINE
8
XP_BRANCH_A_A
10
-254.317026
20
-169.310955
30
0
11
-234.056687
21
-177.112391
31
0
0
LINE
8
XP_BRANCH_A_A
10
-130.548253
20
-366.524053
30
0
11
-101.450241
21
-392.868355
31
0
0
LINE
8
XP_BRANCH_A_A
10
-306.422698
20
-81.9729
30
0
11
-310.651642
21
-55.22496
31
0
0
LINE
8
XP_BRANCH_A_A
10
-264.113352
20
-143.77504
30
0
11
-234.056687
21
-177.112391
31
0
0
LINE
8
XP_BRANCH_A_A
10
-223.821617
20
-206.993804
30
0
11
-234.056687
21
-177.112391
31
0
0
LINE
8
XP_BRANCH_A_A
10
-181.294047
20
-268.598017
30
0
11
-234.056687
21
-177.112391
31
0
0
LINE
8
XP_BRANCH_A_A
10
-131.722067
20
-339.299087
30
0
11
-97.801812
21
-390.448881
31
0
0
LINE
8
XP_BRANCH_A_A
10
-263.990075
20
-55.332819
30
0
11
-278.466786
21
-33.693391
31
0
0
LINE
8
XP_BRANCH_A_A
10
-251.436475
20
-74.229285
30
0
11
-278.527631
21
-33.734096
31
0
0
LINE
8
XP_BRANCH_A_A
10
-238.554391
20
-93.388171
30
0
11
-197.194565
21
-150.344165
31
0
0
LINE
8
XP_BRANCH_A_A
10
-225.914267
20
-112.348018
30
0
11
-197.933097
21
-150.880466
31
0
0
LINE
8
XP_BRANCH_A_A
10
-213.160054
20
-131.37903
30
0
11
-198.630766
21
-151.387093
31
0
0
TEXT
8
XP_BRANCH_LABELS
10
-39.379729
20
139.295904
30
0
40
122.339001
1
A/A
0
POINT
8
OFMX_VFR_POINTS
10
1467.594342
20
5312.646742
30
0
0
LINE
8
OFMX_VFR_POINTS
10
1334.84803
20
5179.90043
30
0
11
1600.340654
21
5445.393055
31
0
0
LINE
8
OFMX_VFR_POINTS
10
1334.84803
20
5445.393055
30
0
11
1600.340654
21
5179.90043
31
0
0
TEXT
8
OFMX_VFR_LABELS
10
1666.71381
20
5511.766211
30
0
40
169.91528
1
HOLDING E
0
POINT
8
OFMX_VFR_POINTS
10
-1020.92048
20
-4818.446451
30
0
0
LINE
8
OFMX_VFR_POINTS
10
-1153.666792
20
-4951.192763
30
0
11
-888.174167
21
-4685.700138
31
0
0
LINE
8
OFMX_VFR_POINTS
10
-1153.666792
20
-4685.700138
30
0
11
-888.174167
21
-4951.192763
31
0
0
TEXT
8
OFMX_VFR_LABELS
10
-821.801011
20
-4619.326982
30
0
40
169.91528
1
HOLDING W
0
POINT
8
OFMX_VFR_POINTS
10
17206.91843
20
-8277.841821
30
0
0
LINE
8
OFMX_VFR_POINTS
10
17074.172118
20
-8410.588133
30
0
11
17339.664742
21
-8145.095509
31
0
0
LINE
8
OFMX_VFR_POINTS
10
17074.172118
20
-8145.095509
30
0
11
17339.664742
21
-8410.588133
31
0
0
TEXT
8
OFMX_VFR_LABELS
10
17406.037898
20
-8078.722353
30
0
40
169.91528
1
ME1
0
POINT
8
OFMX_VFR_POINTS
10
11528.000501
20
10934.167416
30
0
0
LINE
8
OFMX_VFR_POINTS
10
11395.254189
20
10801.421104
30
0
11
11660.746813
21
11066.913728
31
0
0
LINE
8
OFMX_VFR_POINTS
10
11395.254189
20
11066.913728
30
0
11
11660.746813
21
10801.421104
31
0
0
TEXT
8
OFMX_VFR_LABELS
10
11727.11997
20
11133.286885
30
0
40
169.91528
1
ME2
0
POINT
8
OFMX_VFR_POINTS
10
29840.916756
20
19304.674641
30
0
0
LINE
8
OFMX_VFR_POINTS
10
29708.170443
20
19171.928329
30
0
11
29973.663068
21
19437.420953
31
0
0
LINE
8
OFMX_VFR_POINTS
10
29708.170443
20
19437.420953
30
0
11
29973.663068
21
19171.928329
31
0
0
TEXT
8
OFMX_VFR_LABELS
10
30040.036224
20
19503.79411
30
0
40
169.91528
1
ME3
0
POINT
8
OFMX_VFR_POINTS
10
-1999.311093
20
21837.448217
30
0
0
LINE
8
OFMX_VFR_POINTS
10
-2132.057405
20
21704.701905
30
0
11
-1866.56478
21
21970.19453
31
0
0
LINE
8
OFMX_VFR_POINTS
10
-2132.057405
20
21970.19453
30
0
11
-1866.56478
21
21704.701905
31
0
0
TEXT
8
OFMX_VFR_LABELS
10
-1800.191624
20
22036.567686
30
0
40
169.91528
1
MN1
0
POINT
8
OFMX_VFR_POINTS
10
-467.917356
20
14640.665712
30
0
0
LINE
8
OFMX_VFR_POINTS
10
-600.663668
20
14507.9194
30
0
11
-335.171044
21
14773.412024
31
0
0
LINE
8
OFMX_VFR_POINTS
10
-600.663668
20
14773.412024
30
0
11
-335.171044
21
14507.9194
31
0
0
TEXT
8
OFMX_VFR_LABELS
10
-268.797888
20
14839.785181
30
0
40
169.91528
1
MN2
0
POINT
8
OFMX_VFR_POINTS
10
-8762.966507
20
-9451.568765
30
0
0
LINE
8
OFMX_VFR_POINTS
10
-8895.712819
20
-9584.315077
30
0
11
-8630.220194
21
-9318.822452
31
0
0
LINE
8
OFMX_VFR_POINTS
10
-8895.712819
20
-9318.822452
30
0
11
-8630.220194
21
-9584.315077
31
0
0
TEXT
8
OFMX_VFR_LABELS
10
-8563.847038
20
-9252.449296
30
0
40
169.91528
1
MS1
0
POINT
8
OFMX_VFR_POINTS
10
-17568.480491
20
-17976.513512
30
0
0
LINE
8
OFMX_VFR_POINTS
10
-17701.226803
20
-18109.259824
30
0
11
-17435.734179
21
-17843.767199
31
0
0
LINE
8
OFMX_VFR_POINTS
10
-17701.226803
20
-17843.767199
30
0
11
-17435.734179
21
-18109.259824
31
0
0
TEXT
8
OFMX_VFR_LABELS
10
-17369.361023
20
-17777.394043
30
0
40
169.91528
1
MS2
0
POINT
8
OFMX_VFR_POINTS
10
-14250.460984
20
7073.23271
30
0
0
LINE
8
OFMX_VFR_POINTS
10
-14383.207296
20
6940.486398
30
0
11
-14117.714672
21
7205.979023
31
0
0
LINE
8
OFMX_VFR_POINTS
10
-14383.207296
20
7205.979023
30
0
11
-14117.714672
21
6940.486398
31
0
0
TEXT
8
OFMX_VFR_LABELS
10
-14051.341516
20
7272.352179
30
0
40
169.91528
1
MW1
0
ENDSEC
0
EOF
