999
dxfrw 0.6.3
  0
SECTION
  2
HEADER
  9
$ACADVER
  1
AC1021
  9
$DWGCODEPAGE
  3
ANSI_1252
  9
$INSBASE
 10
0
 20
0
 30
0
  9
$EXTMIN
 10
-4275.893413796826
 20
-7950.160157328751
 30
0
  9
$EXTMAX
 10
5318.473647906781
 20
8749.183326871975
 30
0
  9
$LIMMIN
 10
0
 20
0
  9
$LIMMAX
 10
420
 20
297
  9
$ORTHOMODE
 70
    0
  9
$REGENMODE
 70
    1
  9
$FILLMODE
 70
    1
  9
$QTEXTMODE
 70
    0
  9
$MIRRTEXT
 70
    1
  9
$LTSCALE
 40
1
  9
$ATTMODE
 70
    1
  9
$TEXTSIZE
 40
2.5
  9
$TRACEWID
 40
1
  9
$TEXTSTYLE
  7
Standard
  9
$CLAYER
  8
NEW_Parking_Points
  9
$CELTYPE
  6
ByLayer
  9
$CECOLOR
 62
  256
  9
$CELTSCALE
 40
1
  9
$DISPSILH
 70
    0
  9
$DIMSCALE
 40
1
  9
$DIMASZ
 40
2.5
  9
$DIMEXO
 40
0.625
  9
$DIMDLI
 40
3.75
  9
$DIMRND
 40
0
  9
$DIMDLE
 40
0
  9
$DIMEXE
 40
1.25
  9
$DIMTP
 40
0
  9
$DIMTM
 40
0
  9
$DIMTXT
 40
2.5
  9
$DIMCEN
 40
2.5
  9
$DIMTSZ
 40
0
  9
$DIMTOL
 70
    0
  9
$DIMLIM
 70
    0
  9
$DIMTIH
 70
    0
  9
$DIMTOH
 70
    0
  9
$DIMSE1
 70
    0
  9
$DIMSE2
 70
    0
  9
$DIMTAD
 70
    1
  9
$DIMZIN
 70
    8
  9
$DIMBLK
  1

  9
$DIMASO
 70
    1
  9
$DIMSHO
 70
    1
  9
$DIMPOST
  1

  9
$DIMAPOST
  1

  9
$DIMALT
 70
    0
  9
$DIMALTD
 70
    3
  9
$DIMALTF
 40
0.03937007874
  9
$DIMLFAC
 40
1
  9
$DIMTOFL
 70
    1
  9
$DIMTVP
 40
0
  9
$DIMTIX
 70
    0
  9
$DIMSOXD
 70
    0
  9
$DIMSAH
 70
    0
  9
$DIMBLK1
  1

  9
$DIMBLK2
  1

  9
$DIMSTYLE
  2
ISO-25
  9
$DIMCLRD
 70
    0
  9
$DIMCLRE
 70
    0
  9
$DIMCLRT
 70
    0
  9
$DIMTFAC
 40
1
  9
$DIMGAP
 40
0.625
  9
$DIMJUST
 70
    0
  9
$DIMSD1
 70
    0
  9
$DIMSD2
 70
    0
  9
$DIMTOLJ
 70
    0
  9
$DIMTZIN
 70
    8
  9
$DIMALTZ
 70
    0
  9
$DIMALTTZ
 70
    0
  9
$DIMUPT
 70
    0
  9
$DIMDEC
 70
    2
  9
$DIMTDEC
 70
    2
  9
$DIMALTU
 70
    2
  9
$DIMALTTD
 70
    3
  9
$DIMTXSTY
  7
Standard
  9
$DIMAUNIT
 70
    0
  9
$DIMADEC
 70
    0
  9
$DIMALTRND
 40
0
  9
$DIMAZIN
 70
    0
  9
$DIMDSEP
 70
   44
  9
$DIMATFIT
 70
    3
  9
$DIMFRAC
 70
    0
  9
$DIMLDRBLK
  1

  9
$DIMLUNIT
 70
    2
  9
$DIMLWD
 70
   -2
  9
$DIMLWE
 70
   -2
  9
$DIMTMOVE
 70
    0
  9
$DIMFXL
 40
1
  9
$DIMFXLON
 70
    0
  9
$DIMJOGANG
 40
0.7854
  9
$DIMTFILL
 70
    0
  9
$DIMTFILLCLR
 70
    0
  9
$DIMARCSYM
 70
    0
  9
$DIMLTYPE
  6

  9
$DIMLTEX1
  6

  9
$DIMLTEX2
  6

  9
$LUNITS
 70
    2
  9
$LUPREC
 70
    4
  9
$SKETCHINC
 40
1
  9
$FILLETRAD
 40
10
  9
$AUNITS
 70
    0
  9
$AUPREC
 70
    2
  9
$MENU
  1
.
  9
$ELEVATION
 40
0
  9
$PELEVATION
 40
0
  9
$THICKNESS
 40
0
  9
$LIMCHECK
 70
    0
  9
$CHAMFERA
 40
0
  9
$CHAMFERB
 40
0
  9
$CHAMFERC
 40
0
  9
$CHAMFERD
 40
0
  9
$SKPOLY
 70
    0
  9
$USRTIMER
 70
    1
  9
$ANGBASE
 50
0
  9
$ANGDIR
 70
    0
  9
$PDMODE
 70
    0
  9
$PDSIZE
 40
0
  9
$PLINEWID
 40
0
  9
$SPLFRAME
 70
    0
  9
$SPLINETYPE
 70
    6
  9
$SPLINESEGS
 70
    8
  9
$HANDSEED
  5
20000
  9
$SURFTAB1
 70
    6
  9
$SURFTAB2
 70
    6
  9
$SURFTYPE
 70
    6
  9
$SURFU
 70
    6
  9
$SURFV
 70
    6
  9
$UCSBASE
  2

  9
$UCSNAME
  2

  9
$UCSORG
 10
0
 20
0
 30
0
  9
$UCSXDIR
 10
1
 20
0
 30
0
  9
$UCSYDIR
 10
0
 20
1
 30
0
  9
$UCSORTHOREF
  2

  9
$UCSORTHOVIEW
 70
    0
  9
$UCSORGTOP
 10
0
 20
0
 30
0
  9
$UCSORGBOTTOM
 10
0
 20
0
 30
0
  9
$UCSORGLEFT
 10
0
 20
0
 30
0
  9
$UCSORGRIGHT
 10
0
 20
0
 30
0
  9
$UCSORGFRONT
 10
0
 20
0
 30
0
  9
$UCSORGBACK
 10
0
 20
0
 30
0
  9
$PUCSBASE
  2

  9
$PUCSNAME
  2

  9
$PUCSORG
 10
0
 20
0
 30
0
  9
$PUCSXDIR
 10
1
 20
0
 30
0
  9
$PUCSYDIR
 10
0
 20
1
 30
0
  9
$PUCSORTHOREF
  2

  9
$PUCSORTHOVIEW
 70
    0
  9
$PUCSORGTOP
 10
0
 20
0
 30
0
  9
$PUCSORGBOTTOM
 10
0
 20
0
 30
0
  9
$PUCSORGLEFT
 10
0
 20
0
 30
0
  9
$PUCSORGRIGHT
 10
0
 20
0
 30
0
  9
$PUCSORGFRONT
 10
0
 20
0
 30
0
  9
$PUCSORGBACK
 10
0
 20
0
 30
0
  9
$USERI1
 70
    0
  9
$USERI2
 70
    0
  9
$USERI3
 70
    0
  9
$USERI4
 70
    0
  9
$USERI5
 70
    0
  9
$USERR1
 40
0
  9
$USERR2
 40
0
  9
$USERR3
 40
0
  9
$USERR4
 40
0
  9
$USERR5
 40
0
  9
$WORLDVIEW
 70
    1
  9
$SHADEDGE
 70
    3
  9
$SHADEDIF
 70
   70
  9
$TILEMODE
 70
    1
  9
$MAXACTVP
 70
   64
  9
$PINSBASE
 10
0
 20
0
 30
0
  9
$PLIMCHECK
 70
    0
  9
$PEXTMIN
 10
1e+20
 20
1e+20
 30
1e+20
  9
$PEXTMAX
 10
-1e+20
 20
-1e+20
 30
-1e+20
  9
$GRIDMODE
 70
    0
  9
$SNAPSTYLE
 70
    0
  9
$PLIMMIN
 10
0
 20
0
  9
$PLIMMAX
 10
420
 20
297
  9
$UNITMODE
 70
    0
  9
$VISRETAIN
 70
    1
  9
$PLINEGEN
 70
    0
  9
$PSLTSCALE
 70
    1
  9
$TREEDEPTH
 70
 3020
  9
$CMLSTYLE
  2
Standard
  9
$CMLJUST
 70
    0
  9
$CMLSCALE
 40
20
  9
$PROXYGRAPHICS
 70
    1
  9
$MEASUREMENT
 70
    1
  9
$CELWEIGHT
370
   -1
  9
$ENDCAPS
280
    0
  9
$JOINSTYLE
280
    0
  9
$LWDISPLAY
290
    0
  9
$INSUNITS
 70
    6
  9
$HYPERLINKBASE
  1

  9
$STYLESHEET
  1

  9
$XEDIT
290
    1
  9
$CEPSNTYPE
380
    0
  9
$PSTYLEMODE
290
    1
  9
$EXTNAMES
290
    1
  9
$PSVPSCALE
 40
0
  9
$OLESTARTUP
290
    0
  9
$SORTENTS
280
  127
  9
$INDEXCTL
280
    0
  9
$HIDETEXT
280
    1
  9
$XCLIPFRAME
290
    0
  9
$HALOGAP
280
    0
  9
$OBSCOLOR
 70
  257
  9
$OBSLTYPE
280
    0
  9
$INTERSECTIONDISPLAY
280
    0
  9
$INTERSECTIONCOLOR
 70
  257
  9
$DIMASSOC
280
    1
  9
$PROJECTNAME
  1

  9
$CAMERADISPLAY
290
    0
  9
$LENSLENGTH
 40
50
  9
$CAMERAHEIGHT
 40
0
  9
$STEPSPERSEC
 40
2
  9
$STEPSIZE
 40
50
  9
$3DDWFPREC
 40
2
  9
$PSOLWIDTH
 40
5
  9
$PSOLHEIGHT
 40
80
  9
$LOFTANG1
 40
1.570796326794897
  9
$LOFTANG2
 40
1.570796326794897
  9
$LOFTMAG1
 40
0
  9
$LOFTMAG2
 40
0
  9
$LOFTPARAM
 70
    7
  9
$LOFTNORMALS
280
    1
  9
$LATITUDE
 40
1
  9
$LONGITUDE
 40
1
  9
$NORTHDIRECTION
 40
0
  9
$TIMEZONE
 70
-8000
  9
$LIGHTGLYPHDISPLAY
280
    1
  9
$TILEMODELIGHTSYNCH
280
    1
  9
$SOLIDHIST
280
    1
  9
$SHOWHIST
280
    1
  9
$DWFFRAME
280
    2
  9
$DGNFRAME
280
    0
  9
$REALWORLDSCALE
290
    1
  9
$INTERFERECOLOR
 62
    1
  9
$CSHADOW
280
    0
  9
$SHADOWPLANELOCATION
 40
0
  0
ENDSEC
  0
SECTION
  2
CLASSES
  0
ENDSEC
  0
SECTION
  2
TABLES
  0
TABLE
  2
VPORT
  5
8
330
0
100
AcDbSymbolTable
 70
    1
  0
VPORT
  5
31
330
2
100
AcDbSymbolTableRecord
100
AcDbViewportTableRecord
  2
*ACTIVE
 70
    0
 10
0
 20
0
 11
1
 21
1
 12
260.2823731964948
 22
483.5659297072069
 13
0
 23
0
 14
10
 24
10
 15
10
 25
10
 16
0
 26
0
 36
1
 17
0
 27
0
 37
0
 40
773.5334000120622
 41
1.60901001112347
 42
50
 43
0
 44
0
 50
0
 51
0
 71
    0
 72
  100
 73
    1
 74
    3
 75
    0
 76
    0
 77
    0
 78
    0
281
    0
 65
    1
110
0
120
0
130
0
111
1
121
0
131
0
112
0
122
1
132
0
 79
    0
146
0
348
10020
 60
    7
 61
    5
292
1
282
    1
141
0
142
0
 63
  250
421
3358443
  0
ENDTAB
  0
TABLE
  2
LTYPE
  5
5
330
0
100
AcDbSymbolTable
 70
    4
  0
LTYPE
  5
14
330
5
100
AcDbSymbolTableRecord
100
AcDbLinetypeTableRecord
  2
ByBlock
 70
    0
  3

 72
   65
 73
    0
 40
0
  0
LTYPE
  5
15
330
5
100
AcDbSymbolTableRecord
100
AcDbLinetypeTableRecord
  2
ByLayer
 70
    0
  3

 72
   65
 73
    0
 40
0
  0
LTYPE
  5
16
330
5
100
AcDbSymbolTableRecord
100
AcDbLinetypeTableRecord
  2
Continuous
 70
    0
  3
Solid line
 72
   65
 73
    0
 40
0
  0
LTYPE
  5
32
330
5
100
AcDbSymbolTableRecord
100
AcDbLinetypeTableRecord
  2
DOT
 70
    0
  3
Dot . . . . . . . . . . . . . . . . . . . . . .
 72
   65
 73
    2
 40
6.35
 49
0
 74
    0
 49
-6.35
 74
    0
  0
LTYPE
  5
33
330
5
100
AcDbSymbolTableRecord
100
AcDbLinetypeTableRecord
  2
DOTTINY
 70
    0
  3
Dot (.15x) .....................................
 72
   65
 73
    2
 40
0.9525
 49
0
 74
    0
 49
-0.9525
 74
    0
  0
LTYPE
  5
34
330
5
100
AcDbSymbolTableRecord
100
AcDbLinetypeTableRecord
  2
DOT2
 70
    0
  3
Dot (.5x) .....................................
 72
   65
 73
    2
 40
3.175
 49
0
 74
    0
 49
-3.175
 74
    0
  0
LTYPE
  5
35
330
5
100
AcDbSymbolTableRecord
100
AcDbLinetypeTableRecord
  2
DOTX2
 70
    0
  3
Dot (2x) .  .  .  .  .  .  .  .  .  .  .  .  .
 72
   65
 73
    2
 40
12.7
 49
0
 74
    0
 49
-12.7
 74
    0
  0
LTYPE
  5
36
330
5
100
AcDbSymbolTableRecord
100
AcDbLinetypeTableRecord
  2
DASHED
 70
    0
  3
Dashed _ _ _ _ _ _ _ _ _ _ _ _ _ _ _ _ _
 72
   65
 73
    2
 40
19.05
 49
12.7
 74
    0
 49
-6.35
 74
    0
  0
LTYPE
  5
37
330
5
100
AcDbSymbolTableRecord
100
AcDbLinetypeTableRecord
  2
DASHEDTINY
 70
    0
  3
Dashed (.15x) _ _ _ _ _ _ _ _ _ _ _ _ _ _ _ _ _
 72
   65
 73
    2
 40
2.8575
 49
1.905
 74
    0
 49
-0.9525
 74
    0
  0
LTYPE
  5
38
330
5
100
AcDbSymbolTableRecord
100
AcDbLinetypeTableRecord
  2
DASHED2
 70
    0
  3
Dashed (.5x) _ _ _ _ _ _ _ _ _ _ _ _ _ _ _ _ _
 72
   65
 73
    2
 40
9.524999999999999
 49
6.35
 74
    0
 49
-3.175
 74
    0
  0
LTYPE
  5
39
330
5
100
AcDbSymbolTableRecord
100
AcDbLinetypeTableRecord
  2
DASHEDX2
 70
    0
  3
Dashed (2x) ____  ____  ____  ____  ____  ___
 72
   65
 73
    2
 40
38.09999999999999
 49
25.4
 74
    0
 49
-12.7
 74
    0
  0
LTYPE
  5
3A
330
5
100
AcDbSymbolTableRecord
100
AcDbLinetypeTableRecord
  2
DASHDOT
 70
    0
  3
Dash dot __ . __ . __ . __ . __ . __ . __ . __
 72
   65
 73
    4
 40
25.4
 49
12.7
 74
    0
 49
-6.35
 74
    0
 49
0
 74
    0
 49
-6.35
 74
    0
  0
LTYPE
  5
3B
330
5
100
AcDbSymbolTableRecord
100
AcDbLinetypeTableRecord
  2
DASHDOTTINY
 70
    0
  3
Dash dot (.15x) _._._._._._._._._._._._._._._.
 72
   65
 73
    4
 40
3.81
 49
1.905
 74
    0
 49
-0.9525
 74
    0
 49
0
 74
    0
 49
-0.9525
 74
    0
  0
LTYPE
  5
3C
330
5
100
AcDbSymbolTableRecord
100
AcDbLinetypeTableRecord
  2
DASHDOT2
 70
    0
  3
Dash dot (.5x) _._._._._._._._._._._._._._._.
 72
   65
 73
    4
 40
12.7
 49
6.35
 74
    0
 49
-3.175
 74
    0
 49
0
 74
    0
 49
-3.175
 74
    0
  0
LTYPE
  5
3D
330
5
100
AcDbSymbolTableRecord
100
AcDbLinetypeTableRecord
  2
DASHDOTX2
 70
    0
  3
Dash dot (2x) ____  .  ____  .  ____  .  ___
 72
   65
 73
    4
 40
50.8
 49
25.4
 74
    0
 49
-12.7
 74
    0
 49
0
 74
    0
 49
-12.7
 74
    0
  0
LTYPE
  5
3E
330
5
100
AcDbSymbolTableRecord
100
AcDbLinetypeTableRecord
  2
DIVIDE
 70
    0
  3
Divide ____ . . ____ . . ____ . . ____ . . ____
 72
   65
 73
    6
 40
31.75
 49
12.7
 74
    0
 49
-6.35
 74
    0
 49
0
 74
    0
 49
-6.35
 74
    0
 49
0
 74
    0
 49
-6.35
 74
    0
  0
LTYPE
  5
3F
330
5
100
AcDbSymbolTableRecord
100
AcDbLinetypeTableRecord
  2
DIVIDETINY
 70
    0
  3
Divide (.15x) __..__..__..__..__..__..__..__.._
 72
   65
 73
    6
 40
4.7625
 49
1.905
 74
    0
 49
-0.9525
 74
    0
 49
0
 74
    0
 49
-0.9525
 74
    0
 49
0
 74
    0
 49
-0.9525
 74
    0
  0
LTYPE
  5
40
330
5
100
AcDbSymbolTableRecord
100
AcDbLinetypeTableRecord
  2
DIVIDE2
 70
    0
  3
Divide (.5x) __..__..__..__..__..__..__..__.._
 72
   65
 73
    6
 40
15.875
 49
6.35
 74
    0
 49
-3.175
 74
    0
 49
0
 74
    0
 49
-3.175
 74
    0
 49
0
 74
    0
 49
-3.175
 74
    0
  0
LTYPE
  5
41
330
5
100
AcDbSymbolTableRecord
100
AcDbLinetypeTableRecord
  2
DIVIDEX2
 70
    0
  3
Divide (2x) ________  .  .  ________  .  .  _
 72
   65
 73
    6
 40
63.5
 49
25.4
 74
    0
 49
-12.7
 74
    0
 49
0
 74
    0
 49
-12.7
 74
    0
 49
0
 74
    0
 49
-12.7
 74
    0
  0
LTYPE
  5
42
330
5
100
AcDbSymbolTableRecord
100
AcDbLinetypeTableRecord
  2
BORDER
 70
    0
  3
Border __ __ . __ __ . __ __ . __ __ . __ __ .
 72
   65
 73
    6
 40
44.45
 49
12.7
 74
    0
 49
-6.35
 74
    0
 49
12.7
 74
    0
 49
-6.35
 74
    0
 49
0
 74
    0
 49
-6.35
 74
    0
  0
LTYPE
  5
43
330
5
100
AcDbSymbolTableRecord
100
AcDbLinetypeTableRecord
  2
BORDERTINY
 70
    0
  3
Border (.15x) __.__.__.__.__.__.__.__.__.__.__.
 72
   65
 73
    6
 40
6.6675
 49
1.905
 74
    0
 49
-0.9525
 74
    0
 49
1.905
 74
    0
 49
-0.9525
 74
    0
 49
0
 74
    0
 49
-0.9525
 74
    0
  0
LTYPE
  5
44
330
5
100
AcDbSymbolTableRecord
100
AcDbLinetypeTableRecord
  2
BORDER2
 70
    0
  3
Border (.5x) __.__.__.__.__.__.__.__.__.__.__.
 72
   65
 73
    6
 40
22.225
 49
6.35
 74
    0
 49
-3.175
 74
    0
 49
6.35
 74
    0
 49
-3.175
 74
    0
 49
0
 74
    0
 49
-3.175
 74
    0
  0
LTYPE
  5
45
330
5
100
AcDbSymbolTableRecord
100
AcDbLinetypeTableRecord
  2
BORDERX2
 70
    0
  3
Border (2x) ____  ____  .  ____  ____  .  ___
 72
   65
 73
    6
 40
88.89999999999999
 49
25.4
 74
    0
 49
-12.7
 74
    0
 49
25.4
 74
    0
 49
-12.7
 74
    0
 49
0
 74
    0
 49
-12.7
 74
    0
  0
LTYPE
  5
46
330
5
100
AcDbSymbolTableRecord
100
AcDbLinetypeTableRecord
  2
CENTER
 70
    0
  3
Center ____ _ ____ _ ____ _ ____ _ ____ _ ____
 72
   65
 73
    4
 40
50.8
 49
31.75
 74
    0
 49
-6.35
 74
    0
 49
6.35
 74
    0
 49
-6.35
 74
    0
  0
LTYPE
  5
47
330
5
100
AcDbSymbolTableRecord
100
AcDbLinetypeTableRecord
  2
CENTERTINY
 70
    0
  3
Center (.15x) ___ _ ___ _ ___ _ ___ _ ___ _ ___
 72
   65
 73
    4
 40
7.619999999999999
 49
4.7625
 74
    0
 49
-0.9525
 74
    0
 49
0.9525
 74
    0
 49
-0.9525
 74
    0
  0
LTYPE
  5
48
330
5
100
AcDbSymbolTableRecord
100
AcDbLinetypeTableRecord
  2
CENTER2
 70
    0
  3
Center (.5x) ___ _ ___ _ ___ _ ___ _ ___ _ ___
 72
   65
 73
    4
 40
28.575
 49
19.05
 74
    0
 49
-3.175
 74
    0
 49
3.175
 74
    0
 49
-3.175
 74
    0
  0
LTYPE
  5
49
330
5
100
AcDbSymbolTableRecord
100
AcDbLinetypeTableRecord
  2
CENTERX2
 70
    0
  3
Center (2x) ________  __  ________  __  _____
 72
   65
 73
    4
 40
101.6
 49
63.5
 74
    0
 49
-12.7
 74
    0
 49
12.7
 74
    0
 49
-12.7
 74
    0
  0
ENDTAB
  0
TABLE
  2
LAYER
  5
2
330
0
100
AcDbSymbolTable
 70
    1
  0
LAYER
  5
10
330
2
100
AcDbSymbolTableRecord
100
AcDbLayerTableRecord
  2
0
 70
    1
 62
    7
  6
CONTINUOUS
370
   -3
390
F
  0
LAYER
  5
4A
330
2
100
AcDbSymbolTableRecord
100
AcDbLayerTableRecord
  2
AUTH_GROUND
 70
    0
 62
    1
  6
CONTINUOUS
370
   -3
390
F
  0
LAYER
  5
4B
330
2
100
AcDbSymbolTableRecord
100
AcDbLayerTableRecord
  2
AUTH_GROUND_POINTS
 70
    1
 62
    1
  6
CONTINUOUS
370
   -3
390
F
  0
LAYER
  5
4C
330
2
100
AcDbSymbolTableRecord
100
AcDbLayerTableRecord
  2
AUTH_PROCEDURE_ANCHORS
 70
    1
 62
    6
  6
CONTINUOUS
370
   -3
390
F
  0
LAYER
  5
4D
330
2
100
AcDbSymbolTableRecord
100
AcDbLayerTableRecord
  2
AUTH_PROCEDURE_ANCHOR_LABELS
 70
    1
 62
    6
  6
CONTINUOUS
370
   -3
390
F
  0
LAYER
  5
4E
330
2
100
AcDbSymbolTableRecord
100
AcDbLayerTableRecord
  2
AUTH_VFR_CIRCUIT
 70
    1
 62
    5
  6
CONTINUOUS
370
   -3
390
F
  0
LAYER
  5
4F
330
2
100
AcDbSymbolTableRecord
100
AcDbLayerTableRecord
  2
AUTH_VFR_CIRCUIT_POINTS
 70
    1
 62
    5
  6
CONTINUOUS
370
   -3
390
F
  0
LAYER
  5
50
330
2
100
AcDbSymbolTableRecord
100
AcDbLayerTableRecord
  2
AUTH_VFR_OP_SECTORS
 70
    1
 62
    4
  6
CONTINUOUS
370
   -3
390
F
  0
LAYER
  5
51
330
2
100
AcDbSymbolTableRecord
100
AcDbLayerTableRecord
  2
Defpoints
 70
    1
 62
    7
  6
CONTINUOUS
290
0
370
   -3
390
F
  0
LAYER
  5
52
330
2
100
AcDbSymbolTableRecord
100
AcDbLayerTableRecord
  2
NEW_Parking
 70
    0
 62
    7
  6
CONTINUOUS
370
   -3
390
F
  0
LAYER
  5
53
330
2
100
AcDbSymbolTableRecord
100
AcDbLayerTableRecord
  2
NEW_Parking_Points
 70
    0
 62
    7
  6
CONTINUOUS
370
    0
390
F
  0
LAYER
  5
54
330
2
100
AcDbSymbolTableRecord
100
AcDbLayerTableRecord
  2
REF_BRANCH_A_G1
 70
    1
 62
    3
  6
CONTINUOUS
370
   -3
390
F
  0
LAYER
  5
55
330
2
100
AcDbSymbolTableRecord
100
AcDbLayerTableRecord
  2
REF_BRANCH_A_S1
 70
    1
 62
    5
  6
CONTINUOUS
370
   -3
390
F
  0
LAYER
  5
56
330
2
100
AcDbSymbolTableRecord
100
AcDbLayerTableRecord
  2
REF_BRANCH_A_X
 70
    1
 62
    1
  6
CONTINUOUS
370
   -3
390
F
  0
LAYER
  5
57
330
2
100
AcDbSymbolTableRecord
100
AcDbLayerTableRecord
  2
REF_BRANCH_LABELS
 70
    1
 62
    5
  6
CONTINUOUS
370
   -3
390
F
  0
LAYER
  5
58
330
2
100
AcDbSymbolTableRecord
100
AcDbLayerTableRecord
  2
REF_OSM_RASTER
 70
    4
 62
    8
  6
CONTINUOUS
370
   -3
390
F
  0
LAYER
  5
59
330
2
100
AcDbSymbolTableRecord
100
AcDbLayerTableRecord
  2
REF_PARKING
 70
    1
 62
    7
  6
CONTINUOUS
370
   -3
390
F
  0
LAYER
  5
5A
330
2
100
AcDbSymbolTableRecord
100
AcDbLayerTableRecord
  2
REF_PARKING_LABELS
 70
    1
 62
    7
  6
CONTINUOUS
370
   -3
390
F
  0
LAYER
  5
5B
330
2
100
AcDbSymbolTableRecord
100
AcDbLayerTableRecord
  2
REF_ROUTE_LABELS
 70
    1
 62
    8
  6
CONTINUOUS
370
   -3
390
F
  0
LAYER
  5
5C
330
2
100
AcDbSymbolTableRecord
100
AcDbLayerTableRecord
  2
REF_ROUTE_RUNWAYS
 70
    1
 62
    1
  6
CONTINUOUS
370
   -3
390
F
  0
LAYER
  5
5D
330
2
100
AcDbSymbolTableRecord
100
AcDbLayerTableRecord
  2
REF_ROUTE_TWY_A
 70
    1
 62
    3
  6
CONTINUOUS
370
   -3
390
F
  0
LAYER
  5
5E
330
2
100
AcDbSymbolTableRecord
100
AcDbLayerTableRecord
  2
REF_ROUTE_TWY_B
 70
    1
 62
    4
  6
CONTINUOUS
370
   -3
390
F
  0
LAYER
  5
5F
330
2
100
AcDbSymbolTableRecord
100
AcDbLayerTableRecord
  2
REF_ROUTE_TWY_D
 70
    1
 62
    2
  6
CONTINUOUS
370
   -3
390
F
  0
LAYER
  5
60
330
2
100
AcDbSymbolTableRecord
100
AcDbLayerTableRecord
  2
REF_ROUTE_TWY_E
 70
    1
 62
    6
  6
CONTINUOUS
370
   -3
390
F
  0
LAYER
  5
61
330
2
100
AcDbSymbolTableRecord
100
AcDbLayerTableRecord
  2
REF_RUNWAYS
 70
    1
 62
    8
  6
CONTINUOUS
370
   -3
390
F
  0
LAYER
  5
62
330
2
100
AcDbSymbolTableRecord
100
AcDbLayerTableRecord
  2
REF_RUNWAY_LABELS
 70
    1
 62
    8
  6
CONTINUOUS
370
   -3
390
F
  0
LAYER
  5
63
330
2
100
AcDbSymbolTableRecord
100
AcDbLayerTableRecord
  2
REF_TAXI_NODES
 70
    1
 62
    9
  6
CONTINUOUS
370
   -3
390
F
  0
LAYER
  5
64
330
2
100
AcDbSymbolTableRecord
100
AcDbLayerTableRecord
  2
REF_TAXI_SIGNS
 70
    1
 62
    2
  6
CONTINUOUS
370
   -3
390
F
  0
LAYER
  5
65
330
2
100
AcDbSymbolTableRecord
100
AcDbLayerTableRecord
  2
REF_TAXI_SIGN_LABELS
 70
    1
 62
    2
  6
CONTINUOUS
370
   -3
390
F
  0
LAYER
  5
66
330
2
100
AcDbSymbolTableRecord
100
AcDbLayerTableRecord
  2
REF_TOWER
 70
    1
 62
    7
  6
CONTINUOUS
370
   -3
390
F
  0
LAYER
  5
67
330
2
100
AcDbSymbolTableRecord
100
AcDbLayerTableRecord
  2
REF_TOWER_LABELS
 70
    1
 62
    7
  6
CONTINUOUS
370
   -3
390
F
  0
LAYER
  5
68
330
2
100
AcDbSymbolTableRecord
100
AcDbLayerTableRecord
  2
REF_VFR_LABELS
 70
    1
 62
    3
  6
CONTINUOUS
370
   -3
390
F
  0
LAYER
  5
69
330
2
100
AcDbSymbolTableRecord
100
AcDbLayerTableRecord
  2
REF_VFR_POINTS
 70
    1
 62
    3
  6
CONTINUOUS
370
   -3
390
F
  0
ENDTAB
  0
TABLE
  2
STYLE
  5
3
330
0
100
AcDbSymbolTable
 70
    3
  0
STYLE
  5
6A
330
2
100
AcDbSymbolTableRecord
100
AcDbTextStyleTableRecord
  2
STANDARD
 70
    0
 40
0
 41
1
 50
0
 71
    0
 42
1
  3
STANDARD
  4

  0
ENDTAB
  0
TABLE
  2
VIEW
  5
6
330
0
100
AcDbSymbolTable
 70
    0
  0
ENDTAB
  0
TABLE
  2
UCS
  5
7
330
0
100
AcDbSymbolTable
 70
    0
  0
ENDTAB
  0
TABLE
  2
APPID
  5
9
330
0
100
AcDbSymbolTable
 70
    1
  0
APPID
  5
12
330
9
100
AcDbSymbolTableRecord
100
AcDbRegAppTableRecord
  2
ACAD
 70
    0
  0
APPID
  5
6B
330
9
100
AcDbSymbolTableRecord
100
AcDbRegAppTableRecord
  2
LibreCad
 70
    0
  0
ENDTAB
  0
TABLE
  2
DIMSTYLE
  5
A
330
0
100
AcDbSymbolTable
 70
    1
100
AcDbDimStyleTable
 71
    1
  0
DIMSTYLE
105
6C
330
A
100
AcDbSymbolTableRecord
100
AcDbDimStyleTableRecord
  2
Standard
 70
    0
 40
1
 41
2.5
 42
0.625
 43
0.38
 44
1.25
 45
0
 46
0
 47
0
 48
0
 49
1
140
2.5
141
0.09
142
0
143
25.4
144
1
145
0
146
1
147
0.625
148
0
 71
    0
 72
    0
 73
    0
 74
    1
 75
    0
 76
    0
 77
    0
 78
    8
 79
    0
170
    0
171
    2
172
    0
173
    0
174
    0
175
    0
176
    0
177
    0
178
    0
179
    0
271
    2
272
    4
273
    2
274
    2
275
    0
276
    0
277
    2
278
   44
279
    0
280
    0
281
    0
282
    0
283
    1
284
    0
285
    0
286
    0
288
    0
289
    3
340
6A
  0
ENDTAB
  0
TABLE
  2
BLOCK_RECORD
  5
1
330
0
100
AcDbSymbolTable
 70
    2
  0
BLOCK_RECORD
  5
1F
330
1
100
AcDbSymbolTableRecord
100
AcDbBlockTableRecord
  2
*Model_Space
 70
    0
280
    1
281
    0
  0
BLOCK_RECORD
  5
1E
330
1
100
AcDbSymbolTableRecord
100
AcDbBlockTableRecord
  2
*Paper_Space
 70
    0
280
    1
281
    0
  0
ENDTAB
  0
ENDSEC
  0
SECTION
  2
BLOCKS
  0
BLOCK
  5
20
330
1F
100
AcDbEntity
  8
0
100
AcDbBlockBegin
  2
*Model_Space
 70
    0
 10
0
 20
0
 30
0
  3
*Model_Space
  1

  0
ENDBLK
  5
21
330
1F
100
AcDbEntity
  8
0
100
AcDbBlockEnd
  0
BLOCK
  5
1C
330
1B
100
AcDbEntity
  8
0
100
AcDbBlockBegin
  2
*Paper_Space
 70
    0
 10
0
 20
0
 30
0
  3
*Paper_Space
  1

  0
ENDBLK
  5
1D
330
1F
100
AcDbEntity
  8
0
100
AcDbBlockEnd
  0
ENDSEC
  0
SECTION
  2
ENTITIES
  0
IMAGE
  5
6F
100
AcDbEntity
  8
REF_OSM_RASTER
  6
ByLayer
 62
  256
370
   -1
100
AcDbRasterImage
 10
-4275.893413796826
 20
-7950.160157328751
 30
0
 11
2.342374770923732
 21
0
 31
0
 12
1.434338444788093e-16
 22
2.342452445532435
 32
0
 13
4096
 23
7129
340
6D
 70
    1
280
    0
281
   50
282
   50
283
    0
360
6E
  0
LINE
  5
70
100
AcDbEntity
  8
REF_RUNWAYS
  6
ByLayer
 62
  256
370
   -1
100
AcDbLine
 10
-240.901985066514
 20
1249.351058181962
 11
312.3966067596085
 21
-1697.695896497343
  0
TEXT
  5
71
100
AcDbEntity
  8
REF_RUNWAY_LABELS
  6
ByLayer
 62
  256
370
   -1
100
AcDbText
 10
35.74731084654725
 20
-53.71059660959637
 30
0
 40
145.4607552410402
  1
16C/34C
 50
0
 41
1
 51
0
  7
STANDARD
 71
    0
210
0
220
0
230
1
100
AcDbText
  0
LINE
  5
72
100
AcDbEntity
  8
REF_RUNWAYS
  6
ByLayer
 62
  256
370
   -1
100
AcDbLine
 10
258.0638008681228
 20
-273.5813288377228
 11
375.6009571113886
 21
-902.1751447536717
  0
TEXT
  5
73
100
AcDbEntity
  8
REF_RUNWAY_LABELS
  6
ByLayer
 62
  256
370
   -1
100
AcDbText
 10
316.8323789897557
 20
-417.4164142476033
 30
0
 40
145.4607552410402
  1
16L/34R
 50
0
 41
1
 51
0
  7
STANDARD
 71
    0
210
0
220
0
230
1
100
AcDbText
  0
LINE
  5
74
100
AcDbEntity
  8
REF_RUNWAYS
  6
ByLayer
 62
  256
370
   -1
100
AcDbLine
 10
-307.9857874073661
 20
260.0809304043352
 11
-167.9728383504674
 21
-487.1979024143985
  0
TEXT
  5
75
100
AcDbEntity
  8
REF_RUNWAY_LABELS
  6
ByLayer
 62
  256
370
   -1
100
AcDbText
 10
-237.9793128789168
 20
56.90333654306232
 30
0
 40
145.4607552410402
  1
16R/34L
 50
0
 41
1
 51
0
  7
STANDARD
 71
    0
210
0
220
0
230
1
100
AcDbText
  0
POINT
  5
76
100
AcDbEntity
  8
REF_TOWER
  6
ByLayer
 62
  256
370
   -1
100
AcDbPoint
 10
490.7156363942373
 20
332.5922540185928
  0
LINE
  5
77
100
AcDbEntity
  8
REF_TOWER
  6
ByLayer
 62
  256
370
   -1
100
AcDbLine
 10
377.0744213621746
 20
218.9510389865302
 11
604.3568514263
 21
446.2334690506555
  0
LINE
  5
78
100
AcDbEntity
  8
REF_TOWER
  6
ByLayer
 62
  256
370
   -1
100
AcDbLine
 10
377.0744213621746
 20
446.2334690506555
 11
604.3568514263
 21
218.9510389865302
  0
TEXT
  5
79
100
AcDbEntity
  8
REF_TOWER_LABELS
  6
ByLayer
 62
  256
370
   -1
100
AcDbText
 10
661.1774589423312
 20
503.0540765666868
 30
0
 40
145.4607552410402
  1
TWR
 50
0
 41
1
 51
0
  7
STANDARD
 71
    0
210
0
220
0
230
1
100
AcDbText
  0
POINT
  5
7A
100
AcDbEntity
  8
REF_TAXI_NODES
  6
ByLayer
 62
  256
370
   -1
100
AcDbPoint
 10
425.4983699957149
 20
-159.8856282933454
  0
POINT
  5
7B
100
AcDbEntity
  8
REF_TAXI_NODES
  6
ByLayer
 62
  256
370
   -1
100
AcDbPoint
 10
275.7598661288155
 20
479.4940955073338
  0
POINT
  5
7C
100
AcDbEntity
  8
REF_TAXI_NODES
  6
ByLayer
 62
  256
370
   -1
100
AcDbPoint
 10
323.5404558455471
 20
47.29498292980983
  0
POINT
  5
7D
100
AcDbEntity
  8
REF_TAXI_NODES
  6
ByLayer
 62
  256
370
   -1
100
AcDbPoint
 10
413.6817791865975
 20
-98.53938726344947
  0
POINT
  5
7E
100
AcDbEntity
  8
REF_TAXI_NODES
  6
ByLayer
 62
  256
370
   -1
100
AcDbPoint
 10
407.3608890838582
 20
-72.89783717925758
  0
POINT
  5
7F
100
AcDbEntity
  8
REF_TAXI_NODES
  6
ByLayer
 62
  256
370
   -1
100
AcDbPoint
 10
404.8875962322195
 20
-59.93918042804403
  0
POINT
  5
80
100
AcDbEntity
  8
REF_TAXI_NODES
  6
ByLayer
 62
  256
370
   -1
100
AcDbPoint
 10
399.1165795783152
 20
-26.85313000442213
  0
POINT
  5
81
100
AcDbEntity
  8
REF_TAXI_NODES
  6
ByLayer
 62
  256
370
   -1
100
AcDbPoint
 10
392.7956894755761
 20
3.751049655790206
  0
POINT
  5
82
100
AcDbEntity
  8
REF_TAXI_NODES
  6
ByLayer
 62
  256
370
   -1
100
AcDbPoint
 10
382.8281903474896
 20
57.90742672902438
  0
POINT
  5
83
100
AcDbEntity
  8
REF_TAXI_NODES
  6
ByLayer
 62
  256
370
   -1
100
AcDbPoint
 10
372.1833988196468
 20
112.9333481278981
  0
POINT
  5
84
100
AcDbEntity
  8
REF_TAXI_NODES
  6
ByLayer
 62
  256
370
   -1
100
AcDbPoint
 10
363.6637733668192
 20
160.6281880131941
  0
POINT
  5
85
100
AcDbEntity
  8
REF_TAXI_NODES
  6
ByLayer
 62
  256
370
   -1
100
AcDbPoint
 10
357.5074660755255
 20
192.8357985161043
  0
POINT
  5
86
100
AcDbEntity
  8
REF_TAXI_NODES
  6
ByLayer
 62
  256
370
   -1
100
AcDbPoint
 10
322.2169673370657
 20
386.0547747490566
  0
POINT
  5
87
100
AcDbEntity
  8
REF_TAXI_NODES
  6
ByLayer
 62
  256
370
   -1
100
AcDbPoint
 10
312.9798518388488
 20
433.6973530196698
  0
POINT
  5
88
100
AcDbEntity
  8
REF_TAXI_NODES
  6
ByLayer
 62
  256
370
   -1
100
AcDbPoint
 10
313.0951356515065
 20
447.8068772609709
  0
POINT
  5
89
100
AcDbEntity
  8
REF_TAXI_NODES
  6
ByLayer
 62
  256
370
   -1
100
AcDbPoint
 10
319.871851882565
 20
458.5093889503881
  0
POINT
  5
8A
100
AcDbEntity
  8
REF_TAXI_NODES
  6
ByLayer
 62
  256
370
   -1
100
AcDbPoint
 10
330.459759950175
 20
464.7985740021945
  0
POINT
  5
8B
100
AcDbEntity
  8
REF_TAXI_NODES
  6
ByLayer
 62
  256
370
   -1
100
AcDbPoint
 10
480.8573535100387
 20
492.5906339673113
  0
POINT
  5
8C
100
AcDbEntity
  8
REF_TAXI_NODES
  6
ByLayer
 62
  256
370
   -1
100
AcDbPoint
 10
488.7724973919667
 20
496.2300439164051
  0
POINT
  5
8D
100
AcDbEntity
  8
REF_TAXI_NODES
  6
ByLayer
 62
  256
370
   -1
100
AcDbPoint
 10
492.070979640449
 20
503.5088638145928
  0
POINT
  5
8E
100
AcDbEntity
  8
REF_TAXI_NODES
  6
ByLayer
 62
  256
370
   -1
100
AcDbPoint
 10
472.5576774366968
 20
606.7778160877882
  0
POINT
  5
8F
100
AcDbEntity
  8
REF_TAXI_NODES
  6
ByLayer
 62
  256
370
   -1
100
AcDbPoint
 10
454.8062456082051
 20
697.3894498617157
  0
POINT
  5
90
100
AcDbEntity
  8
REF_TAXI_NODES
  6
ByLayer
 62
  256
370
   -1
100
AcDbPoint
 10
451.508521806181
 20
704.9996306409734
  0
POINT
  5
91
100
AcDbEntity
  8
REF_TAXI_NODES
  6
ByLayer
 62
  256
370
   -1
100
AcDbPoint
 10
443.5926194777948
 20
704.9996306409734
  0
POINT
  5
92
100
AcDbEntity
  8
REF_TAXI_NODES
  6
ByLayer
 62
  256
370
   -1
100
AcDbPoint
 10
266.1435275619788
 20
671.9146921674428
  0
POINT
  5
93
100
AcDbEntity
  8
REF_TAXI_NODES
  6
ByLayer
 62
  256
370
   -1
100
AcDbPoint
 10
260.8078589907101
 20
-283.8802029431823
  0
POINT
  5
94
100
AcDbEntity
  8
REF_TAXI_NODES
  6
ByLayer
 62
  256
370
   -1
100
AcDbPoint
 10
244.5664934202629
 20
139.4055243142404
  0
POINT
  5
95
100
AcDbEntity
  8
REF_TAXI_NODES
  6
ByLayer
 62
  256
370
   -1
100
AcDbPoint
 10
132.6122591891458
 20
34.08836149213212
  0
POINT
  5
96
100
AcDbEntity
  8
REF_TAXI_NODES
  6
ByLayer
 62
  256
370
   -1
100
AcDbPoint
 10
-239.1537667217093
 20
1237.426514248247
  0
POINT
  5
97
100
AcDbEntity
  8
REF_TAXI_NODES
  6
ByLayer
 62
  256
370
   -1
100
AcDbPoint
 10
-94.87152436153052
 20
476.3016891632229
  0
POINT
  5
98
100
AcDbEntity
  8
REF_TAXI_NODES
  6
ByLayer
 62
  256
370
   -1
100
AcDbPoint
 10
-142.3373589318024
 20
1255.23549369972
  0
POINT
  5
99
100
AcDbEntity
  8
REF_TAXI_NODES
  6
ByLayer
 62
  256
370
   -1
100
AcDbPoint
 10
-242.2664296663629
 20
-481.4602441997699
  0
POINT
  5
9A
100
AcDbEntity
  8
REF_TAXI_NODES
  6
ByLayer
 62
  256
370
   -1
100
AcDbPoint
 10
-293.1027988677567
 20
-208.9259267911263
  0
POINT
  5
9B
100
AcDbEntity
  8
REF_TAXI_NODES
  6
ByLayer
 62
  256
370
   -1
100
AcDbPoint
 10
-345.0411903059538
 20
246.1659972847242
  0
POINT
  5
9C
100
AcDbEntity
  8
REF_TAXI_NODES
  6
ByLayer
 62
  256
370
   -1
100
AcDbPoint
 10
-370.2807608413996
 20
214.3887111474514
  0
POINT
  5
9D
100
AcDbEntity
  8
REF_TAXI_NODES
  6
ByLayer
 62
  256
370
   -1
100
AcDbPoint
 10
-324.0018944750508
 20
-41.60647287187158
  0
POINT
  5
9E
100
AcDbEntity
  8
REF_TAXI_NODES
  6
ByLayer
 62
  256
370
   -1
100
AcDbPoint
 10
345.7712705569506
 20
157.2745490260843
  0
POINT
  5
9F
100
AcDbEntity
  8
REF_TAXI_NODES
  6
ByLayer
 62
  256
370
   -1
100
AcDbPoint
 10
270.6418715986232
 20
143.5364158387264
  0
POINT
  5
A0
100
AcDbEntity
  8
REF_TAXI_NODES
  6
ByLayer
 62
  256
370
   -1
100
AcDbPoint
 10
351.9526065707466
 20
108.8636138124596
  0
POINT
  5
A1
100
AcDbEntity
  8
REF_TAXI_NODES
  6
ByLayer
 62
  256
370
   -1
100
AcDbPoint
 10
379.4015307023517
 20
-30.84280397269956
  0
POINT
  5
A2
100
AcDbEntity
  8
REF_TAXI_NODES
  6
ByLayer
 62
  256
370
   -1
100
AcDbPoint
 10
384.6294999221664
 20
-62.75241207252358
  0
POINT
  5
A3
100
AcDbEntity
  8
REF_TAXI_NODES
  6
ByLayer
 62
  256
370
   -1
100
AcDbPoint
 10
312.0295188294934
 20
-76.22256548591966
  0
POINT
  5
A4
100
AcDbEntity
  8
REF_TAXI_NODES
  6
ByLayer
 62
  256
370
   -1
100
AcDbPoint
 10
401.2303689612837
 20
-98.96303993419741
  0
POINT
  5
A5
100
AcDbEntity
  8
REF_TAXI_NODES
  6
ByLayer
 62
  256
370
   -1
100
AcDbPoint
 10
412.3977298772911
 20
-161.6336125396967
  0
POINT
  5
A6
100
AcDbEntity
  8
REF_TAXI_NODES
  6
ByLayer
 62
  256
370
   -1
100
AcDbPoint
 10
437.2004354381502
 20
-222.013569656739
  0
POINT
  5
A7
100
AcDbEntity
  8
REF_TAXI_NODES
  6
ByLayer
 62
  256
370
   -1
100
AcDbPoint
 10
342.8262242083688
 20
-239.8725868255415
  0
POINT
  5
A8
100
AcDbEntity
  8
REF_TAXI_NODES
  6
ByLayer
 62
  256
370
   -1
100
AcDbPoint
 10
386.2085847787068
 20
-885.6404591611798
  0
POINT
  5
A9
100
AcDbEntity
  8
REF_TAXI_NODES
  6
ByLayer
 62
  256
370
   -1
100
AcDbPoint
 10
412.3833194008596
 20
-869.4504778423661
  0
POINT
  5
AA
100
AcDbEntity
  8
REF_TAXI_NODES
  6
ByLayer
 62
  256
370
   -1
100
AcDbPoint
 10
437.4590655708354
 20
-829.8528525148914
  0
POINT
  5
AB
100
AcDbEntity
  8
REF_TAXI_NODES
  6
ByLayer
 62
  256
370
   -1
100
AcDbPoint
 10
439.9376675452685
 20
-772.9999984704747
  0
POINT
  5
AC
100
AcDbEntity
  8
REF_TAXI_NODES
  6
ByLayer
 62
  256
370
   -1
100
AcDbPoint
 10
365.2041774701602
 20
-375.4881432597951
  0
POINT
  5
AD
100
AcDbEntity
  8
REF_TAXI_NODES
  6
ByLayer
 62
  256
370
   -1
100
AcDbPoint
 10
373.0047959856474
 20
-887.0170523535878
  0
POINT
  5
AE
100
AcDbEntity
  8
REF_TAXI_NODES
  6
ByLayer
 62
  256
370
   -1
100
AcDbPoint
 10
-306.6380286225992
 20
253.1723896121214
  0
POINT
  5
AF
100
AcDbEntity
  8
REF_TAXI_NODES
  6
ByLayer
 62
  256
370
   -1
100
AcDbPoint
 10
-253.9965576159267
 20
-28.13075971155543
  0
POINT
  5
B0
100
AcDbEntity
  8
REF_TAXI_NODES
  6
ByLayer
 62
  256
370
   -1
100
AcDbPoint
 10
-233.6201437085897
 20
-137.9079510418664
  0
POINT
  5
B1
100
AcDbEntity
  8
REF_TAXI_NODES
  6
ByLayer
 62
  256
370
   -1
100
AcDbPoint
 10
-222.5051155759964
 20
-195.8894335915197
  0
POINT
  5
B2
100
AcDbEntity
  8
REF_TAXI_NODES
  6
ByLayer
 62
  256
370
   -1
100
AcDbPoint
 10
-170.2041868847442
 20
-476.0517229681504
  0
POINT
  5
B3
100
AcDbEntity
  8
REF_TAXI_NODES
  6
ByLayer
 62
  256
370
   -1
100
AcDbPoint
 10
-139.8026319431124
 20
-120.0322546344257
  0
POINT
  5
B4
100
AcDbEntity
  8
REF_TAXI_NODES
  6
ByLayer
 62
  256
370
   -1
100
AcDbPoint
 10
-189.7402424725894
 20
-129.6417201953581
  0
POINT
  5
B5
100
AcDbEntity
  8
REF_TAXI_NODES
  6
ByLayer
 62
  256
370
   -1
100
AcDbPoint
 10
444.2312311248341
 20
601.5850130140332
  0
POINT
  5
B6
100
AcDbEntity
  8
REF_TAXI_NODES
  6
ByLayer
 62
  256
370
   -1
100
AcDbPoint
 10
-83.74436109091506
 20
1223.089040406564
  0
POINT
  5
B7
100
AcDbEntity
  8
REF_TAXI_NODES
  6
ByLayer
 62
  256
370
   -1
100
AcDbPoint
 10
45.99467659885772
 20
1134.054150692948
  0
POINT
  5
B8
100
AcDbEntity
  8
REF_TAXI_NODES
  6
ByLayer
 62
  256
370
   -1
100
AcDbPoint
 10
81.26014661481514
 20
1102.975168695981
  0
POINT
  5
B9
100
AcDbEntity
  8
REF_TAXI_NODES
  6
ByLayer
 62
  256
370
   -1
100
AcDbPoint
 10
99.76926613360551
 20
1058.42825718368
  0
POINT
  5
BA
100
AcDbEntity
  8
REF_TAXI_NODES
  6
ByLayer
 62
  256
370
   -1
100
AcDbPoint
 10
359.4604648774089
 20
-330.3808093173654
  0
POINT
  5
BB
100
AcDbEntity
  8
REF_TAXI_NODES
  6
ByLayer
 62
  256
370
   -1
100
AcDbPoint
 10
-42.87094034054784
 20
450.0730298665161
  0
POINT
  5
BC
100
AcDbEntity
  8
REF_TAXI_NODES
  6
ByLayer
 62
  256
370
   -1
100
AcDbPoint
 10
-5.09273827377661
 20
597.3473743592916
  0
POINT
  5
BD
100
AcDbEntity
  8
REF_TAXI_NODES
  6
ByLayer
 62
  256
370
   -1
100
AcDbPoint
 10
20.54653337573139
 20
662.1095235361436
  0
POINT
  5
BE
100
AcDbEntity
  8
REF_TAXI_NODES
  6
ByLayer
 62
  256
370
   -1
100
AcDbPoint
 10
118.0933247952665
 20
698.6059223590942
  0
POINT
  5
BF
100
AcDbEntity
  8
REF_TAXI_NODES
  6
ByLayer
 62
  256
370
   -1
100
AcDbPoint
 10
172.4064110870441
 20
667.3379089866505
  0
POINT
  5
C0
100
AcDbEntity
  8
REF_TAXI_NODES
  6
ByLayer
 62
  256
370
   -1
100
AcDbPoint
 10
155.3360638893929
 20
756.5495986339349
  0
POINT
  5
C1
100
AcDbEntity
  8
REF_TAXI_NODES
  6
ByLayer
 62
  256
370
   -1
100
AcDbPoint
 10
193.8545093854052
 20
554.2871390163908
  0
POINT
  5
C2
100
AcDbEntity
  8
REF_TAXI_NODES
  6
ByLayer
 62
  256
370
   -1
100
AcDbPoint
 10
264.1874949757105
 20
178.9597836206899
  0
POINT
  5
C3
100
AcDbEntity
  8
REF_TAXI_NODES
  6
ByLayer
 62
  256
370
   -1
100
AcDbPoint
 10
273.6339416075836
 20
129.2678828517798
  0
POINT
  5
C4
100
AcDbEntity
  8
REF_TAXI_NODES
  6
ByLayer
 62
  256
370
   -1
100
AcDbPoint
 10
280.0117151707967
 20
94.80412728778053
  0
POINT
  5
C5
100
AcDbEntity
  8
REF_TAXI_NODES
  6
ByLayer
 62
  256
370
   -1
100
AcDbPoint
 10
300.57394838148
 20
-12.38778199772472
  0
POINT
  5
C6
100
AcDbEntity
  8
REF_TAXI_NODES
  6
ByLayer
 62
  256
370
   -1
100
AcDbPoint
 10
306.2668450832509
 20
-44.69324403581831
  0
POINT
  5
C7
100
AcDbEntity
  8
REF_TAXI_NODES
  6
ByLayer
 62
  256
370
   -1
100
AcDbPoint
 10
319.1619462986204
 20
-114.6215095040383
  0
POINT
  5
C8
100
AcDbEntity
  8
REF_TAXI_NODES
  6
ByLayer
 62
  256
370
   -1
100
AcDbPoint
 10
331.0028073840234
 20
-176.8428546064939
  0
POINT
  5
C9
100
AcDbEntity
  8
REF_TAXI_NODES
  6
ByLayer
 62
  256
370
   -1
100
AcDbPoint
 10
347.8668572324034
 20
-266.8362445872759
  0
POINT
  5
CA
100
AcDbEntity
  8
REF_TAXI_NODES
  6
ByLayer
 62
  256
370
   -1
100
AcDbPoint
 10
-64.41308595990733
 20
312.0111850456047
  0
POINT
  5
CB
100
AcDbEntity
  8
REF_TAXI_NODES
  6
ByLayer
 62
  256
370
   -1
100
AcDbPoint
 10
4.503880693351857
 20
-59.58002081520297
  0
POINT
  5
CC
100
AcDbEntity
  8
REF_TAXI_NODES
  6
ByLayer
 62
  256
370
   -1
100
AcDbPoint
 10
50.84797342711247
 20
-42.50826372752559
  0
POINT
  5
CD
100
AcDbEntity
  8
REF_TAXI_NODES
  6
ByLayer
 62
  256
370
   -1
100
AcDbPoint
 10
10.98176914657442
 20
-90.83357884706911
  0
POINT
  5
CE
100
AcDbEntity
  8
REF_TAXI_NODES
  6
ByLayer
 62
  256
370
   -1
100
AcDbPoint
 10
293.4134584054657
 20
-1597.878434747855
  0
POINT
  5
CF
100
AcDbEntity
  8
REF_TAXI_NODES
  6
ByLayer
 62
  256
370
   -1
100
AcDbPoint
 10
310.3647295596163
 20
-1689.0571626468
  0
POINT
  5
D0
100
AcDbEntity
  8
REF_TAXI_NODES
  6
ByLayer
 62
  256
370
   -1
100
AcDbPoint
 10
373.1739294741528
 20
0.9100192795395978
  0
POINT
  5
D1
100
AcDbEntity
  8
REF_TAXI_NODES
  6
ByLayer
 62
  256
370
   -1
100
AcDbPoint
 10
336.0586093309475
 20
-1683.245003831223
  0
POINT
  5
D2
100
AcDbEntity
  8
REF_TAXI_NODES
  6
ByLayer
 62
  256
370
   -1
100
AcDbPoint
 10
343.7462193721863
 20
-1660.251004950268
  0
POINT
  5
D3
100
AcDbEntity
  8
REF_TAXI_NODES
  6
ByLayer
 62
  256
370
   -1
100
AcDbPoint
 10
334.2785362481713
 20
-1641.248903936359
  0
POINT
  5
D4
100
AcDbEntity
  8
REF_TAXI_NODES
  6
ByLayer
 62
  256
370
   -1
100
AcDbPoint
 10
461.7960852037627
 20
47.61967211528307
  0
POINT
  5
D5
100
AcDbEntity
  8
REF_TAXI_NODES
  6
ByLayer
 62
  256
370
   -1
100
AcDbPoint
 10
524.4778661673782
 20
101.4647033935302
  0
POINT
  5
D6
100
AcDbEntity
  8
REF_TAXI_NODES
  6
ByLayer
 62
  256
370
   -1
100
AcDbPoint
 10
538.9687380541288
 20
103.6630270937238
  0
POINT
  5
D7
100
AcDbEntity
  8
REF_TAXI_NODES
  6
ByLayer
 62
  256
370
   -1
100
AcDbPoint
 10
547.2486945280039
 20
67.14105343777021
  0
POINT
  5
D8
100
AcDbEntity
  8
REF_TAXI_NODES
  6
ByLayer
 62
  256
370
   -1
100
AcDbPoint
 10
528.0091913795852
 20
63.23255176533061
  0
POINT
  5
D9
100
AcDbEntity
  8
REF_TAXI_NODES
  6
ByLayer
 62
  256
370
   -1
100
AcDbPoint
 10
387.5722709323389
 20
33.79480688587466
  0
LINE
  5
DA
100
AcDbEntity
  8
REF_ROUTE_TWY_A
  6
ByLayer
 62
  256
370
   -1
100
AcDbLine
 10
-293.1027988677567
 20
-208.9259267911263
 11
-242.2664296663629
 21
-481.4602441997699
  0
TEXT
  5
DB
100
AcDbEntity
  8
REF_ROUTE_LABELS
  6
ByLayer
 62
  256
370
   -1
100
AcDbText
 10
-267.6846142670598
 20
-345.1930854954481
 30
0
 40
104.7317437735489
  1
A/S
 50
0
 41
1
 51
0
  7
STANDARD
 71
    0
210
0
220
0
230
1
100
AcDbText
  0
LINE
  5
DC
100
AcDbEntity
  8
REF_ROUTE_TWY_A
  6
ByLayer
 62
  256
370
   -1
100
AcDbLine
 10
-293.1027988677567
 20
-208.9259267911263
 11
-222.5051155759964
 21
-195.8894335915197
  0
TEXT
  5
DD
100
AcDbEntity
  8
REF_ROUTE_LABELS
  6
ByLayer
 62
  256
370
   -1
100
AcDbText
 10
-257.8039572218766
 20
-202.407680191323
 30
0
 40
104.7317437735489
  1
A/S3
 50
0
 41
1
 51
0
  7
STANDARD
 71
    0
210
0
220
0
230
1
100
AcDbText
  0
LINE
  5
DE
100
AcDbEntity
  8
REF_ROUTE_TWY_E
  6
ByLayer
 62
  256
370
   -1
100
AcDbLine
 10
264.1874949757105
 20
178.9597836206899
 11
244.5664934202629
 21
139.4055243142404
  0
TEXT
  5
DF
100
AcDbEntity
  8
REF_ROUTE_LABELS
  6
ByLayer
 62
  256
370
   -1
100
AcDbText
 10
254.3769941979867
 20
159.1826539674651
 30
0
 40
104.7317437735489
  1
E/D
 50
0
 41
1
 51
0
  7
STANDARD
 71
    0
210
0
220
0
230
1
100
AcDbText
  0
LINE
  5
E0
100
AcDbEntity
  8
REF_ROUTE_TWY_B
  6
ByLayer
 62
  256
370
   -1
100
AcDbLine
 10
244.5664934202629
 20
139.4055243142404
 11
270.6418715986232
 21
143.5364158387264
  0
LINE
  5
E1
100
AcDbEntity
  8
REF_ROUTE_TWY_B
  6
ByLayer
 62
  256
370
   -1
100
AcDbLine
 10
273.6339416075836
 20
129.2678828517798
 11
244.5664934202629
 21
139.4055243142404
  0
TEXT
  5
E2
100
AcDbEntity
  8
REF_ROUTE_LABELS
  6
ByLayer
 62
  256
370
   -1
100
AcDbText
 10
259.1002175139233
 20
134.3367035830101
 30
0
 40
104.7317437735489
  1
B/B
 50
0
 41
1
 51
0
  7
STANDARD
 71
    0
210
0
220
0
230
1
100
AcDbText
  0
LINE
  5
E3
100
AcDbEntity
  8
REF_ROUTE_TWY_E
  6
ByLayer
 62
  256
370
   -1
100
AcDbLine
 10
-142.3373589318024
 20
1255.23549369972
 11
-239.1537667217093
 21
1237.426514248247
  0
TEXT
  5
E4
100
AcDbEntity
  8
REF_ROUTE_LABELS
  6
ByLayer
 62
  256
370
   -1
100
AcDbText
 10
-190.7455628267559
 20
1246.331003973983
 30
0
 40
104.7317437735489
  1
E/D
 50
0
 41
1
 51
0
  7
STANDARD
 71
    0
210
0
220
0
230
1
100
AcDbText
  0
LINE
  5
E5
100
AcDbEntity
  8
REF_ROUTE_TWY_A
  6
ByLayer
 62
  256
370
   -1
100
AcDbLine
 10
347.8668572324034
 20
-266.8362445872759
 11
260.8078589907101
 21
-283.8802029431823
  0
TEXT
  5
E6
100
AcDbEntity
  8
REF_ROUTE_LABELS
  6
ByLayer
 62
  256
370
   -1
100
AcDbText
 10
304.3373581115568
 20
-275.3582237652291
 30
0
 40
104.7317437735489
  1
A/G1
 50
0
 41
1
 51
0
  7
STANDARD
 71
    0
210
0
220
0
230
1
100
AcDbText
  0
LINE
  5
E7
100
AcDbEntity
  8
REF_ROUTE_RUNWAYS
  6
ByLayer
 62
  256
370
   -1
100
AcDbLine
 10
373.0047959856474
 20
-887.0170523535878
 11
260.8078589907101
 21
-283.8802029431823
  0
LINE
  5
E8
100
AcDbEntity
  8
REF_ROUTE_TWY_E
  6
ByLayer
 62
  256
370
   -1
100
AcDbLine
 10
132.6122591891458
 20
34.08836149213212
 11
244.5664934202629
 21
139.4055243142404
  0
TEXT
  5
E9
100
AcDbEntity
  8
REF_ROUTE_LABELS
  6
ByLayer
 62
  256
370
   -1
100
AcDbText
 10
188.5893763047043
 20
86.74694290318624
 30
0
 40
104.7317437735489
  1
E/B
 50
0
 41
1
 51
0
  7
STANDARD
 71
    0
210
0
220
0
230
1
100
AcDbText
  0
LINE
  5
EA
100
AcDbEntity
  8
REF_ROUTE_TWY_E
  6
ByLayer
 62
  256
370
   -1
100
AcDbLine
 10
50.84797342711247
 20
-42.50826372752559
 11
132.6122591891458
 21
34.08836149213212
  0
TEXT
  5
EB
100
AcDbEntity
  8
REF_ROUTE_LABELS
  6
ByLayer
 62
  256
370
   -1
100
AcDbText
 10
91.73011630812911
 20
-4.209951117696733
 30
0
 40
104.7317437735489
  1
E/B
 50
0
 41
1
 51
0
  7
STANDARD
 71
    0
210
0
220
0
230
1
100
AcDbText
  0
LINE
  5
EC
100
AcDbEntity
  8
REF_ROUTE_TWY_E
  6
ByLayer
 62
  256
370
   -1
100
AcDbLine
 10
-42.87094034054784
 20
450.0730298665161
 11
-94.87152436153052
 21
476.3016891632229
  0
TEXT
  5
ED
100
AcDbEntity
  8
REF_ROUTE_LABELS
  6
ByLayer
 62
  256
370
   -1
100
AcDbText
 10
-68.87123235103918
 20
463.1873595148695
 30
0
 40
104.7317437735489
  1
E/C
 50
0
 41
1
 51
0
  7
STANDARD
 71
    0
210
0
220
0
230
1
100
AcDbText
  0
LINE
  5
EE
100
AcDbEntity
  8
REF_ROUTE_RUNWAYS
  6
ByLayer
 62
  256
370
   -1
100
AcDbLine
 10
-94.87152436153052
 20
476.3016891632229
 11
-239.1537667217093
 21
1237.426514248247
  0
LINE
  5
EF
100
AcDbEntity
  8
REF_ROUTE_RUNWAYS
  6
ByLayer
 62
  256
370
   -1
100
AcDbLine
 10
-64.41308595990733
 20
312.0111850456047
 11
-94.87152436153052
 21
476.3016891632229
  0
LINE
  5
F0
100
AcDbEntity
  8
REF_ROUTE_TWY_D
  6
ByLayer
 62
  256
370
   -1
100
AcDbLine
 10
264.1874949757105
 20
178.9597836206899
 11
270.6418715986232
 21
143.5364158387264
  0
TEXT
  5
F1
100
AcDbEntity
  8
REF_ROUTE_LABELS
  6
ByLayer
 62
  256
370
   -1
100
AcDbText
 10
267.4146832871669
 20
161.2480997297081
 30
0
 40
104.7317437735489
  1
D/A
 50
0
 41
1
 51
0
  7
STANDARD
 71
    0
210
0
220
0
230
1
100
AcDbText
  0
LINE
  5
F2
100
AcDbEntity
  8
REF_ROUTE_TWY_E
  6
ByLayer
 62
  256
370
   -1
100
AcDbLine
 10
-83.74436109091506
 20
1223.089040406564
 11
-142.3373589318024
 21
1255.23549369972
  0
TEXT
  5
F3
100
AcDbEntity
  8
REF_ROUTE_LABELS
  6
ByLayer
 62
  256
370
   -1
100
AcDbText
 10
-113.0408600113587
 20
1239.162267053142
 30
0
 40
104.7317437735489
  1
E/D
 50
0
 41
1
 51
0
  7
STANDARD
 71
    0
210
0
220
0
230
1
100
AcDbText
  0
LINE
  5
F4
100
AcDbEntity
  8
REF_ROUTE_TWY_A
  6
ByLayer
 62
  256
370
   -1
100
AcDbLine
 10
-242.2664296663629
 20
-481.4602441997699
 11
-170.2041868847442
 21
-476.0517229681504
  0
TEXT
  5
F5
100
AcDbEntity
  8
REF_ROUTE_LABELS
  6
ByLayer
 62
  256
370
   -1
100
AcDbText
 10
-206.2353082755535
 20
-478.7559835839602
 30
0
 40
104.7317437735489
  1
A/S4
 50
0
 41
1
 51
0
  7
STANDARD
 71
    0
210
0
220
0
230
1
100
AcDbText
  0
LINE
  5
F6
100
AcDbEntity
  8
REF_ROUTE_TWY_A
  6
ByLayer
 62
  256
370
   -1
100
AcDbLine
 10
-293.1027988677567
 20
-208.9259267911263
 11
-324.0018944750508
 21
-41.60647287187158
  0
TEXT
  5
F7
100
AcDbEntity
  8
REF_ROUTE_LABELS
  6
ByLayer
 62
  256
370
   -1
100
AcDbText
 10
-308.5523466714038
 20
-125.2661998314989
 30
0
 40
104.7317437735489
  1
A/S
 50
0
 41
1
 51
0
  7
STANDARD
 71
    0
210
0
220
0
230
1
100
AcDbText
  0
LINE
  5
F8
100
AcDbEntity
  8
REF_ROUTE_TWY_A
  6
ByLayer
 62
  256
370
   -1
100
AcDbLine
 10
-345.0411903059538
 20
246.1659972847242
 11
-306.6380286225992
 21
253.1723896121214
  0
TEXT
  5
F9
100
AcDbEntity
  8
REF_ROUTE_LABELS
  6
ByLayer
 62
  256
370
   -1
100
AcDbText
 10
-325.8396094642765
 20
249.6691934484228
 30
0
 40
104.7317437735489
  1
A/S1
 50
0
 41
1
 51
0
  7
STANDARD
 71
    0
210
0
220
0
230
1
100
AcDbText
  0
LINE
  5
FA
100
AcDbEntity
  8
REF_ROUTE_TWY_A
  6
ByLayer
 62
  256
370
   -1
100
AcDbLine
 10
-370.2807608413996
 20
214.3887111474514
 11
-345.0411903059538
 21
246.1659972847242
  0
TEXT
  5
FB
100
AcDbEntity
  8
REF_ROUTE_LABELS
  6
ByLayer
 62
  256
370
   -1
100
AcDbText
 10
-357.6609755736768
 20
230.2773542160878
 30
0
 40
104.7317437735489
  1
A/S1
 50
0
 41
1
 51
0
  7
STANDARD
 71
    0
210
0
220
0
230
1
100
AcDbText
  0
LINE
  5
FC
100
AcDbEntity
  8
REF_ROUTE_TWY_A
  6
ByLayer
 62
  256
370
   -1
100
AcDbLine
 10
-324.0018944750508
 20
-41.60647287187158
 11
-370.2807608413996
 21
214.3887111474514
  0
TEXT
  5
FD
100
AcDbEntity
  8
REF_ROUTE_LABELS
  6
ByLayer
 62
  256
370
   -1
100
AcDbText
 10
-347.1413276582252
 20
86.39111913778991
 30
0
 40
104.7317437735489
  1
A/S
 50
0
 41
1
 51
0
  7
STANDARD
 71
    0
210
0
220
0
230
1
100
AcDbText
  0
LINE
  5
FE
100
AcDbEntity
  8
REF_ROUTE_TWY_A
  6
ByLayer
 62
  256
370
   -1
100
AcDbLine
 10
-253.9965576159267
 20
-28.13075971155543
 11
-324.0018944750508
 21
-41.60647287187158
  0
TEXT
  5
FF
100
AcDbEntity
  8
REF_ROUTE_LABELS
  6
ByLayer
 62
  256
370
   -1
100
AcDbText
 10
-288.9992260454887
 20
-34.86861629171351
 30
0
 40
104.7317437735489
  1
A/S2
 50
0
 41
1
 51
0
  7
STANDARD
 71
    0
210
0
220
0
230
1
100
AcDbText
  0
LINE
  5
100
100
AcDbEntity
  8
REF_ROUTE_TWY_B
  6
ByLayer
 62
  256
370
   -1
100
AcDbLine
 10
270.6418715986232
 20
143.5364158387264
 11
345.7712705569506
 21
157.2745490260843
  0
LINE
  5
101
100
AcDbEntity
  8
REF_ROUTE_TWY_B
  6
ByLayer
 62
  256
370
   -1
100
AcDbLine
 10
280.0117151707967
 20
94.80412728778053
 11
351.9526065707466
 21
108.8636138124596
  0
LINE
  5
102
100
AcDbEntity
  8
REF_ROUTE_TWY_B
  6
ByLayer
 62
  256
370
   -1
100
AcDbLine
 10
306.2668450832509
 20
-44.69324403581831
 11
379.4015307023517
 21
-30.84280397269956
  0
LINE
  5
103
100
AcDbEntity
  8
REF_ROUTE_TWY_B
  6
ByLayer
 62
  256
370
   -1
100
AcDbLine
 10
312.0295188294934
 20
-76.22256548591966
 11
384.6294999221664
 21
-62.75241207252358
  0
LINE
  5
104
100
AcDbEntity
  8
REF_ROUTE_TWY_B
  6
ByLayer
 62
  256
370
   -1
100
AcDbLine
 10
401.2303689612837
 20
-98.96303993419741
 11
319.1619462986204
 21
-114.6215095040383
  0
LINE
  5
105
100
AcDbEntity
  8
REF_ROUTE_TWY_B
  6
ByLayer
 62
  256
370
   -1
100
AcDbLine
 10
412.3977298772911
 20
-161.6336125396967
 11
331.0028073840234
 21
-176.8428546064939
  0
LINE
  5
106
100
AcDbEntity
  8
REF_ROUTE_TWY_B
  6
ByLayer
 62
  256
370
   -1
100
AcDbLine
 10
342.8262242083688
 20
-239.8725868255415
 11
437.2004354381502
 21
-222.013569656739
  0
LINE
  5
107
100
AcDbEntity
  8
REF_ROUTE_TWY_A
  6
ByLayer
 62
  256
370
   -1
100
AcDbLine
 10
386.2085847787068
 20
-885.6404591611798
 11
373.0047959856474
 21
-887.0170523535878
  0
TEXT
  5
108
100
AcDbEntity
  8
REF_ROUTE_LABELS
  6
ByLayer
 62
  256
370
   -1
100
AcDbText
 10
379.6066903821771
 20
-886.3287557573838
 30
0
 40
104.7317437735489
  1
A/G2
 50
0
 41
1
 51
0
  7
STANDARD
 71
    0
210
0
220
0
230
1
100
AcDbText
  0
LINE
  5
109
100
AcDbEntity
  8
REF_ROUTE_TWY_A
  6
ByLayer
 62
  256
370
   -1
100
AcDbLine
 10
412.3833194008596
 20
-869.4504778423661
 11
386.2085847787068
 21
-885.6404591611798
  0
TEXT
  5
10A
100
AcDbEntity
  8
REF_ROUTE_LABELS
  6
ByLayer
 62
  256
370
   -1
100
AcDbText
 10
399.2959520897832
 20
-877.545468501773
 30
0
 40
104.7317437735489
  1
A/G2
 50
0
 41
1
 51
0
  7
STANDARD
 71
    0
210
0
220
0
230
1
100
AcDbText
  0
LINE
  5
10B
100
AcDbEntity
  8
REF_ROUTE_TWY_A
  6
ByLayer
 62
  256
370
   -1
100
AcDbLine
 10
437.4590655708354
 20
-829.8528525148914
 11
412.3833194008596
 21
-869.4504778423661
  0
TEXT
  5
10C
100
AcDbEntity
  8
REF_ROUTE_LABELS
  6
ByLayer
 62
  256
370
   -1
100
AcDbText
 10
424.9211924858475
 20
-849.6516651786287
 30
0
 40
104.7317437735489
  1
A/G2
 50
0
 41
1
 51
0
  7
STANDARD
 71
    0
210
0
220
0
230
1
100
AcDbText
  0
LINE
  5
10D
100
AcDbEntity
  8
REF_ROUTE_TWY_A
  6
ByLayer
 62
  256
370
   -1
100
AcDbLine
 10
439.9376675452685
 20
-772.9999984704747
 11
437.4590655708354
 21
-829.8528525148914
  0
TEXT
  5
10E
100
AcDbEntity
  8
REF_ROUTE_LABELS
  6
ByLayer
 62
  256
370
   -1
100
AcDbText
 10
438.6983665580519
 20
-801.4264254926831
 30
0
 40
104.7317437735489
  1
A/G2
 50
0
 41
1
 51
0
  7
STANDARD
 71
    0
210
0
220
0
230
1
100
AcDbText
  0
LINE
  5
10F
100
AcDbEntity
  8
REF_ROUTE_TWY_A
  6
ByLayer
 62
  256
370
   -1
100
AcDbLine
 10
365.2041774701602
 20
-375.4881432597951
 11
439.9376675452685
 21
-772.9999984704747
  0
TEXT
  5
110
100
AcDbEntity
  8
REF_ROUTE_LABELS
  6
ByLayer
 62
  256
370
   -1
100
AcDbText
 10
402.5709225077144
 20
-574.2440708651349
 30
0
 40
104.7317437735489
  1
A/G2
 50
0
 41
1
 51
0
  7
STANDARD
 71
    0
210
0
220
0
230
1
100
AcDbText
  0
LINE
  5
111
100
AcDbEntity
  8
REF_ROUTE_TWY_B
  6
ByLayer
 62
  256
370
   -1
100
AcDbLine
 10
359.4604648774089
 20
-330.3808093173654
 11
365.2041774701602
 21
-375.4881432597951
  0
TEXT
  5
112
100
AcDbEntity
  8
REF_ROUTE_LABELS
  6
ByLayer
 62
  256
370
   -1
100
AcDbText
 10
362.3323211737846
 20
-352.9344762885803
 30
0
 40
104.7317437735489
  1
B/A
 50
0
 41
1
 51
0
  7
STANDARD
 71
    0
210
0
220
0
230
1
100
AcDbText
  0
LINE
  5
113
100
AcDbEntity
  8
REF_ROUTE_RUNWAYS
  6
ByLayer
 62
  256
370
   -1
100
AcDbLine
 10
-306.6380286225992
 20
253.1723896121214
 11
-253.9965576159267
 21
-28.13075971155543
  0
LINE
  5
114
100
AcDbEntity
  8
REF_ROUTE_RUNWAYS
  6
ByLayer
 62
  256
370
   -1
100
AcDbLine
 10
-253.9965576159267
 20
-28.13075971155543
 11
-233.6201437085897
 21
-137.9079510418664
  0
LINE
  5
115
100
AcDbEntity
  8
REF_ROUTE_RUNWAYS
  6
ByLayer
 62
  256
370
   -1
100
AcDbLine
 10
-233.6201437085897
 20
-137.9079510418664
 11
-222.5051155759964
 21
-195.8894335915197
  0
LINE
  5
116
100
AcDbEntity
  8
REF_ROUTE_RUNWAYS
  6
ByLayer
 62
  256
370
   -1
100
AcDbLine
 10
-222.5051155759964
 20
-195.8894335915197
 11
-170.2041868847442
 21
-476.0517229681504
  0
LINE
  5
117
100
AcDbEntity
  8
REF_ROUTE_TWY_A
  6
ByLayer
 62
  256
370
   -1
100
AcDbLine
 10
-139.8026319431124
 20
-120.0322546344257
 11
10.98176914657442
 21
-90.83357884706911
  0
TEXT
  5
118
100
AcDbEntity
  8
REF_ROUTE_LABELS
  6
ByLayer
 62
  256
370
   -1
100
AcDbText
 10
-64.41043139826898
 20
-105.4329167407474
 30
0
 40
104.7317437735489
  1
A/X
 50
0
 41
1
 51
0
  7
STANDARD
 71
    0
210
0
220
0
230
1
100
AcDbText
  0
LINE
  5
119
100
AcDbEntity
  8
REF_ROUTE_TWY_A
  6
ByLayer
 62
  256
370
   -1
100
AcDbLine
 10
-189.7402424725894
 20
-129.6417201953581
 11
-139.8026319431124
 21
-120.0322546344257
  0
TEXT
  5
11A
100
AcDbEntity
  8
REF_ROUTE_LABELS
  6
ByLayer
 62
  256
370
   -1
100
AcDbText
 10
-164.7714372078509
 20
-124.8369874148919
 30
0
 40
104.7317437735489
  1
A/X
 50
0
 41
1
 51
0
  7
STANDARD
 71
    0
210
0
220
0
230
1
100
AcDbText
  0
LINE
  5
11B
100
AcDbEntity
  8
REF_ROUTE_TWY_A
  6
ByLayer
 62
  256
370
   -1
100
AcDbLine
 10
-233.6201437085897
 20
-137.9079510418664
 11
-189.7402424725894
 21
-129.6417201953581
  0
TEXT
  5
11C
100
AcDbEntity
  8
REF_ROUTE_LABELS
  6
ByLayer
 62
  256
370
   -1
100
AcDbText
 10
-211.6801930905895
 20
-133.7748356186123
 30
0
 40
104.7317437735489
  1
A/X
 50
0
 41
1
 51
0
  7
STANDARD
 71
    0
210
0
220
0
230
1
100
AcDbText
  0
LINE
  5
11D
100
AcDbEntity
  8
REF_ROUTE_TWY_E
  6
ByLayer
 62
  256
370
   -1
100
AcDbLine
 10
444.2312311248341
 20
601.5850130140332
 11
193.8545093854052
 21
554.2871390163908
  0
LINE
  5
11E
100
AcDbEntity
  8
REF_ROUTE_TWY_E
  6
ByLayer
 62
  256
370
   -1
100
AcDbLine
 10
45.99467659885772
 20
1134.054150692948
 11
-83.74436109091506
 21
1223.089040406564
  0
TEXT
  5
11F
100
AcDbEntity
  8
REF_ROUTE_LABELS
  6
ByLayer
 62
  256
370
   -1
100
AcDbText
 10
-18.87484224602867
 20
1178.571595549756
 30
0
 40
104.7317437735489
  1
E/D
 50
0
 41
1
 51
0
  7
STANDARD
 71
    0
210
0
220
0
230
1
100
AcDbText
  0
LINE
  5
120
100
AcDbEntity
  8
REF_ROUTE_TWY_E
  6
ByLayer
 62
  256
370
   -1
100
AcDbLine
 10
81.26014661481514
 20
1102.975168695981
 11
45.99467659885772
 21
1134.054150692948
  0
TEXT
  5
121
100
AcDbEntity
  8
REF_ROUTE_LABELS
  6
ByLayer
 62
  256
370
   -1
100
AcDbText
 10
63.62741160683643
 20
1118.514659694465
 30
0
 40
104.7317437735489
  1
E/D
 50
0
 41
1
 51
0
  7
STANDARD
 71
    0
210
0
220
0
230
1
100
AcDbText
  0
LINE
  5
122
100
AcDbEntity
  8
REF_ROUTE_TWY_E
  6
ByLayer
 62
  256
370
   -1
100
AcDbLine
 10
99.76926613360551
 20
1058.42825718368
 11
81.26014661481514
 21
1102.975168695981
  0
TEXT
  5
123
100
AcDbEntity
  8
REF_ROUTE_LABELS
  6
ByLayer
 62
  256
370
   -1
100
AcDbText
 10
90.51470637421033
 20
1080.70171293983
 30
0
 40
104.7317437735489
  1
E/D
 50
0
 41
1
 51
0
  7
STANDARD
 71
    0
210
0
220
0
230
1
100
AcDbText
  0
LINE
  5
124
100
AcDbEntity
  8
REF_ROUTE_TWY_E
  6
ByLayer
 62
  256
370
   -1
100
AcDbLine
 10
172.4064110870441
 20
667.3379089866505
 11
155.3360638893929
 21
756.5495986339349
  0
TEXT
  5
125
100
AcDbEntity
  8
REF_ROUTE_LABELS
  6
ByLayer
 62
  256
370
   -1
100
AcDbText
 10
163.8712374882185
 20
711.9437538102927
 30
0
 40
104.7317437735489
  1
E/D
 50
0
 41
1
 51
0
  7
STANDARD
 71
    0
210
0
220
0
230
1
100
AcDbText
  0
LINE
  5
126
100
AcDbEntity
  8
REF_ROUTE_TWY_E
  6
ByLayer
 62
  256
370
   -1
100
AcDbLine
 10
155.3360638893929
 20
756.5495986339349
 11
99.76926613360551
 21
1058.42825718368
  0
TEXT
  5
127
100
AcDbEntity
  8
REF_ROUTE_LABELS
  6
ByLayer
 62
  256
370
   -1
100
AcDbText
 10
127.5526650114992
 20
907.4889279088073
 30
0
 40
104.7317437735489
  1
E/D
 50
0
 41
1
 51
0
  7
STANDARD
 71
    0
210
0
220
0
230
1
100
AcDbText
  0
LINE
  5
128
100
AcDbEntity
  8
REF_ROUTE_TWY_E
  6
ByLayer
 62
  256
370
   -1
100
AcDbLine
 10
4.503880693351857
 20
-59.58002081520297
 11
50.84797342711247
 21
-42.50826372752559
  0
TEXT
  5
129
100
AcDbEntity
  8
REF_ROUTE_LABELS
  6
ByLayer
 62
  256
370
   -1
100
AcDbText
 10
27.67592706023217
 20
-51.04414227136428
 30
0
 40
104.7317437735489
  1
E/B
 50
0
 41
1
 51
0
  7
STANDARD
 71
    0
210
0
220
0
230
1
100
AcDbText
  0
LINE
  5
12A
100
AcDbEntity
  8
REF_ROUTE_TWY_E
  6
ByLayer
 62
  256
370
   -1
100
AcDbLine
 10
172.4064110870441
 20
667.3379089866505
 11
193.8545093854052
 21
554.2871390163908
  0
TEXT
  5
12B
100
AcDbEntity
  8
REF_ROUTE_LABELS
  6
ByLayer
 62
  256
370
   -1
100
AcDbText
 10
183.1304602362247
 20
610.8125240015206
 30
0
 40
104.7317437735489
  1
E/D
 50
0
 41
1
 51
0
  7
STANDARD
 71
    0
210
0
220
0
230
1
100
AcDbText
  0
LINE
  5
12C
100
AcDbEntity
  8
REF_ROUTE_TWY_E
  6
ByLayer
 62
  256
370
   -1
100
AcDbLine
 10
193.8545093854052
 20
554.2871390163908
 11
264.1874949757105
 21
178.9597836206899
  0
TEXT
  5
12D
100
AcDbEntity
  8
REF_ROUTE_LABELS
  6
ByLayer
 62
  256
370
   -1
100
AcDbText
 10
229.0210021805579
 20
366.6234613185404
 30
0
 40
104.7317437735489
  1
E/D
 50
0
 41
1
 51
0
  7
STANDARD
 71
    0
210
0
220
0
230
1
100
AcDbText
  0
LINE
  5
12E
100
AcDbEntity
  8
REF_ROUTE_TWY_B
  6
ByLayer
 62
  256
370
   -1
100
AcDbLine
 10
270.6418715986232
 20
143.5364158387264
 11
273.6339416075836
 21
129.2678828517798
  0
TEXT
  5
12F
100
AcDbEntity
  8
REF_ROUTE_LABELS
  6
ByLayer
 62
  256
370
   -1
100
AcDbText
 10
272.1379066031034
 20
136.4021493452531
 30
0
 40
104.7317437735489
  1
B/A
 50
0
 41
1
 51
0
  7
STANDARD
 71
    0
210
0
220
0
230
1
100
AcDbText
  0
LINE
  5
130
100
AcDbEntity
  8
REF_ROUTE_TWY_B
  6
ByLayer
 62
  256
370
   -1
100
AcDbLine
 10
273.6339416075836
 20
129.2678828517798
 11
280.0117151707967
 21
94.80412728778053
  0
TEXT
  5
131
100
AcDbEntity
  8
REF_ROUTE_LABELS
  6
ByLayer
 62
  256
370
   -1
100
AcDbText
 10
276.8228283891901
 20
112.0360050697802
 30
0
 40
104.7317437735489
  1
B/A
 50
0
 41
1
 51
0
  7
STANDARD
 71
    0
210
0
220
0
230
1
100
AcDbText
  0
LINE
  5
132
100
AcDbEntity
  8
REF_ROUTE_TWY_B
  6
ByLayer
 62
  256
370
   -1
100
AcDbLine
 10
280.0117151707967
 20
94.80412728778053
 11
300.57394838148
 21
-12.38778199772472
  0
TEXT
  5
133
100
AcDbEntity
  8
REF_ROUTE_LABELS
  6
ByLayer
 62
  256
370
   -1
100
AcDbText
 10
290.2928317761383
 20
41.2081726450279
 30
0
 40
104.7317437735489
  1
B/A
 50
0
 41
1
 51
0
  7
STANDARD
 71
    0
210
0
220
0
230
1
100
AcDbText
  0
LINE
  5
134
100
AcDbEntity
  8
REF_ROUTE_TWY_B
  6
ByLayer
 62
  256
370
   -1
100
AcDbLine
 10
300.57394838148
 20
-12.38778199772472
 11
306.2668450832509
 21
-44.69324403581831
  0
TEXT
  5
135
100
AcDbEntity
  8
REF_ROUTE_LABELS
  6
ByLayer
 62
  256
370
   -1
100
AcDbText
 10
303.4203967323654
 20
-28.54051301677152
 30
0
 40
104.7317437735489
  1
B/A
 50
0
 41
1
 51
0
  7
STANDARD
 71
    0
210
0
220
0
230
1
100
AcDbText
  0
LINE
  5
136
100
AcDbEntity
  8
REF_ROUTE_TWY_B
  6
ByLayer
 62
  256
370
   -1
100
AcDbLine
 10
306.2668450832509
 20
-44.69324403581831
 11
312.0295188294934
 21
-76.22256548591966
  0
TEXT
  5
137
100
AcDbEntity
  8
REF_ROUTE_LABELS
  6
ByLayer
 62
  256
370
   -1
100
AcDbText
 10
309.1481819563721
 20
-60.45790476086898
 30
0
 40
104.7317437735489
  1
B/A
 50
0
 41
1
 51
0
  7
STANDARD
 71
    0
210
0
220
0
230
1
100
AcDbText
  0
LINE
  5
138
100
AcDbEntity
  8
REF_ROUTE_TWY_B
  6
ByLayer
 62
  256
370
   -1
100
AcDbLine
 10
312.0295188294934
 20
-76.22256548591966
 11
319.1619462986204
 21
-114.6215095040383
  0
TEXT
  5
139
100
AcDbEntity
  8
REF_ROUTE_LABELS
  6
ByLayer
 62
  256
370
   -1
100
AcDbText
 10
315.5957325640569
 20
-95.42203749497897
 30
0
 40
104.7317437735489
  1
B/A
 50
0
 41
1
 51
0
  7
STANDARD
 71
    0
210
0
220
0
230
1
100
AcDbText
  0
LINE
  5
13A
100
AcDbEntity
  8
REF_ROUTE_TWY_B
  6
ByLayer
 62
  256
370
   -1
100
AcDbLine
 10
319.1619462986204
 20
-114.6215095040383
 11
331.0028073840234
 21
-176.8428546064939
  0
TEXT
  5
13B
100
AcDbEntity
  8
REF_ROUTE_LABELS
  6
ByLayer
 62
  256
370
   -1
100
AcDbText
 10
325.0823768413219
 20
-145.7321820552661
 30
0
 40
104.7317437735489
  1
B/A
 50
0
 41
1
 51
0
  7
STANDARD
 71
    0
210
0
220
0
230
1
100
AcDbText
  0
LINE
  5
13C
100
AcDbEntity
  8
REF_ROUTE_TWY_B
  6
ByLayer
 62
  256
370
   -1
100
AcDbLine
 10
331.0028073840234
 20
-176.8428546064939
 11
342.8262242083688
 21
-239.8725868255415
  0
TEXT
  5
13D
100
AcDbEntity
  8
REF_ROUTE_LABELS
  6
ByLayer
 62
  256
370
   -1
100
AcDbText
 10
336.9145157961961
 20
-208.3577207160177
 30
0
 40
104.7317437735489
  1
B/A
 50
0
 41
1
 51
0
  7
STANDARD
 71
    0
210
0
220
0
230
1
100
AcDbText
  0
LINE
  5
13E
100
AcDbEntity
  8
REF_ROUTE_TWY_B
  6
ByLayer
 62
  256
370
   -1
100
AcDbLine
 10
342.8262242083688
 20
-239.8725868255415
 11
347.8668572324034
 21
-266.8362445872759
  0
TEXT
  5
13F
100
AcDbEntity
  8
REF_ROUTE_LABELS
  6
ByLayer
 62
  256
370
   -1
100
AcDbText
 10
345.3465407203861
 20
-253.3544157064087
 30
0
 40
104.7317437735489
  1
B/A
 50
0
 41
1
 51
0
  7
STANDARD
 71
    0
210
0
220
0
230
1
100
AcDbText
  0
LINE
  5
140
100
AcDbEntity
  8
REF_ROUTE_TWY_B
  6
ByLayer
 62
  256
370
   -1
100
AcDbLine
 10
347.8668572324034
 20
-266.8362445872759
 11
359.4604648774089
 21
-330.3808093173654
  0
TEXT
  5
141
100
AcDbEntity
  8
REF_ROUTE_LABELS
  6
ByLayer
 62
  256
370
   -1
100
AcDbText
 10
353.6636610549062
 20
-298.6085269523207
 30
0
 40
104.7317437735489
  1
B/A
 50
0
 41
1
 51
0
  7
STANDARD
 71
    0
210
0
220
0
230
1
100
AcDbText
  0
LINE
  5
142
100
AcDbEntity
  8
REF_ROUTE_TWY_E
  6
ByLayer
 62
  256
370
   -1
100
AcDbLine
 10
-42.87094034054784
 20
450.0730298665161
 11
-64.41308595990733
 21
312.0111850456047
  0
TEXT
  5
143
100
AcDbEntity
  8
REF_ROUTE_LABELS
  6
ByLayer
 62
  256
370
   -1
100
AcDbText
 10
-53.64201315022758
 20
381.0421074560604
 30
0
 40
104.7317437735489
  1
E/C
 50
0
 41
1
 51
0
  7
STANDARD
 71
    0
210
0
220
0
230
1
100
AcDbText
  0
LINE
  5
144
100
AcDbEntity
  8
REF_ROUTE_TWY_E
  6
ByLayer
 62
  256
370
   -1
100
AcDbLine
 10
-5.09273827377661
 20
597.3473743592916
 11
-42.87094034054784
 21
450.0730298665161
  0
TEXT
  5
145
100
AcDbEntity
  8
REF_ROUTE_LABELS
  6
ByLayer
 62
  256
370
   -1
100
AcDbText
 10
-23.98183930716223
 20
523.7102021129039
 30
0
 40
104.7317437735489
  1
E/C
 50
0
 41
1
 51
0
  7
STANDARD
 71
    0
210
0
220
0
230
1
100
AcDbText
  0
LINE
  5
146
100
AcDbEntity
  8
REF_ROUTE_TWY_E
  6
ByLayer
 62
  256
370
   -1
100
AcDbLine
 10
20.54653337573139
 20
662.1095235361436
 11
-5.09273827377661
 21
597.3473743592916
  0
TEXT
  5
147
100
AcDbEntity
  8
REF_ROUTE_LABELS
  6
ByLayer
 62
  256
370
   -1
100
AcDbText
 10
7.726897550977387
 20
629.7284489477177
 30
0
 40
104.7317437735489
  1
E/C
 50
0
 41
1
 51
0
  7
STANDARD
 71
    0
210
0
220
0
230
1
100
AcDbText
  0
LINE
  5
148
100
AcDbEntity
  8
REF_ROUTE_TWY_E
  6
ByLayer
 62
  256
370
   -1
100
AcDbLine
 10
118.0933247952665
 20
698.6059223590942
 11
20.54653337573139
 21
662.1095235361436
  0
TEXT
  5
149
100
AcDbEntity
  8
REF_ROUTE_LABELS
  6
ByLayer
 62
  256
370
   -1
100
AcDbText
 10
69.31992908549896
 20
680.3577229476189
 30
0
 40
104.7317437735489
  1
E/C
 50
0
 41
1
 51
0
  7
STANDARD
 71
    0
210
0
220
0
230
1
100
AcDbText
  0
LINE
  5
14A
100
AcDbEntity
  8
REF_ROUTE_TWY_E
  6
ByLayer
 62
  256
370
   -1
100
AcDbLine
 10
172.4064110870441
 20
667.3379089866505
 11
118.0933247952665
 21
698.6059223590942
  0
TEXT
  5
14B
100
AcDbEntity
  8
REF_ROUTE_LABELS
  6
ByLayer
 62
  256
370
   -1
100
AcDbText
 10
145.2498679411553
 20
682.9719156728723
 30
0
 40
104.7317437735489
  1
E/C
 50
0
 41
1
 51
0
  7
STANDARD
 71
    0
210
0
220
0
230
1
100
AcDbText
  0
LINE
  5
14C
100
AcDbEntity
  8
REF_ROUTE_RUNWAYS
  6
ByLayer
 62
  256
370
   -1
100
AcDbLine
 10
-64.41308595990733
 20
312.0111850456047
 11
4.503880693351857
 21
-59.58002081520297
  0
LINE
  5
14D
100
AcDbEntity
  8
REF_ROUTE_RUNWAYS
  6
ByLayer
 62
  256
370
   -1
100
AcDbLine
 10
4.503880693351857
 20
-59.58002081520297
 11
10.98176914657442
 21
-90.83357884706911
  0
LINE
  5
14E
100
AcDbEntity
  8
REF_ROUTE_RUNWAYS
  6
ByLayer
 62
  256
370
   -1
100
AcDbLine
 10
10.98176914657442
 20
-90.83357884706911
 11
293.4134584054657
 21
-1597.878434747855
  0
LINE
  5
14F
100
AcDbEntity
  8
REF_ROUTE_RUNWAYS
  6
ByLayer
 62
  256
370
   -1
100
AcDbLine
 10
293.4134584054657
 20
-1597.878434747855
 11
310.3647295596163
 21
-1689.0571626468
  0
LINE
  5
150
100
AcDbEntity
  8
REF_ROUTE_TWY_E
  6
ByLayer
 62
  256
370
   -1
100
AcDbLine
 10
155.3360638893929
 20
756.5495986339349
 11
118.0933247952665
 21
698.6059223590942
  0
TEXT
  5
151
100
AcDbEntity
  8
REF_ROUTE_LABELS
  6
ByLayer
 62
  256
370
   -1
100
AcDbText
 10
136.7146943423297
 20
727.5777604965145
 30
0
 40
104.7317437735489
  1
E/D
 50
0
 41
1
 51
0
  7
STANDARD
 71
    0
210
0
220
0
230
1
100
AcDbText
  0
LINE
  5
152
100
AcDbEntity
  8
REF_ROUTE_TWY_B
  6
ByLayer
 62
  256
370
   -1
100
AcDbLine
 10
300.57394838148
 20
-12.38778199772472
 11
373.1739294741528
 21
0.9100192795395978
  0
LINE
  5
153
100
AcDbEntity
  8
REF_ROUTE_TWY_E
  6
ByLayer
 62
  256
370
   -1
100
AcDbLine
 10
336.0586093309475
 20
-1683.245003831223
 11
310.3647295596163
 21
-1689.0571626468
  0
LINE
  5
154
100
AcDbEntity
  8
REF_ROUTE_TWY_E
  6
ByLayer
 62
  256
370
   -1
100
AcDbLine
 10
343.7462193721863
 20
-1660.251004950268
 11
336.0586093309475
 21
-1683.245003831223
  0
LINE
  5
155
100
AcDbEntity
  8
REF_ROUTE_TWY_E
  6
ByLayer
 62
  256
370
   -1
100
AcDbLine
 10
334.2785362481713
 20
-1641.248903936359
 11
343.7462193721863
 21
-1660.251004950268
  0
LINE
  5
156
100
AcDbEntity
  8
REF_ROUTE_TWY_E
  6
ByLayer
 62
  256
370
   -1
100
AcDbLine
 10
293.4134584054657
 20
-1597.878434747855
 11
334.2785362481713
 21
-1641.248903936359
  0
POINT
  5
157
100
AcDbEntity
  8
REF_TAXI_SIGNS
  6
ByLayer
 62
  256
370
   -1
100
AcDbPoint
 10
-142.1758099047417
 20
-94.51746676657224
  0
LINE
  5
158
100
AcDbEntity
  8
REF_TAXI_SIGNS
  6
ByLayer
 62
  256
370
   -1
100
AcDbLine
 10
-221.7246604271856
 20
-174.0663172890161
 11
-62.62695938229788
 21
-14.9686162441284
  0
LINE
  5
159
100
AcDbEntity
  8
REF_TAXI_SIGNS
  6
ByLayer
 62
  256
370
   -1
100
AcDbLine
 10
-221.7246604271856
 20
-14.9686162441284
 11
-62.62695938229788
 21
-174.0663172890161
  0
TEXT
  5
15A
100
AcDbEntity
  8
REF_TAXI_SIGN_LABELS
  6
ByLayer
 62
  256
370
   -1
100
AcDbText
 10
28.28601264335225
 20
7.759626762284142
 30
0
 40
104.7317437735489
  1
X / RWY 16C-34C / X
 50
0
 41
1
 51
0
  7
STANDARD
 71
    0
210
0
220
0
230
1
100
AcDbText
  0
POINT
  5
15B
100
AcDbEntity
  8
REF_TAXI_SIGNS
  6
ByLayer
 62
  256
370
   -1
100
AcDbPoint
 10
-132.3501402044903
 20
-143.5299665325821
  0
LINE
  5
15C
100
AcDbEntity
  8
REF_TAXI_SIGNS
  6
ByLayer
 62
  256
370
   -1
100
AcDbLine
 10
-211.8989907269341
 20
-223.078817055026
 11
-52.80128968204642
 21
-63.98111601013827
  0
LINE
  5
15D
100
AcDbEntity
  8
REF_TAXI_SIGNS
  6
ByLayer
 62
  256
370
   -1
100
AcDbLine
 10
-211.8989907269341
 20
-63.98111601013827
 11
-52.80128968204642
 21
-223.078817055026
  0
TEXT
  5
15E
100
AcDbEntity
  8
REF_TAXI_SIGN_LABELS
  6
ByLayer
 62
  256
370
   -1
100
AcDbText
 10
38.11168234360372
 20
-41.25287300372572
 30
0
 40
104.7317437735489
  1
X / RWY 16C-34C / X
 50
0
 41
1
 51
0
  7
STANDARD
 71
    0
210
0
220
0
230
1
100
AcDbText
  0
POINT
  5
15F
100
AcDbEntity
  8
REF_TAXI_SIGNS
  6
ByLayer
 62
  256
370
   -1
100
AcDbPoint
 10
159.7942102806453
 20
15.97137209382404
  0
LINE
  5
160
100
AcDbEntity
  8
REF_TAXI_SIGNS
  6
ByLayer
 62
  256
370
   -1
100
AcDbLine
 10
80.24535975820149
 20
-63.5774784286198
 11
239.3430608030892
 21
95.52022261626789
  0
LINE
  5
161
100
AcDbEntity
  8
REF_TAXI_SIGNS
  6
ByLayer
 62
  256
370
   -1
100
AcDbLine
 10
80.24535975820149
 20
95.52022261626789
 11
239.3430608030892
 21
-63.5774784286198
  0
TEXT
  5
162
100
AcDbEntity
  8
REF_TAXI_SIGN_LABELS
  6
ByLayer
 62
  256
370
   -1
100
AcDbText
 10
330.2560328287393
 20
118.2484656226804
 30
0
 40
104.7317437735489
  1
B / RWY 16C-34C / B / D | A
 50
0
 41
1
 51
0
  7
STANDARD
 71
    0
210
0
220
0
230
1
100
AcDbText
  0
POINT
  5
163
100
AcDbEntity
  8
REF_TAXI_SIGNS
  6
ByLayer
 62
  256
370
   -1
100
AcDbPoint
 10
117.1414748937188
 20
59.75659835871105
  0
LINE
  5
164
100
AcDbEntity
  8
REF_TAXI_SIGNS
  6
ByLayer
 62
  256
370
   -1
100
AcDbLine
 10
37.59262437127491
 20
-19.79225216373279
 11
196.6903254161626
 21
139.3054488811549
  0
LINE
  5
165
100
AcDbEntity
  8
REF_TAXI_SIGNS
  6
ByLayer
 62
  256
370
   -1
100
AcDbLine
 10
37.59262437127491
 20
139.3054488811549
 11
196.6903254161626
 21
-19.79225216373279
  0
TEXT
  5
166
100
AcDbEntity
  8
REF_TAXI_SIGN_LABELS
  6
ByLayer
 62
  256
370
   -1
100
AcDbText
 10
287.6032974418127
 20
162.0336918875674
 30
0
 40
104.7317437735489
  1
B / RWY 16C-34C / D | A / B
 50
0
 41
1
 51
0
  7
STANDARD
 71
    0
210
0
220
0
230
1
100
AcDbText
  0
POINT
  5
167
100
AcDbEntity
  8
REF_TAXI_SIGNS
  6
ByLayer
 62
  256
370
   -1
100
AcDbPoint
 10
-101.464696627652
 20
1201.874160352591
  0
LINE
  5
168
100
AcDbEntity
  8
REF_TAXI_SIGNS
  6
ByLayer
 62
  256
370
   -1
100
AcDbLine
 10
-181.0135471500959
 20
1122.325309830147
 11
-21.9158461052082
 21
1281.423010875035
  0
LINE
  5
169
100
AcDbEntity
  8
REF_TAXI_SIGNS
  6
ByLayer
 62
  256
370
   -1
100
AcDbLine
 10
-181.0135471500959
 20
1281.423010875035
 11
-21.9158461052082
 21
1122.325309830147
  0
TEXT
  5
16A
100
AcDbEntity
  8
REF_TAXI_SIGN_LABELS
  6
ByLayer
 62
  256
370
   -1
100
AcDbText
 10
68.99712592044193
 20
1304.151253881448
 30
0
 40
104.7317437735489
  1
D / RWY 16C / D
 50
0
 41
1
 51
0
  7
STANDARD
 71
    0
210
0
220
0
230
1
100
AcDbText
  0
POINT
  5
16B
100
AcDbEntity
  8
REF_TAXI_SIGNS
  6
ByLayer
 62
  256
370
   -1
100
AcDbPoint
 10
-70.27587459615934
 20
1247.380684081443
  0
LINE
  5
16C
100
AcDbEntity
  8
REF_TAXI_SIGNS
  6
ByLayer
 62
  256
370
   -1
100
AcDbLine
 10
-149.8247251186032
 20
1167.831833558999
 11
9.272975926284502
 21
1326.929534603887
  0
LINE
  5
16D
100
AcDbEntity
  8
REF_TAXI_SIGNS
  6
ByLayer
 62
  256
370
   -1
100
AcDbLine
 10
-149.8247251186032
 20
1326.929534603887
 11
9.272975926284502
 21
1167.831833558999
  0
TEXT
  5
16E
100
AcDbEntity
  8
REF_TAXI_SIGN_LABELS
  6
ByLayer
 62
  256
370
   -1
100
AcDbText
 10
100.1859479519346
 20
1349.657777610299
 30
0
 40
104.7317437735489
  1
D / RWY 16C / D
 50
0
 41
1
 51
0
  7
STANDARD
 71
    0
210
0
220
0
230
1
100
AcDbText
  0
POINT
  5
16F
100
AcDbEntity
  8
REF_TAXI_SIGNS
  6
ByLayer
 62
  256
370
   -1
100
AcDbPoint
 10
-200.4957671365125
 20
-152.9648560586148
  0
LINE
  5
170
100
AcDbEntity
  8
REF_TAXI_SIGNS
  6
ByLayer
 62
  256
370
   -1
100
AcDbLine
 10
-280.0446176589563
 20
-232.5137065810586
 11
-120.9469166140686
 21
-73.41600553617093
  0
LINE
  5
171
100
AcDbEntity
  8
REF_TAXI_SIGNS
  6
ByLayer
 62
  256
370
   -1
100
AcDbLine
 10
-280.0446176589563
 20
-73.41600553617093
 11
-120.9469166140686
 21
-232.5137065810586
  0
TEXT
  5
172
100
AcDbEntity
  8
REF_TAXI_SIGN_LABELS
  6
ByLayer
 62
  256
370
   -1
100
AcDbText
 10
-30.03394458841848
 20
-50.68776252975839
 30
0
 40
104.7317437735489
  1
X / X / RWY 16R-34L
 50
0
 41
1
 51
0
  7
STANDARD
 71
    0
210
0
220
0
230
1
100
AcDbText
  0
POINT
  5
173
100
AcDbEntity
  8
REF_TAXI_SIGNS
  6
ByLayer
 62
  256
370
   -1
100
AcDbPoint
 10
21.38006567999527
 20
-898.8259535626833
  0
LINE
  5
174
100
AcDbEntity
  8
REF_TAXI_SIGNS
  6
ByLayer
 62
  256
370
   -1
100
AcDbLine
 10
-58.16878484244857
 20
-978.3748040851272
 11
100.9289162024391
 21
-819.2771030402394
  0
LINE
  5
175
100
AcDbEntity
  8
REF_TAXI_SIGNS
  6
ByLayer
 62
  256
370
   -1
100
AcDbLine
 10
-58.16878484244857
 20
-819.2771030402394
 11
100.9289162024391
 21
-978.3748040851272
  0
TEXT
  5
176
100
AcDbEntity
  8
REF_TAXI_SIGN_LABELS
  6
ByLayer
 62
  256
370
   -1
100
AcDbText
 10
191.8418882280893
 20
-796.5488600338268
 30
0
 40
104.7317437735489
  1
Y / RWY 34C / Y
 50
0
 41
1
 51
0
  7
STANDARD
 71
    0
210
0
220
0
230
1
100
AcDbText
  0
POINT
  5
177
100
AcDbEntity
  8
REF_TAXI_SIGNS
  6
ByLayer
 62
  256
370
   -1
100
AcDbPoint
 10
-2.04454325055918
 20
684.5264207469176
  0
LINE
  5
178
100
AcDbEntity
  8
REF_TAXI_SIGNS
  6
ByLayer
 62
  256
370
   -1
100
AcDbLine
 10
-81.59339377300303
 20
604.9775702244738
 11
77.50430727188466
 21
764.0752712693613
  0
LINE
  5
179
100
AcDbEntity
  8
REF_TAXI_SIGNS
  6
ByLayer
 62
  256
370
   -1
100
AcDbLine
 10
-81.59339377300303
 20
764.0752712693613
 11
77.50430727188466
 21
604.9775702244738
  0
TEXT
  5
17A
100
AcDbEntity
  8
REF_TAXI_SIGN_LABELS
  6
ByLayer
 62
  256
370
   -1
100
AcDbText
 10
168.4172792975348
 20
786.803514275774
 30
0
 40
104.7317437735489
  1
C / 16C-34C / C
 50
0
 41
1
 51
0
  7
STANDARD
 71
    0
210
0
220
0
230
1
100
AcDbText
  0
POINT
  5
17B
100
AcDbEntity
  8
REF_TAXI_SIGNS
  6
ByLayer
 62
  256
370
   -1
100
AcDbPoint
 10
54.28221753393622
 20
637.9613213169494
  0
LINE
  5
17C
100
AcDbEntity
  8
REF_TAXI_SIGNS
  6
ByLayer
 62
  256
370
   -1
100
AcDbLine
 10
-25.26663298850762
 20
558.4124707945055
 11
133.83106805638
 21
717.5101718393933
  0
LINE
  5
17D
100
AcDbEntity
  8
REF_TAXI_SIGNS
  6
ByLayer
 62
  256
370
   -1
100
AcDbLine
 10
-25.26663298850762
 20
717.5101718393933
 11
133.83106805638
 21
558.4124707945055
  0
TEXT
  5
17E
100
AcDbEntity
  8
REF_TAXI_SIGN_LABELS
  6
ByLayer
 62
  256
370
   -1
100
AcDbText
 10
224.7440400820302
 20
740.2384148458058
 30
0
 40
104.7317437735489
  1
C / 16C-34C / C
 50
0
 41
1
 51
0
  7
STANDARD
 71
    0
210
0
220
0
230
1
100
AcDbText
  0
POINT
  5
17F
100
AcDbEntity
  8
REF_TAXI_SIGNS
  6
ByLayer
 62
  256
370
   -1
100
AcDbPoint
 10
134.1435619390908
 20
646.0963421495832
  0
LINE
  5
180
100
AcDbEntity
  8
REF_TAXI_SIGNS
  6
ByLayer
 62
  256
370
   -1
100
AcDbLine
 10
54.59471141664699
 20
566.5474916271394
 11
213.6924124615347
 21
725.645192672027
  0
LINE
  5
181
100
AcDbEntity
  8
REF_TAXI_SIGNS
  6
ByLayer
 62
  256
370
   -1
100
AcDbLine
 10
54.59471141664699
 20
725.645192672027
 11
213.6924124615347
 21
566.5474916271394
  0
TEXT
  5
182
100
AcDbEntity
  8
REF_TAXI_SIGN_LABELS
  6
ByLayer
 62
  256
370
   -1
100
AcDbText
 10
304.6053844871848
 20
748.3734356784396
 30
0
 40
104.7317437735489
  1
C / D / D
 50
0
 41
1
 51
0
  7
STANDARD
 71
    0
210
0
220
0
230
1
100
AcDbText
  0
POINT
  5
183
100
AcDbEntity
  8
REF_TAXI_SIGNS
  6
ByLayer
 62
  256
370
   -1
100
AcDbPoint
 10
32.92740811035662
 20
45.62261123308365
  0
LINE
  5
184
100
AcDbEntity
  8
REF_TAXI_SIGNS
  6
ByLayer
 62
  256
370
   -1
100
AcDbLine
 10
-46.62144241208723
 20
-33.9262392893602
 11
112.4762586328005
 21
125.1714617555275
  0
LINE
  5
185
100
AcDbEntity
  8
REF_TAXI_SIGNS
  6
ByLayer
 62
  256
370
   -1
100
AcDbLine
 10
-46.62144241208723
 20
125.1714617555275
 11
112.4762586328005
 21
-33.9262392893602
  0
TEXT
  5
186
100
AcDbEntity
  8
REF_TAXI_SIGN_LABELS
  6
ByLayer
 62
  256
370
   -1
100
AcDbText
 10
203.3892306584506
 20
147.89970476194
 30
0
 40
104.7317437735489
  1
B | X
 50
0
 41
1
 51
0
  7
STANDARD
 71
    0
210
0
220
0
230
1
100
AcDbText
  0
POINT
  5
187
100
AcDbEntity
  8
REF_TAXI_SIGNS
  6
ByLayer
 62
  256
370
   -1
100
AcDbPoint
 10
272.9748519148607
 20
10.29264719018219
  0
LINE
  5
188
100
AcDbEntity
  8
REF_TAXI_SIGNS
  6
ByLayer
 62
  256
370
   -1
100
AcDbLine
 10
193.4260013924168
 20
-69.25620333226165
 11
352.5237024373045
 21
89.84149771262604
  0
LINE
  5
189
100
AcDbEntity
  8
REF_TAXI_SIGNS
  6
ByLayer
 62
  256
370
   -1
100
AcDbLine
 10
193.4260013924168
 20
89.84149771262604
 11
352.5237024373045
 21
-69.25620333226165
  0
TEXT
  5
18A
100
AcDbEntity
  8
REF_TAXI_SIGN_LABELS
  6
ByLayer
 62
  256
370
   -1
100
AcDbText
 10
443.4366744629547
 20
112.5697407190386
 30
0
 40
104.7317437735489
  1
A / A1 / A / A1
 50
0
 41
1
 51
0
  7
STANDARD
 71
    0
210
0
220
0
230
1
100
AcDbText
  0
POINT
  5
18B
100
AcDbEntity
  8
REF_TAXI_SIGNS
  6
ByLayer
 62
  256
370
   -1
100
AcDbPoint
 10
253.7952660113008
 20
87.94006446597602
  0
LINE
  5
18C
100
AcDbEntity
  8
REF_TAXI_SIGNS
  6
ByLayer
 62
  256
370
   -1
100
AcDbLine
 10
174.2464154888569
 20
8.391213943532179
 11
333.3441165337446
 21
167.4889149884199
  0
LINE
  5
18D
100
AcDbEntity
  8
REF_TAXI_SIGNS
  6
ByLayer
 62
  256
370
   -1
100
AcDbLine
 10
174.2464154888569
 20
167.4889149884199
 11
333.3441165337446
 21
8.391213943532179
  0
TEXT
  5
18E
100
AcDbEntity
  8
REF_TAXI_SIGN_LABELS
  6
ByLayer
 62
  256
370
   -1
100
AcDbText
 10
424.2570885593947
 20
190.2171579948324
 30
0
 40
104.7317437735489
  1
B / A / D / A
 50
0
 41
1
 51
0
  7
STANDARD
 71
    0
210
0
220
0
230
1
100
AcDbText
  0
POINT
  5
18F
100
AcDbEntity
  8
REF_TAXI_SIGNS
  6
ByLayer
 62
  256
370
   -1
100
AcDbPoint
 10
-175.2728824159073
 20
1143.710318123058
  0
LINE
  5
190
100
AcDbEntity
  8
REF_TAXI_SIGNS
  6
ByLayer
 62
  256
370
   -1
100
AcDbLine
 10
-254.8217329383512
 20
1064.161467600614
 11
-95.72403189346349
 21
1223.259168645501
  0
LINE
  5
191
100
AcDbEntity
  8
REF_TAXI_SIGNS
  6
ByLayer
 62
  256
370
   -1
100
AcDbLine
 10
-254.8217329383512
 20
1223.259168645501
 11
-95.72403189346349
 21
1064.161467600614
  0
TEXT
  5
192
100
AcDbEntity
  8
REF_TAXI_SIGN_LABELS
  6
ByLayer
 62
  256
370
   -1
100
AcDbText
 10
-4.811059867813356
 20
1245.987411651914
 30
0
 40
104.7317437735489
  1
D
 50
0
 41
1
 51
0
  7
STANDARD
 71
    0
210
0
220
0
230
1
100
AcDbText
  0
POINT
  5
193
100
AcDbEntity
  8
REF_TAXI_SIGNS
  6
ByLayer
 62
  256
370
   -1
100
AcDbPoint
 10
-60.85673202495671
 20
543.5034550297212
  0
LINE
  5
194
100
AcDbEntity
  8
REF_TAXI_SIGNS
  6
ByLayer
 62
  256
370
   -1
100
AcDbLine
 10
-140.4055825474005
 20
463.9546045072773
 11
18.69211849748714
 21
623.0523055521651
  0
LINE
  5
195
100
AcDbEntity
  8
REF_TAXI_SIGNS
  6
ByLayer
 62
  256
370
   -1
100
AcDbLine
 10
-140.4055825474005
 20
623.0523055521651
 11
18.69211849748714
 21
463.9546045072773
  0
TEXT
  5
196
100
AcDbEntity
  8
REF_TAXI_SIGN_LABELS
  6
ByLayer
 62
  256
370
   -1
100
AcDbText
 10
109.6050905231373
 20
645.7805485585776
 30
0
 40
104.7317437735489
  1
C
 50
0
 41
1
 51
0
  7
STANDARD
 71
    0
210
0
220
0
230
1
100
AcDbText
  0
POINT
  5
197
100
AcDbEntity
  8
REF_TAXI_SIGNS
  6
ByLayer
 62
  256
370
   -1
100
AcDbPoint
 10
194.5773085535888
 20
402.512735841832
  0
LINE
  5
198
100
AcDbEntity
  8
REF_TAXI_SIGNS
  6
ByLayer
 62
  256
370
   -1
100
AcDbLine
 10
115.0284580311449
 20
322.9638853193882
 11
274.1261590760326
 21
482.0615863642759
  0
LINE
  5
199
100
AcDbEntity
  8
REF_TAXI_SIGNS
  6
ByLayer
 62
  256
370
   -1
100
AcDbLine
 10
115.0284580311449
 20
482.0615863642759
 11
274.1261590760326
 21
322.9638853193882
  0
TEXT
  5
19A
100
AcDbEntity
  8
REF_TAXI_SIGN_LABELS
  6
ByLayer
 62
  256
370
   -1
100
AcDbText
 10
365.0391311016828
 20
504.7898293706884
 30
0
 40
104.7317437735489
  1
A | D
 50
0
 41
1
 51
0
  7
STANDARD
 71
    0
210
0
220
0
230
1
100
AcDbText
  0
POINT
  5
19B
100
AcDbEntity
  8
REF_TAXI_SIGNS
  6
ByLayer
 62
  256
370
   -1
100
AcDbPoint
 10
217.1372888883659
 20
280.2283391628265
  0
LINE
  5
19C
100
AcDbEntity
  8
REF_TAXI_SIGNS
  6
ByLayer
 62
  256
370
   -1
100
AcDbLine
 10
137.588438365922
 20
200.6794886403827
 11
296.6861394108097
 21
359.7771896852703
  0
LINE
  5
19D
100
AcDbEntity
  8
REF_TAXI_SIGNS
  6
ByLayer
 62
  256
370
   -1
100
AcDbLine
 10
137.588438365922
 20
359.7771896852703
 11
296.6861394108097
 21
200.6794886403827
  0
TEXT
  5
19E
100
AcDbEntity
  8
REF_TAXI_SIGN_LABELS
  6
ByLayer
 62
  256
370
   -1
100
AcDbText
 10
387.5991114364599
 20
382.5054326916829
 30
0
 40
104.7317437735489
  1
A | D
 50
0
 41
1
 51
0
  7
STANDARD
 71
    0
210
0
220
0
230
1
100
AcDbText
  0
POINT
  5
19F
100
AcDbEntity
  8
REF_TAXI_SIGNS
  6
ByLayer
 62
  256
370
   -1
100
AcDbPoint
 10
234.7559926426598
 20
178.3526593206773
  0
LINE
  5
1A0
100
AcDbEntity
  8
REF_TAXI_SIGNS
  6
ByLayer
 62
  256
370
   -1
100
AcDbLine
 10
155.2071421202159
 20
98.80380879823349
 11
314.3048431651036
 21
257.9015098431212
  0
LINE
  5
1A1
100
AcDbEntity
  8
REF_TAXI_SIGNS
  6
ByLayer
 62
  256
370
   -1
100
AcDbLine
 10
155.2071421202159
 20
257.9015098431212
 11
314.3048431651036
 21
98.80380879823349
  0
TEXT
  5
1A2
100
AcDbEntity
  8
REF_TAXI_SIGN_LABELS
  6
ByLayer
 62
  256
370
   -1
100
AcDbText
 10
405.2178151907538
 20
280.6297528495337
 30
0
 40
104.7317437735489
  1
D / D1 / B / | A / D / D1
 50
0
 41
1
 51
0
  7
STANDARD
 71
    0
210
0
220
0
230
1
100
AcDbText
  0
POINT
  5
1A3
100
AcDbEntity
  8
REF_TAXI_SIGNS
  6
ByLayer
 62
  256
370
   -1
100
AcDbPoint
 10
317.2263917580358
 20
-241.5382868273782
  0
LINE
  5
1A4
100
AcDbEntity
  8
REF_TAXI_SIGNS
  6
ByLayer
 62
  256
370
   -1
100
AcDbLine
 10
237.6775412355919
 20
-321.0871373498221
 11
396.7752422804796
 21
-161.9894363049344
  0
LINE
  5
1A5
100
AcDbEntity
  8
REF_TAXI_SIGNS
  6
ByLayer
 62
  256
370
   -1
100
AcDbLine
 10
237.6775412355919
 20
-161.9894363049344
 11
396.7752422804796
 21
-321.0871373498221
  0
TEXT
  5
1A6
100
AcDbEntity
  8
REF_TAXI_SIGN_LABELS
  6
ByLayer
 62
  256
370
   -1
100
AcDbText
 10
487.6882143061298
 20
-139.2611932985218
 30
0
 40
104.7317437735489
  1
G2 34R | G1 16L / A
 50
0
 41
1
 51
0
  7
STANDARD
 71
    0
210
0
220
0
230
1
100
AcDbText
  0
POINT
  5
1A7
100
AcDbEntity
  8
REF_TAXI_SIGNS
  6
ByLayer
 62
  256
370
   -1
100
AcDbPoint
 10
70.91721664919325
 20
-164.4679712203505
  0
LINE
  5
1A8
100
AcDbEntity
  8
REF_TAXI_SIGNS
  6
ByLayer
 62
  256
370
   -1
100
AcDbLine
 10
-8.631633873250593
 20
-244.0168217427943
 11
150.4660671716371
 21
-84.91912069790666
  0
LINE
  5
1A9
100
AcDbEntity
  8
REF_TAXI_SIGNS
  6
ByLayer
 62
  256
370
   -1
100
AcDbLine
 10
-8.631633873250593
 20
-84.91912069790666
 11
150.4660671716371
 21
-244.0168217427943
  0
TEXT
  5
1AA
100
AcDbEntity
  8
REF_TAXI_SIGN_LABELS
  6
ByLayer
 62
  256
370
   -1
100
AcDbText
 10
241.3790391972872
 20
-62.19087769149412
 30
0
 40
104.7317437735489
  1
X | B
 50
0
 41
1
 51
0
  7
STANDARD
 71
    0
210
0
220
0
230
1
100
AcDbText
  0
POINT
  5
1AB
100
AcDbEntity
  8
REF_TAXI_SIGNS
  6
ByLayer
 62
  256
370
   -1
100
AcDbPoint
 10
104.8736086333419
 20
737.782118914589
  0
LINE
  5
1AC
100
AcDbEntity
  8
REF_TAXI_SIGNS
  6
ByLayer
 62
  256
370
   -1
100
AcDbLine
 10
25.3247581108981
 20
658.2332683921452
 11
184.4224591557858
 21
817.3309694370328
  0
LINE
  5
1AD
100
AcDbEntity
  8
REF_TAXI_SIGNS
  6
ByLayer
 62
  256
370
   -1
100
AcDbLine
 10
25.3247581108981
 20
817.3309694370328
 11
184.4224591557858
 21
658.2332683921452
  0
TEXT
  5
1AE
100
AcDbEntity
  8
REF_TAXI_SIGN_LABELS
  6
ByLayer
 62
  256
370
   -1
100
AcDbText
 10
275.3354311814359
 20
840.0592124434454
 30
0
 40
104.7317437735489
  1
D / C1 / B
 50
0
 41
1
 51
0
  7
STANDARD
 71
    0
210
0
220
0
230
1
100
AcDbText
  0
POINT
  5
1AF
100
AcDbEntity
  8
REF_TAXI_SIGNS
  6
ByLayer
 62
  256
370
   -1
100
AcDbPoint
 10
184.0910322681806
 20
766.2847144611145
  0
LINE
  5
1B0
100
AcDbEntity
  8
REF_TAXI_SIGNS
  6
ByLayer
 62
  256
370
   -1
100
AcDbLine
 10
104.5421817457368
 20
686.7358639386707
 11
263.6398827906245
 21
845.8335649835583
  0
LINE
  5
1B1
100
AcDbEntity
  8
REF_TAXI_SIGNS
  6
ByLayer
 62
  256
370
   -1
100
AcDbLine
 10
104.5421817457368
 20
845.8335649835583
 11
263.6398827906245
 21
686.7358639386707
  0
TEXT
  5
1B2
100
AcDbEntity
  8
REF_TAXI_SIGN_LABELS
  6
ByLayer
 62
  256
370
   -1
100
AcDbText
 10
354.5528548162746
 20
868.5618079899709
 30
0
 40
104.7317437735489
  1
D / D3 / C / D
 50
0
 41
1
 51
0
  7
STANDARD
 71
    0
210
0
220
0
230
1
100
AcDbText
  0
POINT
  5
1B3
100
AcDbEntity
  8
REF_TAXI_SIGNS
  6
ByLayer
 62
  256
370
   -1
100
AcDbPoint
 10
9.063658866806207
 20
174.6031663945906
  0
LINE
  5
1B4
100
AcDbEntity
  8
REF_TAXI_SIGNS
  6
ByLayer
 62
  256
370
   -1
100
AcDbLine
 10
-70.48519165563764
 20
95.05431587214676
 11
88.61250938925005
 21
254.1520169170344
  0
LINE
  5
1B5
100
AcDbEntity
  8
REF_TAXI_SIGNS
  6
ByLayer
 62
  256
370
   -1
100
AcDbLine
 10
-70.48519165563764
 20
254.1520169170344
 11
88.61250938925005
 21
95.05431587214676
  0
TEXT
  5
1B6
100
AcDbEntity
  8
REF_TAXI_SIGN_LABELS
  6
ByLayer
 62
  256
370
   -1
100
AcDbText
 10
179.5254814149002
 20
276.880259923447
 30
0
 40
104.7317437735489
  1
C
 50
0
 41
1
 51
0
  7
STANDARD
 71
    0
210
0
220
0
230
1
100
AcDbText
  0
POINT
  5
1B7
100
AcDbEntity
  8
REF_TAXI_SIGNS
  6
ByLayer
 62
  256
370
   -1
100
AcDbPoint
 10
139.5080514634637
 20
-1028.477014132018
  0
LINE
  5
1B8
100
AcDbEntity
  8
REF_TAXI_SIGNS
  6
ByLayer
 62
  256
370
   -1
100
AcDbLine
 10
59.95920094101984
 20
-1108.025864654462
 11
219.0569019859075
 21
-948.9281636095743
  0
LINE
  5
1B9
100
AcDbEntity
  8
REF_TAXI_SIGNS
  6
ByLayer
 62
  256
370
   -1
100
AcDbLine
 10
59.95920094101984
 20
-948.9281636095743
 11
219.0569019859075
 21
-1108.025864654462
  0
TEXT
  5
1BA
100
AcDbEntity
  8
REF_TAXI_SIGN_LABELS
  6
ByLayer
 62
  256
370
   -1
100
AcDbText
 10
309.9698740115576
 20
-926.1999206031618
 30
0
 40
104.7317437735489
  1
Y
 50
0
 41
1
 51
0
  7
STANDARD
 71
    0
210
0
220
0
230
1
100
AcDbText
  0
POINT
  5
1BB
100
AcDbEntity
  8
REF_TAXI_SIGNS
  6
ByLayer
 62
  256
370
   -1
100
AcDbPoint
 10
115.1141483703039
 20
-897.7317954848145
  0
LINE
  5
1BC
100
AcDbEntity
  8
REF_TAXI_SIGNS
  6
ByLayer
 62
  256
370
   -1
100
AcDbLine
 10
35.56529784786002
 20
-977.2806460072584
 11
194.6629988927477
 21
-818.1829449623706
  0
LINE
  5
1BD
100
AcDbEntity
  8
REF_TAXI_SIGNS
  6
ByLayer
 62
  256
370
   -1
100
AcDbLine
 10
35.56529784786002
 20
-818.1829449623706
 11
194.6629988927477
 21
-977.2806460072584
  0
TEXT
  5
1BE
100
AcDbEntity
  8
REF_TAXI_SIGN_LABELS
  6
ByLayer
 62
  256
370
   -1
100
AcDbText
 10
285.5759709183978
 20
-795.4547019559581
 30
0
 40
104.7317437735489
  1
Y
 50
0
 41
1
 51
0
  7
STANDARD
 71
    0
210
0
220
0
230
1
100
AcDbText
  0
POINT
  5
1BF
100
AcDbEntity
  8
REF_PARKING
  6
ByLayer
 62
  256
370
   -1
100
AcDbPoint
 10
313.4993874423873
 20
81.38734743915855
  0
LINE
  5
1C0
100
AcDbEntity
  8
REF_PARKING
  6
ByLayer
 62
  256
370
   -1
100
AcDbLine
 10
256.678779926356
 20
24.56673992312722
 11
370.3199949584186
 21
138.2079549551899
  0
LINE
  5
1C1
100
AcDbEntity
  8
REF_PARKING
  6
ByLayer
 62
  256
370
   -1
100
AcDbLine
 10
256.678779926356
 20
138.2079549551899
 11
370.3199949584186
 21
24.56673992312722
  0
TEXT
  5
1C2
100
AcDbEntity
  8
REF_PARKING_LABELS
  6
ByLayer
 62
  256
370
   -1
100
AcDbText
 10
483.9612099904813
 20
13.20261841992095
 30
0
 40
104.7317437735489
  1
G13
 50
0
 41
1
 51
0
  7
STANDARD
 71
    0
210
0
220
0
230
1
100
AcDbText
  0
POINT
  5
1C3
100
AcDbEntity
  8
REF_PARKING
  6
ByLayer
 62
  256
370
   -1
100
AcDbPoint
 10
305.1496539237995
 20
127.6588922635765
  0
LINE
  5
1C4
100
AcDbEntity
  8
REF_PARKING
  6
ByLayer
 62
  256
370
   -1
100
AcDbLine
 10
248.3290464077681
 20
70.8382847475452
 11
361.9702614398308
 21
184.4794997796078
  0
LINE
  5
1C5
100
AcDbEntity
  8
REF_PARKING
  6
ByLayer
 62
  256
370
   -1
100
AcDbLine
 10
248.3290464077681
 20
184.4794997796078
 11
361.9702614398308
 21
70.8382847475452
  0
TEXT
  5
1C6
100
AcDbEntity
  8
REF_PARKING_LABELS
  6
ByLayer
 62
  256
370
   -1
100
AcDbText
 10
475.6114764718934
 20
59.47416324433892
 30
0
 40
104.7317437735489
  1
G16
 50
0
 41
1
 51
0
  7
STANDARD
 71
    0
210
0
220
0
230
1
100
AcDbText
  0
POINT
  5
1C7
100
AcDbEntity
  8
REF_PARKING
  6
ByLayer
 62
  256
370
   -1
100
AcDbPoint
 10
382.1289030096159
 20
-10.38627331869657
  0
LINE
  5
1C8
100
AcDbEntity
  8
REF_PARKING
  6
ByLayer
 62
  256
370
   -1
100
AcDbLine
 10
325.3082954935846
 20
-67.2068808347279
 11
438.9495105256472
 21
46.43433419733475
  0
LINE
  5
1C9
100
AcDbEntity
  8
REF_PARKING
  6
ByLayer
 62
  256
370
   -1
100
AcDbLine
 10
325.3082954935846
 20
46.43433419733475
 11
438.9495105256472
 21
-67.2068808347279
  0
TEXT
  5
1CA
100
AcDbEntity
  8
REF_PARKING_LABELS
  6
ByLayer
 62
  256
370
   -1
100
AcDbText
 10
552.5907255577099
 20
-78.57100233793416
 30
0
 40
104.7317437735489
  1
G12
 50
0
 41
1
 51
0
  7
STANDARD
 71
    0
210
0
220
0
230
1
100
AcDbText
  0
POINT
  5
1CB
100
AcDbEntity
  8
REF_PARKING
  6
ByLayer
 62
  256
370
   -1
100
AcDbPoint
 10
367.2186104093361
 20
-12.87926357311697
  0
LINE
  5
1CC
100
AcDbEntity
  8
REF_PARKING
  6
ByLayer
 62
  256
370
   -1
100
AcDbLine
 10
310.3980028933048
 20
-69.6998710891483
 11
424.0392179253674
 21
43.94134394291435
  0
LINE
  5
1CD
100
AcDbEntity
  8
REF_PARKING
  6
ByLayer
 62
  256
370
   -1
100
AcDbLine
 10
310.3980028933048
 20
43.94134394291435
 11
424.0392179253674
 21
-69.6998710891483
  0
TEXT
  5
1CE
100
AcDbEntity
  8
REF_PARKING_LABELS
  6
ByLayer
 62
  256
370
   -1
100
AcDbText
 10
537.6804329574301
 20
-81.06399259235457
 30
0
 40
104.7317437735489
  1
G11
 50
0
 41
1
 51
0
  7
STANDARD
 71
    0
210
0
220
0
230
1
100
AcDbText
  0
POINT
  5
1CF
100
AcDbEntity
  8
REF_PARKING
  6
ByLayer
 62
  256
370
   -1
100
AcDbPoint
 10
352.4008482373798
 20
-15.74142098554188
  0
LINE
  5
1D0
100
AcDbEntity
  8
REF_PARKING
  6
ByLayer
 62
  256
370
   -1
100
AcDbLine
 10
295.5802407213485
 20
-72.5620285015732
 11
409.2214557534111
 21
41.07918653048945
  0
LINE
  5
1D1
100
AcDbEntity
  8
REF_PARKING
  6
ByLayer
 62
  256
370
   -1
100
AcDbLine
 10
295.5802407213485
 20
41.07918653048945
 11
409.2214557534111
 21
-72.5620285015732
  0
TEXT
  5
1D2
100
AcDbEntity
  8
REF_PARKING_LABELS
  6
ByLayer
 62
  256
370
   -1
100
AcDbText
 10
522.8626707854738
 20
-83.92615000477947
 30
0
 40
104.7317437735489
  1
G10
 50
0
 41
1
 51
0
  7
STANDARD
 71
    0
210
0
220
0
230
1
100
AcDbText
  0
POINT
  5
1D3
100
AcDbEntity
  8
REF_PARKING
  6
ByLayer
 62
  256
370
   -1
100
AcDbPoint
 10
394.277693226492
 20
-73.93194999675545
  0
LINE
  5
1D4
100
AcDbEntity
  8
REF_PARKING
  6
ByLayer
 62
  256
370
   -1
100
AcDbLine
 10
337.4570857104607
 20
-130.7525575127868
 11
451.0983007425233
 21
-17.11134248072413
  0
LINE
  5
1D5
100
AcDbEntity
  8
REF_PARKING
  6
ByLayer
 62
  256
370
   -1
100
AcDbLine
 10
337.4570857104607
 20
-17.11134248072413
 11
451.0983007425233
 21
-130.7525575127868
  0
TEXT
  5
1D6
100
AcDbEntity
  8
REF_PARKING_LABELS
  6
ByLayer
 62
  256
370
   -1
100
AcDbText
 10
564.7395157745859
 20
-142.116679015993
 30
0
 40
104.7317437735489
  1
G4
 50
0
 41
1
 51
0
  7
STANDARD
 71
    0
210
0
220
0
230
1
100
AcDbText
  0
POINT
  5
1D7
100
AcDbEntity
  8
REF_PARKING
  6
ByLayer
 62
  256
370
   -1
100
AcDbPoint
 10
388.3140312540137
 20
-41.68764516912405
  0
LINE
  5
1D8
100
AcDbEntity
  8
REF_PARKING
  6
ByLayer
 62
  256
370
   -1
100
AcDbLine
 10
331.4934237379824
 20
-98.50825268515537
 11
445.134638770045
 21
15.13296234690728
  0
LINE
  5
1D9
100
AcDbEntity
  8
REF_PARKING
  6
ByLayer
 62
  256
370
   -1
100
AcDbLine
 10
331.4934237379824
 20
15.13296234690728
 11
445.134638770045
 21
-98.50825268515537
  0
TEXT
  5
1DA
100
AcDbEntity
  8
REF_PARKING_LABELS
  6
ByLayer
 62
  256
370
   -1
100
AcDbText
 10
558.7758538021077
 20
-109.8723741883616
 30
0
 40
104.7317437735489
  1
G8
 50
0
 41
1
 51
0
  7
STANDARD
 71
    0
210
0
220
0
230
1
100
AcDbText
  0
POINT
  5
1DB
100
AcDbEntity
  8
REF_PARKING
  6
ByLayer
 62
  256
370
   -1
100
AcDbPoint
 10
379.2574259363487
 20
-76.59062069241817
  0
LINE
  5
1DC
100
AcDbEntity
  8
REF_PARKING
  6
ByLayer
 62
  256
370
   -1
100
AcDbLine
 10
322.4368184203174
 20
-133.4112282084495
 11
436.07803345238
 21
-19.77001317638685
  0
LINE
  5
1DD
100
AcDbEntity
  8
REF_PARKING
  6
ByLayer
 62
  256
370
   -1
100
AcDbLine
 10
322.4368184203174
 20
-19.77001317638685
 11
436.07803345238
 21
-133.4112282084495
  0
TEXT
  5
1DE
100
AcDbEntity
  8
REF_PARKING_LABELS
  6
ByLayer
 62
  256
370
   -1
100
AcDbText
 10
549.7192484844427
 20
-144.7753497116558
 30
0
 40
104.7317437735489
  1
G3
 50
0
 41
1
 51
0
  7
STANDARD
 71
    0
210
0
220
0
230
1
100
AcDbText
  0
POINT
  5
1DF
100
AcDbEntity
  8
REF_PARKING
  6
ByLayer
 62
  256
370
   -1
100
AcDbPoint
 10
373.18303082779
 20
-44.56870571824789
  0
LINE
  5
1E0
100
AcDbEntity
  8
REF_PARKING
  6
ByLayer
 62
  256
370
   -1
100
AcDbLine
 10
316.3624233117587
 20
-101.3893132342792
 11
430.0036383438214
 21
12.25190179778343
  0
LINE
  5
1E1
100
AcDbEntity
  8
REF_PARKING
  6
ByLayer
 62
  256
370
   -1
100
AcDbLine
 10
316.3624233117587
 20
12.25190179778343
 11
430.0036383438214
 21
-101.3893132342792
  0
TEXT
  5
1E2
100
AcDbEntity
  8
REF_PARKING_LABELS
  6
ByLayer
 62
  256
370
   -1
100
AcDbText
 10
543.6448533758841
 20
-112.7534347374855
 30
0
 40
104.7317437735489
  1
G7
 50
0
 41
1
 51
0
  7
STANDARD
 71
    0
210
0
220
0
230
1
100
AcDbText
  0
POINT
  5
1E3
100
AcDbEntity
  8
REF_PARKING
  6
ByLayer
 62
  256
370
   -1
100
AcDbPoint
 10
364.2371586459642
 20
-79.58287616862624
  0
LINE
  5
1E4
100
AcDbEntity
  8
REF_PARKING
  6
ByLayer
 62
  256
370
   -1
100
AcDbLine
 10
307.4165511299329
 20
-136.4034836846576
 11
421.0577661619955
 21
-22.76226865259492
  0
LINE
  5
1E5
100
AcDbEntity
  8
REF_PARKING
  6
ByLayer
 62
  256
370
   -1
100
AcDbLine
 10
307.4165511299329
 20
-22.76226865259492
 11
421.0577661619955
 21
-136.4034836846576
  0
TEXT
  5
1E6
100
AcDbEntity
  8
REF_PARKING_LABELS
  6
ByLayer
 62
  256
370
   -1
100
AcDbText
 10
534.6989811940582
 20
-147.7676051878638
 30
0
 40
104.7317437735489
  1
G2
 50
0
 41
1
 51
0
  7
STANDARD
 71
    0
210
0
220
0
230
1
100
AcDbText
  0
POINT
  5
1E7
100
AcDbEntity
  8
REF_PARKING
  6
ByLayer
 62
  256
370
   -1
100
AcDbPoint
 10
358.3834713633494
 20
-47.56096119374864
  0
LINE
  5
1E8
100
AcDbEntity
  8
REF_PARKING
  6
ByLayer
 62
  256
370
   -1
100
AcDbLine
 10
301.5628638473181
 20
-104.38156870978
 11
415.2040788793807
 21
9.259646322282684
  0
LINE
  5
1E9
100
AcDbEntity
  8
REF_PARKING
  6
ByLayer
 62
  256
370
   -1
100
AcDbLine
 10
301.5628638473181
 20
9.259646322282684
 11
415.2040788793807
 21
-104.38156870978
  0
TEXT
  5
1EA
100
AcDbEntity
  8
REF_PARKING_LABELS
  6
ByLayer
 62
  256
370
   -1
100
AcDbText
 10
528.8452939114434
 20
-115.7456902129862
 30
0
 40
104.7317437735489
  1
G6
 50
0
 41
1
 51
0
  7
STANDARD
 71
    0
210
0
220
0
230
1
100
AcDbText
  0
POINT
  5
1EB
100
AcDbEntity
  8
REF_PARKING
  6
ByLayer
 62
  256
370
   -1
100
AcDbPoint
 10
416.0746767479349
 20
-183.2410106859091
  0
LINE
  5
1EC
100
AcDbEntity
  8
REF_PARKING
  6
ByLayer
 62
  256
370
   -1
100
AcDbLine
 10
359.2540692319036
 20
-240.0616182019405
 11
472.8952842639662
 21
-126.4204031698778
  0
LINE
  5
1ED
100
AcDbEntity
  8
REF_PARKING
  6
ByLayer
 62
  256
370
   -1
100
AcDbLine
 10
359.2540692319036
 20
-126.4204031698778
 11
472.8952842639662
 21
-240.0616182019405
  0
TEXT
  5
1EE
100
AcDbEntity
  8
REF_PARKING_LABELS
  6
ByLayer
 62
  256
370
   -1
100
AcDbText
 10
586.5364992960289
 20
-251.4257397051467
 30
0
 40
104.7317437735489
  1
F6
 50
0
 41
1
 51
0
  7
STANDARD
 71
    0
210
0
220
0
230
1
100
AcDbText
  0
POINT
  5
1EF
100
AcDbEntity
  8
REF_PARKING
  6
ByLayer
 62
  256
370
   -1
100
AcDbPoint
 10
401.6020075682174
 20
-199.3564914037744
  0
LINE
  5
1F0
100
AcDbEntity
  8
REF_PARKING
  6
ByLayer
 62
  256
370
   -1
100
AcDbLine
 10
344.7814000521861
 20
-256.1770989198058
 11
458.4226150842487
 21
-142.5358838877431
  0
LINE
  5
1F1
100
AcDbEntity
  8
REF_PARKING
  6
ByLayer
 62
  256
370
   -1
100
AcDbLine
 10
344.7814000521861
 20
-142.5358838877431
 11
458.4226150842487
 21
-256.1770989198058
  0
TEXT
  5
1F2
100
AcDbEntity
  8
REF_PARKING_LABELS
  6
ByLayer
 62
  256
370
   -1
100
AcDbText
 10
572.0638301163114
 20
-267.541220423012
 30
0
 40
104.7317437735489
  1
F5
 50
0
 41
1
 51
0
  7
STANDARD
 71
    0
210
0
220
0
230
1
100
AcDbText
  0
POINT
  5
1F3
100
AcDbEntity
  8
REF_PARKING
  6
ByLayer
 62
  256
370
   -1
100
AcDbPoint
 10
394.2860361341536
 20
-185.6339255070855
  0
LINE
  5
1F4
100
AcDbEntity
  8
REF_PARKING
  6
ByLayer
 62
  256
370
   -1
100
AcDbLine
 10
337.4654286181222
 20
-242.4545330231168
 11
451.1066436501849
 21
-128.8133179910541
  0
LINE
  5
1F5
100
AcDbEntity
  8
REF_PARKING
  6
ByLayer
 62
  256
370
   -1
100
AcDbLine
 10
337.4654286181222
 20
-128.8133179910541
 11
451.1066436501849
 21
-242.4545330231168
  0
TEXT
  5
1F6
100
AcDbEntity
  8
REF_PARKING_LABELS
  6
ByLayer
 62
  256
370
   -1
100
AcDbText
 10
564.7478586822475
 20
-253.818654526323
 30
0
 40
104.7317437735489
  1
F4
 50
0
 41
1
 51
0
  7
STANDARD
 71
    0
210
0
220
0
230
1
100
AcDbText
  0
POINT
  5
1F7
100
AcDbEntity
  8
REF_PARKING
  6
ByLayer
 62
  256
370
   -1
100
AcDbPoint
 10
384.1076889802185
 20
-203.9833123011888
  0
LINE
  5
1F8
100
AcDbEntity
  8
REF_PARKING
  6
ByLayer
 62
  256
370
   -1
100
AcDbLine
 10
327.2870814641872
 20
-260.8039198172202
 11
440.9282964962499
 21
-147.1627047851575
  0
LINE
  5
1F9
100
AcDbEntity
  8
REF_PARKING
  6
ByLayer
 62
  256
370
   -1
100
AcDbLine
 10
327.2870814641872
 20
-147.1627047851575
 11
440.9282964962499
 21
-260.8039198172202
  0
TEXT
  5
1FA
100
AcDbEntity
  8
REF_PARKING_LABELS
  6
ByLayer
 62
  256
370
   -1
100
AcDbText
 10
554.5695115283125
 20
-272.1680413204264
 30
0
 40
104.7317437735489
  1
F3
 50
0
 41
1
 51
0
  7
STANDARD
 71
    0
210
0
220
0
230
1
100
AcDbText
  0
POINT
  5
1FB
100
AcDbEntity
  8
REF_PARKING
  6
ByLayer
 62
  256
370
   -1
100
AcDbPoint
 10
367.7267693208281
 20
-191.6973848565714
  0
LINE
  5
1FC
100
AcDbEntity
  8
REF_PARKING
  6
ByLayer
 62
  256
370
   -1
100
AcDbLine
 10
310.9061618047967
 20
-248.5179923726027
 11
424.5473768368594
 21
-134.8767773405401
  0
LINE
  5
1FD
100
AcDbEntity
  8
REF_PARKING
  6
ByLayer
 62
  256
370
   -1
100
AcDbLine
 10
310.9061618047967
 20
-134.8767773405401
 11
424.5473768368594
 21
-248.5179923726027
  0
TEXT
  5
1FE
100
AcDbEntity
  8
REF_PARKING_LABELS
  6
ByLayer
 62
  256
370
   -1
100
AcDbText
 10
538.188591868922
 20
-259.882113875809
 30
0
 40
104.7317437735489
  1
F2
 50
0
 41
1
 51
0
  7
STANDARD
 71
    0
210
0
220
0
230
1
100
AcDbText
  0
POINT
  5
1FF
100
AcDbEntity
  8
REF_PARKING
  6
ByLayer
 62
  256
370
   -1
100
AcDbPoint
 10
365.182182532284
 20
-203.0259239834074
  0
LINE
  5
200
100
AcDbEntity
  8
REF_PARKING
  6
ByLayer
 62
  256
370
   -1
100
AcDbLine
 10
308.3615750162527
 20
-259.8465314994387
 11
422.0027900483153
 21
-146.205316467376
  0
LINE
  5
201
100
AcDbEntity
  8
REF_PARKING
  6
ByLayer
 62
  256
370
   -1
100
AcDbLine
 10
308.3615750162527
 20
-146.205316467376
 11
422.0027900483153
 21
-259.8465314994387
  0
TEXT
  5
202
100
AcDbEntity
  8
REF_PARKING_LABELS
  6
ByLayer
 62
  256
370
   -1
100
AcDbText
 10
535.644005080378
 20
-271.210653002645
 30
0
 40
104.7317437735489
  1
F1
 50
0
 41
1
 51
0
  7
STANDARD
 71
    0
210
0
220
0
230
1
100
AcDbText
  0
POINT
  5
203
100
AcDbEntity
  8
REF_PARKING
  6
ByLayer
 62
  256
370
   -1
100
AcDbPoint
 10
354.367499069719
 20
-144.9477018479547
  0
LINE
  5
204
100
AcDbEntity
  8
REF_PARKING
  6
ByLayer
 62
  256
370
   -1
100
AcDbLine
 10
297.5468915536877
 20
-201.768309363986
 11
411.1881065857503
 21
-88.12709433192339
  0
LINE
  5
205
100
AcDbEntity
  8
REF_PARKING
  6
ByLayer
 62
  256
370
   -1
100
AcDbLine
 10
297.5468915536877
 20
-88.12709433192339
 11
411.1881065857503
 21
-201.768309363986
  0
TEXT
  5
206
100
AcDbEntity
  8
REF_PARKING_LABELS
  6
ByLayer
 62
  256
370
   -1
100
AcDbText
 10
524.829321617813
 20
-213.1324308671923
 30
0
 40
104.7317437735489
  1
F7
 50
0
 41
1
 51
0
  7
STANDARD
 71
    0
210
0
220
0
230
1
100
AcDbText
  0
POINT
  5
207
100
AcDbEntity
  8
REF_PARKING
  6
ByLayer
 62
  256
370
   -1
100
AcDbPoint
 10
356.594296926936
 20
-131.2251359505584
  0
LINE
  5
208
100
AcDbEntity
  8
REF_PARKING
  6
ByLayer
 62
  256
370
   -1
100
AcDbLine
 10
299.7736894109046
 20
-188.0457434665897
 11
413.4149044429673
 21
-74.40452843452709
  0
LINE
  5
209
100
AcDbEntity
  8
REF_PARKING
  6
ByLayer
 62
  256
370
   -1
100
AcDbLine
 10
299.7736894109046
 20
-74.40452843452709
 11
413.4149044429673
 21
-188.0457434665897
  0
TEXT
  5
20A
100
AcDbEntity
  8
REF_PARKING_LABELS
  6
ByLayer
 62
  256
370
   -1
100
AcDbText
 10
527.05611947503
 20
-199.409864969796
 30
0
 40
104.7317437735489
  1
F8
 50
0
 41
1
 51
0
  7
STANDARD
 71
    0
210
0
220
0
230
1
100
AcDbText
  0
POINT
  5
20B
100
AcDbEntity
  8
REF_PARKING
  6
ByLayer
 62
  256
370
   -1
100
AcDbPoint
 10
369.4765045580665
 20
-125.4819179890096
  0
LINE
  5
20C
100
AcDbEntity
  8
REF_PARKING
  6
ByLayer
 62
  256
370
   -1
100
AcDbLine
 10
312.6558970420352
 20
-182.302525505041
 11
426.2971120740978
 21
-68.66131047297833
  0
LINE
  5
20D
100
AcDbEntity
  8
REF_PARKING
  6
ByLayer
 62
  256
370
   -1
100
AcDbLine
 10
312.6558970420352
 20
-68.66131047297833
 11
426.2971120740978
 21
-182.302525505041
  0
TEXT
  5
20E
100
AcDbEntity
  8
REF_PARKING_LABELS
  6
ByLayer
 62
  256
370
   -1
100
AcDbText
 10
539.9383271061605
 20
-193.6666470082473
 30
0
 40
104.7317437735489
  1
F9
 50
0
 41
1
 51
0
  7
STANDARD
 71
    0
210
0
220
0
230
1
100
AcDbText
  0
POINT
  5
20F
100
AcDbEntity
  8
REF_PARKING
  6
ByLayer
 62
  256
370
   -1
100
AcDbPoint
 10
385.3803615974784
 20
-137.9268541792727
  0
LINE
  5
210
100
AcDbEntity
  8
REF_PARKING
  6
ByLayer
 62
  256
370
   -1
100
AcDbLine
 10
328.5597540814471
 20
-194.747461695304
 11
442.2009691135097
 21
-81.10624666324134
  0
LINE
  5
211
100
AcDbEntity
  8
REF_PARKING
  6
ByLayer
 62
  256
370
   -1
100
AcDbLine
 10
328.5597540814471
 20
-81.10624666324134
 11
442.2009691135097
 21
-194.747461695304
  0
TEXT
  5
212
100
AcDbEntity
  8
REF_PARKING_LABELS
  6
ByLayer
 62
  256
370
   -1
100
AcDbText
 10
555.8421841455723
 20
-206.1115831985102
 30
0
 40
104.7317437735489
  1
F10
 50
0
 41
1
 51
0
  7
STANDARD
 71
    0
210
0
220
0
230
1
100
AcDbText
  0
POINT
  5
213
100
AcDbEntity
  8
REF_PARKING
  6
ByLayer
 62
  256
370
   -1
100
AcDbPoint
 10
387.1300968347167
 20
-122.2906235949901
  0
LINE
  5
214
100
AcDbEntity
  8
REF_PARKING
  6
ByLayer
 62
  256
370
   -1
100
AcDbLine
 10
330.3094893186854
 20
-179.1112311110214
 11
443.950704350748
 21
-65.47001607895876
  0
LINE
  5
215
100
AcDbEntity
  8
REF_PARKING
  6
ByLayer
 62
  256
370
   -1
100
AcDbLine
 10
330.3094893186854
 20
-65.47001607895876
 11
443.950704350748
 21
-179.1112311110214
  0
TEXT
  5
216
100
AcDbEntity
  8
REF_PARKING_LABELS
  6
ByLayer
 62
  256
370
   -1
100
AcDbText
 10
557.5919193828107
 20
-190.4753526142277
 30
0
 40
104.7317437735489
  1
F11
 50
0
 41
1
 51
0
  7
STANDARD
 71
    0
210
0
220
0
230
1
100
AcDbText
  0
POINT
  5
217
100
AcDbEntity
  8
REF_PARKING
  6
ByLayer
 62
  256
370
   -1
100
AcDbPoint
 10
407.1690022112597
 20
-134.5765510396075
  0
LINE
  5
218
100
AcDbEntity
  8
REF_PARKING
  6
ByLayer
 62
  256
370
   -1
100
AcDbLine
 10
350.3483946952284
 20
-191.3971585556388
 11
463.9896097272911
 21
-77.75594352357621
  0
LINE
  5
219
100
AcDbEntity
  8
REF_PARKING
  6
ByLayer
 62
  256
370
   -1
100
AcDbLine
 10
350.3483946952284
 20
-77.75594352357621
 11
463.9896097272911
 21
-191.3971585556388
  0
TEXT
  5
21A
100
AcDbEntity
  8
REF_PARKING_LABELS
  6
ByLayer
 62
  256
370
   -1
100
AcDbText
 10
577.6308247593537
 20
-202.7612800588451
 30
0
 40
104.7317437735489
  1
F12
 50
0
 41
1
 51
0
  7
STANDARD
 71
    0
210
0
220
0
230
1
100
AcDbText
  0
POINT
  5
21B
100
AcDbEntity
  8
REF_PARKING
  6
ByLayer
 62
  256
370
   -1
100
AcDbPoint
 10
349.4368407353067
 20
-82.24154686499629
  0
LINE
  5
21C
100
AcDbEntity
  8
REF_PARKING
  6
ByLayer
 62
  256
370
   -1
100
AcDbLine
 10
292.6162332192754
 20
-139.0621543810276
 11
406.257448251338
 21
-25.42093934896497
  0
LINE
  5
21D
100
AcDbEntity
  8
REF_PARKING
  6
ByLayer
 62
  256
370
   -1
100
AcDbLine
 10
292.6162332192754
 20
-25.42093934896497
 11
406.257448251338
 21
-139.0621543810276
  0
TEXT
  5
21E
100
AcDbEntity
  8
REF_PARKING_LABELS
  6
ByLayer
 62
  256
370
   -1
100
AcDbText
 10
519.8986632834007
 20
-150.4262758842339
 30
0
 40
104.7317437735489
  1
G1
 50
0
 41
1
 51
0
  7
STANDARD
 71
    0
210
0
220
0
230
1
100
AcDbText
  0
POINT
  5
21F
100
AcDbEntity
  8
REF_PARKING
  6
ByLayer
 62
  256
370
   -1
100
AcDbPoint
 10
343.3624456269893
 20
-49.99835398533425
  0
LINE
  5
220
100
AcDbEntity
  8
REF_PARKING
  6
ByLayer
 62
  256
370
   -1
100
AcDbLine
 10
286.5418381109579
 20
-106.8189615013656
 11
400.1830531430206
 21
6.822253530697068
  0
LINE
  5
221
100
AcDbEntity
  8
REF_PARKING
  6
ByLayer
 62
  256
370
   -1
100
AcDbLine
 10
286.5418381109579
 20
6.822253530697068
 11
400.1830531430206
 21
-106.8189615013656
  0
TEXT
  5
222
100
AcDbEntity
  8
REF_PARKING_LABELS
  6
ByLayer
 62
  256
370
   -1
100
AcDbText
 10
513.8242681750833
 20
-118.1830830045718
 30
0
 40
104.7317437735489
  1
G5
 50
0
 41
1
 51
0
  7
STANDARD
 71
    0
210
0
220
0
230
1
100
AcDbText
  0
POINT
  5
223
100
AcDbEntity
  8
REF_PARKING
  6
ByLayer
 62
  256
370
   -1
100
AcDbPoint
 10
337.3980252082941
 20
-18.41899481861087
  0
LINE
  5
224
100
AcDbEntity
  8
REF_PARKING
  6
ByLayer
 62
  256
370
   -1
100
AcDbLine
 10
280.5774176922628
 20
-75.2396023346422
 11
394.2186327243254
 21
38.40161269742045
  0
LINE
  5
225
100
AcDbEntity
  8
REF_PARKING
  6
ByLayer
 62
  256
370
   -1
100
AcDbLine
 10
280.5774176922628
 20
38.40161269742045
 11
394.2186327243254
 21
-75.2396023346422
  0
TEXT
  5
226
100
AcDbEntity
  8
REF_PARKING_LABELS
  6
ByLayer
 62
  256
370
   -1
100
AcDbText
 10
507.859847756388
 20
-86.60372383784846
 30
0
 40
104.7317437735489
  1
G9
 50
0
 41
1
 51
0
  7
STANDARD
 71
    0
210
0
220
0
230
1
100
AcDbText
  0
POINT
  5
227
100
AcDbEntity
  8
REF_PARKING
  6
ByLayer
 62
  256
370
   -1
100
AcDbPoint
 10
336.561459119404
 20
86.1742890308952
  0
LINE
  5
228
100
AcDbEntity
  8
REF_PARKING
  6
ByLayer
 62
  256
370
   -1
100
AcDbLine
 10
279.7408516033727
 20
29.35368151486387
 11
393.3820666354354
 21
142.9948965469265
  0
LINE
  5
229
100
AcDbEntity
  8
REF_PARKING
  6
ByLayer
 62
  256
370
   -1
100
AcDbLine
 10
279.7408516033727
 20
142.9948965469265
 11
393.3820666354354
 21
29.35368151486387
  0
TEXT
  5
22A
100
AcDbEntity
  8
REF_PARKING_LABELS
  6
ByLayer
 62
  256
370
   -1
100
AcDbText
 10
507.0232816674981
 20
17.9895600116576
 30
0
 40
104.7317437735489
  1
G14
 50
0
 41
1
 51
0
  7
STANDARD
 71
    0
210
0
220
0
230
1
100
AcDbText
  0
POINT
  5
22B
100
AcDbEntity
  8
REF_PARKING
  6
ByLayer
 62
  256
370
   -1
100
AcDbPoint
 10
328.0789975273422
 20
131.7808881936978
  0
LINE
  5
22C
100
AcDbEntity
  8
REF_PARKING
  6
ByLayer
 62
  256
370
   -1
100
AcDbLine
 10
271.2583900113108
 20
74.9602806776665
 11
384.8996050433735
 21
188.6014957097291
  0
LINE
  5
22D
100
AcDbEntity
  8
REF_PARKING
  6
ByLayer
 62
  256
370
   -1
100
AcDbLine
 10
271.2583900113108
 20
188.6014957097291
 11
384.8996050433735
 21
74.9602806776665
  0
TEXT
  5
22E
100
AcDbEntity
  8
REF_PARKING_LABELS
  6
ByLayer
 62
  256
370
   -1
100
AcDbText
 10
498.5408200754362
 20
63.59615917446023
 30
0
 40
104.7317437735489
  1
G17
 50
0
 41
1
 51
0
  7
STANDARD
 71
    0
210
0
220
0
230
1
100
AcDbText
  0
POINT
  5
22F
100
AcDbEntity
  8
REF_PARKING
  6
ByLayer
 62
  256
370
   -1
100
AcDbPoint
 10
359.0926185010771
 20
90.29628496172381
  0
LINE
  5
230
100
AcDbEntity
  8
REF_PARKING
  6
ByLayer
 62
  256
370
   -1
100
AcDbLine
 10
302.2720109850458
 20
33.47567744569249
 11
415.9132260171084
 21
147.1168924777551
  0
LINE
  5
231
100
AcDbEntity
  8
REF_PARKING
  6
ByLayer
 62
  256
370
   -1
100
AcDbLine
 10
302.2720109850458
 20
147.1168924777551
 11
415.9132260171084
 21
33.47567744569249
  0
TEXT
  5
232
100
AcDbEntity
  8
REF_PARKING_LABELS
  6
ByLayer
 62
  256
370
   -1
100
AcDbText
 10
529.554441049171
 20
22.11155594248622
 30
0
 40
104.7317437735489
  1
G15
 50
0
 41
1
 51
0
  7
STANDARD
 71
    0
210
0
220
0
230
1
100
AcDbText
  0
POINT
  5
233
100
AcDbEntity
  8
REF_PARKING
  6
ByLayer
 62
  256
370
   -1
100
AcDbPoint
 10
350.6101569087739
 20
135.2379384636184
  0
LINE
  5
234
100
AcDbEntity
  8
REF_PARKING
  6
ByLayer
 62
  256
370
   -1
100
AcDbLine
 10
293.7895493927426
 20
78.41733094758712
 11
407.4307644248052
 21
192.0585459796498
  0
LINE
  5
235
100
AcDbEntity
  8
REF_PARKING
  6
ByLayer
 62
  256
370
   -1
100
AcDbLine
 10
293.7895493927426
 20
192.0585459796498
 11
407.4307644248052
 21
78.41733094758712
  0
TEXT
  5
236
100
AcDbEntity
  8
REF_PARKING_LABELS
  6
ByLayer
 62
  256
370
   -1
100
AcDbText
 10
521.0719794568679
 20
67.05320944438084
 30
0
 40
104.7317437735489
  1
G18
 50
0
 41
1
 51
0
  7
STANDARD
 71
    0
210
0
220
0
230
1
100
AcDbText
  0
POINT
  5
237
100
AcDbEntity
  8
REF_PARKING
  6
ByLayer
 62
  256
370
   -1
100
AcDbPoint
 10
316.543790235003
 20
196.5074549937979
  0
LINE
  5
238
100
AcDbEntity
  8
REF_PARKING
  6
ByLayer
 62
  256
370
   -1
100
AcDbLine
 10
259.7231827189717
 20
139.6868474777666
 11
373.3643977510343
 21
253.3280625098293
  0
LINE
  5
239
100
AcDbEntity
  8
REF_PARKING
  6
ByLayer
 62
  256
370
   -1
100
AcDbLine
 10
259.7231827189717
 20
253.3280625098293
 11
373.3643977510343
 21
139.6868474777666
  0
TEXT
  5
23A
100
AcDbEntity
  8
REF_PARKING_LABELS
  6
ByLayer
 62
  256
370
   -1
100
AcDbText
 10
487.0056127830969
 20
128.3227259745603
 30
0
 40
104.7317437735489
  1
G19
 50
0
 41
1
 51
0
  7
STANDARD
 71
    0
210
0
220
0
230
1
100
AcDbText
  0
POINT
  5
23B
100
AcDbEntity
  8
REF_PARKING
  6
ByLayer
 62
  256
370
   -1
100
AcDbPoint
 10
339.7628602622618
 20
200.755101191581
  0
LINE
  5
23C
100
AcDbEntity
  8
REF_PARKING
  6
ByLayer
 62
  256
370
   -1
100
AcDbLine
 10
282.9422527462305
 20
143.9344936755497
 11
396.5834677782931
 21
257.5757087076124
  0
LINE
  5
23D
100
AcDbEntity
  8
REF_PARKING
  6
ByLayer
 62
  256
370
   -1
100
AcDbLine
 10
282.9422527462305
 20
257.5757087076124
 11
396.5834677782931
 21
143.9344936755497
  0
TEXT
  5
23E
100
AcDbEntity
  8
REF_PARKING_LABELS
  6
ByLayer
 62
  256
370
   -1
100
AcDbText
 10
510.2246828103558
 20
132.5703721723434
 30
0
 40
104.7317437735489
  1
G20
 50
0
 41
1
 51
0
  7
STANDARD
 71
    0
210
0
220
0
230
1
100
AcDbText
  0
POINT
  5
23F
100
AcDbEntity
  8
REF_PARKING
  6
ByLayer
 62
  256
370
   -1
100
AcDbPoint
 10
327.4828588638629
 20
663.9942775418748
  0
LINE
  5
240
100
AcDbEntity
  8
REF_PARKING
  6
ByLayer
 62
  256
370
   -1
100
AcDbLine
 10
270.6622513478316
 20
607.1736700258434
 11
384.3034663798942
 21
720.8148850579062
  0
LINE
  5
241
100
AcDbEntity
  8
REF_PARKING
  6
ByLayer
 62
  256
370
   -1
100
AcDbLine
 10
270.6622513478316
 20
720.8148850579062
 11
384.3034663798942
 21
607.1736700258434
  0
TEXT
  5
242
100
AcDbEntity
  8
REF_PARKING_LABELS
  6
ByLayer
 62
  256
370
   -1
100
AcDbText
 10
497.9446814119568
 20
595.8095485226372
 30
0
 40
104.7317437735489
  1
34
 50
0
 41
1
 51
0
  7
STANDARD
 71
    0
210
0
220
0
230
1
100
AcDbText
  0
POINT
  5
243
100
AcDbEntity
  8
REF_PARKING
  6
ByLayer
 62
  256
370
   -1
100
AcDbPoint
 10
332.6478770544337
 20
241.5236090966409
  0
LINE
  5
244
100
AcDbEntity
  8
REF_PARKING
  6
ByLayer
 62
  256
370
   -1
100
AcDbLine
 10
275.8272695384024
 20
184.7030015806096
 11
389.468484570465
 21
298.3442166126723
  0
LINE
  5
245
100
AcDbEntity
  8
REF_PARKING
  6
ByLayer
 62
  256
370
   -1
100
AcDbLine
 10
275.8272695384024
 20
298.3442166126723
 11
389.468484570465
 21
184.7030015806096
  0
TEXT
  5
246
100
AcDbEntity
  8
REF_PARKING_LABELS
  6
ByLayer
 62
  256
370
   -1
100
AcDbText
 10
503.1096996025277
 20
173.3388800774034
 30
0
 40
104.7317437735489
  1
1
 50
0
 41
1
 51
0
  7
STANDARD
 71
    0
210
0
220
0
230
1
100
AcDbText
  0
POINT
  5
247
100
AcDbEntity
  8
REF_PARKING
  6
ByLayer
 62
  256
370
   -1
100
AcDbPoint
 10
320.878309905936
 20
303.7505139453093
  0
LINE
  5
248
100
AcDbEntity
  8
REF_PARKING
  6
ByLayer
 62
  256
370
   -1
100
AcDbLine
 10
264.0577023899047
 20
246.9299064292779
 11
377.6989174219673
 21
360.5711214613406
  0
LINE
  5
249
100
AcDbEntity
  8
REF_PARKING
  6
ByLayer
 62
  256
370
   -1
100
AcDbLine
 10
264.0577023899047
 20
360.5711214613406
 11
377.6989174219673
 21
246.9299064292779
  0
TEXT
  5
24A
100
AcDbEntity
  8
REF_PARKING_LABELS
  6
ByLayer
 62
  256
370
   -1
100
AcDbText
 10
491.34013245403
 20
235.5657849260717
 30
0
 40
104.7317437735489
  1
2
 50
0
 41
1
 51
0
  7
STANDARD
 71
    0
210
0
220
0
230
1
100
AcDbText
  0
POINT
  5
24B
100
AcDbEntity
  8
REF_PARKING
  6
ByLayer
 62
  256
370
   -1
100
AcDbPoint
 10
309.5729117929367
 20
365.411436617637
  0
LINE
  5
24C
100
AcDbEntity
  8
REF_PARKING
  6
ByLayer
 62
  256
370
   -1
100
AcDbLine
 10
252.7523042769054
 20
308.5908291016057
 11
366.393519308968
 21
422.2320441336683
  0
LINE
  5
24D
100
AcDbEntity
  8
REF_PARKING
  6
ByLayer
 62
  256
370
   -1
100
AcDbLine
 10
252.7523042769054
 20
422.2320441336683
 11
366.393519308968
 21
308.5908291016057
  0
TEXT
  5
24E
100
AcDbEntity
  8
REF_PARKING_LABELS
  6
ByLayer
 62
  256
370
   -1
100
AcDbText
 10
480.0347343410307
 20
297.2267075983994
 30
0
 40
104.7317437735489
  1
3
 50
0
 41
1
 51
0
  7
STANDARD
 71
    0
210
0
220
0
230
1
100
AcDbText
  0
POINT
  5
24F
100
AcDbEntity
  8
REF_PARKING
  6
ByLayer
 62
  256
370
   -1
100
AcDbPoint
 10
386.8813265018856
 20
675.2127336910105
  0
LINE
  5
250
100
AcDbEntity
  8
REF_PARKING
  6
ByLayer
 62
  256
370
   -1
100
AcDbLine
 10
330.0607189858543
 20
618.3921261749791
 11
443.7019340179169
 21
732.0333412070419
  0
LINE
  5
251
100
AcDbEntity
  8
REF_PARKING
  6
ByLayer
 62
  256
370
   -1
100
AcDbLine
 10
330.0607189858543
 20
732.0333412070419
 11
443.7019340179169
 21
618.3921261749791
  0
TEXT
  5
252
100
AcDbEntity
  8
REF_PARKING_LABELS
  6
ByLayer
 62
  256
370
   -1
100
AcDbText
 10
557.3431490499796
 20
607.0280046717729
 30
0
 40
104.7317437735489
  1
35
 50
0
 41
1
 51
0
  7
STANDARD
 71
    0
210
0
220
0
230
1
100
AcDbText
  0
POINT
  5
253
100
AcDbEntity
  8
REF_PARKING
  6
ByLayer
 62
  256
370
   -1
100
AcDbPoint
 10
418.0269171036015
 20
509.2876641528934
  0
LINE
  5
254
100
AcDbEntity
  8
REF_PARKING
  6
ByLayer
 62
  256
370
   -1
100
AcDbLine
 10
361.2063095875702
 20
452.4670566368621
 11
474.8475246196328
 21
566.1082716689248
  0
LINE
  5
255
100
AcDbEntity
  8
REF_PARKING
  6
ByLayer
 62
  256
370
   -1
100
AcDbLine
 10
361.2063095875702
 20
566.1082716689248
 11
474.8475246196328
 21
452.4670566368621
  0
TEXT
  5
256
100
AcDbEntity
  8
REF_PARKING_LABELS
  6
ByLayer
 62
  256
370
   -1
100
AcDbText
 10
588.4887396516955
 20
441.1029351336558
 30
0
 40
104.7317437735489
  1
26
 50
0
 41
1
 51
0
  7
STANDARD
 71
    0
210
0
220
0
230
1
100
AcDbText
  0
POINT
  5
257
100
AcDbEntity
  8
REF_PARKING
  6
ByLayer
 62
  256
370
   -1
100
AcDbPoint
 10
406.2308043401678
 20
685.5216153409261
  0
LINE
  5
258
100
AcDbEntity
  8
REF_PARKING
  6
ByLayer
 62
  256
370
   -1
100
AcDbLine
 10
349.4101968241364
 20
628.7010078248948
 11
463.0514118561991
 21
742.3422228569575
  0
LINE
  5
259
100
AcDbEntity
  8
REF_PARKING
  6
ByLayer
 62
  256
370
   -1
100
AcDbLine
 10
349.4101968241364
 20
742.3422228569575
 11
463.0514118561991
 21
628.7010078248948
  0
TEXT
  5
25A
100
AcDbEntity
  8
REF_PARKING_LABELS
  6
ByLayer
 62
  256
370
   -1
100
AcDbText
 10
576.6926268882618
 20
617.3368863216886
 30
0
 40
104.7317437735489
  1
36
 50
0
 41
1
 51
0
  7
STANDARD
 71
    0
210
0
220
0
230
1
100
AcDbText
  0
POINT
  5
25B
100
AcDbEntity
  8
REF_PARKING
  6
ByLayer
 62
  256
370
   -1
100
AcDbPoint
 10
428.3668132845972
 20
685.6550492528613
  0
LINE
  5
25C
100
AcDbEntity
  8
REF_PARKING
  6
ByLayer
 62
  256
370
   -1
100
AcDbLine
 10
371.5462057685659
 20
628.8344417368299
 11
485.1874208006285
 21
742.4756567688927
  0
LINE
  5
25D
100
AcDbEntity
  8
REF_PARKING
  6
ByLayer
 62
  256
370
   -1
100
AcDbLine
 10
371.5462057685659
 20
742.4756567688927
 11
485.1874208006285
 21
628.8344417368299
  0
TEXT
  5
25E
100
AcDbEntity
  8
REF_PARKING_LABELS
  6
ByLayer
 62
  256
370
   -1
100
AcDbText
 10
598.8286358326911
 20
617.4703202336237
 30
0
 40
104.7317437735489
  1
37
 50
0
 41
1
 51
0
  7
STANDARD
 71
    0
210
0
220
0
230
1
100
AcDbText
  0
POINT
  5
25F
100
AcDbEntity
  8
REF_PARKING
  6
ByLayer
 62
  256
370
   -1
100
AcDbPoint
 10
459.6625762213273
 20
517.5094170289923
  0
LINE
  5
260
100
AcDbEntity
  8
REF_PARKING
  6
ByLayer
 62
  256
370
   -1
100
AcDbLine
 10
402.841968705296
 20
460.688809512961
 11
516.4831837373587
 21
574.3300245450237
  0
LINE
  5
261
100
AcDbEntity
  8
REF_PARKING
  6
ByLayer
 62
  256
370
   -1
100
AcDbLine
 10
402.841968705296
 20
574.3300245450237
 11
516.4831837373587
 21
460.688809512961
  0
TEXT
  5
262
100
AcDbEntity
  8
REF_PARKING_LABELS
  6
ByLayer
 62
  256
370
   -1
100
AcDbText
 10
630.1243987694213
 20
449.3246880097547
 30
0
 40
104.7317437735489
  1
28
 50
0
 41
1
 51
0
  7
STANDARD
 71
    0
210
0
220
0
230
1
100
AcDbText
  0
POINT
  5
263
100
AcDbEntity
  8
REF_PARKING
  6
ByLayer
 62
  256
370
   -1
100
AcDbPoint
 10
441.7693149654831
 20
514.0757176933067
  0
LINE
  5
264
100
AcDbEntity
  8
REF_PARKING
  6
ByLayer
 62
  256
370
   -1
100
AcDbLine
 10
384.9487074494518
 20
457.2551101772754
 11
498.5899224815144
 21
570.8963252093381
  0
LINE
  5
265
100
AcDbEntity
  8
REF_PARKING
  6
ByLayer
 62
  256
370
   -1
100
AcDbLine
 10
384.9487074494518
 20
570.8963252093381
 11
498.5899224815144
 21
457.2551101772754
  0
TEXT
  5
266
100
AcDbEntity
  8
REF_PARKING_LABELS
  6
ByLayer
 62
  256
370
   -1
100
AcDbText
 10
612.2311375135771
 20
445.8909886740691
 30
0
 40
104.7317437735489
  1
27
 50
0
 41
1
 51
0
  7
STANDARD
 71
    0
210
0
220
0
230
1
100
AcDbText
  0
POINT
  5
267
100
AcDbEntity
  8
REF_PARKING
  6
ByLayer
 62
  256
370
   -1
100
AcDbPoint
 10
288.3531057817229
 20
479.1983170023083
  0
LINE
  5
268
100
AcDbEntity
  8
REF_PARKING
  6
ByLayer
 62
  256
370
   -1
100
AcDbLine
 10
231.5324982656916
 20
422.377709486277
 11
345.1737132977543
 21
536.0189245183396
  0
LINE
  5
269
100
AcDbEntity
  8
REF_PARKING
  6
ByLayer
 62
  256
370
   -1
100
AcDbLine
 10
231.5324982656916
 20
536.0189245183396
 11
345.1737132977543
 21
422.377709486277
  0
TEXT
  5
26A
100
AcDbEntity
  8
REF_PARKING_LABELS
  6
ByLayer
 62
  256
370
   -1
100
AcDbText
 10
458.8149283298169
 20
411.0135879830707
 30
0
 40
104.7317437735489
  1
21
 50
0
 41
1
 51
0
  7
STANDARD
 71
    0
210
0
220
0
230
1
100
AcDbText
  0
POINT
  5
26B
100
AcDbEntity
  8
REF_PARKING
  6
ByLayer
 62
  256
370
   -1
100
AcDbPoint
 10
275.5399167490885
 20
479.7520677375467
  0
LINE
  5
26C
100
AcDbEntity
  8
REF_PARKING
  6
ByLayer
 62
  256
370
   -1
100
AcDbLine
 10
218.7193092330572
 20
422.9314602215154
 11
332.3605242651198
 21
536.572675253578
  0
LINE
  5
26D
100
AcDbEntity
  8
REF_PARKING
  6
ByLayer
 62
  256
370
   -1
100
AcDbLine
 10
218.7193092330572
 20
536.572675253578
 11
332.3605242651198
 21
422.9314602215154
  0
TEXT
  5
26E
100
AcDbEntity
  8
REF_PARKING_LABELS
  6
ByLayer
 62
  256
370
   -1
100
AcDbText
 10
446.0017392971824
 20
411.5673387183091
 30
0
 40
104.7317437735489
  1
20
 50
0
 41
1
 51
0
  7
STANDARD
 71
    0
210
0
220
0
230
1
100
AcDbText
  0
POINT
  5
26F
100
AcDbEntity
  8
REF_PARKING
  6
ByLayer
 62
  256
370
   -1
100
AcDbPoint
 10
408.7860093745415
 20
502.8327986612593
  0
LINE
  5
270
100
AcDbEntity
  8
REF_PARKING
  6
ByLayer
 62
  256
370
   -1
100
AcDbLine
 10
351.9654018585102
 20
446.012191145228
 11
465.6066168905729
 21
559.6534061772907
  0
LINE
  5
271
100
AcDbEntity
  8
REF_PARKING
  6
ByLayer
 62
  256
370
   -1
100
AcDbLine
 10
351.9654018585102
 20
559.6534061772907
 11
465.6066168905729
 21
446.012191145228
  0
TEXT
  5
272
100
AcDbEntity
  8
REF_PARKING_LABELS
  6
ByLayer
 62
  256
370
   -1
100
AcDbText
 10
579.2478319226356
 20
434.6480696420217
 30
0
 40
104.7317437735489
  1
25
 50
0
 41
1
 51
0
  7
STANDARD
 71
    0
210
0
220
0
230
1
100
AcDbText
  0
POINT
  5
273
100
AcDbEntity
  8
REF_PARKING
  6
ByLayer
 62
  256
370
   -1
100
AcDbPoint
 10
400.1336558477573
 20
506.249818756892
  0
LINE
  5
274
100
AcDbEntity
  8
REF_PARKING
  6
ByLayer
 62
  256
370
   -1
100
AcDbLine
 10
343.313048331726
 20
449.4292112408607
 11
456.9542633637886
 21
563.0704262729233
  0
LINE
  5
275
100
AcDbEntity
  8
REF_PARKING
  6
ByLayer
 62
  256
370
   -1
100
AcDbLine
 10
343.313048331726
 20
563.0704262729233
 11
456.9542633637886
 21
449.4292112408607
  0
TEXT
  5
276
100
AcDbEntity
  8
REF_PARKING_LABELS
  6
ByLayer
 62
  256
370
   -1
100
AcDbText
 10
570.5954783958513
 20
438.0650897376544
 30
0
 40
104.7317437735489
  1
24B
 50
0
 41
1
 51
0
  7
STANDARD
 71
    0
210
0
220
0
230
1
100
AcDbText
  0
POINT
  5
277
100
AcDbEntity
  8
REF_PARKING
  6
ByLayer
 62
  256
370
   -1
100
AcDbPoint
 10
376.6066566885428
 20
501.7063940540834
  0
LINE
  5
278
100
AcDbEntity
  8
REF_PARKING
  6
ByLayer
 62
  256
370
   -1
100
AcDbLine
 10
319.7860491725115
 20
444.8857865380521
 11
433.4272642045742
 21
558.5270015701147
  0
LINE
  5
279
100
AcDbEntity
  8
REF_PARKING
  6
ByLayer
 62
  256
370
   -1
100
AcDbLine
 10
319.7860491725115
 20
558.5270015701147
 11
433.4272642045742
 21
444.8857865380521
  0
TEXT
  5
27A
100
AcDbEntity
  8
REF_PARKING_LABELS
  6
ByLayer
 62
  256
370
   -1
100
AcDbText
 10
547.0684792366368
 20
433.5216650348459
 30
0
 40
104.7317437735489
  1
24A
 50
0
 41
1
 51
0
  7
STANDARD
 71
    0
210
0
220
0
230
1
100
AcDbText
  0
POINT
  5
27B
100
AcDbEntity
  8
REF_PARKING
  6
ByLayer
 62
  256
370
   -1
100
AcDbPoint
 10
348.1452069645555
 20
491.5520733529847
  0
LINE
  5
27C
100
AcDbEntity
  8
REF_PARKING
  6
ByLayer
 62
  256
370
   -1
100
AcDbLine
 10
291.3245994485242
 20
434.7314658369534
 11
404.9658144805869
 21
548.372680869016
  0
LINE
  5
27D
100
AcDbEntity
  8
REF_PARKING
  6
ByLayer
 62
  256
370
   -1
100
AcDbLine
 10
291.3245994485242
 20
548.372680869016
 11
404.9658144805869
 21
434.7314658369534
  0
TEXT
  5
27E
100
AcDbEntity
  8
REF_PARKING_LABELS
  6
ByLayer
 62
  256
370
   -1
100
AcDbText
 10
518.6070295126495
 20
423.3673443337471
 30
0
 40
104.7317437735489
  1
23
 50
0
 41
1
 51
0
  7
STANDARD
 71
    0
210
0
220
0
230
1
100
AcDbText
  0
POINT
  5
27F
100
AcDbEntity
  8
REF_PARKING
  6
ByLayer
 62
  256
370
   -1
100
AcDbPoint
 10
358.4919291607792
 20
498.2660230235084
  0
LINE
  5
280
100
AcDbEntity
  8
REF_PARKING
  6
ByLayer
 62
  256
370
   -1
100
AcDbLine
 10
301.6713216447479
 20
441.4454155074771
 11
415.3125366768105
 21
555.0866305395398
  0
LINE
  5
281
100
AcDbEntity
  8
REF_PARKING
  6
ByLayer
 62
  256
370
   -1
100
AcDbLine
 10
301.6713216447479
 20
555.0866305395398
 11
415.3125366768105
 21
441.4454155074771
  0
TEXT
  5
282
100
AcDbEntity
  8
REF_PARKING_LABELS
  6
ByLayer
 62
  256
370
   -1
100
AcDbText
 10
528.9537517088731
 20
430.0812940042708
 30
0
 40
104.7317437735489
  1
24
 50
0
 41
1
 51
0
  7
STANDARD
 71
    0
210
0
220
0
230
1
100
AcDbText
  0
POINT
  5
283
100
AcDbEntity
  8
REF_PARKING
  6
ByLayer
 62
  256
370
   -1
100
AcDbPoint
 10
317.011751501103
 20
490.4623630712373
  0
LINE
  5
284
100
AcDbEntity
  8
REF_PARKING
  6
ByLayer
 62
  256
370
   -1
100
AcDbLine
 10
260.1911439850717
 20
433.641755555206
 11
373.8323590171344
 21
547.2829705872687
  0
LINE
  5
285
100
AcDbEntity
  8
REF_PARKING
  6
ByLayer
 62
  256
370
   -1
100
AcDbLine
 10
260.1911439850717
 20
547.2829705872687
 11
373.8323590171344
 21
433.641755555206
  0
TEXT
  5
286
100
AcDbEntity
  8
REF_PARKING_LABELS
  6
ByLayer
 62
  256
370
   -1
100
AcDbText
 10
487.4735740491971
 20
422.2776340519998
 30
0
 40
104.7317437735489
  1
22
 50
0
 41
1
 51
0
  7
STANDARD
 71
    0
210
0
220
0
230
1
100
AcDbText
  0
POINT
  5
287
100
AcDbEntity
  8
REF_PARKING
  6
ByLayer
 62
  256
370
   -1
100
AcDbPoint
 10
315.4736227361713
 20
665.6355146593852
  0
LINE
  5
288
100
AcDbEntity
  8
REF_PARKING
  6
ByLayer
 62
  256
370
   -1
100
AcDbLine
 10
258.6530152201399
 20
608.8149071433538
 11
372.2942302522026
 21
722.4561221754166
  0
LINE
  5
289
100
AcDbEntity
  8
REF_PARKING
  6
ByLayer
 62
  256
370
   -1
100
AcDbLine
 10
258.6530152201399
 20
722.4561221754166
 11
372.2942302522026
 21
608.8149071433538
  0
TEXT
  5
28A
100
AcDbEntity
  8
REF_PARKING_LABELS
  6
ByLayer
 62
  256
370
   -1
100
AcDbText
 10
485.9354452842653
 20
597.4507856401476
 30
0
 40
104.7317437735489
  1
33
 50
0
 41
1
 51
0
  7
STANDARD
 71
    0
210
0
220
0
230
1
100
AcDbText
  0
POINT
  5
28B
100
AcDbEntity
  8
REF_PARKING
  6
ByLayer
 62
  256
370
   -1
100
AcDbPoint
 10
286.20215253823
 20
656.1250125830202
  0
LINE
  5
28C
100
AcDbEntity
  8
REF_PARKING
  6
ByLayer
 62
  256
370
   -1
100
AcDbLine
 10
229.3815450221987
 20
599.3044050669888
 11
343.0227600542613
 21
712.9456200990516
  0
LINE
  5
28D
100
AcDbEntity
  8
REF_PARKING
  6
ByLayer
 62
  256
370
   -1
100
AcDbLine
 10
229.3815450221987
 20
712.9456200990516
 11
343.0227600542613
 21
599.3044050669888
  0
TEXT
  5
28E
100
AcDbEntity
  8
REF_PARKING_LABELS
  6
ByLayer
 62
  256
370
   -1
100
AcDbText
 10
456.6639750863239
 20
587.9402835637826
 30
0
 40
104.7317437735489
  1
32
 50
0
 41
1
 51
0
  7
STANDARD
 71
    0
210
0
220
0
230
1
100
AcDbText
  0
POINT
  5
28F
100
AcDbEntity
  8
REF_PARKING
  6
ByLayer
 62
  256
370
   -1
100
AcDbPoint
 10
255.04670213666
 20
657.0623858147187
  0
LINE
  5
290
100
AcDbEntity
  8
REF_PARKING
  6
ByLayer
 62
  256
370
   -1
100
AcDbLine
 10
198.2260946206287
 20
600.2417782986873
 11
311.8673096526913
 21
713.8829933307501
  0
LINE
  5
291
100
AcDbEntity
  8
REF_PARKING
  6
ByLayer
 62
  256
370
   -1
100
AcDbLine
 10
198.2260946206287
 20
713.8829933307501
 11
311.8673096526913
 21
600.2417782986873
  0
TEXT
  5
292
100
AcDbEntity
  8
REF_PARKING_LABELS
  6
ByLayer
 62
  256
370
   -1
100
AcDbText
 10
425.508524684754
 20
588.8776567954811
 30
0
 40
104.7317437735489
  1
31
 50
0
 41
1
 51
0
  7
STANDARD
 71
    0
210
0
220
0
230
1
100
AcDbText
  0
POINT
  5
293
100
AcDbEntity
  8
REF_PARKING
  6
ByLayer
 62
  256
370
   -1
100
AcDbPoint
 10
307.6919653739342
 20
523.9976409979029
  0
LINE
  5
294
100
AcDbEntity
  8
REF_PARKING
  6
ByLayer
 62
  256
370
   -1
100
AcDbLine
 10
250.8713578579029
 20
467.1770334818715
 11
364.5125728899655
 21
580.8182485139342
  0
LINE
  5
295
100
AcDbEntity
  8
REF_PARKING
  6
ByLayer
 62
  256
370
   -1
100
AcDbLine
 10
250.8713578579029
 20
580.8182485139342
 11
364.5125728899655
 21
467.1770334818715
  0
TEXT
  5
296
100
AcDbEntity
  8
REF_PARKING_LABELS
  6
ByLayer
 62
  256
370
   -1
100
AcDbText
 10
478.1537879220282
 20
455.8129119786653
 30
0
 40
104.7317437735489
  1
39
 50
0
 41
1
 51
0
  7
STANDARD
 71
    0
210
0
220
0
230
1
100
AcDbText
  0
POINT
  5
297
100
AcDbEntity
  8
REF_PARKING
  6
ByLayer
 62
  256
370
   -1
100
AcDbPoint
 10
289.712999704512
 20
618.7290468038909
  0
LINE
  5
298
100
AcDbEntity
  8
REF_PARKING
  6
ByLayer
 62
  256
370
   -1
100
AcDbLine
 10
232.8923921884807
 20
561.9084392878596
 11
346.5336072205433
 21
675.5496543199223
  0
LINE
  5
299
100
AcDbEntity
  8
REF_PARKING
  6
ByLayer
 62
  256
370
   -1
100
AcDbLine
 10
232.8923921884807
 20
675.5496543199223
 11
346.5336072205433
 21
561.9084392878596
  0
TEXT
  5
29A
100
AcDbEntity
  8
REF_PARKING_LABELS
  6
ByLayer
 62
  256
370
   -1
100
AcDbText
 10
460.174822252606
 20
550.5443177846533
 30
0
 40
104.7317437735489
  1
38
 50
0
 41
1
 51
0
  7
STANDARD
 71
    0
210
0
220
0
230
1
100
AcDbText
  0
POINT
  5
29B
100
AcDbEntity
  8
REF_PARKING
  6
ByLayer
 62
  256
370
   -1
100
AcDbPoint
 10
244.2214004282653
 20
648.0878432855698
  0
LINE
  5
29C
100
AcDbEntity
  8
REF_PARKING
  6
ByLayer
 62
  256
370
   -1
100
AcDbLine
 10
187.400792912234
 20
591.2672357695384
 11
301.0420079442966
 21
704.9084508016011
  0
LINE
  5
29D
100
AcDbEntity
  8
REF_PARKING
  6
ByLayer
 62
  256
370
   -1
100
AcDbLine
 10
187.400792912234
 20
704.9084508016011
 11
301.0420079442966
 21
591.2672357695384
  0
TEXT
  5
29E
100
AcDbEntity
  8
REF_PARKING_LABELS
  6
ByLayer
 62
  256
370
   -1
100
AcDbText
 10
414.6832229763593
 20
579.9031142663322
 30
0
 40
104.7317437735489
  1
30
 50
0
 41
1
 51
0
  7
STANDARD
 71
    0
210
0
220
0
230
1
100
AcDbText
  0
LINE
  5
29F
100
AcDbEntity
  8
REF_BRANCH_A_G1
  6
ByLayer
 62
  256
370
   -1
100
AcDbLine
 10
347.8668572324034
 20
-266.8362445872759
 11
260.8078589907101
 21
-283.8802029431823
  0
LINE
  5
2A0
100
AcDbEntity
  8
REF_BRANCH_A_G1
  6
ByLayer
 62
  256
370
   -1
100
AcDbLine
 10
365.182182532284
 20
-203.0259239834074
 11
347.8668572324034
 21
-266.8362445872759
  0
LINE
  5
2A1
100
AcDbEntity
  8
REF_BRANCH_A_G1
  6
ByLayer
 62
  256
370
   -1
100
AcDbLine
 10
385.3803615974784
 20
-137.9268541792727
 11
347.8668572324034
 21
-266.8362445872759
  0
LINE
  5
2A2
100
AcDbEntity
  8
REF_BRANCH_A_G1
  6
ByLayer
 62
  256
370
   -1
100
AcDbLine
 10
387.1300968347167
 20
-122.2906235949901
 11
347.8668572324034
 21
-266.8362445872759
  0
LINE
  5
2A3
100
AcDbEntity
  8
REF_BRANCH_A_G1
  6
ByLayer
 62
  256
370
   -1
100
AcDbLine
 10
407.1690022112597
 20
-134.5765510396075
 11
347.8668572324034
 21
-266.8362445872759
  0
LINE
  5
2A4
100
AcDbEntity
  8
REF_BRANCH_A_G1
  6
ByLayer
 62
  256
370
   -1
100
AcDbLine
 10
367.7267693208281
 20
-191.6973848565714
 11
347.8668572324034
 21
-266.8362445872759
  0
LINE
  5
2A5
100
AcDbEntity
  8
REF_BRANCH_A_G1
  6
ByLayer
 62
  256
370
   -1
100
AcDbLine
 10
384.1076889802185
 20
-203.9833123011888
 11
347.8668572324034
 21
-266.8362445872759
  0
LINE
  5
2A6
100
AcDbEntity
  8
REF_BRANCH_A_G1
  6
ByLayer
 62
  256
370
   -1
100
AcDbLine
 10
394.2860361341536
 20
-185.6339255070855
 11
347.8668572324034
 21
-266.8362445872759
  0
LINE
  5
2A7
100
AcDbEntity
  8
REF_BRANCH_A_G1
  6
ByLayer
 62
  256
370
   -1
100
AcDbLine
 10
401.6020075682174
 20
-199.3564914037744
 11
347.8668572324034
 21
-266.8362445872759
  0
LINE
  5
2A8
100
AcDbEntity
  8
REF_BRANCH_A_G1
  6
ByLayer
 62
  256
370
   -1
100
AcDbLine
 10
416.0746767479349
 20
-183.2410106859091
 11
347.8668572324034
 21
-266.8362445872759
  0
LINE
  5
2A9
100
AcDbEntity
  8
REF_BRANCH_A_G1
  6
ByLayer
 62
  256
370
   -1
100
AcDbLine
 10
354.367499069719
 20
-144.9477018479547
 11
347.8668572324034
 21
-266.8362445872759
  0
LINE
  5
2AA
100
AcDbEntity
  8
REF_BRANCH_A_G1
  6
ByLayer
 62
  256
370
   -1
100
AcDbLine
 10
356.594296926936
 20
-131.2251359505584
 11
347.8668572324034
 21
-266.8362445872759
  0
LINE
  5
2AB
100
AcDbEntity
  8
REF_BRANCH_A_G1
  6
ByLayer
 62
  256
370
   -1
100
AcDbLine
 10
369.4765045580665
 20
-125.4819179890096
 11
347.8668572324034
 21
-266.8362445872759
  0
LINE
  5
2AC
100
AcDbEntity
  8
REF_BRANCH_A_G1
  6
ByLayer
 62
  256
370
   -1
100
AcDbLine
 10
349.4368407353067
 20
-82.24154686499629
 11
347.8668572324034
 21
-266.8362445872759
  0
LINE
  5
2AD
100
AcDbEntity
  8
REF_BRANCH_A_G1
  6
ByLayer
 62
  256
370
   -1
100
AcDbLine
 10
352.4008482373798
 20
-15.74142098554188
 11
347.8668572324034
 21
-266.8362445872759
  0
LINE
  5
2AE
100
AcDbEntity
  8
REF_BRANCH_A_G1
  6
ByLayer
 62
  256
370
   -1
100
AcDbLine
 10
367.2186104093361
 20
-12.87926357311697
 11
347.8668572324034
 21
-266.8362445872759
  0
LINE
  5
2AF
100
AcDbEntity
  8
REF_BRANCH_A_G1
  6
ByLayer
 62
  256
370
   -1
100
AcDbLine
 10
382.1289030096159
 20
-10.38627331869657
 11
347.8668572324034
 21
-266.8362445872759
  0
LINE
  5
2B0
100
AcDbEntity
  8
REF_BRANCH_A_G1
  6
ByLayer
 62
  256
370
   -1
100
AcDbLine
 10
336.561459119404
 20
86.1742890308952
 11
347.8668572324034
 21
-266.8362445872759
  0
LINE
  5
2B1
100
AcDbEntity
  8
REF_BRANCH_A_G1
  6
ByLayer
 62
  256
370
   -1
100
AcDbLine
 10
359.0926185010771
 20
90.29628496172381
 11
347.8668572324034
 21
-266.8362445872759
  0
LINE
  5
2B2
100
AcDbEntity
  8
REF_BRANCH_A_G1
  6
ByLayer
 62
  256
370
   -1
100
AcDbLine
 10
350.6101569087739
 20
135.2379384636184
 11
347.8668572324034
 21
-266.8362445872759
  0
LINE
  5
2B3
100
AcDbEntity
  8
REF_BRANCH_A_G1
  6
ByLayer
 62
  256
370
   -1
100
AcDbLine
 10
364.2371586459642
 20
-79.58287616862624
 11
347.8668572324034
 21
-266.8362445872759
  0
LINE
  5
2B4
100
AcDbEntity
  8
REF_BRANCH_A_G1
  6
ByLayer
 62
  256
370
   -1
100
AcDbLine
 10
379.2574259363487
 20
-76.59062069241817
 11
347.8668572324034
 21
-266.8362445872759
  0
LINE
  5
2B5
100
AcDbEntity
  8
REF_BRANCH_A_G1
  6
ByLayer
 62
  256
370
   -1
100
AcDbLine
 10
394.277693226492
 20
-73.93194999675545
 11
347.8668572324034
 21
-266.8362445872759
  0
LINE
  5
2B6
100
AcDbEntity
  8
REF_BRANCH_A_G1
  6
ByLayer
 62
  256
370
   -1
100
AcDbLine
 10
343.3624456269893
 20
-49.99835398533425
 11
347.8668572324034
 21
-266.8362445872759
  0
LINE
  5
2B7
100
AcDbEntity
  8
REF_BRANCH_A_G1
  6
ByLayer
 62
  256
370
   -1
100
AcDbLine
 10
358.3834713633494
 20
-47.56096119374864
 11
347.8668572324034
 21
-266.8362445872759
  0
LINE
  5
2B8
100
AcDbEntity
  8
REF_BRANCH_A_G1
  6
ByLayer
 62
  256
370
   -1
100
AcDbLine
 10
373.18303082779
 20
-44.56870571824789
 11
347.8668572324034
 21
-266.8362445872759
  0
LINE
  5
2B9
100
AcDbEntity
  8
REF_BRANCH_A_G1
  6
ByLayer
 62
  256
370
   -1
100
AcDbLine
 10
388.3140312540137
 20
-41.68764516912405
 11
347.8668572324034
 21
-266.8362445872759
  0
LINE
  5
2BA
100
AcDbEntity
  8
REF_BRANCH_A_G1
  6
ByLayer
 62
  256
370
   -1
100
AcDbLine
 10
337.3980252082941
 20
-18.41899481861087
 11
347.8668572324034
 21
-266.8362445872759
  0
TEXT
  5
2BB
100
AcDbEntity
  8
REF_BRANCH_LABELS
  6
ByLayer
 62
  256
370
   -1
100
AcDbText
 10
304.3373581115568
 20
-275.3582237652291
 30
0
 40
104.7317437735489
  1
A/G1
 50
0
 41
1
 51
0
  7
STANDARD
 71
    0
210
0
220
0
230
1
100
AcDbText
  0
LINE
  5
2BC
100
AcDbEntity
  8
REF_BRANCH_A_S1
  6
ByLayer
 62
  256
370
   -1
100
AcDbLine
 10
-345.0411903059538
 20
246.1659972847242
 11
-306.6380286225992
 21
253.1723896121214
  0
LINE
  5
2BD
100
AcDbEntity
  8
REF_BRANCH_A_S1
  6
ByLayer
 62
  256
370
   -1
100
AcDbLine
 10
-370.2807608413996
 20
214.3887111474514
 11
-345.0411903059538
 21
246.1659972847242
  0
LINE
  5
2BE
100
AcDbEntity
  8
REF_BRANCH_A_S1
  6
ByLayer
 62
  256
370
   -1
100
AcDbLine
 10
275.5399167490885
 20
479.7520677375467
 11
-306.6380286225992
 21
253.1723896121214
  0
LINE
  5
2BF
100
AcDbEntity
  8
REF_BRANCH_A_S1
  6
ByLayer
 62
  256
370
   -1
100
AcDbLine
 10
244.2214004282653
 20
648.0878432855698
 11
-306.6380286225992
 21
253.1723896121214
  0
LINE
  5
2C0
100
AcDbEntity
  8
REF_BRANCH_A_S1
  6
ByLayer
 62
  256
370
   -1
100
AcDbLine
 10
255.04670213666
 20
657.0623858147187
 11
-306.6380286225992
 21
253.1723896121214
  0
LINE
  5
2C1
100
AcDbEntity
  8
REF_BRANCH_A_S1
  6
ByLayer
 62
  256
370
   -1
100
AcDbLine
 10
286.20215253823
 20
656.1250125830202
 11
-306.6380286225992
 21
253.1723896121214
  0
LINE
  5
2C2
100
AcDbEntity
  8
REF_BRANCH_A_S1
  6
ByLayer
 62
  256
370
   -1
100
AcDbLine
 10
315.4736227361713
 20
665.6355146593852
 11
-306.6380286225992
 21
253.1723896121214
  0
LINE
  5
2C3
100
AcDbEntity
  8
REF_BRANCH_A_S1
  6
ByLayer
 62
  256
370
   -1
100
AcDbLine
 10
327.4828588638629
 20
663.9942775418748
 11
-306.6380286225992
 21
253.1723896121214
  0
LINE
  5
2C4
100
AcDbEntity
  8
REF_BRANCH_A_S1
  6
ByLayer
 62
  256
370
   -1
100
AcDbLine
 10
386.8813265018856
 20
675.2127336910105
 11
-306.6380286225992
 21
253.1723896121214
  0
LINE
  5
2C5
100
AcDbEntity
  8
REF_BRANCH_A_S1
  6
ByLayer
 62
  256
370
   -1
100
AcDbLine
 10
406.2308043401678
 20
685.5216153409261
 11
-306.6380286225992
 21
253.1723896121214
  0
LINE
  5
2C6
100
AcDbEntity
  8
REF_BRANCH_A_S1
  6
ByLayer
 62
  256
370
   -1
100
AcDbLine
 10
428.3668132845972
 20
685.6550492528613
 11
-306.6380286225992
 21
253.1723896121214
  0
LINE
  5
2C7
100
AcDbEntity
  8
REF_BRANCH_A_S1
  6
ByLayer
 62
  256
370
   -1
100
AcDbLine
 10
289.712999704512
 20
618.7290468038909
 11
-306.6380286225992
 21
253.1723896121214
  0
LINE
  5
2C8
100
AcDbEntity
  8
REF_BRANCH_A_S1
  6
ByLayer
 62
  256
370
   -1
100
AcDbLine
 10
307.6919653739342
 20
523.9976409979029
 11
-306.6380286225992
 21
253.1723896121214
  0
TEXT
  5
2C9
100
AcDbEntity
  8
REF_BRANCH_LABELS
  6
ByLayer
 62
  256
370
   -1
100
AcDbText
 10
-341.7502925189766
 20
239.9732738322553
 30
0
 40
104.7317437735489
  1
A/S1
 50
0
 41
1
 51
0
  7
STANDARD
 71
    0
210
0
220
0
230
1
100
AcDbText
  0
LINE
  5
2CA
100
AcDbEntity
  8
REF_BRANCH_A_X
  6
ByLayer
 62
  256
370
   -1
100
AcDbLine
 10
-139.8026319431124
 20
-120.0322546344257
 11
10.98176914657442
 21
-90.83357884706911
  0
LINE
  5
2CB
100
AcDbEntity
  8
REF_BRANCH_A_X
  6
ByLayer
 62
  256
370
   -1
100
AcDbLine
 10
-189.7402424725894
 20
-129.6417201953581
 11
-139.8026319431124
 21
-120.0322546344257
  0
LINE
  5
2CC
100
AcDbEntity
  8
REF_BRANCH_A_X
  6
ByLayer
 62
  256
370
   -1
100
AcDbLine
 10
-233.6201437085897
 20
-137.9079510418664
 11
-189.7402424725894
 21
-129.6417201953581
  0
LINE
  5
2CD
100
AcDbEntity
  8
REF_BRANCH_A_X
  6
ByLayer
 62
  256
370
   -1
100
AcDbLine
 10
332.6478770544337
 20
241.5236090966409
 11
10.98176914657444
 21
-90.83357884706911
  0
LINE
  5
2CE
100
AcDbEntity
  8
REF_BRANCH_A_X
  6
ByLayer
 62
  256
370
   -1
100
AcDbLine
 10
320.878309905936
 20
303.7505139453093
 11
10.98176914657444
 21
-90.83357884706911
  0
LINE
  5
2CF
100
AcDbEntity
  8
REF_BRANCH_A_X
  6
ByLayer
 62
  256
370
   -1
100
AcDbLine
 10
288.3531057817229
 20
479.1983170023083
 11
10.98176914657444
 21
-90.83357884706911
  0
LINE
  5
2D0
100
AcDbEntity
  8
REF_BRANCH_A_X
  6
ByLayer
 62
  256
370
   -1
100
AcDbLine
 10
317.011751501103
 20
490.4623630712373
 11
10.98176914657444
 21
-90.83357884706911
  0
LINE
  5
2D1
100
AcDbEntity
  8
REF_BRANCH_A_X
  6
ByLayer
 62
  256
370
   -1
100
AcDbLine
 10
348.1452069645555
 20
491.5520733529847
 11
10.98176914657444
 21
-90.83357884706911
  0
LINE
  5
2D2
100
AcDbEntity
  8
REF_BRANCH_A_X
  6
ByLayer
 62
  256
370
   -1
100
AcDbLine
 10
358.4919291607792
 20
498.2660230235084
 11
10.98176914657444
 21
-90.83357884706911
  0
LINE
  5
2D3
100
AcDbEntity
  8
REF_BRANCH_A_X
  6
ByLayer
 62
  256
370
   -1
100
AcDbLine
 10
376.6066566885428
 20
501.7063940540834
 11
10.98176914657444
 21
-90.83357884706911
  0
LINE
  5
2D4
100
AcDbEntity
  8
REF_BRANCH_A_X
  6
ByLayer
 62
  256
370
   -1
100
AcDbLine
 10
400.1336558477573
 20
506.249818756892
 11
10.98176914657444
 21
-90.83357884706911
  0
LINE
  5
2D5
100
AcDbEntity
  8
REF_BRANCH_A_X
  6
ByLayer
 62
  256
370
   -1
100
AcDbLine
 10
408.7860093745415
 20
502.8327986612593
 11
10.98176914657444
 21
-90.83357884706911
  0
LINE
  5
2D6
100
AcDbEntity
  8
REF_BRANCH_A_X
  6
ByLayer
 62
  256
370
   -1
100
AcDbLine
 10
418.0269171036015
 20
509.2876641528934
 11
10.98176914657444
 21
-90.83357884706911
  0
LINE
  5
2D7
100
AcDbEntity
  8
REF_BRANCH_A_X
  6
ByLayer
 62
  256
370
   -1
100
AcDbLine
 10
441.7693149654831
 20
514.0757176933067
 11
10.98176914657444
 21
-90.83357884706911
  0
LINE
  5
2D8
100
AcDbEntity
  8
REF_BRANCH_A_X
  6
ByLayer
 62
  256
370
   -1
100
AcDbLine
 10
459.6625762213273
 20
517.5094170289923
 11
10.98176914657444
 21
-90.83357884706911
  0
LINE
  5
2D9
100
AcDbEntity
  8
REF_BRANCH_A_X
  6
ByLayer
 62
  256
370
   -1
100
AcDbLine
 10
309.5729117929367
 20
365.411436617637
 11
10.98176914657444
 21
-90.83357884706911
  0
LINE
  5
2DA
100
AcDbEntity
  8
REF_BRANCH_A_X
  6
ByLayer
 62
  256
370
   -1
100
AcDbLine
 10
313.4993874423873
 20
81.38734743915855
 11
10.98176914657444
 21
-90.83357884706911
  0
LINE
  5
2DB
100
AcDbEntity
  8
REF_BRANCH_A_X
  6
ByLayer
 62
  256
370
   -1
100
AcDbLine
 10
305.1496539237995
 20
127.6588922635765
 11
10.98176914657444
 21
-90.83357884706911
  0
LINE
  5
2DC
100
AcDbEntity
  8
REF_BRANCH_A_X
  6
ByLayer
 62
  256
370
   -1
100
AcDbLine
 10
328.0789975273422
 20
131.7808881936978
 11
10.98176914657444
 21
-90.83357884706911
  0
LINE
  5
2DD
100
AcDbEntity
  8
REF_BRANCH_A_X
  6
ByLayer
 62
  256
370
   -1
100
AcDbLine
 10
316.543790235003
 20
196.5074549937979
 11
10.98176914657444
 21
-90.83357884706911
  0
LINE
  5
2DE
100
AcDbEntity
  8
REF_BRANCH_A_X
  6
ByLayer
 62
  256
370
   -1
100
AcDbLine
 10
339.7628602622618
 20
200.755101191581
 11
10.98176914657444
 21
-90.83357884706911
  0
TEXT
  5
2DF
100
AcDbEntity
  8
REF_BRANCH_LABELS
  6
ByLayer
 62
  256
370
   -1
100
AcDbText
 10
-146.9540205655698
 20
-121.3482465914172
 30
0
 40
104.7317437735489
  1
A/X
 50
0
 41
1
 51
0
  7
STANDARD
 71
    0
210
0
220
0
230
1
100
AcDbText
  0
POINT
  5
2E0
100
AcDbEntity
  8
REF_VFR_POINTS
  6
ByLayer
 62
  256
370
   -1
100
AcDbPoint
 10
20836.20086869738
 20
12354.99217062535
  0
LINE
  5
2E1
100
AcDbEntity
  8
REF_VFR_POINTS
  6
ByLayer
 62
  256
370
   -1
100
AcDbLine
 10
20722.55965366532
 20
12241.35095559329
 11
20949.84208372944
 21
12468.63338565741
  0
LINE
  5
2E2
100
AcDbEntity
  8
REF_VFR_POINTS
  6
ByLayer
 62
  256
370
   -1
100
AcDbLine
 10
20722.55965366532
 20
12468.63338565741
 11
20949.84208372944
 21
12241.35095559329
  0
TEXT
  5
2E3
100
AcDbEntity
  8
REF_VFR_LABELS
  6
ByLayer
 62
  256
370
   -1
100
AcDbText
 10
21006.66269124547
 20
12525.45399317344
 30
0
 40
145.4607552410402
  1
GLEISDORF
 50
0
 41
1
 51
0
  7
STANDARD
 71
    0
210
0
220
0
230
1
100
AcDbText
  0
POINT
  5
2E4
100
AcDbEntity
  8
REF_VFR_POINTS
  6
ByLayer
 62
  256
370
   -1
100
AcDbPoint
 10
-11692.71129867642
 20
15721.72658473665
  0
LINE
  5
2E5
100
AcDbEntity
  8
REF_VFR_POINTS
  6
ByLayer
 62
  256
370
   -1
100
AcDbLine
 10
-11806.35251370848
 20
15608.08536970459
 11
-11579.07008364435
 21
15835.36779976872
  0
LINE
  5
2E6
100
AcDbEntity
  8
REF_VFR_POINTS
  6
ByLayer
 62
  256
370
   -1
100
AcDbLine
 10
-11806.35251370848
 20
15835.36779976872
 11
-11579.07008364435
 21
15608.08536970459
  0
TEXT
  5
2E7
100
AcDbEntity
  8
REF_VFR_LABELS
  6
ByLayer
 62
  256
370
   -1
100
AcDbText
 10
-11522.24947612832
 20
15892.18840728475
 30
0
 40
145.4607552410402
  1
GRAZ-NORD
 50
0
 41
1
 51
0
  7
STANDARD
 71
    0
210
0
220
0
230
1
100
AcDbText
  0
POINT
  5
2E8
100
AcDbEntity
  8
REF_VFR_POINTS
  6
ByLayer
 62
  256
370
   -1
100
AcDbPoint
 10
11755.91534564981
 20
7567.43233478504
  0
LINE
  5
2E9
100
AcDbEntity
  8
REF_VFR_POINTS
  6
ByLayer
 62
  256
370
   -1
100
AcDbLine
 10
11642.27413061774
 20
7453.791119752977
 11
11869.55656068187
 21
7681.073549817103
  0
LINE
  5
2EA
100
AcDbEntity
  8
REF_VFR_POINTS
  6
ByLayer
 62
  256
370
   -1
100
AcDbLine
 10
11642.27413061774
 20
7681.073549817103
 11
11869.55656068187
 21
7453.791119752977
  0
TEXT
  5
2EB
100
AcDbEntity
  8
REF_VFR_LABELS
  6
ByLayer
 62
  256
370
   -1
100
AcDbText
 10
11926.3771681979
 20
7737.894157333133
 30
0
 40
145.4607552410402
  1
LASSNITZHÖHE
 50
0
 41
1
 51
0
  7
STANDARD
 71
    0
210
0
220
0
230
1
100
AcDbText
  0
POINT
  5
2EC
100
AcDbEntity
  8
REF_VFR_POINTS
  6
ByLayer
 62
  256
370
   -1
100
AcDbPoint
 10
3539.415026281943
 20
2625.436089226357
  0
LINE
  5
2ED
100
AcDbEntity
  8
REF_VFR_POINTS
  6
ByLayer
 62
  256
370
   -1
100
AcDbLine
 10
3425.773811249881
 20
2511.794874194295
 11
3653.056241314006
 21
2739.07730425842
  0
LINE
  5
2EE
100
AcDbEntity
  8
REF_VFR_POINTS
  6
ByLayer
 62
  256
370
   -1
100
AcDbLine
 10
3425.773811249881
 20
2739.07730425842
 11
3653.056241314006
 21
2511.794874194295
  0
TEXT
  5
2EF
100
AcDbEntity
  8
REF_VFR_LABELS
  6
ByLayer
 62
  256
370
   -1
100
AcDbText
 10
3709.876848830037
 20
2795.897911774451
 30
0
 40
145.4607552410402
  1
AUTOBAHN-OST
 50
0
 41
1
 51
0
  7
STANDARD
 71
    0
210
0
220
0
230
1
100
AcDbText
  0
POINT
  5
2F0
100
AcDbEntity
  8
REF_VFR_POINTS
  6
ByLayer
 62
  256
370
   -1
100
AcDbPoint
 10
-2401.746124681446
 20
803.0746678903224
  0
LINE
  5
2F1
100
AcDbEntity
  8
REF_VFR_POINTS
  6
ByLayer
 62
  256
370
   -1
100
AcDbLine
 10
-2515.387339713508
 20
689.4334528582598
 11
-2288.104909649383
 21
916.715882922385
  0
LINE
  5
2F2
100
AcDbEntity
  8
REF_VFR_POINTS
  6
ByLayer
 62
  256
370
   -1
100
AcDbLine
 10
-2515.387339713508
 20
916.715882922385
 11
-2288.104909649383
 21
689.4334528582598
  0
TEXT
  5
2F3
100
AcDbEntity
  8
REF_VFR_LABELS
  6
ByLayer
 62
  256
370
   -1
100
AcDbText
 10
-2231.284302133352
 20
973.5364904384164
 30
0
 40
145.4607552410402
  1
AUTOBAHN-WEST
 50
0
 41
1
 51
0
  7
STANDARD
 71
    0
210
0
220
0
230
1
100
AcDbText
  0
POINT
  5
2F4
100
AcDbEntity
  8
REF_VFR_POINTS
  6
ByLayer
 62
  256
370
   -1
100
AcDbPoint
 10
-3432.805106908147
 20
5161.551072997502
  0
LINE
  5
2F5
100
AcDbEntity
  8
REF_VFR_POINTS
  6
ByLayer
 62
  256
370
   -1
100
AcDbLine
 10
-3546.44632194021
 20
5047.909857965439
 11
-3319.163891876085
 21
5275.192288029565
  0
LINE
  5
2F6
100
AcDbEntity
  8
REF_VFR_POINTS
  6
ByLayer
 62
  256
370
   -1
100
AcDbLine
 10
-3546.44632194021
 20
5275.192288029565
 11
-3319.163891876085
 21
5047.909857965439
  0
TEXT
  5
2F7
100
AcDbEntity
  8
REF_VFR_LABELS
  6
ByLayer
 62
  256
370
   -1
100
AcDbText
 10
-3262.343284360053
 20
5332.012895545596
 30
0
 40
145.4607552410402
  1
GREEN CITY
 50
0
 41
1
 51
0
  7
STANDARD
 71
    0
210
0
220
0
230
1
100
AcDbText
  0
POINT
  5
2F8
100
AcDbEntity
  8
REF_VFR_POINTS
  6
ByLayer
 62
  256
370
   -1
100
AcDbPoint
 10
3960.774328176253
 20
-2625.436311616517
  0
LINE
  5
2F9
100
AcDbEntity
  8
REF_VFR_POINTS
  6
ByLayer
 62
  256
370
   -1
100
AcDbLine
 10
3847.133113144191
 20
-2739.077526648579
 11
4074.415543208316
 21
-2511.795096584454
  0
LINE
  5
2FA
100
AcDbEntity
  8
REF_VFR_POINTS
  6
ByLayer
 62
  256
370
   -1
100
AcDbLine
 10
3847.133113144191
 20
-2511.795096584454
 11
4074.415543208316
 21
-2739.077526648579
  0
TEXT
  5
2FB
100
AcDbEntity
  8
REF_VFR_LABELS
  6
ByLayer
 62
  256
370
   -1
100
AcDbText
 10
4131.236150724347
 20
-2454.974489068423
 30
0
 40
145.4607552410402
  1
KALSDORF
 50
0
 41
1
 51
0
  7
STANDARD
 71
    0
210
0
220
0
230
1
100
AcDbText
  0
POINT
  5
2FC
100
AcDbEntity
  8
REF_VFR_POINTS
  6
ByLayer
 62
  256
370
   -1
100
AcDbPoint
 10
-4529.609234044087
 20
-4664.009596116368
  0
LINE
  5
2FD
100
AcDbEntity
  8
REF_VFR_POINTS
  6
ByLayer
 62
  256
370
   -1
100
AcDbLine
 10
-4643.25044907615
 20
-4777.650811148431
 11
-4415.968019012024
 21
-4550.368381084305
  0
LINE
  5
2FE
100
AcDbEntity
  8
REF_VFR_POINTS
  6
ByLayer
 62
  256
370
   -1
100
AcDbLine
 10
-4643.25044907615
 20
-4550.368381084305
 11
-4415.968019012024
 21
-4777.650811148431
  0
TEXT
  5
2FF
100
AcDbEntity
  8
REF_VFR_LABELS
  6
ByLayer
 62
  256
370
   -1
100
AcDbText
 10
-4359.147411495994
 20
-4493.547773568274
 30
0
 40
145.4607552410402
  1
SENDER DOBL
 50
0
 41
1
 51
0
  7
STANDARD
 71
    0
210
0
220
0
230
1
100
AcDbText
  0
LINE
  5
300
100
AcDbEntity
  8
AUTH_GROUND
  6
ByLayer
 62
  256
370
   -1
100
AcDbLine
 10
-240.901985066514
 20
1249.351058181962
 11
312.3966067596084
 21
-1697.695896497343
  0
LINE
  5
301
100
AcDbEntity
  8
AUTH_GROUND
  6
ByLayer
 62
  256
370
   -1
100
AcDbLine
 10
260.3721986185183
 20
-276.0486943621781
 11
376.328365753769
 21
-903.1336500338978
  0
LINE
  5
302
100
AcDbEntity
  8
AUTH_GROUND
  6
ByLayer
 62
  256
370
   -1
100
AcDbLine
 10
-309.117405966851
 20
260.0749212428291
 11
-168.7516451304771
 21
-489.5024575876826
  0
LINE
  5
303
100
AcDbEntity
  8
AUTH_GROUND
  6
ByLayer
 62
  256
370
   -1
100
AcDbLine
 10
-228.6997281971178
 20
1184.357898108148
 11
-214.0876551398967
 21
1232.106261790584
  0
LINE
  5
304
100
AcDbEntity
  8
AUTH_GROUND
  6
ByLayer
 62
  256
370
   -1
100
AcDbLine
 10
-214.0876551398967
 20
1232.106261790584
 11
-162.8818740303172
 21
1248.405226554313
  0
LINE
  5
305
100
AcDbEntity
  8
AUTH_GROUND
  6
ByLayer
 62
  256
370
   -1
100
AcDbLine
 10
-162.8818740303172
 20
1248.405226554313
 11
-95.23513291981317
 21
1225.931019811552
  0
LINE
  5
306
100
AcDbEntity
  8
AUTH_GROUND
  6
ByLayer
 62
  256
370
   -1
100
AcDbLine
 10
-95.23513291981317
 20
1225.931019811552
 11
52.8082898690277
 21
1125.871055870769
  0
LINE
  5
307
100
AcDbEntity
  8
AUTH_GROUND
  6
ByLayer
 62
  256
370
   -1
100
AcDbLine
 10
52.8082898690277
 20
1125.871055870769
 11
85.51840193715816
 21
1095.645254866205
  0
LINE
  5
308
100
AcDbEntity
  8
AUTH_GROUND
  6
ByLayer
 62
  256
370
   -1
100
AcDbLine
 10
85.51840193715816
 20
1095.645254866205
 11
98.05349432608728
 21
1067.624172357081
  0
LINE
  5
309
100
AcDbEntity
  8
AUTH_GROUND
  6
ByLayer
 62
  256
370
   -1
100
AcDbLine
 10
98.05349432608728
 20
1067.624172357081
 11
449.8277339321003
 21
-806.803350061153
  0
LINE
  5
30A
100
AcDbEntity
  8
AUTH_GROUND
  6
ByLayer
 62
  256
370
   -1
100
AcDbLine
 10
449.8277339321003
 20
-806.803350061153
 11
432.4357237553568
 21
-848.9852782315804
  0
LINE
  5
30B
100
AcDbEntity
  8
AUTH_GROUND
  6
ByLayer
 62
  256
370
   -1
100
AcDbLine
 10
432.4357237553568
 20
-848.9852782315804
 11
400.781666716668
 21
-882.9223872495993
  0
LINE
  5
30C
100
AcDbEntity
  8
AUTH_GROUND
  6
ByLayer
 62
  256
370
   -1
100
AcDbLine
 10
400.781666716668
 20
-882.9223872495993
 11
376.328365753769
 21
-903.1336500338978
  0
LINE
  5
30D
100
AcDbEntity
  8
AUTH_GROUND
  6
ByLayer
 62
  256
370
   -1
100
AcDbLine
 10
260.3721986185183
 20
-276.0486943621781
 11
275.6856273965632
 21
-283.0164777234704
  0
LINE
  5
30E
100
AcDbEntity
  8
AUTH_GROUND
  6
ByLayer
 62
  256
370
   -1
100
AcDbLine
 10
275.6856273965632
 20
-283.0164777234704
 11
349.2874947132523
 21
-271.0751179046658
  0
LINE
  5
30F
100
AcDbEntity
  8
AUTH_GROUND
  6
ByLayer
 62
  256
370
   -1
100
AcDbLine
 10
268.0136741827723
 20
161.992085154418
 11
132.7407626237014
 21
29.59216318743688
  0
LINE
  5
310
100
AcDbEntity
  8
AUTH_GROUND
  6
ByLayer
 62
  256
370
   -1
100
AcDbLine
 10
132.7407626237014
 20
29.59216318743688
 11
44.00983927329935
 21
-53.18870742044078
  0
LINE
  5
311
100
AcDbEntity
  8
AUTH_GROUND
  6
ByLayer
 62
  256
370
   -1
100
AcDbLine
 10
44.00983927329935
 20
-53.18870742044078
 11
0.3450028222241599
 21
-35.60829556692192
  0
LINE
  5
312
100
AcDbEntity
  8
AUTH_GROUND
  6
ByLayer
 62
  256
370
   -1
100
AcDbLine
 10
44.00983927329935
 20
-53.18870742044078
 11
13.24837363323149
 21
-104.3358148764705
  0
LINE
  5
313
100
AcDbEntity
  8
AUTH_GROUND
  6
ByLayer
 62
  256
370
   -1
100
AcDbLine
 10
172.0501078605366
 20
673.3335354700215
 11
134.4950654509594
 21
698.5716163065754
  0
LINE
  5
314
100
AcDbEntity
  8
AUTH_GROUND
  6
ByLayer
 62
  256
370
   -1
100
AcDbLine
 10
134.4950654509594
 20
698.5716163065754
 11
160.2707643115359
 21
736.0997168964838
  0
LINE
  5
315
100
AcDbEntity
  8
AUTH_GROUND
  6
ByLayer
 62
  256
370
   -1
100
AcDbLine
 10
-234.5324798201357
 20
-138.2214518056815
 11
11.49959076483447
 21
-95.02123265478986
  0
LINE
  5
316
100
AcDbEntity
  8
AUTH_GROUND
  6
ByLayer
 62
  256
370
   -1
100
AcDbLine
 10
165.5837128072553
 20
-915.723018883539
 11
130.4678945375767
 21
-963.2202807482947
  0
LINE
  5
317
100
AcDbEntity
  8
AUTH_GROUND
  6
ByLayer
 62
  256
370
   -1
100
AcDbLine
 10
130.4678945375767
 20
-963.2202807482947
 11
181.7870738895203
 21
-1002.027351911852
  0
LINE
  5
318
100
AcDbEntity
  8
AUTH_GROUND
  6
ByLayer
 62
  256
370
   -1
100
AcDbLine
 10
130.4678945375767
 20
-963.2202807482947
 11
-19.67924185778656
 21
-907.2426319129643
  0
LINE
  5
319
100
AcDbEntity
  8
AUTH_GROUND
  6
ByLayer
 62
  256
370
   -1
100
AcDbLine
 10
-19.67924185778656
 20
-907.2426319129643
 11
-63.2900250921748
 21
-896.0514475512221
  0
LINE
  5
31A
100
AcDbEntity
  8
AUTH_GROUND
  6
ByLayer
 62
  256
370
   -1
100
AcDbLine
 10
-63.2900250921748
 20
-896.0514475512221
 11
-100.6806007417649
 21
-898.3988861285818
  0
LINE
  5
31B
100
AcDbEntity
  8
AUTH_GROUND
  6
ByLayer
 62
  256
370
   -1
100
AcDbLine
 10
-100.6806007417649
 20
-898.3988861285818
 11
-174.0194401986571
 21
-924.7168489899698
  0
LINE
  5
31C
100
AcDbEntity
  8
AUTH_GROUND
  6
ByLayer
 62
  256
370
   -1
100
AcDbLine
 10
-174.0194401986571
 20
-924.7168489899698
 11
-291.2647882482349
 21
-592.9775519787411
  0
LINE
  5
31D
100
AcDbEntity
  8
AUTH_GROUND
  6
ByLayer
 62
  256
370
   -1
100
AcDbLine
 10
-291.2647882482349
 20
-592.9775519787411
 11
-168.7516451304771
 21
-489.5024575876826
  0
LINE
  5
31E
100
AcDbEntity
  8
AUTH_GROUND
  6
ByLayer
 62
  256
370
   -1
100
AcDbLine
 10
134.4950654509594
 20
698.5716163065754
 11
54.64533648880661
 21
681.2683577409579
  0
LINE
  5
31F
100
AcDbEntity
  8
AUTH_GROUND
  6
ByLayer
 62
  256
370
   -1
100
AcDbLine
 10
54.64533648880661
 20
681.2683577409579
 11
25.19578915459033
 21
663.4902795267892
  0
LINE
  5
320
100
AcDbEntity
  8
AUTH_GROUND
  6
ByLayer
 62
  256
370
   -1
100
AcDbLine
 10
25.19578915459033
 20
663.4902795267892
 11
17.58260706410647
 21
654.0689611039753
  0
LINE
  5
321
100
AcDbEntity
  8
AUTH_GROUND
  6
ByLayer
 62
  256
370
   -1
100
AcDbLine
 10
17.58260706410647
 20
654.0689611039753
 11
-13.96364695798138
 21
567.2400444413474
  0
LINE
  5
322
100
AcDbEntity
  8
AUTH_GROUND
  6
ByLayer
 62
  256
370
   -1
100
AcDbLine
 10
-13.96364695798138
 20
567.2400444413474
 11
-36.79098145397393
 21
462.6391554522794
  0
LINE
  5
323
100
AcDbEntity
  8
AUTH_GROUND
  6
ByLayer
 62
  256
370
   -1
100
AcDbLine
 10
-36.79098145397393
 20
462.6391554522794
 11
-61.42112759953989
 21
449.7856971760381
  0
LINE
  5
324
100
AcDbEntity
  8
AUTH_GROUND
  6
ByLayer
 62
  256
370
   -1
100
AcDbLine
 10
-61.42112759953989
 20
449.7856971760381
 11
-92.40670707304844
 21
458.4172599401109
  0
LINE
  5
325
100
AcDbEntity
  8
AUTH_GROUND
  6
ByLayer
 62
  256
370
   -1
100
AcDbLine
 10
-36.79098145397393
 20
462.6391554522794
 11
-64.41629626516988
 21
309.3312941520373
  0
POINT
  5
326
100
AcDbEntity
  8
AUTH_GROUND_POINTS
  6
ByLayer
 62
  256
370
   -1
100
AcDbPoint
 10
-88.46629844849076
 20
1221.35608280751
  0
LINE
  5
327
100
AcDbEntity
  8
AUTH_GROUND_POINTS
  6
ByLayer
 62
  256
370
   -1
100
AcDbLine
 10
-179.3792704741409
 20
1130.44311078186
 11
2.446673577159359
 21
1312.26905483316
  0
LINE
  5
328
100
AcDbEntity
  8
AUTH_GROUND_POINTS
  6
ByLayer
 62
  256
370
   -1
100
AcDbLine
 10
-179.3792704741409
 20
1312.26905483316
 11
2.446673577159359
 21
1130.44311078186
  0
POINT
  5
329
100
AcDbEntity
  8
AUTH_GROUND_POINTS
  6
ByLayer
 62
  256
370
   -1
100
AcDbPoint
 10
21.13084415950925
 20
658.4599071128998
  0
LINE
  5
32A
100
AcDbEntity
  8
AUTH_GROUND_POINTS
  6
ByLayer
 62
  256
370
   -1
100
AcDbLine
 10
-69.78212786614087
 20
567.5469350872497
 11
112.0438161851594
 21
749.3728791385499
  0
LINE
  5
32B
100
AcDbEntity
  8
AUTH_GROUND_POINTS
  6
ByLayer
 62
  256
370
   -1
100
AcDbLine
 10
-69.78212786614087
 20
749.3728791385499
 11
112.0438161851594
 21
567.5469350872497
  0
POINT
  5
32C
100
AcDbEntity
  8
AUTH_GROUND_POINTS
  6
ByLayer
 62
  256
370
   -1
100
AcDbPoint
 10
130.7943807080796
 20
27.77630031317926
  0
LINE
  5
32D
100
AcDbEntity
  8
AUTH_GROUND_POINTS
  6
ByLayer
 62
  256
370
   -1
100
AcDbLine
 10
39.88140868242952
 20
-63.13667171247086
 11
221.7073527337297
 21
118.6892723388294
  0
LINE
  5
32E
100
AcDbEntity
  8
AUTH_GROUND_POINTS
  6
ByLayer
 62
  256
370
   -1
100
AcDbLine
 10
39.88140868242952
 20
118.6892723388294
 11
221.7073527337297
 21
-63.13667171247086
  0
POINT
  5
32F
100
AcDbEntity
  8
AUTH_GROUND_POINTS
  6
ByLayer
 62
  256
370
   -1
100
AcDbPoint
 10
-159.3234238978084
 20
-125.0156624537033
  0
LINE
  5
330
100
AcDbEntity
  8
AUTH_GROUND_POINTS
  6
ByLayer
 62
  256
370
   -1
100
AcDbLine
 10
-250.2363959234585
 20
-215.9286344793534
 11
-68.4104518721583
 21
-34.10269042805315
  0
LINE
  5
331
100
AcDbEntity
  8
AUTH_GROUND_POINTS
  6
ByLayer
 62
  256
370
   -1
100
AcDbLine
 10
-250.2363959234585
 20
-34.10269042805315
 11
-68.4104518721583
 21
-215.9286344793534
  0
POINT
  5
332
100
AcDbEntity
  8
AUTH_GROUND_POINTS
  6
ByLayer
 62
  256
370
   -1
100
AcDbPoint
 10
-180.8479632244002
 20
-128.7951080106166
  0
LINE
  5
333
100
AcDbEntity
  8
AUTH_GROUND_POINTS
  6
ByLayer
 62
  256
370
   -1
100
AcDbLine
 10
-271.7609352500504
 20
-219.7080800362667
 11
-89.93499119875013
 21
-37.88213598496644
  0
LINE
  5
334
100
AcDbEntity
  8
AUTH_GROUND_POINTS
  6
ByLayer
 62
  256
370
   -1
100
AcDbLine
 10
-271.7609352500504
 20
-37.88213598496644
 11
-89.93499119875013
 21
-219.7080800362667
  0
POINT
  5
335
100
AcDbEntity
  8
AUTH_GROUND_POINTS
  6
ByLayer
 62
  256
370
   -1
100
AcDbPoint
 10
19.31743796681576
 20
-921.7813204379142
  0
LINE
  5
336
100
AcDbEntity
  8
AUTH_GROUND_POINTS
  6
ByLayer
 62
  256
370
   -1
100
AcDbLine
 10
-71.59553405883436
 20
-1012.694292463564
 11
110.2304099924659
 21
-830.8683484122641
  0
LINE
  5
337
100
AcDbEntity
  8
AUTH_GROUND_POINTS
  6
ByLayer
 62
  256
370
   -1
100
AcDbLine
 10
-71.59553405883436
 20
-830.8683484122641
 11
110.2304099924659
 21
-1012.694292463564
  0
LINE
  5
338
100
AcDbEntity
  8
AUTH_VFR_CIRCUIT
  6
ByLayer
 62
  256
370
   -1
100
AcDbLine
 10
-2214.463361851171
 20
1425.494732228955
 11
-2030.791503888069
 21
1496.733229258154
  0
LINE
  5
339
100
AcDbEntity
  8
AUTH_VFR_CIRCUIT
  6
ByLayer
 62
  256
370
   -1
100
AcDbLine
 10
-2169.134293480687
 20
-2592.972014074668
 11
-2214.463361851171
 21
1425.494732228955
  0
LINE
  5
33A
100
AcDbEntity
  8
AUTH_VFR_CIRCUIT
  6
ByLayer
 62
  256
370
   -1
100
AcDbLine
 10
-2109.365722406684
 20
-2671.963038314711
 11
-2169.134293480687
 21
-2592.972014074668
  0
LINE
  5
33B
100
AcDbEntity
  8
AUTH_VFR_CIRCUIT
  6
ByLayer
 62
  256
370
   -1
100
AcDbLine
 10
506.2076396196517
 20
-3071.568356883926
 11
-2109.365722406684
 21
-2671.963038314711
  0
LINE
  5
33C
100
AcDbEntity
  8
AUTH_VFR_CIRCUIT
  6
ByLayer
 62
  256
370
   -1
100
AcDbLine
 10
542.5155709906721
 20
-2923.383803117265
 11
506.2076396196517
 21
-3071.568356883926
  0
LINE
  5
33D
100
AcDbEntity
  8
AUTH_VFR_CIRCUIT
  6
ByLayer
 62
  256
370
   -1
100
AcDbLine
 10
542.5155709906721
 20
-2923.383803117265
 11
-357.8258472075058
 21
1872.125301497304
  0
LINE
  5
33E
100
AcDbEntity
  8
AUTH_VFR_CIRCUIT
  6
ByLayer
 62
  256
370
   -1
100
AcDbLine
 10
588.9727006676767
 20
-3045.58016257275
 11
542.5155709906721
 21
-2923.383803117265
  0
LINE
  5
33F
100
AcDbEntity
  8
AUTH_VFR_CIRCUIT
  6
ByLayer
 62
  256
370
   -1
100
AcDbLine
 10
679.6223209736318
 20
-3081.265644139471
 11
588.9727006676767
 21
-3045.58016257275
  0
LINE
  5
340
100
AcDbEntity
  8
AUTH_VFR_CIRCUIT
  6
ByLayer
 62
  256
370
   -1
100
AcDbLine
 10
864.4482393951494
 20
-3087.722236766294
 11
679.6223209736318
 21
-3081.265644139471
  0
LINE
  5
341
100
AcDbEntity
  8
AUTH_VFR_CIRCUIT
  6
ByLayer
 62
  256
370
   -1
100
AcDbLine
 10
2870.170698911208
 20
-2309.191452358587
 11
864.4482393951494
 21
-3087.722236766294
  0
LINE
  5
342
100
AcDbEntity
  8
AUTH_VFR_CIRCUIT
  6
ByLayer
 62
  256
370
   -1
100
AcDbLine
 10
3154.641038592566
 20
-2183.918000393108
 11
2870.170698911208
 21
-2309.191452358587
  0
LINE
  5
343
100
AcDbEntity
  8
AUTH_VFR_CIRCUIT
  6
ByLayer
 62
  256
370
   -1
100
AcDbLine
 10
3191.659935994393
 20
-2076.602933223034
 11
3154.641038592566
 21
-2183.918000393108
  0
LINE
  5
344
100
AcDbEntity
  8
AUTH_VFR_CIRCUIT
  6
ByLayer
 62
  256
370
   -1
100
AcDbLine
 10
1270.424251601783
 20
2547.182621647837
 11
3191.659935994393
 21
-2076.602933223034
  0
LINE
  5
345
100
AcDbEntity
  8
AUTH_VFR_CIRCUIT
  6
ByLayer
 62
  256
370
   -1
100
AcDbLine
 10
1128.024794703217
 20
2580.47702970269
 11
1270.424251601783
 21
2547.182621647837
  0
LINE
  5
346
100
AcDbEntity
  8
AUTH_VFR_CIRCUIT
  6
ByLayer
 62
  256
370
   -1
100
AcDbLine
 10
109.0863530838224
 20
2167.448411969188
 11
1128.024794703217
 21
2580.47702970269
  0
LINE
  5
347
100
AcDbEntity
  8
AUTH_VFR_CIRCUIT
  6
ByLayer
 62
  256
370
   -1
100
AcDbLine
 10
-289.5417086845027
 20
1980.782207031309
 11
109.0863530838224
 21
2167.448411969188
  0
LINE
  5
348
100
AcDbEntity
  8
AUTH_VFR_CIRCUIT
  6
ByLayer
 62
  256
370
   -1
100
AcDbLine
 10
-357.8258472075058
 20
1872.125301497304
 11
-289.5417086845027
 21
1980.782207031309
  0
LINE
  5
349
100
AcDbEntity
  8
AUTH_VFR_CIRCUIT
  6
ByLayer
 62
  256
370
   -1
100
AcDbLine
 10
-519.3297671706187
 20
1895.181124494269
 11
-357.8258472075058
 21
1872.125301497304
  0
LINE
  5
34A
100
AcDbEntity
  8
AUTH_VFR_CIRCUIT
  6
ByLayer
 62
  256
370
   -1
100
AcDbLine
 10
-2030.791503888069
 20
1496.733229258154
 11
-519.3297671706187
 21
1895.181124494269
  0
LINE
  5
34B
100
AcDbEntity
  8
AUTH_VFR_CIRCUIT
  6
ByLayer
 62
  256
370
   -1
100
AcDbLine
 10
1408.531663829858
 20
2214.803277006071
 11
1192.336565741947
 21
2249.623511803888
  0
LINE
  5
34C
100
AcDbEntity
  8
AUTH_VFR_CIRCUIT
  6
ByLayer
 62
  256
370
   -1
100
AcDbLine
 10
1192.336565741947
 20
2249.623511803888
 11
-35.73068212043017
 21
1677.196724086549
  0
LINE
  5
34D
100
AcDbEntity
  8
AUTH_VFR_CIRCUIT
  6
ByLayer
 62
  256
370
   -1
100
AcDbLine
 10
-35.73068212043017
 20
1677.196724086549
 11
-103.4112151878444
 21
1562.623136100709
  0
LINE
  5
34E
100
AcDbEntity
  8
AUTH_VFR_CIRCUIT
  6
ByLayer
 62
  256
370
   -1
100
AcDbLine
 10
-103.4112151878444
 20
1562.623136100709
 11
-70.15251794606138
 21
1391.07149953121
  0
LINE
  5
34F
100
AcDbEntity
  8
AUTH_VFR_CIRCUIT
  6
ByLayer
 62
  256
370
   -1
100
AcDbLine
 10
-70.15251794606138
 20
1391.07149953121
 11
-20.49668963754266
 21
1216.172271529866
  0
LINE
  5
350
100
AcDbEntity
  8
AUTH_VFR_CIRCUIT
  6
ByLayer
 62
  256
370
   -1
100
AcDbLine
 10
-20.49668963754266
 20
1216.172271529866
 11
622.0029122730075
 21
-2219.943501541414
  0
LINE
  5
351
100
AcDbEntity
  8
AUTH_VFR_CIRCUIT
  6
ByLayer
 62
  256
370
   -1
100
AcDbLine
 10
622.0029122730075
 20
-2219.943501541414
 11
666.2600677604887
 21
-2331.250955918104
  0
LINE
  5
352
100
AcDbEntity
  8
AUTH_VFR_CIRCUIT
  6
ByLayer
 62
  256
370
   -1
100
AcDbLine
 10
666.2600677604887
 20
-2331.250955918104
 11
747.3448100228115
 21
-2427.185800107132
  0
LINE
  5
353
100
AcDbEntity
  8
AUTH_VFR_CIRCUIT
  6
ByLayer
 62
  256
370
   -1
100
AcDbLine
 10
747.3448100228115
 20
-2427.185800107132
 11
850.6706660420568
 21
-2487.391933004686
  0
LINE
  5
354
100
AcDbEntity
  8
AUTH_VFR_CIRCUIT
  6
ByLayer
 62
  256
370
   -1
100
AcDbLine
 10
850.6706660420568
 20
-2487.391933004686
 11
961.6511628003063
 21
-2491.513253506955
  0
LINE
  5
355
100
AcDbEntity
  8
AUTH_VFR_CIRCUIT
  6
ByLayer
 62
  256
370
   -1
100
AcDbLine
 10
961.6511628003063
 20
-2491.513253506955
 11
2855.571341126823
 21
-1962.564946512844
  0
LINE
  5
356
100
AcDbEntity
  8
AUTH_VFR_CIRCUIT
  6
ByLayer
 62
  256
370
   -1
100
AcDbLine
 10
2855.571341126823
 20
-1962.564946512844
 11
2958.799624856893
 21
-1889.742791234299
  0
LINE
  5
357
100
AcDbEntity
  8
AUTH_VFR_CIRCUIT
  6
ByLayer
 62
  256
370
   -1
100
AcDbLine
 10
2958.799624856893
 20
-1889.742791234299
 11
3052.135481908942
 21
-1740.813232567177
  0
LINE
  5
358
100
AcDbEntity
  8
AUTH_VFR_CIRCUIT
  6
ByLayer
 62
  256
370
   -1
100
AcDbLine
 10
-2205.242554679985
 20
608.0610561462872
 11
-2084.920413909946
 21
748.8791218644383
  0
LINE
  5
359
100
AcDbEntity
  8
AUTH_VFR_CIRCUIT
  6
ByLayer
 62
  256
370
   -1
100
AcDbLine
 10
-2084.920413909946
 20
748.8791218644383
 11
-660.5490613115735
 21
1450.66179772897
  0
LINE
  5
35A
100
AcDbEntity
  8
AUTH_VFR_CIRCUIT
  6
ByLayer
 62
  256
370
   -1
100
AcDbLine
 10
-660.5490613115735
 20
1450.66179772897
 11
-568.7397529059417
 21
1424.486758065021
  0
LINE
  5
35B
100
AcDbEntity
  8
AUTH_VFR_CIRCUIT
  6
ByLayer
 62
  256
370
   -1
100
AcDbLine
 10
-568.7397529059417
 20
1424.486758065021
 11
-509.0303702110514
 21
1296.243402600099
  0
LINE
  5
35C
100
AcDbEntity
  8
AUTH_VFR_CIRCUIT
  6
ByLayer
 62
  256
370
   -1
100
AcDbLine
 10
-509.0303702110514
 20
1296.243402600099
 11
-475.4240772044741
 21
1153.734628948308
  0
LINE
  5
35D
100
AcDbEntity
  8
AUTH_VFR_CIRCUIT
  6
ByLayer
 62
  256
370
   -1
100
AcDbLine
 10
-475.4240772044741
 20
1153.734628948308
 11
108.1002417693644
 21
-1960.658539264378
  0
LINE
  5
35E
100
AcDbEntity
  8
AUTH_VFR_CIRCUIT
  6
ByLayer
 62
  256
370
   -1
100
AcDbLine
 10
108.1002417693644
 20
-1960.658539264378
 11
126.5145726234405
 21
-2086.020869518897
  0
LINE
  5
35F
100
AcDbEntity
  8
AUTH_VFR_CIRCUIT
  6
ByLayer
 62
  256
370
   -1
100
AcDbLine
 10
126.5145726234405
 20
-2086.020869518897
 11
118.571281925294
 21
-2207.958044013129
  0
LINE
  5
360
100
AcDbEntity
  8
AUTH_VFR_CIRCUIT
  6
ByLayer
 62
  256
370
   -1
100
AcDbLine
 10
118.571281925294
 20
-2207.958044013129
 11
50.48611932334916
 21
-2270.789533677132
  0
LINE
  5
361
100
AcDbEntity
  8
AUTH_VFR_CIRCUIT
  6
ByLayer
 62
  256
370
   -1
100
AcDbLine
 10
50.48611932334916
 20
-2270.789533677132
 11
-2005.602404803934
 21
-2547.367547725838
  0
LINE
  5
362
100
AcDbEntity
  8
AUTH_VFR_CIRCUIT
  6
ByLayer
 62
  256
370
   -1
100
AcDbLine
 10
-2005.602404803934
 20
-2547.367547725838
 11
-2170.553131166664
 21
-2467.190649831736
  0
POINT
  5
363
100
AcDbEntity
  8
AUTH_VFR_CIRCUIT_POINTS
  6
ByLayer
 62
  256
370
   -1
100
AcDbPoint
 10
-240.9019850665136
 20
1249.351058181963
  0
LINE
  5
364
100
AcDbEntity
  8
AUTH_VFR_CIRCUIT_POINTS
  6
ByLayer
 62
  256
370
   -1
100
AcDbLine
 10
-331.8149570921637
 20
1158.438086156313
 11
-149.9890130408635
 21
1340.264030207613
  0
LINE
  5
365
100
AcDbEntity
  8
AUTH_VFR_CIRCUIT_POINTS
  6
ByLayer
 62
  256
370
   -1
100
AcDbLine
 10
-331.8149570921637
 20
1340.264030207613
 11
-149.9890130408635
 21
1158.438086156313
  0
POINT
  5
366
100
AcDbEntity
  8
AUTH_VFR_CIRCUIT_POINTS
  6
ByLayer
 62
  256
370
   -1
100
AcDbPoint
 10
312.3966067596093
 20
-1697.695896497343
  0
LINE
  5
367
100
AcDbEntity
  8
AUTH_VFR_CIRCUIT_POINTS
  6
ByLayer
 62
  256
370
   -1
100
AcDbLine
 10
221.4836347339592
 20
-1788.608868522993
 11
403.3095787852594
 21
-1606.782924471693
  0
LINE
  5
368
100
AcDbEntity
  8
AUTH_VFR_CIRCUIT_POINTS
  6
ByLayer
 62
  256
370
   -1
100
AcDbLine
 10
221.4836347339592
 20
-1606.782924471693
 11
403.3095787852594
 21
-1788.608868522993
  0
POINT
  5
369
100
AcDbEntity
  8
AUTH_VFR_CIRCUIT_POINTS
  6
ByLayer
 62
  256
370
   -1
100
AcDbPoint
 10
463.5810637499189
 20
330.6041683300136
  0
LINE
  5
36A
100
AcDbEntity
  8
AUTH_VFR_CIRCUIT_POINTS
  6
ByLayer
 62
  256
370
   -1
100
AcDbLine
 10
372.6680917242688
 20
239.6911963043635
 11
554.494035775569
 21
421.5171403556637
  0
LINE
  5
36B
100
AcDbEntity
  8
AUTH_VFR_CIRCUIT_POINTS
  6
ByLayer
 62
  256
370
   -1
100
AcDbLine
 10
372.6680917242688
 20
421.5171403556637
 11
554.494035775569
 21
239.6911963043635
  0
POINT
  5
36C
100
AcDbEntity
  8
AUTH_VFR_CIRCUIT_POINTS
  6
ByLayer
 62
  256
370
   -1
100
AcDbPoint
 10
1128.024794703217
 20
2580.47702970269
  0
LINE
  5
36D
100
AcDbEntity
  8
AUTH_VFR_CIRCUIT_POINTS
  6
ByLayer
 62
  256
370
   -1
100
AcDbLine
 10
1037.111822677567
 20
2489.56405767704
 11
1218.937766728867
 21
2671.39000172834
  0
LINE
  5
36E
100
AcDbEntity
  8
AUTH_VFR_CIRCUIT_POINTS
  6
ByLayer
 62
  256
370
   -1
100
AcDbLine
 10
1037.111822677567
 20
2671.39000172834
 11
1218.937766728867
 21
2489.56405767704
  0
POINT
  5
36F
100
AcDbEntity
  8
AUTH_VFR_CIRCUIT_POINTS
  6
ByLayer
 62
  256
370
   -1
100
AcDbPoint
 10
-2109.365722406684
 20
-2671.963038314711
  0
LINE
  5
370
100
AcDbEntity
  8
AUTH_VFR_CIRCUIT_POINTS
  6
ByLayer
 62
  256
370
   -1
100
AcDbLine
 10
-2200.278694432334
 20
-2762.876010340362
 11
-2018.452750381034
 21
-2581.050066289061
  0
LINE
  5
371
100
AcDbEntity
  8
AUTH_VFR_CIRCUIT_POINTS
  6
ByLayer
 62
  256
370
   -1
100
AcDbLine
 10
-2200.278694432334
 20
-2581.050066289061
 11
-2018.452750381034
 21
-2762.876010340362
  0
POINT
  5
372
100
AcDbEntity
  8
AUTH_PROCEDURE_ANCHORS
  6
ByLayer
 62
  256
370
   -1
100
AcDbPoint
 10
-240.9019850665136
 20
1249.351058181963
  0
LINE
  5
373
100
AcDbEntity
  8
AUTH_PROCEDURE_ANCHORS
  6
ByLayer
 62
  256
370
   -1
100
AcDbLine
 10
-354.5432000985762
 20
1135.7098431499
 11
-127.2607700344509
 21
1362.992273214026
  0
LINE
  5
374
100
AcDbEntity
  8
AUTH_PROCEDURE_ANCHORS
  6
ByLayer
 62
  256
370
   -1
100
AcDbLine
 10
-354.5432000985762
 20
1362.992273214026
 11
-127.2607700344509
 21
1135.7098431499
  0
TEXT
  5
375
100
AcDbEntity
  8
AUTH_PROCEDURE_ANCHOR_LABELS
  6
ByLayer
 62
  256
370
   -1
100
AcDbText
 10
-70.44016251841961
 20
1419.812880730057
 30
0
 40
145.4607552410402
  1
vfr_circuit_point_1
 50
0
 41
1
 51
0
  7
STANDARD
 71
    0
210
0
220
0
230
1
100
AcDbText
  0
POINT
  5
376
100
AcDbEntity
  8
AUTH_PROCEDURE_ANCHORS
  6
ByLayer
 62
  256
370
   -1
100
AcDbPoint
 10
312.3966067596093
 20
-1697.695896497343
  0
LINE
  5
377
100
AcDbEntity
  8
AUTH_PROCEDURE_ANCHORS
  6
ByLayer
 62
  256
370
   -1
100
AcDbLine
 10
198.7553917275467
 20
-1811.337111529406
 11
426.0378217916719
 21
-1584.05468146528
  0
LINE
  5
378
100
AcDbEntity
  8
AUTH_PROCEDURE_ANCHORS
  6
ByLayer
 62
  256
370
   -1
100
AcDbLine
 10
198.7553917275467
 20
-1584.05468146528
 11
426.0378217916719
 21
-1811.337111529406
  0
TEXT
  5
379
100
AcDbEntity
  8
AUTH_PROCEDURE_ANCHOR_LABELS
  6
ByLayer
 62
  256
370
   -1
100
AcDbText
 10
482.8584293077033
 20
-1527.234073949249
 30
0
 40
145.4607552410402
  1
vfr_circuit_point_2
 50
0
 41
1
 51
0
  7
STANDARD
 71
    0
210
0
220
0
230
1
100
AcDbText
  0
POINT
  5
37A
100
AcDbEntity
  8
AUTH_PROCEDURE_ANCHORS
  6
ByLayer
 62
  256
370
   -1
100
AcDbPoint
 10
463.5810637499189
 20
330.6041683300136
  0
LINE
  5
37B
100
AcDbEntity
  8
AUTH_PROCEDURE_ANCHORS
  6
ByLayer
 62
  256
370
   -1
100
AcDbLine
 10
349.9398487178563
 20
216.962953297951
 11
577.2222787819816
 21
444.2453833620763
  0
LINE
  5
37C
100
AcDbEntity
  8
AUTH_PROCEDURE_ANCHORS
  6
ByLayer
 62
  256
370
   -1
100
AcDbLine
 10
349.9398487178563
 20
444.2453833620763
 11
577.2222787819816
 21
216.962953297951
  0
TEXT
  5
37D
100
AcDbEntity
  8
AUTH_PROCEDURE_ANCHOR_LABELS
  6
ByLayer
 62
  256
370
   -1
100
AcDbText
 10
634.0428862980129
 20
501.0659908781076
 30
0
 40
145.4607552410402
  1
vfr_circuit_point_3
 50
0
 41
1
 51
0
  7
STANDARD
 71
    0
210
0
220
0
230
1
100
AcDbText
  0
POINT
  5
37E
100
AcDbEntity
  8
AUTH_PROCEDURE_ANCHORS
  6
ByLayer
 62
  256
370
   -1
100
AcDbPoint
 10
1128.024794703217
 20
2580.47702970269
  0
LINE
  5
37F
100
AcDbEntity
  8
AUTH_PROCEDURE_ANCHORS
  6
ByLayer
 62
  256
370
   -1
100
AcDbLine
 10
1014.383579671154
 20
2466.835814670627
 11
1241.666009735279
 21
2694.118244734752
  0
LINE
  5
380
100
AcDbEntity
  8
AUTH_PROCEDURE_ANCHORS
  6
ByLayer
 62
  256
370
   -1
100
AcDbLine
 10
1014.383579671154
 20
2694.118244734752
 11
1241.666009735279
 21
2466.835814670627
  0
TEXT
  5
381
100
AcDbEntity
  8
AUTH_PROCEDURE_ANCHOR_LABELS
  6
ByLayer
 62
  256
370
   -1
100
AcDbText
 10
1298.486617251311
 20
2750.938852250784
 30
0
 40
145.4607552410402
  1
NE
 50
0
 41
1
 51
0
  7
STANDARD
 71
    0
210
0
220
0
230
1
100
AcDbText
  0
POINT
  5
382
100
AcDbEntity
  8
AUTH_PROCEDURE_ANCHORS
  6
ByLayer
 62
  256
370
   -1
100
AcDbPoint
 10
-2205.242554679985
 20
608.0610561462872
  0
LINE
  5
383
100
AcDbEntity
  8
AUTH_PROCEDURE_ANCHORS
  6
ByLayer
 62
  256
370
   -1
100
AcDbLine
 10
-2318.883769712048
 20
494.4198411142246
 11
-2091.601339647923
 21
721.7022711783499
  0
LINE
  5
384
100
AcDbEntity
  8
AUTH_PROCEDURE_ANCHORS
  6
ByLayer
 62
  256
370
   -1
100
AcDbLine
 10
-2318.883769712048
 20
721.7022711783499
 11
-2091.601339647923
 21
494.4198411142246
  0
TEXT
  5
385
100
AcDbEntity
  8
AUTH_PROCEDURE_ANCHOR_LABELS
  6
ByLayer
 62
  256
370
   -1
100
AcDbText
 10
-2034.780732131891
 20
778.5228786943812
 30
0
 40
145.4607552410402
  1
NW / AUTOBAHN-WEST
 50
0
 41
1
 51
0
  7
STANDARD
 71
    0
210
0
220
0
230
1
100
AcDbText
  0
POINT
  5
386
100
AcDbEntity
  8
AUTH_PROCEDURE_ANCHORS
  6
ByLayer
 62
  256
370
   -1
100
AcDbPoint
 10
3052.135481908942
 20
-1740.813232567177
  0
LINE
  5
387
100
AcDbEntity
  8
AUTH_PROCEDURE_ANCHORS
  6
ByLayer
 62
  256
370
   -1
100
AcDbLine
 10
2938.494266876879
 20
-1854.45444759924
 11
3165.776696941005
 21
-1627.172017535114
  0
LINE
  5
388
100
AcDbEntity
  8
AUTH_PROCEDURE_ANCHORS
  6
ByLayer
 62
  256
370
   -1
100
AcDbLine
 10
2938.494266876879
 20
-1627.172017535114
 11
3165.776696941005
 21
-1854.45444759924
  0
TEXT
  5
389
100
AcDbEntity
  8
AUTH_PROCEDURE_ANCHOR_LABELS
  6
ByLayer
 62
  256
370
   -1
100
AcDbText
 10
3222.597304457036
 20
-1570.351410019083
 30
0
 40
145.4607552410402
  1
SE
 50
0
 41
1
 51
0
  7
STANDARD
 71
    0
210
0
220
0
230
1
100
AcDbText
  0
POINT
  5
38A
100
AcDbEntity
  8
AUTH_PROCEDURE_ANCHORS
  6
ByLayer
 62
  256
370
   -1
100
AcDbPoint
 10
-2109.365722406684
 20
-2671.963038314711
  0
LINE
  5
38B
100
AcDbEntity
  8
AUTH_PROCEDURE_ANCHORS
  6
ByLayer
 62
  256
370
   -1
100
AcDbLine
 10
-2223.006937438747
 20
-2785.604253346774
 11
-1995.724507374621
 21
-2558.321823282649
  0
LINE
  5
38C
100
AcDbEntity
  8
AUTH_PROCEDURE_ANCHORS
  6
ByLayer
 62
  256
370
   -1
100
AcDbLine
 10
-2223.006937438747
 20
-2558.321823282649
 11
-1995.724507374621
 21
-2785.604253346774
  0
TEXT
  5
38D
100
AcDbEntity
  8
AUTH_PROCEDURE_ANCHOR_LABELS
  6
ByLayer
 62
  256
370
   -1
100
AcDbText
 10
-1938.90389985859
 20
-2501.501215766617
 30
0
 40
145.4607552410402
  1
SW
 50
0
 41
1
 51
0
  7
STANDARD
 71
    0
210
0
220
0
230
1
100
AcDbText
  0
LINE
  5
38E
100
AcDbEntity
  8
AUTH_VFR_OP_SECTORS
  6
ByLayer
 62
  256
370
   -1
100
AcDbLine
 10
-8578.417539
 20
-18887.848961
 11
-11753.901186
 21
-2260.920151
  0
LINE
  5
38F
100
AcDbEntity
  8
AUTH_VFR_OP_SECTORS
  6
ByLayer
 62
  256
370
   -1
100
AcDbLine
 10
-4532.693056
 20
-4667.093419
 11
-7686.584078
 21
-4489.660204
  0
LINE
  5
390
100
AcDbEntity
  8
AUTH_VFR_OP_SECTORS
  6
ByLayer
 62
  256
370
   -1
100
AcDbLine
 10
-7686.584078
 20
-4489.660204
 11
-11753.901186
 21
-2260.920151
  0
LINE
  5
391
100
AcDbEntity
  8
AUTH_VFR_OP_SECTORS
  6
ByLayer
 62
  256
370
   -1
100
AcDbLine
 10
-8578.417539
 20
-18887.848961
 11
-4532.693056
 21
-4667.093419
  0
LINE
  5
392
100
AcDbEntity
  8
AUTH_VFR_OP_SECTORS
  6
ByLayer
 62
  256
370
   -1
100
AcDbLine
 10
3960.774328
 20
-2625.436312
 11
20177.658885
 21
2618.173893
  0
LINE
  5
393
100
AcDbEntity
  8
AUTH_VFR_OP_SECTORS
  6
ByLayer
 62
  256
370
   -1
100
AcDbLine
 10
20177.658885
 20
2618.173893
 11
24944.451028
 21
-23536.259399
  0
LINE
  5
394
100
AcDbEntity
  8
AUTH_VFR_OP_SECTORS
  6
ByLayer
 62
  256
370
   -1
100
AcDbLine
 10
24944.451028
 20
-23536.259399
 11
17781.348205
 21
-24864.421641
  0
LINE
  5
395
100
AcDbEntity
  8
AUTH_VFR_OP_SECTORS
  6
ByLayer
 62
  256
370
   -1
100
AcDbLine
 10
17781.348205
 20
-24864.421641
 11
16736.088922
 21
-19306.587776
  0
LINE
  5
396
100
AcDbEntity
  8
AUTH_VFR_OP_SECTORS
  6
ByLayer
 62
  256
370
   -1
100
AcDbLine
 10
16736.088922
 20
-19306.587776
 11
3960.774328
 21
-2625.436312
  0
LINE
  5
397
100
AcDbEntity
  8
NEW_Parking
  6
ByLayer
 62
  256
370
   -1
100
AcDbLine
 10
343.3471744149284
 20
-239.42214675013
 11
423.4697835558263
 21
-226.4460008840709
  0
LINE
  5
398
100
AcDbEntity
  8
NEW_Parking
  6
ByLayer
 62
  256
370
   -1
100
AcDbLine
 10
423.4697835558263
 20
-226.4460008840709
 11
415.7639645002199
 21
-178.2846317865307
  0
LINE
  5
399
100
AcDbEntity
  8
NEW_Parking
  6
ByLayer
 62
  256
370
   -1
100
AcDbLine
 10
415.7639645002199
 20
-178.2846317865307
 11
363.2242891210851
 21
-184.7645250832906
  0
LINE
  5
39A
100
AcDbEntity
  8
NEW_Parking
  6
ByLayer
 62
  256
370
   -1
100
AcDbLine
 10
363.2242891210851
 20
-184.7645250832906
 11
370.609820202872
 21
-235.0068628217577
  0
LINE
  5
39B
100
AcDbEntity
  8
NEW_Parking
  6
ByLayer
 62
  256
370
   -1
100
AcDbLine
 10
378.9415121085084
 20
-182.8260675815084
 11
385.9495672265487
 21
-232.5225354007967
  0
LINE
  5
39C
100
AcDbEntity
  8
NEW_Parking
  6
ByLayer
 62
  256
370
   -1
100
AcDbLine
 10
395.3464678253417
 20
-180.8027897097656
 11
403.7254417419667
 21
-229.6436683359062
  0
LINE
  5
39D
100
AcDbEntity
  8
NEW_Parking
  6
ByLayer
 62
  256
370
   -1
100
AcDbLine
 10
331.5739415254563
 20
-176.688525946679
 11
411.9110549724166
 21
-165.8502419468021
  0
LINE
  5
39E
100
AcDbEntity
  8
NEW_Parking
  6
ByLayer
 62
  256
370
   -1
100
AcDbLine
 10
411.9110549724166
 20
-165.8502419468021
 11
405.956558429448
 21
-114.8867568290414
  0
LINE
  5
39F
100
AcDbEntity
  8
NEW_Parking
  6
ByLayer
 62
  256
370
   -1
100
AcDbLine
 10
405.956558429448
 20
-114.8867568290414
 11
354.2925443066322
 21
-120.3158566182186
  0
LINE
  5
3A0
100
AcDbEntity
  8
NEW_Parking
  6
ByLayer
 62
  256
370
   -1
100
AcDbLine
 10
354.2925443066322
 20
-120.3158566182186
 11
361.3903982386155
 21
-172.6659862777549
  0
LINE
  5
3A1
100
AcDbEntity
  8
NEW_Parking
  6
ByLayer
 62
  256
370
   -1
100
AcDbLine
 10
370.1101199714017
 20
-118.6536707009039
 11
376.8282093575624
 21
-170.5832704062907
  0
LINE
  5
3A2
100
AcDbEntity
  8
NEW_Parking
  6
ByLayer
 62
  256
370
   -1
100
AcDbLine
 10
384.0856979058133
 20
-117.1850506467793
 11
391.313192965304
 21
-168.6291005420981
  0
LINE
  5
3A3
100
AcDbEntity
  8
NEW_Parking
  6
ByLayer
 62
  256
370
   -1
100
AcDbLine
 10
319.4771747460628
 20
-112.2309562026144
 11
396.4994168612038
 21
-99.82538322035607
  0
LINE
  5
3A4
100
AcDbEntity
  8
NEW_Parking
  6
ByLayer
 62
  256
370
   -1
100
AcDbLine
 10
396.4994168612038
 20
-99.82538322035607
 11
378.6359272322979
 21
2.276719266429173
  0
LINE
  5
3A5
100
AcDbEntity
  8
NEW_Parking
  6
ByLayer
 62
  256
370
   -1
100
AcDbLine
 10
378.6359272322979
 20
2.276719266429173
 11
300.1752763831568
 21
-9.380873812067193
  0
LINE
  5
3A6
100
AcDbEntity
  8
NEW_Parking
  6
ByLayer
 62
  256
370
   -1
100
AcDbLine
 10
306.348611653024
 20
-42.27546424004868
 11
384.3270642021657
 21
-30.25203419859933
  0
LINE
  5
3A7
100
AcDbEntity
  8
NEW_Parking
  6
ByLayer
 62
  256
370
   -1
100
AcDbLine
 10
312.8215610401278
 20
-76.76654720279384
 11
390.5407046612204
 21
-65.76725368515726
  0
LINE
  5
3A8
100
AcDbEntity
  8
NEW_Parking
  6
ByLayer
 62
  256
370
   -1
100
AcDbLine
 10
332.6730588774979
 20
-4.552390742242407
 11
352.5472317146885
 21
-106.9045336786058
  0
LINE
  5
3A9
100
AcDbEntity
  8
NEW_Parking
  6
ByLayer
 62
  256
370
   -1
100
AcDbLine
 10
350.3681145812268
 20
-1.923279759056431
 11
369.3689761634532
 21
-104.1951425635551
  0
LINE
  5
3AA
100
AcDbEntity
  8
NEW_Parking
  6
ByLayer
 62
  256
370
   -1
100
AcDbLine
 10
363.8606775006039
 20
0.08142968953756169
 11
381.44998165588
 21
-102.249317679474
  0
LINE
  5
3AB
100
AcDbEntity
  8
NEW_Parking
  6
ByLayer
 62
  256
370
   -1
100
AcDbLine
 10
259.7333197147256
 20
206.1139183155632
 11
334.3926134531844
 21
218.0373699729386
  0
LINE
  5
3AC
100
AcDbEntity
  8
NEW_Parking
  6
ByLayer
 62
  256
370
   -1
100
AcDbLine
 10
334.3926134531844
 20
218.0373699729386
 11
363.9962705333355
 21
65.38546868137709
  0
LINE
  5
3AD
100
AcDbEntity
  8
NEW_Parking
  6
ByLayer
 62
  256
370
   -1
100
AcDbLine
 10
363.9962705333355
 20
65.38546868137709
 11
288.5889486601717
 21
52.35682361581837
  0
LINE
  5
3AE
100
AcDbEntity
  8
NEW_Parking
  6
ByLayer
 62
  256
370
   -1
100
AcDbLine
 10
271.2311804133188
 20
144.8476170465666
 11
346.2057930015411
 21
157.1224528235866
  0
LINE
  5
3AF
100
AcDbEntity
  8
NEW_Parking
  6
ByLayer
 62
  256
370
   -1
100
AcDbLine
 10
280.3082363661086
 20
96.48056345135353
 11
355.5185874747866
 21
109.1008256702425
  0
LINE
  5
3B0
100
AcDbEntity
  8
NEW_Parking
  6
ByLayer
 62
  256
370
   -1
100
AcDbLine
 10
317.5872126161036
 20
57.36705444240441
 11
299.0627755272795
 21
149.4042029046714
  0
LINE
  5
3B1
100
AcDbEntity
  8
NEW_Parking
  6
ByLayer
 62
  256
370
   -1
100
AcDbLine
 10
342.8948188035906
 20
61.73962477490219
 11
311.3597724486202
 21
214.358913447325
  0
LINE
  5
3B2
100
AcDbEntity
  8
NEW_Parking
  6
ByLayer
 62
  256
370
   -1
100
AcDbLine
 10
329.8617093812919
 20
244.1035187435647
 11
241.1982329094428
 21
304.8780486201159
  0
LINE
  5
3B3
100
AcDbEntity
  8
NEW_Parking
  6
ByLayer
 62
  256
370
   -1
100
AcDbLine
 10
318.7394867047266
 20
304.690363323802
 11
229.3290548223594
 21
368.1229129962853
  0
LINE
  5
3B4
100
AcDbEntity
  8
NEW_Parking
  6
ByLayer
 62
  256
370
   -1
100
AcDbLine
 10
308.4953342394691
 20
365.5698979744752
 11
217.6288713328851
 21
430.4672903861051
  0
LINE
  5
3B5
100
AcDbEntity
  8
NEW_Parking
  6
ByLayer
 62
  256
370
   -1
100
AcDbLine
 10
199.0571469204647
 20
529.4266440226761
 11
223.0298336721801
 21
559.3307246030658
  0
LINE
  5
3B6
100
AcDbEntity
  8
NEW_Parking
  6
ByLayer
 62
  256
370
   -1
100
AcDbLine
 10
223.0298336721801
 20
559.3307246030658
 11
189.4031329018212
 21
580.8680161897342
  0
LINE
  5
3B7
100
AcDbEntity
  8
NEW_Parking
  6
ByLayer
 62
  256
370
   -1
100
AcDbLine
 10
222.6473422340881
 20
559.5757034277162
 11
446.937737555668
 21
598.8438841119166
  0
LINE
  5
3B8
100
AcDbEntity
  8
NEW_Parking
  6
ByLayer
 62
  256
370
   -1
100
AcDbLine
 10
446.937737555668
 20
598.8438841119166
 11
432.051263867759
 21
682.1401186724448
  0
LINE
  5
3B9
100
AcDbEntity
  8
NEW_Parking
  6
ByLayer
 62
  256
370
   -1
100
AcDbLine
 10
446.937737555668
 20
598.8438841119166
 11
461.6486143313388
 21
518.0411992382777
  0
LINE
  5
3BA
100
AcDbEntity
  8
NEW_Parking
  6
ByLayer
 62
  256
370
   -1
100
AcDbLine
 10
388.9687300568677
 20
673.033241606728
 11
420.3174030330854
 21
499.6523128555802
  0
LINE
  5
3BB
100
AcDbEntity
  8
NEW_Parking
  6
ByLayer
 62
  256
370
   -1
100
AcDbLine
 10
316.4639780336605
 20
668.3046708226058
 11
349.3888412712522
 21
490.895700292391
  0
LINE
  5
3BC
100
AcDbEntity
  8
NEW_Parking
  6
ByLayer
 62
  256
370
   -1
100
AcDbLine
 10
253.7666320812253
 20
657.9718679980424
 11
290.5444048466202
 21
458.8464983111182
  0
LINE
  5
3BD
100
AcDbEntity
  8
NEW_Parking
  6
ByLayer
 62
  256
370
   -1
100
AcDbLine
 10
172.0400979242995
 20
673.3868733721943
 11
253.7666320812253
 21
657.9718679980424
  0
POINT
  5
3BE
100
AcDbEntity
  8
NEW_Parking_Points
  6
ByLayer
 62
    1
370
   -1
100
AcDbPoint
 10
366.7012577736346
 20
-208.4176695102699
  0
POINT
  5
3BF
100
AcDbEntity
  8
NEW_Parking_Points
  6
ByLayer
 62
    1
370
   -1
100
AcDbPoint
 10
382.333938522227
 20
-206.8829003630714
  0
POINT
  5
3C0
100
AcDbEntity
  8
NEW_Parking_Points
  6
ByLayer
 62
    1
370
   -1
100
AcDbPoint
 10
399.7800688153395
 20
-206.6461650423437
  0
POINT
  5
3C1
100
AcDbEntity
  8
NEW_Parking_Points
  6
ByLayer
 62
    1
370
   -1
100
AcDbPoint
 10
419.6988318484915
 20
-202.8775527132284
  0
POINT
  5
3C2
100
AcDbEntity
  8
NEW_Parking_Points
  6
ByLayer
 62
    1
370
   -1
100
AcDbPoint
 10
357.8568324906427
 20
-146.6042179123436
  0
POINT
  5
3C3
100
AcDbEntity
  8
NEW_Parking_Points
  6
ByLayer
 62
    1
370
   -1
100
AcDbPoint
 10
373.5908558368608
 20
-145.5591210132841
  0
POINT
  5
3C4
100
AcDbEntity
  8
NEW_Parking_Points
  6
ByLayer
 62
    1
370
   -1
100
AcDbPoint
 10
387.9433477983428
 20
-144.6431300942863
  0
POINT
  5
3C5
100
AcDbEntity
  8
NEW_Parking_Points
  6
ByLayer
 62
    1
370
   -1
100
AcDbPoint
 10
409.2325970642023
 20
-142.9257933794387
  0
POINT
  5
3C6
100
AcDbEntity
  8
NEW_Parking_Points
  6
ByLayer
 62
    1
370
   -1
100
AcDbPoint
 10
349.0892403821814
 20
-89.09585172555585
  0
POINT
  5
3C7
100
AcDbEntity
  8
NEW_Parking_Points
  6
ByLayer
 62
    1
370
   -1
100
AcDbPoint
 10
366.1691704486877
 20
-86.97223455775931
  0
POINT
  5
3C8
100
AcDbEntity
  8
NEW_Parking_Points
  6
ByLayer
 62
    1
370
   -1
100
AcDbPoint
 10
378.4954865017626
 20
-85.06070722905594
  0
POINT
  5
3C9
100
AcDbEntity
  8
NEW_Parking_Points
  6
ByLayer
 62
    1
370
   -1
100
AcDbPoint
 10
393.3800740364267
 20
-81.99619825128661
  0
POINT
  5
3CA
100
AcDbEntity
  8
NEW_Parking_Points
  6
ByLayer
 62
    1
370
   -1
100
AcDbPoint
 10
342.142788579868
 20
-53.32157152806897
  0
POINT
  5
3CB
100
AcDbEntity
  8
NEW_Parking_Points
  6
ByLayer
 62
    1
370
   -1
100
AcDbPoint
 10
359.3894240130667
 20
-50.48034737082705
  0
POINT
  5
3CC
100
AcDbEntity
  8
NEW_Parking_Points
  6
ByLayer
 62
    1
370
   -1
100
AcDbPoint
 10
372.454471014012
 20
-49.91539253826095
  0
POINT
  5
3CD
100
AcDbEntity
  8
NEW_Parking_Points
  6
ByLayer
 62
    1
370
   -1
100
AcDbPoint
 10
353.3766004248263
 20
-18.11641132387402
  0
POINT
  5
3CE
100
AcDbEntity
  8
NEW_Parking_Points
  6
ByLayer
 62
    1
370
   -1
100
AcDbPoint
 10
366.605857728046
 20
-15.88943202601938
  0
POINT
  5
3CF
100
AcDbEntity
  8
NEW_Parking_Points
  6
ByLayer
 62
    1
370
   -1
100
AcDbPoint
 10
381.7008148291432
 20
-15.2412167037748
  0
POINT
  5
3D0
100
AcDbEntity
  8
NEW_Parking_Points
  6
ByLayer
 62
    1
370
   -1
100
AcDbPoint
 10
335.651540233018
 20
-19.89159262655977
  0
POINT
  5
3D1
100
AcDbEntity
  8
NEW_Parking_Points
  6
ByLayer
 62
    1
370
   -1
100
AcDbPoint
 10
313.3926326033489
 20
78.20748168559857
  0
POINT
  5
3D2
100
AcDbEntity
  8
NEW_Parking_Points
  6
ByLayer
 62
    1
370
   -1
100
AcDbPoint
 10
338.4477381475597
 20
83.2620376089445
  0
POINT
  5
3D3
100
AcDbEntity
  8
NEW_Parking_Points
  6
ByLayer
 62
    1
370
   -1
100
AcDbPoint
 10
360.139008661367
 20
85.27552337770175
  0
POINT
  5
3D4
100
AcDbEntity
  8
NEW_Parking_Points
  6
ByLayer
 62
    1
370
   -1
100
AcDbPoint
 10
304.2304413605655
 20
123.7290784611614
  0
POINT
  5
3D5
100
AcDbEntity
  8
NEW_Parking_Points
  6
ByLayer
 62
    1
370
   -1
100
AcDbPoint
 10
329.7985318845504
 20
125.1213611242084
  0
POINT
  5
3D6
100
AcDbEntity
  8
NEW_Parking_Points
  6
ByLayer
 62
    1
370
   -1
100
AcDbPoint
 10
351.7226690857959
 20
128.6745613630376
  0
POINT
  5
3D7
100
AcDbEntity
  8
NEW_Parking_Points
  6
ByLayer
 62
    1
370
   -1
100
AcDbPoint
 10
317.2964566861776
 20
185.6273074997733
  0
POINT
  5
3D8
100
AcDbEntity
  8
NEW_Parking_Points
  6
ByLayer
 62
    1
370
   -1
100
AcDbPoint
 10
339.6511431648477
 20
190.9216471988834
  0
POINT
  5
3D9
100
AcDbEntity
  8
NEW_Parking_Points
  6
ByLayer
 62
    1
370
   -1
100
AcDbPoint
 10
303.5653194656829
 20
262.1284236781128
  0
POINT
  5
3DA
100
AcDbEntity
  8
NEW_Parking_Points
  6
ByLayer
 62
    1
370
   -1
100
AcDbPoint
 10
294.1140289501169
 20
322.1609821245482
  0
POINT
  5
3DB
100
AcDbEntity
  8
NEW_Parking_Points
  6
ByLayer
 62
    1
370
   -1
100
AcDbPoint
 10
282.2289139802205
 20
384.3295385314726
  0
POINT
  5
3DC
100
AcDbEntity
  8
NEW_Parking_Points
  6
ByLayer
 62
    1
370
   -1
100
AcDbPoint
 10
261.2722212797713
 20
617.3344636230576
  0
POINT
  5
3DD
100
AcDbEntity
  8
NEW_Parking_Points
  6
ByLayer
 62
    1
370
   -1
100
AcDbPoint
 10
280.9507886278809
 20
510.7890775525785
  0
POINT
  5
3DE
100
AcDbEntity
  8
NEW_Parking_Points
  6
ByLayer
 62
    1
370
   -1
100
AcDbPoint
 10
323.8266815802801
 20
628.6322309676818
  0
POINT
  5
3DF
100
AcDbEntity
  8
NEW_Parking_Points
  6
ByLayer
 62
    1
370
   -1
100
AcDbPoint
 10
341.9044373381972
 20
531.2238980806077
  0
POINT
  5
3E0
100
AcDbEntity
  8
NEW_Parking_Points
  6
ByLayer
 62
    1
370
   -1
100
AcDbPoint
 10
394.1078675851741
 20
644.6100787406758
  0
POINT
  5
3E1
100
AcDbEntity
  8
NEW_Parking_Points
  6
ByLayer
 62
    1
370
   -1
100
AcDbPoint
 10
411.9452616842902
 20
545.9563348405369
  0
POINT
  5
3E2
100
AcDbEntity
  8
NEW_Parking_Points
  6
ByLayer
 62
    1
370
   -1
100
AcDbPoint
 10
439.3781090213537
 20
641.1432630505399
  0
POINT
  5
3E3
100
AcDbEntity
  8
NEW_Parking_Points
  6
ByLayer
 62
    1
370
   -1
100
AcDbPoint
 10
453.4492771918788
 20
563.0778388047388
  0
ENDSEC
  0
SECTION
  2
OBJECTS
  0
DICTIONARY
  5
C
330
0
100
AcDbDictionary
281
    1
  3
ACAD_GROUP
350
D
  3
ACAD_IMAGE_DICT
350
3E4
  0
DICTIONARY
  5
D
330
C
100
AcDbDictionary
281
    1
  0
IMAGEDEF_REACTOR
  5
6E
330
6F
100
AcDbRasterImageDefReactor
 90
    2
330
6F
  0
DICTIONARY
  5
3E4
330
C
100
AcDbDictionary
281
    1
  3
lowg_osm_underlay
350
6D
  0
IMAGEDEF
  5
6D
102
{ACAD_REACTORS
330
6E
102
}
100
AcDbRasterImageDef
 90
    0
  1
lowg_osm_underlay.png
 10
4096
 20
7129
 11
1
 21
1
280
    1
281
    0
  0
PLOTSETTINGS
  5
3E5
100
AcDbPlotSettings
  6
1x1
 40
0
 41
0
 42
0
 43
0
  0
ENDSEC
  0
EOF
