0
SECTION
2
HEADER
9
$ACADVER
1
AC1009
9
$INSBASE
10
0
20
0
30
0
9
$EXTMIN
10
-22500.522446
20
-40565.885284
30
0
9
$EXTMAX
10
43265.905909
20
54743.118118
30
0
0
ENDSEC
0
SECTION
2
TABLES
0
TABLE
2
LAYER
70
19
0
LAYER
2
0
70
0
62
7
6
CONTINUOUS
0
LAYER
2
AIRSPACE_LABELS
70
0
62
2
6
CONTINUOUS
0
LAYER
2
ASP_LO0EF
70
0
62
4
6
CONTINUOUS
0
LAYER
2
ASP_LO585
70
0
62
4
6
CONTINUOUS
0
LAYER
2
ASP_LO59D
70
0
62
4
6
CONTINUOUS
0
LAYER
2
ASP_LO80C
70
0
62
4
6
CONTINUOUS
0
LAYER
2
ASP_LOCB1
70
0
62
4
6
CONTINUOUS
0
LAYER
2
ASP_LODDA
70
0
62
4
6
CONTINUOUS
0
LAYER
2
ASP_LOEAB
70
0
62
6
6
CONTINUOUS
0
LAYER
2
ASP_LOF12
70
0
62
6
6
CONTINUOUS
0
LAYER
2
ASP_LOF55
70
0
62
6
6
CONTINUOUS
0
LAYER
2
Background
70
0
62
7
6
CONTINUOUS
0
LAYER
2
RUNWAYS
70
0
62
8
6
CONTINUOUS
0
LAYER
2
RUNWAY_LABELS
70
0
62
8
6
CONTINUOUS
0
LAYER
2
TOWER
70
0
62
7
6
CONTINUOUS
0
LAYER
2
TOWER_LABELS
70
0
62
7
6
CONTINUOUS
0
LAYER
2
VFR Op Sectors
70
0
62
7
6
CONTINUOUS
0
LAYER
2
VFR_LABELS
70
0
62
3
6
CONTINUOUS
0
LAYER
2
VFR_POINTS
70
0
62
3
6
CONTINUOUS
0
ENDTAB
0
ENDSEC
0
SECTION
2
ENTITIES
0
LINE
8
RUNWAYS
10
-240.901985
20
1249.351058
30
0
11
312.396607
21
-1697.695896
31
0
0
LINE
8
RUNWAYS
10
258.063801
20
-273.581329
30
0
11
375.600957
21
-902.175145
31
0
0
LINE
8
RUNWAYS
10
-307.985787
20
260.08093
30
0
11
-167.972838
21
-487.197902
31
0
0
LINE
8
TOWER
10
94.816699
20
-63.306683
30
0
11
886.614574
21
728.491191
31
0
0
LINE
8
TOWER
10
94.816699
20
728.491191
30
0
11
886.614574
21
-63.306683
31
0
0
LINE
8
VFR_POINTS
10
3143.516089
20
2229.537152
30
0
11
3935.313963
21
3021.335026
31
0
0
LINE
8
VFR_POINTS
10
3143.516089
20
3021.335026
30
0
11
3935.313963
21
2229.537152
31
0
0
LINE
8
VFR_POINTS
10
-2797.645062
20
407.175731
30
0
11
-2005.847187
21
1198.973605
31
0
0
LINE
8
VFR_POINTS
10
-2797.645062
20
1198.973605
30
0
11
-2005.847187
21
407.175731
31
0
0
LINE
8
VFR_POINTS
10
20440.301931
20
11959.093233
30
0
11
21232.099806
21
12750.891108
31
0
0
LINE
8
VFR_POINTS
10
20440.301931
20
12750.891108
30
0
11
21232.099806
21
11959.093233
31
0
0
LINE
8
VFR_POINTS
10
-12088.610236
20
15325.827648
30
0
11
-11296.812361
21
16117.625522
31
0
0
LINE
8
VFR_POINTS
10
-12088.610236
20
16117.625522
30
0
11
-11296.812361
21
15325.827648
31
0
0
LINE
8
VFR_POINTS
10
-3828.704044
20
4765.652136
30
0
11
-3036.90617
21
5557.45001
31
0
0
LINE
8
VFR_POINTS
10
-3828.704044
20
5557.45001
30
0
11
-3036.90617
21
4765.652136
31
0
0
LINE
8
VFR_POINTS
10
3564.875391
20
-3021.335249
30
0
11
4356.673265
21
-2229.537374
31
0
0
LINE
8
VFR_POINTS
10
3564.875391
20
-2229.537374
30
0
11
4356.673265
21
-3021.335249
31
0
0
LINE
8
VFR_POINTS
10
11360.016408
20
7171.533398
30
0
11
12151.814283
21
7963.331272
31
0
0
LINE
8
VFR_POINTS
10
11360.016408
20
7963.331272
30
0
11
12151.814283
21
7171.533398
31
0
0
LINE
8
VFR_POINTS
10
-4925.508171
20
-5059.908533
30
0
11
-4133.710297
21
-4268.110659
31
0
0
LINE
8
VFR_POINTS
10
-4925.508171
20
-4268.110659
30
0
11
-4133.710297
21
-5059.908533
31
0
0
LINE
8
ASP_LOF12
10
14684.360067
20
52910.252668
30
0
11
19508.92013
21
27551.631404
31
0
0
LINE
8
ASP_LOF12
10
19508.92013
20
27551.631404
30
0
11
8279.70338
21
25482.170393
31
0
0
LINE
8
ASP_LOF12
10
8279.70338
20
25482.170393
30
0
11
6172.909146
21
36478.113261
31
0
0
LINE
8
ASP_LOF12
10
6172.909146
20
36478.113261
30
0
11
547.766713
21
38115.149434
31
0
0
LINE
8
ASP_LOF12
10
547.766713
20
38115.149434
30
0
11
-3981.84199
21
37281.187484
31
0
0
LINE
8
ASP_LOF12
10
-3981.84199
20
37281.187484
30
0
11
-13346.76628
21
45033.056175
31
0
0
LINE
8
ASP_LOF12
10
-13346.76628
20
45033.056175
30
0
11
-13883.778
21
48400.680149
31
0
0
LINE
8
ASP_LOF12
10
-13883.778
20
48400.680149
30
0
11
-1432.620337
21
50377.479092
31
0
0
LINE
8
ASP_LOF12
10
-1432.620337
20
50377.479092
30
0
11
14684.360067
21
52910.252668
31
0
0
LINE
8
ASP_LO585
10
-14431.544486
20
11644.580016
30
0
11
-10892.128928
21
12324.104444
31
0
0
LINE
8
ASP_LO585
10
-10892.128928
20
12324.104444
30
0
11
4192.521337
21
15196.639678
31
0
0
LINE
8
ASP_LO585
10
4192.521337
20
15196.639678
30
0
11
7184.170409
21
15783.502038
31
0
0
LINE
8
ASP_LO585
10
7184.170409
20
15783.502038
30
0
11
10386.498373
21
14455.340909
31
0
0
LINE
8
ASP_LO585
10
10386.498373
20
14455.340909
30
0
11
17781.348205
21
-24864.421641
31
0
0
LINE
8
ASP_LO585
10
17781.348205
20
-24864.421641
30
0
11
-6552.131759
21
-29497.542842
31
0
0
LINE
8
ASP_LO585
10
-6552.131759
20
-29497.542842
30
0
11
-12008.730775
21
-926.624685
31
0
0
LINE
8
ASP_LO585
10
-12008.730775
20
-926.624685
30
0
11
-14431.544486
21
11644.580016
31
0
0
LINE
8
ASP_LO80C
10
-7310.577896
20
17945.625118
30
0
11
-821.650259
21
19088.462111
31
0
0
LINE
8
ASP_LO80C
10
-821.650259
20
19088.462111
30
0
11
3876.502619
21
17142.550895
31
0
0
LINE
8
ASP_LO80C
10
3876.502619
20
17142.550895
30
0
11
7184.170409
21
15783.502038
31
0
0
LINE
8
ASP_LO80C
10
7184.170409
20
15783.502038
30
0
11
10386.498373
21
14455.340909
31
0
0
LINE
8
ASP_LO80C
10
10386.498373
20
14455.340909
30
0
11
18645.134167
21
11026.829929
31
0
0
LINE
8
ASP_LO80C
10
18645.134167
20
11026.829929
30
0
11
24944.451028
21
-23536.259399
31
0
0
LINE
8
ASP_LO80C
10
24944.451028
20
-23536.259399
30
0
11
17781.348205
21
-24864.421641
31
0
0
LINE
8
ASP_LO80C
10
17781.348205
20
-24864.421641
30
0
11
-6552.131759
21
-29497.542842
31
0
0
LINE
8
ASP_LO80C
10
-6552.131759
20
-29497.542842
30
0
11
-12008.730775
21
-926.624685
31
0
0
LINE
8
ASP_LO80C
10
-12008.730775
20
-926.624685
30
0
11
-14431.544486
21
11644.580016
31
0
0
LINE
8
ASP_LO80C
10
-14431.544486
20
11644.580016
30
0
11
-14663.292253
21
12880.079077
31
0
0
LINE
8
ASP_LO80C
10
-14663.292253
20
12880.079077
30
0
11
-7310.577896
21
17945.625118
31
0
0
LINE
8
ASP_LO0EF
10
41433.040459
20
-18448.853548
30
0
11
36552.890086
21
7351.220472
31
0
0
LINE
8
ASP_LO0EF
10
36552.890086
20
7351.220472
30
0
11
22795.519802
21
10192.867979
31
0
0
LINE
8
ASP_LO0EF
10
22795.519802
20
10192.867979
30
0
11
18645.134167
21
11026.829929
31
0
0
LINE
8
ASP_LO0EF
10
18645.134167
20
11026.829929
30
0
11
24944.451028
21
-23536.259399
31
0
0
LINE
8
ASP_LO0EF
10
24944.451028
20
-23536.259399
30
0
11
17781.348205
21
-24864.421641
31
0
0
LINE
8
ASP_LO0EF
10
17781.348205
20
-24864.421641
30
0
11
-6552.131759
21
-29497.542842
31
0
0
LINE
8
ASP_LO0EF
10
-6552.131759
20
-29497.542842
30
0
11
-12008.730775
21
-926.624685
31
0
0
LINE
8
ASP_LO0EF
10
-12008.730775
20
-926.624685
30
0
11
-14431.544486
21
11644.580016
31
0
0
LINE
8
ASP_LO0EF
10
-14431.544486
20
11644.580016
30
0
11
-14663.292253
21
12880.079077
31
0
0
LINE
8
ASP_LO0EF
10
-14663.292253
20
12880.079077
30
0
11
-7310.577896
21
17945.625118
31
0
0
LINE
8
ASP_LO0EF
10
-7310.577896
20
17945.625118
30
0
11
-821.650259
21
19088.462111
31
0
0
LINE
8
ASP_LO0EF
10
-821.650259
20
19088.462111
30
0
11
-1137.668977
21
22177.21032
31
0
0
LINE
8
ASP_LO0EF
10
-1137.668977
20
22177.21032
30
0
11
-4508.541117
21
23474.484835
31
0
0
LINE
8
ASP_LO0EF
10
-4508.541117
20
23474.484835
30
0
11
-7078.830887
21
21343.24837
31
0
0
LINE
8
ASP_LO0EF
10
-7078.830887
20
21343.24837
30
0
11
-15021.447205
21
14764.21484
31
0
0
LINE
8
ASP_LO0EF
10
-15021.447205
20
14764.21484
30
0
11
-16980.766138
21
13127.178667
31
0
0
LINE
8
ASP_LO0EF
10
-16980.766138
20
13127.178667
30
0
11
-20056.686918
21
10532.630749
31
0
0
LINE
8
ASP_LO0EF
10
-20056.686918
20
10532.630749
30
0
11
-20667.656995
21
10038.430458
31
0
0
LINE
8
ASP_LO0EF
10
-20667.656995
20
10038.430458
30
0
11
-19192.900957
21
216.212308
31
0
0
LINE
8
ASP_LO0EF
10
-19192.900957
20
216.212308
30
0
11
-19003.289422
21
-1204.612002
31
0
0
LINE
8
ASP_LO0EF
10
-19003.289422
20
-1204.612002
30
0
11
-14684.359612
21
-30733.041903
31
0
0
LINE
8
ASP_LO0EF
10
-14684.359612
20
-30733.041903
30
0
11
-13421.100828
21
-38733.019834
31
0
0
LINE
8
ASP_LO0EF
10
-13421.100828
20
-38733.019834
30
0
11
41433.040459
21
-18448.853548
31
0
0
LINE
8
ASP_LODDA
10
-9691.256132
20
35057.288952
30
0
11
-3771.163097
21
36076.57615
31
0
0
LINE
8
ASP_LODDA
10
-3771.163097
20
36076.57615
30
0
11
-1137.668977
21
22177.21032
31
0
0
LINE
8
ASP_LODDA
10
-1137.668977
20
22177.21032
30
0
11
-4508.541117
21
23474.484835
31
0
0
LINE
8
ASP_LODDA
10
-4508.541117
20
23474.484835
30
0
11
-7078.830887
21
21343.24837
31
0
0
LINE
8
ASP_LODDA
10
-7078.830887
20
21343.24837
30
0
11
-9691.256132
21
35057.288952
31
0
0
LINE
8
ASP_LOCB1
10
-17317.853732
20
15968.827287
30
0
11
-16980.766138
21
13127.178667
31
0
0
LINE
8
ASP_LOCB1
10
-16980.766138
20
13127.178667
30
0
11
-7078.830887
21
21343.24837
31
0
0
LINE
8
ASP_LOCB1
10
-7078.830887
20
21343.24837
30
0
11
-9691.256132
21
35057.288952
31
0
0
LINE
8
ASP_LOCB1
10
-9691.256132
20
35057.288952
30
0
11
-3771.163097
21
36076.57615
31
0
0
LINE
8
ASP_LOCB1
10
-3771.163097
20
36076.57615
30
0
11
-1137.668977
21
22177.21032
31
0
0
LINE
8
ASP_LOCB1
10
-1137.668977
20
22177.21032
30
0
11
-821.650259
21
19088.462111
31
0
0
LINE
8
ASP_LOCB1
10
-821.650259
20
19088.462111
30
0
11
3876.502619
21
17142.550895
31
0
0
LINE
8
ASP_LOCB1
10
3876.502619
20
17142.550895
30
0
11
7184.170409
21
15783.502038
31
0
0
LINE
8
ASP_LOCB1
10
7184.170409
20
15783.502038
30
0
11
10386.498373
21
14455.340909
31
0
0
LINE
8
ASP_LOCB1
10
10386.498373
20
14455.340909
30
0
11
6172.909146
21
36478.113261
31
0
0
LINE
8
ASP_LOCB1
10
6172.909146
20
36478.113261
30
0
11
547.766713
21
38115.149434
31
0
0
LINE
8
ASP_LOCB1
10
547.766713
20
38115.149434
30
0
11
-3981.84199
21
37281.187484
31
0
0
LINE
8
ASP_LOCB1
10
-3981.84199
20
37281.187484
30
0
11
-11882.322833
21
35829.47656
31
0
0
LINE
8
ASP_LOCB1
10
-11882.322833
20
35829.47656
30
0
11
-14726.495845
21
35304.389653
31
0
0
LINE
8
ASP_LOCB1
10
-14726.495845
20
35304.389653
30
0
11
-19150.764723
21
31350.791767
31
0
0
LINE
8
ASP_LOCB1
10
-19150.764723
20
31350.791767
30
0
11
-17760.280392
21
19675.324471
31
0
0
LINE
8
ASP_LOCB1
10
-17760.280392
20
19675.324471
30
0
11
-17317.853732
21
15968.827287
31
0
0
LINE
8
ASP_LO59D
10
-13883.778
20
48400.680149
30
0
11
-1432.620337
21
50377.479092
31
0
0
LINE
8
ASP_LO59D
10
-1432.620337
20
50377.479092
30
0
11
14684.360067
21
52910.252668
31
0
0
LINE
8
ASP_LO59D
10
14684.360067
20
52910.252668
30
0
11
22795.519802
21
10192.867979
31
0
0
LINE
8
ASP_LO59D
10
22795.519802
20
10192.867979
30
0
11
18645.134167
21
11026.829929
31
0
0
LINE
8
ASP_LO59D
10
18645.134167
20
11026.829929
30
0
11
10386.498373
21
14455.340909
31
0
0
LINE
8
ASP_LO59D
10
10386.498373
20
14455.340909
30
0
11
6172.909146
21
36478.113261
31
0
0
LINE
8
ASP_LO59D
10
6172.909146
20
36478.113261
30
0
11
547.766713
21
38115.149434
31
0
0
LINE
8
ASP_LO59D
10
547.766713
20
38115.149434
30
0
11
-3981.84199
21
37281.187484
31
0
0
LINE
8
ASP_LO59D
10
-3981.84199
20
37281.187484
30
0
11
-11882.322833
21
35829.47656
31
0
0
LINE
8
ASP_LO59D
10
-11882.322833
20
35829.47656
30
0
11
-13883.778
21
48400.680149
31
0
0
LINE
8
ASP_LOEAB
10
-442.427191
20
401.537556
30
0
11
-21.067889
21
-1266.386343
31
0
0
LINE
8
ASP_LOEAB
10
-21.067889
20
-1266.386343
30
0
11
-863.785735
21
-1389.936138
31
0
0
LINE
8
ASP_LOEAB
10
-863.785735
20
-1389.936138
30
0
11
-1285.145036
21
123.55024
31
0
0
LINE
8
ASP_LOEAB
10
-1285.145036
20
123.55024
30
0
11
-442.427191
21
401.537556
31
0
0
LINE
8
ASP_LOF55
10
-3981.84199
20
37281.187484
30
0
11
547.766713
21
38115.149434
31
0
0
LINE
8
ASP_LOF55
10
547.766713
20
38115.149434
30
0
11
6172.909146
21
36478.113261
31
0
0
LINE
8
ASP_LOF55
10
6172.909146
20
36478.113261
30
0
11
10386.498373
21
14455.340909
31
0
0
LINE
8
ASP_LOF55
10
10386.498373
20
14455.340909
30
0
11
7184.170409
21
15783.502038
31
0
0
LINE
8
ASP_LOF55
10
7184.170409
20
15783.502038
30
0
11
3876.502619
21
17142.550895
31
0
0
LINE
8
ASP_LOF55
10
3876.502619
20
17142.550895
30
0
11
-821.650259
21
19088.462111
31
0
0
LINE
8
ASP_LOF55
10
-821.650259
20
19088.462111
30
0
11
-1137.668977
21
22177.21032
31
0
0
LINE
8
ASP_LOF55
10
-1137.668977
20
22177.21032
30
0
11
-3771.163097
21
36076.57615
31
0
0
LINE
8
ASP_LOF55
10
-3771.163097
20
36076.57615
30
0
11
-3981.84199
21
37281.187484
31
0
0
LINE
8
VFR Op Sectors
10
-8578.417539
20
-18887.848961
30
0
11
-11753.901186
21
-2260.920151
31
0
0
LINE
8
VFR Op Sectors
10
-4532.693056
20
-4667.093419
30
0
11
-7686.584078
21
-4489.660204
31
0
0
LINE
8
VFR Op Sectors
10
-7686.584078
20
-4489.660204
30
0
11
-11753.901186
21
-2260.920151
31
0
0
LINE
8
VFR Op Sectors
10
-8578.417539
20
-18887.848961
30
0
11
-4532.693056
21
-4667.093419
31
0
0
LINE
8
VFR Op Sectors
10
3960.774328
20
-2625.436312
30
0
11
20177.658885
21
2618.173893
31
0
0
LINE
8
VFR Op Sectors
10
20177.658885
20
2618.173893
30
0
11
24944.451028
21
-23536.259399
31
0
0
LINE
8
VFR Op Sectors
10
24944.451028
20
-23536.259399
30
0
11
17781.348205
21
-24864.421641
31
0
0
LINE
8
VFR Op Sectors
10
17781.348205
20
-24864.421641
30
0
11
16736.088922
21
-19306.587776
31
0
0
LINE
8
VFR Op Sectors
10
16736.088922
20
-19306.587776
30
0
11
3960.774328
21
-2625.436312
31
0
0
POINT
8
TOWER
10
490.715636
20
332.592254
30
0
0
POINT
8
VFR_POINTS
10
3539.415026
20
2625.436089
30
0
0
POINT
8
VFR_POINTS
10
-2401.746125
20
803.074668
30
0
0
POINT
8
VFR_POINTS
10
20836.200869
20
12354.992171
30
0
0
POINT
8
VFR_POINTS
10
-11692.711299
20
15721.726585
30
0
0
POINT
8
VFR_POINTS
10
-3432.805107
20
5161.551073
30
0
0
POINT
8
VFR_POINTS
10
3960.774328
20
-2625.436312
30
0
0
POINT
8
VFR_POINTS
10
11755.915346
20
7567.432335
30
0
0
POINT
8
VFR_POINTS
10
-4529.609234
20
-4664.009596
30
0
0
TEXT
8
RUNWAY_LABELS
10
35.747311
20
330.086093
30
0
40
494.873672
1
16C/34C
0
TEXT
8
RUNWAY_LABELS
10
316.832379
20
-33.619725
30
0
40
494.873672
1
16L/34R
0
TEXT
8
RUNWAY_LABELS
10
-237.979313
20
440.700026
30
0
40
494.873672
1
16R/34L
0
TEXT
8
TOWER_LABELS
10
1044.974148
20
886.850766
30
0
40
494.873672
1
TWR
0
TEXT
8
VFR_LABELS
10
4093.673538
20
3179.694601
30
0
40
494.873672
1
AUTOBAHN-OST
0
TEXT
8
VFR_LABELS
10
-1847.487613
20
1357.33318
30
0
40
494.873672
1
AUTOBAHN-WEST
0
TEXT
8
VFR_LABELS
10
21390.459381
20
12909.250683
30
0
40
494.873672
1
GLEISDORF
0
TEXT
8
VFR_LABELS
10
-11138.452787
20
16275.985097
30
0
40
494.873672
1
GRAZ-NORD
0
TEXT
8
VFR_LABELS
10
-2878.546595
20
5715.809585
30
0
40
494.873672
1
GREEN CITY
0
TEXT
8
VFR_LABELS
10
4515.03284
20
-2071.1778
30
0
40
494.873672
1
KALSDORF
0
TEXT
8
VFR_LABELS
10
12310.173858
20
8121.690847
30
0
40
494.873672
1
LASSNITZHÃ–HE
0
TEXT
8
VFR_LABELS
10
-3975.350722
20
-4109.751084
30
0
40
494.873672
1
SENDER DOBL
0
TEXT
8
AIRSPACE_LABELS
10
3123.30129
20
41453.997273
30
0
40
593.848406
1
LOF12 ALMENLAND
0
TEXT
8
AIRSPACE_LABELS
10
-2085.726901
20
2862.23977
30
0
40
593.848406
1
LOWG CTR
0
TEXT
8
AIRSPACE_LABELS
10
1516.892267
20
4545.21128
30
0
40
593.848406
1
LO80C LOWG 1
0
TEXT
8
AIRSPACE_LABELS
10
-1973.425771
20
1646.039104
30
0
40
593.848406
1
LO0EF LOWG 2 (FNT)
0
TEXT
8
AIRSPACE_LABELS
10
-5979.786057
20
28864.349597
30
0
40
593.848406
1
LODDA LOWG 3
0
TEXT
8
AIRSPACE_LABELS
10
-6302.82786
20
25567.969201
30
0
40
593.848406
1
LOCB1 LOWG 4
0
TEXT
8
AIRSPACE_LABELS
10
2560.713374
20
34860.73251
30
0
40
593.848406
1
LO59D LOWG 5
0
TEXT
8
AIRSPACE_LABELS
10
-610.970609
20
-345.939426
30
0
40
593.848406
1
LOEAB PARACHUTE AREA
0
TEXT
8
AIRSPACE_LABELS
10
1447.368095
20
27387.928009
30
0
40
593.848406
1
LOF55 SCHOECKL
0
ENDSEC
0
EOF
