0
SECTION
2
HEADER
9
$ACADVER
1
AC1009
9
$INSBASE
10
0
20
0
30
0
9
$EXTMIN
10
-13644.446029
20
-6615.744326
30
0
9
$EXTMAX
10
22787.935599
20
17673.461315
30
0
0
ENDSEC
0
SECTION
2
TABLES
0
TABLE
2
LAYER
70
22
0
LAYER
2
0
70
0
62
7
6
CONTINUOUS
0
LAYER
2
APT_RUNWAYS
70
0
62
8
6
CONTINUOUS
0
LAYER
2
APT_RUNWAY_LABELS
70
0
62
8
6
CONTINUOUS
0
LAYER
2
APT_TOWER
70
0
62
7
6
CONTINUOUS
0
LAYER
2
APT_TOWER_LABELS
70
0
62
7
6
CONTINUOUS
0
LAYER
2
XP_TAXI_NODES
70
0
62
9
6
CONTINUOUS
0
LAYER
2
XP_ROUTE_LABELS
70
0
62
8
6
CONTINUOUS
0
LAYER
2
XP_TAXI_SIGNS
70
0
62
2
6
CONTINUOUS
0
LAYER
2
XP_TAXI_SIGN_LABELS
70
0
62
2
6
CONTINUOUS
0
LAYER
2
XP_PARKING
70
0
62
7
6
CONTINUOUS
0
LAYER
2
XP_PARKING_LABELS
70
0
62
7
6
CONTINUOUS
0
LAYER
2
XP_BRANCH_LABELS
70
0
62
5
6
CONTINUOUS
0
LAYER
2
OFMX_VFR_POINTS
70
0
62
3
6
CONTINUOUS
0
LAYER
2
OFMX_VFR_LABELS
70
0
62
3
6
CONTINUOUS
0
LAYER
2
XP_ROUTE_TWY_A
70
0
62
3
6
CONTINUOUS
0
LAYER
2
XP_ROUTE_TWY_E
70
0
62
6
6
CONTINUOUS
0
LAYER
2
XP_ROUTE_TWY_B
70
0
62
4
6
CONTINUOUS
0
LAYER
2
XP_ROUTE_RUNWAYS
70
0
62
1
6
CONTINUOUS
0
LAYER
2
XP_ROUTE_TWY_D
70
0
62
2
6
CONTINUOUS
0
LAYER
2
XP_BRANCH_A_G1
70
0
62
3
6
CONTINUOUS
0
LAYER
2
XP_BRANCH_A_S1
70
0
62
5
6
CONTINUOUS
0
LAYER
2
XP_BRANCH_A_X
70
0
62
1
6
CONTINUOUS
0
ENDTAB
0
ENDSEC
0
SECTION
2
ENTITIES
0
LINE
8
APT_RUNWAYS
10
-240.901985
20
1249.351058
30
0
11
312.396607
21
-1697.695896
31
0
0
TEXT
8
APT_RUNWAY_LABELS
10
35.747311
20
-87.550988
30
0
40
116.583621
1
16C/34C
0
LINE
8
APT_RUNWAYS
10
258.063801
20
-273.581329
30
0
11
375.600957
21
-902.175145
31
0
0
TEXT
8
APT_RUNWAY_LABELS
10
316.832379
20
-451.256806
30
0
40
116.583621
1
16L/34R
0
LINE
8
APT_RUNWAYS
10
-307.985787
20
260.08093
30
0
11
-167.972838
21
-487.197902
31
0
0
TEXT
8
APT_RUNWAY_LABELS
10
-237.979313
20
23.062945
30
0
40
116.583621
1
16R/34L
0
POINT
8
APT_TOWER
10
490.715636
20
332.592254
30
0
0
LINE
8
APT_TOWER
10
399.634682
20
241.5113
30
0
11
581.79659
21
423.673208
31
0
0
LINE
8
APT_TOWER
10
399.634682
20
423.673208
30
0
11
581.79659
21
241.5113
31
0
0
TEXT
8
APT_TOWER_LABELS
10
627.337067
20
469.213685
30
0
40
116.583621
1
TWR
0
POINT
8
XP_TAXI_NODES
10
425.49837
20
-159.885628
30
0
0
POINT
8
XP_TAXI_NODES
10
275.759866
20
479.494096
30
0
0
POINT
8
XP_TAXI_NODES
10
323.540456
20
47.294983
30
0
0
POINT
8
XP_TAXI_NODES
10
413.681779
20
-98.539387
30
0
0
POINT
8
XP_TAXI_NODES
10
407.360889
20
-72.897837
30
0
0
POINT
8
XP_TAXI_NODES
10
404.887596
20
-59.93918
30
0
0
POINT
8
XP_TAXI_NODES
10
399.11658
20
-26.85313
30
0
0
POINT
8
XP_TAXI_NODES
10
392.795689
20
3.75105
30
0
0
POINT
8
XP_TAXI_NODES
10
382.82819
20
57.907427
30
0
0
POINT
8
XP_TAXI_NODES
10
372.183399
20
112.933348
30
0
0
POINT
8
XP_TAXI_NODES
10
363.663773
20
160.628188
30
0
0
POINT
8
XP_TAXI_NODES
10
357.507466
20
192.835799
30
0
0
POINT
8
XP_TAXI_NODES
10
322.216967
20
386.054775
30
0
0
POINT
8
XP_TAXI_NODES
10
312.979852
20
433.697353
30
0
0
POINT
8
XP_TAXI_NODES
10
313.095136
20
447.806877
30
0
0
POINT
8
XP_TAXI_NODES
10
319.871852
20
458.509389
30
0
0
POINT
8
XP_TAXI_NODES
10
330.45976
20
464.798574
30
0
0
POINT
8
XP_TAXI_NODES
10
480.857354
20
492.590634
30
0
0
POINT
8
XP_TAXI_NODES
10
488.772497
20
496.230044
30
0
0
POINT
8
XP_TAXI_NODES
10
492.07098
20
503.508864
30
0
0
POINT
8
XP_TAXI_NODES
10
472.557677
20
606.777816
30
0
0
POINT
8
XP_TAXI_NODES
10
454.806246
20
697.38945
30
0
0
POINT
8
XP_TAXI_NODES
10
451.508522
20
704.999631
30
0
0
POINT
8
XP_TAXI_NODES
10
443.592619
20
704.999631
30
0
0
POINT
8
XP_TAXI_NODES
10
266.143528
20
671.914692
30
0
0
POINT
8
XP_TAXI_NODES
10
260.807859
20
-283.880203
30
0
0
POINT
8
XP_TAXI_NODES
10
244.566493
20
139.405524
30
0
0
POINT
8
XP_TAXI_NODES
10
132.612259
20
34.088361
30
0
0
POINT
8
XP_TAXI_NODES
10
-239.153767
20
1237.426514
30
0
0
POINT
8
XP_TAXI_NODES
10
-94.871524
20
476.301689
30
0
0
POINT
8
XP_TAXI_NODES
10
-142.337359
20
1255.235494
30
0
0
POINT
8
XP_TAXI_NODES
10
-242.26643
20
-481.460244
30
0
0
POINT
8
XP_TAXI_NODES
10
-293.102799
20
-208.925927
30
0
0
POINT
8
XP_TAXI_NODES
10
-345.04119
20
246.165997
30
0
0
POINT
8
XP_TAXI_NODES
10
-370.280761
20
214.388711
30
0
0
POINT
8
XP_TAXI_NODES
10
-324.001894
20
-41.606473
30
0
0
POINT
8
XP_TAXI_NODES
10
345.771271
20
157.274549
30
0
0
POINT
8
XP_TAXI_NODES
10
270.641872
20
143.536416
30
0
0
POINT
8
XP_TAXI_NODES
10
351.952607
20
108.863614
30
0
0
POINT
8
XP_TAXI_NODES
10
379.401531
20
-30.842804
30
0
0
POINT
8
XP_TAXI_NODES
10
384.6295
20
-62.752412
30
0
0
POINT
8
XP_TAXI_NODES
10
312.029519
20
-76.222565
30
0
0
POINT
8
XP_TAXI_NODES
10
401.230369
20
-98.96304
30
0
0
POINT
8
XP_TAXI_NODES
10
412.39773
20
-161.633613
30
0
0
POINT
8
XP_TAXI_NODES
10
437.200435
20
-222.01357
30
0
0
POINT
8
XP_TAXI_NODES
10
342.826224
20
-239.872587
30
0
0
POINT
8
XP_TAXI_NODES
10
386.208585
20
-885.640459
30
0
0
POINT
8
XP_TAXI_NODES
10
412.383319
20
-869.450478
30
0
0
POINT
8
XP_TAXI_NODES
10
437.459066
20
-829.852853
30
0
0
POINT
8
XP_TAXI_NODES
10
439.937668
20
-772.999998
30
0
0
POINT
8
XP_TAXI_NODES
10
365.204177
20
-375.488143
30
0
0
POINT
8
XP_TAXI_NODES
10
373.004796
20
-887.017052
30
0
0
POINT
8
XP_TAXI_NODES
10
-306.638029
20
253.17239
30
0
0
POINT
8
XP_TAXI_NODES
10
-253.996558
20
-28.13076
30
0
0
POINT
8
XP_TAXI_NODES
10
-233.620144
20
-137.907951
30
0
0
POINT
8
XP_TAXI_NODES
10
-222.505116
20
-195.889434
30
0
0
POINT
8
XP_TAXI_NODES
10
-170.204187
20
-476.051723
30
0
0
POINT
8
XP_TAXI_NODES
10
-139.802632
20
-120.032255
30
0
0
POINT
8
XP_TAXI_NODES
10
-189.740242
20
-129.64172
30
0
0
POINT
8
XP_TAXI_NODES
10
444.231231
20
601.585013
30
0
0
POINT
8
XP_TAXI_NODES
10
-83.744361
20
1223.08904
30
0
0
POINT
8
XP_TAXI_NODES
10
45.994677
20
1134.054151
30
0
0
POINT
8
XP_TAXI_NODES
10
81.260147
20
1102.975169
30
0
0
POINT
8
XP_TAXI_NODES
10
99.769266
20
1058.428257
30
0
0
POINT
8
XP_TAXI_NODES
10
359.460465
20
-330.380809
30
0
0
POINT
8
XP_TAXI_NODES
10
-42.87094
20
450.07303
30
0
0
POINT
8
XP_TAXI_NODES
10
-5.092738
20
597.347374
30
0
0
POINT
8
XP_TAXI_NODES
10
20.546533
20
662.109524
30
0
0
POINT
8
XP_TAXI_NODES
10
118.093325
20
698.605922
30
0
0
POINT
8
XP_TAXI_NODES
10
172.406411
20
667.337909
30
0
0
POINT
8
XP_TAXI_NODES
10
155.336064
20
756.549599
30
0
0
POINT
8
XP_TAXI_NODES
10
193.854509
20
554.287139
30
0
0
POINT
8
XP_TAXI_NODES
10
264.187495
20
178.959784
30
0
0
POINT
8
XP_TAXI_NODES
10
273.633942
20
129.267883
30
0
0
POINT
8
XP_TAXI_NODES
10
280.011715
20
94.804127
30
0
0
POINT
8
XP_TAXI_NODES
10
300.573948
20
-12.387782
30
0
0
POINT
8
XP_TAXI_NODES
10
306.266845
20
-44.693244
30
0
0
POINT
8
XP_TAXI_NODES
10
319.161946
20
-114.62151
30
0
0
POINT
8
XP_TAXI_NODES
10
331.002807
20
-176.842855
30
0
0
POINT
8
XP_TAXI_NODES
10
347.866857
20
-266.836245
30
0
0
POINT
8
XP_TAXI_NODES
10
-64.413086
20
312.011185
30
0
0
POINT
8
XP_TAXI_NODES
10
4.503881
20
-59.580021
30
0
0
POINT
8
XP_TAXI_NODES
10
50.847973
20
-42.508264
30
0
0
POINT
8
XP_TAXI_NODES
10
10.981769
20
-90.833579
30
0
0
POINT
8
XP_TAXI_NODES
10
293.413458
20
-1597.878435
30
0
0
POINT
8
XP_TAXI_NODES
10
310.36473
20
-1689.057163
30
0
0
POINT
8
XP_TAXI_NODES
10
373.173929
20
0.910019
30
0
0
POINT
8
XP_TAXI_NODES
10
336.058609
20
-1683.245004
30
0
0
POINT
8
XP_TAXI_NODES
10
343.746219
20
-1660.251005
30
0
0
POINT
8
XP_TAXI_NODES
10
334.278536
20
-1641.248904
30
0
0
POINT
8
XP_TAXI_NODES
10
461.796085
20
47.619672
30
0
0
POINT
8
XP_TAXI_NODES
10
524.477866
20
101.464703
30
0
0
POINT
8
XP_TAXI_NODES
10
538.968738
20
103.663027
30
0
0
POINT
8
XP_TAXI_NODES
10
547.248695
20
67.141053
30
0
0
POINT
8
XP_TAXI_NODES
10
528.009191
20
63.232552
30
0
0
POINT
8
XP_TAXI_NODES
10
387.572271
20
33.794807
30
0
0
LINE
8
XP_ROUTE_TWY_A
10
-293.102799
20
-208.925927
30
0
11
-242.26643
21
-481.460244
31
0
0
TEXT
8
XP_ROUTE_LABELS
10
-267.684614
20
-345.193085
30
0
40
83.940207
1
A/S
0
LINE
8
XP_ROUTE_TWY_A
10
-293.102799
20
-208.925927
30
0
11
-222.505116
21
-195.889434
31
0
0
TEXT
8
XP_ROUTE_LABELS
10
-257.803957
20
-202.40768
30
0
40
83.940207
1
A/S3
0
LINE
8
XP_ROUTE_TWY_E
10
264.187495
20
178.959784
30
0
11
244.566493
21
139.405524
31
0
0
TEXT
8
XP_ROUTE_LABELS
10
254.376994
20
159.182654
30
0
40
83.940207
1
E/D
0
LINE
8
XP_ROUTE_TWY_B
10
244.566493
20
139.405524
30
0
11
270.641872
21
143.536416
31
0
0
LINE
8
XP_ROUTE_TWY_B
10
273.633942
20
129.267883
30
0
11
244.566493
21
139.405524
31
0
0
TEXT
8
XP_ROUTE_LABELS
10
259.100218
20
134.336704
30
0
40
83.940207
1
B/B
0
LINE
8
XP_ROUTE_TWY_E
10
-142.337359
20
1255.235494
30
0
11
-239.153767
21
1237.426514
31
0
0
TEXT
8
XP_ROUTE_LABELS
10
-190.745563
20
1246.331004
30
0
40
83.940207
1
E/D
0
LINE
8
XP_ROUTE_TWY_A
10
347.866857
20
-266.836245
30
0
11
260.807859
21
-283.880203
31
0
0
TEXT
8
XP_ROUTE_LABELS
10
304.337358
20
-275.358224
30
0
40
83.940207
1
A/G1
0
LINE
8
XP_ROUTE_RUNWAYS
10
373.004796
20
-887.017052
30
0
11
260.807859
21
-283.880203
31
0
0
LINE
8
XP_ROUTE_TWY_E
10
132.612259
20
34.088361
30
0
11
244.566493
21
139.405524
31
0
0
TEXT
8
XP_ROUTE_LABELS
10
188.589376
20
86.746943
30
0
40
83.940207
1
E/B
0
LINE
8
XP_ROUTE_TWY_E
10
50.847973
20
-42.508264
30
0
11
132.612259
21
34.088361
31
0
0
TEXT
8
XP_ROUTE_LABELS
10
91.730116
20
-4.209951
30
0
40
83.940207
1
E/B
0
LINE
8
XP_ROUTE_TWY_E
10
-42.87094
20
450.07303
30
0
11
-94.871524
21
476.301689
31
0
0
TEXT
8
XP_ROUTE_LABELS
10
-68.871232
20
463.18736
30
0
40
83.940207
1
E/C
0
LINE
8
XP_ROUTE_RUNWAYS
10
-94.871524
20
476.301689
30
0
11
-239.153767
21
1237.426514
31
0
0
LINE
8
XP_ROUTE_RUNWAYS
10
-64.413086
20
312.011185
30
0
11
-94.871524
21
476.301689
31
0
0
LINE
8
XP_ROUTE_TWY_D
10
264.187495
20
178.959784
30
0
11
270.641872
21
143.536416
31
0
0
TEXT
8
XP_ROUTE_LABELS
10
267.414683
20
161.2481
30
0
40
83.940207
1
D/A
0
LINE
8
XP_ROUTE_TWY_E
10
-83.744361
20
1223.08904
30
0
11
-142.337359
21
1255.235494
31
0
0
TEXT
8
XP_ROUTE_LABELS
10
-113.04086
20
1239.162267
30
0
40
83.940207
1
E/D
0
LINE
8
XP_ROUTE_TWY_A
10
-242.26643
20
-481.460244
30
0
11
-170.204187
21
-476.051723
31
0
0
TEXT
8
XP_ROUTE_LABELS
10
-206.235308
20
-478.755984
30
0
40
83.940207
1
A/S4
0
LINE
8
XP_ROUTE_TWY_A
10
-293.102799
20
-208.925927
30
0
11
-324.001894
21
-41.606473
31
0
0
TEXT
8
XP_ROUTE_LABELS
10
-308.552347
20
-125.2662
30
0
40
83.940207
1
A/S
0
LINE
8
XP_ROUTE_TWY_A
10
-345.04119
20
246.165997
30
0
11
-306.638029
21
253.17239
31
0
0
TEXT
8
XP_ROUTE_LABELS
10
-325.839609
20
249.669193
30
0
40
83.940207
1
A/S1
0
LINE
8
XP_ROUTE_TWY_A
10
-370.280761
20
214.388711
30
0
11
-345.04119
21
246.165997
31
0
0
TEXT
8
XP_ROUTE_LABELS
10
-357.660976
20
230.277354
30
0
40
83.940207
1
A/S1
0
LINE
8
XP_ROUTE_TWY_A
10
-324.001894
20
-41.606473
30
0
11
-370.280761
21
214.388711
31
0
0
TEXT
8
XP_ROUTE_LABELS
10
-347.141328
20
86.391119
30
0
40
83.940207
1
A/S
0
LINE
8
XP_ROUTE_TWY_A
10
-253.996558
20
-28.13076
30
0
11
-324.001894
21
-41.606473
31
0
0
TEXT
8
XP_ROUTE_LABELS
10
-288.999226
20
-34.868616
30
0
40
83.940207
1
A/S2
0
LINE
8
XP_ROUTE_TWY_B
10
270.641872
20
143.536416
30
0
11
345.771271
21
157.274549
31
0
0
LINE
8
XP_ROUTE_TWY_B
10
280.011715
20
94.804127
30
0
11
351.952607
21
108.863614
31
0
0
LINE
8
XP_ROUTE_TWY_B
10
306.266845
20
-44.693244
30
0
11
379.401531
21
-30.842804
31
0
0
LINE
8
XP_ROUTE_TWY_B
10
312.029519
20
-76.222565
30
0
11
384.6295
21
-62.752412
31
0
0
LINE
8
XP_ROUTE_TWY_B
10
401.230369
20
-98.96304
30
0
11
319.161946
21
-114.62151
31
0
0
LINE
8
XP_ROUTE_TWY_B
10
412.39773
20
-161.633613
30
0
11
331.002807
21
-176.842855
31
0
0
LINE
8
XP_ROUTE_TWY_B
10
342.826224
20
-239.872587
30
0
11
437.200435
21
-222.01357
31
0
0
LINE
8
XP_ROUTE_TWY_A
10
386.208585
20
-885.640459
30
0
11
373.004796
21
-887.017052
31
0
0
TEXT
8
XP_ROUTE_LABELS
10
379.60669
20
-886.328756
30
0
40
83.940207
1
A/G2
0
LINE
8
XP_ROUTE_TWY_A
10
412.383319
20
-869.450478
30
0
11
386.208585
21
-885.640459
31
0
0
TEXT
8
XP_ROUTE_LABELS
10
399.295952
20
-877.545469
30
0
40
83.940207
1
A/G2
0
LINE
8
XP_ROUTE_TWY_A
10
437.459066
20
-829.852853
30
0
11
412.383319
21
-869.450478
31
0
0
TEXT
8
XP_ROUTE_LABELS
10
424.921192
20
-849.651665
30
0
40
83.940207
1
A/G2
0
LINE
8
XP_ROUTE_TWY_A
10
439.937668
20
-772.999998
30
0
11
437.459066
21
-829.852853
31
0
0
TEXT
8
XP_ROUTE_LABELS
10
438.698367
20
-801.426425
30
0
40
83.940207
1
A/G2
0
LINE
8
XP_ROUTE_TWY_A
10
365.204177
20
-375.488143
30
0
11
439.937668
21
-772.999998
31
0
0
TEXT
8
XP_ROUTE_LABELS
10
402.570923
20
-574.244071
30
0
40
83.940207
1
A/G2
0
LINE
8
XP_ROUTE_TWY_B
10
359.460465
20
-330.380809
30
0
11
365.204177
21
-375.488143
31
0
0
TEXT
8
XP_ROUTE_LABELS
10
362.332321
20
-352.934476
30
0
40
83.940207
1
B/A
0
LINE
8
XP_ROUTE_RUNWAYS
10
-306.638029
20
253.17239
30
0
11
-253.996558
21
-28.13076
31
0
0
LINE
8
XP_ROUTE_RUNWAYS
10
-253.996558
20
-28.13076
30
0
11
-233.620144
21
-137.907951
31
0
0
LINE
8
XP_ROUTE_RUNWAYS
10
-233.620144
20
-137.907951
30
0
11
-222.505116
21
-195.889434
31
0
0
LINE
8
XP_ROUTE_RUNWAYS
10
-222.505116
20
-195.889434
30
0
11
-170.204187
21
-476.051723
31
0
0
LINE
8
XP_ROUTE_TWY_A
10
-139.802632
20
-120.032255
30
0
11
10.981769
21
-90.833579
31
0
0
TEXT
8
XP_ROUTE_LABELS
10
-64.410431
20
-105.432917
30
0
40
83.940207
1
A/X
0
LINE
8
XP_ROUTE_TWY_A
10
-189.740242
20
-129.64172
30
0
11
-139.802632
21
-120.032255
31
0
0
TEXT
8
XP_ROUTE_LABELS
10
-164.771437
20
-124.836987
30
0
40
83.940207
1
A/X
0
LINE
8
XP_ROUTE_TWY_A
10
-233.620144
20
-137.907951
30
0
11
-189.740242
21
-129.64172
31
0
0
TEXT
8
XP_ROUTE_LABELS
10
-211.680193
20
-133.774836
30
0
40
83.940207
1
A/X
0
LINE
8
XP_ROUTE_TWY_E
10
444.231231
20
601.585013
30
0
11
193.854509
21
554.287139
31
0
0
LINE
8
XP_ROUTE_TWY_E
10
45.994677
20
1134.054151
30
0
11
-83.744361
21
1223.08904
31
0
0
TEXT
8
XP_ROUTE_LABELS
10
-18.874842
20
1178.571596
30
0
40
83.940207
1
E/D
0
LINE
8
XP_ROUTE_TWY_E
10
81.260147
20
1102.975169
30
0
11
45.994677
21
1134.054151
31
0
0
TEXT
8
XP_ROUTE_LABELS
10
63.627412
20
1118.51466
30
0
40
83.940207
1
E/D
0
LINE
8
XP_ROUTE_TWY_E
10
99.769266
20
1058.428257
30
0
11
81.260147
21
1102.975169
31
0
0
TEXT
8
XP_ROUTE_LABELS
10
90.514706
20
1080.701713
30
0
40
83.940207
1
E/D
0
LINE
8
XP_ROUTE_TWY_E
10
172.406411
20
667.337909
30
0
11
155.336064
21
756.549599
31
0
0
TEXT
8
XP_ROUTE_LABELS
10
163.871237
20
711.943754
30
0
40
83.940207
1
E/D
0
LINE
8
XP_ROUTE_TWY_E
10
155.336064
20
756.549599
30
0
11
99.769266
21
1058.428257
31
0
0
TEXT
8
XP_ROUTE_LABELS
10
127.552665
20
907.488928
30
0
40
83.940207
1
E/D
0
LINE
8
XP_ROUTE_TWY_E
10
4.503881
20
-59.580021
30
0
11
50.847973
21
-42.508264
31
0
0
TEXT
8
XP_ROUTE_LABELS
10
27.675927
20
-51.044142
30
0
40
83.940207
1
E/B
0
LINE
8
XP_ROUTE_TWY_E
10
172.406411
20
667.337909
30
0
11
193.854509
21
554.287139
31
0
0
TEXT
8
XP_ROUTE_LABELS
10
183.13046
20
610.812524
30
0
40
83.940207
1
E/D
0
LINE
8
XP_ROUTE_TWY_E
10
193.854509
20
554.287139
30
0
11
264.187495
21
178.959784
31
0
0
TEXT
8
XP_ROUTE_LABELS
10
229.021002
20
366.623461
30
0
40
83.940207
1
E/D
0
LINE
8
XP_ROUTE_TWY_B
10
270.641872
20
143.536416
30
0
11
273.633942
21
129.267883
31
0
0
TEXT
8
XP_ROUTE_LABELS
10
272.137907
20
136.402149
30
0
40
83.940207
1
B/A
0
LINE
8
XP_ROUTE_TWY_B
10
273.633942
20
129.267883
30
0
11
280.011715
21
94.804127
31
0
0
TEXT
8
XP_ROUTE_LABELS
10
276.822828
20
112.036005
30
0
40
83.940207
1
B/A
0
LINE
8
XP_ROUTE_TWY_B
10
280.011715
20
94.804127
30
0
11
300.573948
21
-12.387782
31
0
0
TEXT
8
XP_ROUTE_LABELS
10
290.292832
20
41.208173
30
0
40
83.940207
1
B/A
0
LINE
8
XP_ROUTE_TWY_B
10
300.573948
20
-12.387782
30
0
11
306.266845
21
-44.693244
31
0
0
TEXT
8
XP_ROUTE_LABELS
10
303.420397
20
-28.540513
30
0
40
83.940207
1
B/A
0
LINE
8
XP_ROUTE_TWY_B
10
306.266845
20
-44.693244
30
0
11
312.029519
21
-76.222565
31
0
0
TEXT
8
XP_ROUTE_LABELS
10
309.148182
20
-60.457905
30
0
40
83.940207
1
B/A
0
LINE
8
XP_ROUTE_TWY_B
10
312.029519
20
-76.222565
30
0
11
319.161946
21
-114.62151
31
0
0
TEXT
8
XP_ROUTE_LABELS
10
315.595733
20
-95.422037
30
0
40
83.940207
1
B/A
0
LINE
8
XP_ROUTE_TWY_B
10
319.161946
20
-114.62151
30
0
11
331.002807
21
-176.842855
31
0
0
TEXT
8
XP_ROUTE_LABELS
10
325.082377
20
-145.732182
30
0
40
83.940207
1
B/A
0
LINE
8
XP_ROUTE_TWY_B
10
331.002807
20
-176.842855
30
0
11
342.826224
21
-239.872587
31
0
0
TEXT
8
XP_ROUTE_LABELS
10
336.914516
20
-208.357721
30
0
40
83.940207
1
B/A
0
LINE
8
XP_ROUTE_TWY_B
10
342.826224
20
-239.872587
30
0
11
347.866857
21
-266.836245
31
0
0
TEXT
8
XP_ROUTE_LABELS
10
345.346541
20
-253.354416
30
0
40
83.940207
1
B/A
0
LINE
8
XP_ROUTE_TWY_B
10
347.866857
20
-266.836245
30
0
11
359.460465
21
-330.380809
31
0
0
TEXT
8
XP_ROUTE_LABELS
10
353.663661
20
-298.608527
30
0
40
83.940207
1
B/A
0
LINE
8
XP_ROUTE_TWY_E
10
-42.87094
20
450.07303
30
0
11
-64.413086
21
312.011185
31
0
0
TEXT
8
XP_ROUTE_LABELS
10
-53.642013
20
381.042107
30
0
40
83.940207
1
E/C
0
LINE
8
XP_ROUTE_TWY_E
10
-5.092738
20
597.347374
30
0
11
-42.87094
21
450.07303
31
0
0
TEXT
8
XP_ROUTE_LABELS
10
-23.981839
20
523.710202
30
0
40
83.940207
1
E/C
0
LINE
8
XP_ROUTE_TWY_E
10
20.546533
20
662.109524
30
0
11
-5.092738
21
597.347374
31
0
0
TEXT
8
XP_ROUTE_LABELS
10
7.726898
20
629.728449
30
0
40
83.940207
1
E/C
0
LINE
8
XP_ROUTE_TWY_E
10
118.093325
20
698.605922
30
0
11
20.546533
21
662.109524
31
0
0
TEXT
8
XP_ROUTE_LABELS
10
69.319929
20
680.357723
30
0
40
83.940207
1
E/C
0
LINE
8
XP_ROUTE_TWY_E
10
172.406411
20
667.337909
30
0
11
118.093325
21
698.605922
31
0
0
TEXT
8
XP_ROUTE_LABELS
10
145.249868
20
682.971916
30
0
40
83.940207
1
E/C
0
LINE
8
XP_ROUTE_RUNWAYS
10
-64.413086
20
312.011185
30
0
11
4.503881
21
-59.580021
31
0
0
LINE
8
XP_ROUTE_RUNWAYS
10
4.503881
20
-59.580021
30
0
11
10.981769
21
-90.833579
31
0
0
LINE
8
XP_ROUTE_RUNWAYS
10
10.981769
20
-90.833579
30
0
11
293.413458
21
-1597.878435
31
0
0
LINE
8
XP_ROUTE_RUNWAYS
10
293.413458
20
-1597.878435
30
0
11
310.36473
21
-1689.057163
31
0
0
LINE
8
XP_ROUTE_TWY_E
10
155.336064
20
756.549599
30
0
11
118.093325
21
698.605922
31
0
0
TEXT
8
XP_ROUTE_LABELS
10
136.714694
20
727.57776
30
0
40
83.940207
1
E/D
0
LINE
8
XP_ROUTE_TWY_B
10
300.573948
20
-12.387782
30
0
11
373.173929
21
0.910019
31
0
0
LINE
8
XP_ROUTE_TWY_E
10
336.058609
20
-1683.245004
30
0
11
310.36473
21
-1689.057163
31
0
0
LINE
8
XP_ROUTE_TWY_E
10
343.746219
20
-1660.251005
30
0
11
336.058609
21
-1683.245004
31
0
0
LINE
8
XP_ROUTE_TWY_E
10
334.278536
20
-1641.248904
30
0
11
343.746219
21
-1660.251005
31
0
0
LINE
8
XP_ROUTE_TWY_E
10
293.413458
20
-1597.878435
30
0
11
334.278536
21
-1641.248904
31
0
0
POINT
8
XP_TAXI_SIGNS
10
-142.17581
20
-94.517467
30
0
0
LINE
8
XP_TAXI_SIGNS
10
-205.932478
20
-158.274135
30
0
11
-78.419142
21
-30.760799
31
0
0
LINE
8
XP_TAXI_SIGNS
10
-205.932478
20
-30.760799
30
0
11
-78.419142
21
-158.274135
31
0
0
TEXT
8
XP_TAXI_SIGN_LABELS
10
-5.554379
20
-12.544608
30
0
40
83.940207
1
X / RWY 16C-34C / X
0
POINT
8
XP_TAXI_SIGNS
10
-132.35014
20
-143.529967
30
0
0
LINE
8
XP_TAXI_SIGNS
10
-196.106808
20
-207.286634
30
0
11
-68.593472
21
-79.773299
31
0
0
LINE
8
XP_TAXI_SIGNS
10
-196.106808
20
-79.773299
30
0
11
-68.593472
21
-207.286634
31
0
0
TEXT
8
XP_TAXI_SIGN_LABELS
10
4.271291
20
-61.557108
30
0
40
83.940207
1
X / RWY 16C-34C / X
0
POINT
8
XP_TAXI_SIGNS
10
159.79421
20
15.971372
30
0
0
LINE
8
XP_TAXI_SIGNS
10
96.037542
20
-47.785296
30
0
11
223.550878
21
79.72804
31
0
0
LINE
8
XP_TAXI_SIGNS
10
96.037542
20
79.72804
30
0
11
223.550878
21
-47.785296
31
0
0
TEXT
8
XP_TAXI_SIGN_LABELS
10
296.415641
20
97.944231
30
0
40
83.940207
1
B / RWY 16C-34C / B / D | A
0
POINT
8
XP_TAXI_SIGNS
10
117.141475
20
59.756598
30
0
0
LINE
8
XP_TAXI_SIGNS
10
53.384807
20
-4.000069
30
0
11
180.898143
21
123.513266
31
0
0
LINE
8
XP_TAXI_SIGNS
10
53.384807
20
123.513266
30
0
11
180.898143
21
-4.000069
31
0
0
TEXT
8
XP_TAXI_SIGN_LABELS
10
253.762906
20
141.729457
30
0
40
83.940207
1
B / RWY 16C-34C / D | A / B
0
POINT
8
XP_TAXI_SIGNS
10
-101.464697
20
1201.87416
30
0
0
LINE
8
XP_TAXI_SIGNS
10
-165.221364
20
1138.117493
30
0
11
-37.708029
21
1265.630828
31
0
0
LINE
8
XP_TAXI_SIGNS
10
-165.221364
20
1265.630828
30
0
11
-37.708029
21
1138.117493
31
0
0
TEXT
8
XP_TAXI_SIGN_LABELS
10
35.156734
20
1283.847019
30
0
40
83.940207
1
D / RWY 16C / D
0
POINT
8
XP_TAXI_SIGNS
10
-70.275875
20
1247.380684
30
0
0
LINE
8
XP_TAXI_SIGNS
10
-134.032542
20
1183.624016
30
0
11
-6.519207
21
1311.137352
31
0
0
LINE
8
XP_TAXI_SIGNS
10
-134.032542
20
1311.137352
30
0
11
-6.519207
21
1183.624016
31
0
0
TEXT
8
XP_TAXI_SIGN_LABELS
10
66.345557
20
1329.353543
30
0
40
83.940207
1
D / RWY 16C / D
0
POINT
8
XP_TAXI_SIGNS
10
-200.495767
20
-152.964856
30
0
0
LINE
8
XP_TAXI_SIGNS
10
-264.252435
20
-216.721524
30
0
11
-136.739099
21
-89.208188
31
0
0
LINE
8
XP_TAXI_SIGNS
10
-264.252435
20
-89.208188
30
0
11
-136.739099
21
-216.721524
31
0
0
TEXT
8
XP_TAXI_SIGN_LABELS
10
-63.874336
20
-70.991997
30
0
40
83.940207
1
X / X / RWY 16R-34L
0
POINT
8
XP_TAXI_SIGNS
10
21.380066
20
-898.825954
30
0
0
LINE
8
XP_TAXI_SIGNS
10
-42.376602
20
-962.582621
30
0
11
85.136734
21
-835.069286
31
0
0
LINE
8
XP_TAXI_SIGNS
10
-42.376602
20
-835.069286
30
0
11
85.136734
21
-962.582621
31
0
0
TEXT
8
XP_TAXI_SIGN_LABELS
10
158.001497
20
-816.853095
30
0
40
83.940207
1
Y / RWY 34C / Y
0
POINT
8
XP_TAXI_SIGNS
10
-2.044543
20
684.526421
30
0
0
LINE
8
XP_TAXI_SIGNS
10
-65.801211
20
620.769753
30
0
11
61.712125
21
748.283089
31
0
0
LINE
8
XP_TAXI_SIGNS
10
-65.801211
20
748.283089
30
0
11
61.712125
21
620.769753
31
0
0
TEXT
8
XP_TAXI_SIGN_LABELS
10
134.576888
20
766.499279
30
0
40
83.940207
1
C / 16C-34C / C
0
POINT
8
XP_TAXI_SIGNS
10
54.282218
20
637.961321
30
0
0
LINE
8
XP_TAXI_SIGNS
10
-9.47445
20
574.204653
30
0
11
118.038885
21
701.717989
31
0
0
LINE
8
XP_TAXI_SIGNS
10
-9.47445
20
701.717989
30
0
11
118.038885
21
574.204653
31
0
0
TEXT
8
XP_TAXI_SIGN_LABELS
10
190.903649
20
719.93418
30
0
40
83.940207
1
C / 16C-34C / C
0
POINT
8
XP_TAXI_SIGNS
10
134.143562
20
646.096342
30
0
0
LINE
8
XP_TAXI_SIGNS
10
70.386894
20
582.339674
30
0
11
197.90023
21
709.85301
31
0
0
LINE
8
XP_TAXI_SIGNS
10
70.386894
20
709.85301
30
0
11
197.90023
21
582.339674
31
0
0
TEXT
8
XP_TAXI_SIGN_LABELS
10
270.764993
20
728.069201
30
0
40
83.940207
1
C / D / D
0
POINT
8
XP_TAXI_SIGNS
10
32.927408
20
45.622611
30
0
0
LINE
8
XP_TAXI_SIGNS
10
-30.82926
20
-18.134057
30
0
11
96.684076
21
109.379279
31
0
0
LINE
8
XP_TAXI_SIGNS
10
-30.82926
20
109.379279
30
0
11
96.684076
21
-18.134057
31
0
0
TEXT
8
XP_TAXI_SIGN_LABELS
10
169.548839
20
127.59547
30
0
40
83.940207
1
B | X
0
POINT
8
XP_TAXI_SIGNS
10
272.974852
20
10.292647
30
0
0
LINE
8
XP_TAXI_SIGNS
10
209.218184
20
-53.464021
30
0
11
336.73152
21
74.049315
31
0
0
LINE
8
XP_TAXI_SIGNS
10
209.218184
20
74.049315
30
0
11
336.73152
21
-53.464021
31
0
0
TEXT
8
XP_TAXI_SIGN_LABELS
10
409.596283
20
92.265506
30
0
40
83.940207
1
A / A1 / A / A1
0
POINT
8
XP_TAXI_SIGNS
10
253.795266
20
87.940064
30
0
0
LINE
8
XP_TAXI_SIGNS
10
190.038598
20
24.183397
30
0
11
317.551934
21
151.696732
31
0
0
LINE
8
XP_TAXI_SIGNS
10
190.038598
20
151.696732
30
0
11
317.551934
21
24.183397
31
0
0
TEXT
8
XP_TAXI_SIGN_LABELS
10
390.416697
20
169.912923
30
0
40
83.940207
1
B / A / D / A
0
POINT
8
XP_TAXI_SIGNS
10
-175.272882
20
1143.710318
30
0
0
LINE
8
XP_TAXI_SIGNS
10
-239.02955
20
1079.95365
30
0
11
-111.516215
21
1207.466986
31
0
0
LINE
8
XP_TAXI_SIGNS
10
-239.02955
20
1207.466986
30
0
11
-111.516215
21
1079.95365
31
0
0
TEXT
8
XP_TAXI_SIGN_LABELS
10
-38.651451
20
1225.683177
30
0
40
83.940207
1
D
0
POINT
8
XP_TAXI_SIGNS
10
-60.856732
20
543.503455
30
0
0
LINE
8
XP_TAXI_SIGNS
10
-124.6134
20
479.746787
30
0
11
2.899936
21
607.260123
31
0
0
LINE
8
XP_TAXI_SIGNS
10
-124.6134
20
607.260123
30
0
11
2.899936
21
479.746787
31
0
0
TEXT
8
XP_TAXI_SIGN_LABELS
10
75.764699
20
625.476314
30
0
40
83.940207
1
C
0
POINT
8
XP_TAXI_SIGNS
10
194.577309
20
402.512736
30
0
0
LINE
8
XP_TAXI_SIGNS
10
130.820641
20
338.756068
30
0
11
258.333976
21
466.269404
31
0
0
LINE
8
XP_TAXI_SIGNS
10
130.820641
20
466.269404
30
0
11
258.333976
21
338.756068
31
0
0
TEXT
8
XP_TAXI_SIGN_LABELS
10
331.19874
20
484.485595
30
0
40
83.940207
1
A | D
0
POINT
8
XP_TAXI_SIGNS
10
217.137289
20
280.228339
30
0
0
LINE
8
XP_TAXI_SIGNS
10
153.380621
20
216.471671
30
0
11
280.893957
21
343.985007
31
0
0
LINE
8
XP_TAXI_SIGNS
10
153.380621
20
343.985007
30
0
11
280.893957
21
216.471671
31
0
0
TEXT
8
XP_TAXI_SIGN_LABELS
10
353.75872
20
362.201198
30
0
40
83.940207
1
A | D
0
POINT
8
XP_TAXI_SIGNS
10
234.755993
20
178.352659
30
0
0
LINE
8
XP_TAXI_SIGNS
10
170.999325
20
114.595991
30
0
11
298.51266
21
242.109327
31
0
0
LINE
8
XP_TAXI_SIGNS
10
170.999325
20
242.109327
30
0
11
298.51266
21
114.595991
31
0
0
TEXT
8
XP_TAXI_SIGN_LABELS
10
371.377424
20
260.325518
30
0
40
83.940207
1
D / D1 / B / | A / D / D1
0
POINT
8
XP_TAXI_SIGNS
10
317.226392
20
-241.538287
30
0
0
LINE
8
XP_TAXI_SIGNS
10
253.469724
20
-305.294955
30
0
11
380.98306
21
-177.781619
31
0
0
LINE
8
XP_TAXI_SIGNS
10
253.469724
20
-177.781619
30
0
11
380.98306
21
-305.294955
31
0
0
TEXT
8
XP_TAXI_SIGN_LABELS
10
453.847823
20
-159.565428
30
0
40
83.940207
1
G2 34R | G1 16L / A
0
POINT
8
XP_TAXI_SIGNS
10
70.917217
20
-164.467971
30
0
0
LINE
8
XP_TAXI_SIGNS
10
7.160549
20
-228.224639
30
0
11
134.673884
21
-100.711303
31
0
0
LINE
8
XP_TAXI_SIGNS
10
7.160549
20
-100.711303
30
0
11
134.673884
21
-228.224639
31
0
0
TEXT
8
XP_TAXI_SIGN_LABELS
10
207.538648
20
-82.495113
30
0
40
83.940207
1
X | B
0
POINT
8
XP_TAXI_SIGNS
10
104.873609
20
737.782119
30
0
0
LINE
8
XP_TAXI_SIGNS
10
41.116941
20
674.025451
30
0
11
168.630276
21
801.538787
31
0
0
LINE
8
XP_TAXI_SIGNS
10
41.116941
20
801.538787
30
0
11
168.630276
21
674.025451
31
0
0
TEXT
8
XP_TAXI_SIGN_LABELS
10
241.49504
20
819.754978
30
0
40
83.940207
1
D / C1 / B
0
POINT
8
XP_TAXI_SIGNS
10
184.091032
20
766.284714
30
0
0
LINE
8
XP_TAXI_SIGNS
10
120.334364
20
702.528047
30
0
11
247.8477
21
830.041382
31
0
0
LINE
8
XP_TAXI_SIGNS
10
120.334364
20
830.041382
30
0
11
247.8477
21
702.528047
31
0
0
TEXT
8
XP_TAXI_SIGN_LABELS
10
320.712463
20
848.257573
30
0
40
83.940207
1
D / D3 / C / D
0
POINT
8
XP_TAXI_SIGNS
10
9.063659
20
174.603166
30
0
0
LINE
8
XP_TAXI_SIGNS
10
-54.693009
20
110.846499
30
0
11
72.820327
21
238.359834
31
0
0
LINE
8
XP_TAXI_SIGNS
10
-54.693009
20
238.359834
30
0
11
72.820327
21
110.846499
31
0
0
TEXT
8
XP_TAXI_SIGN_LABELS
10
145.68509
20
256.576025
30
0
40
83.940207
1
C
0
POINT
8
XP_TAXI_SIGNS
10
139.508051
20
-1028.477014
30
0
0
LINE
8
XP_TAXI_SIGNS
10
75.751384
20
-1092.233682
30
0
11
203.264719
21
-964.720346
31
0
0
LINE
8
XP_TAXI_SIGNS
10
75.751384
20
-964.720346
30
0
11
203.264719
21
-1092.233682
31
0
0
TEXT
8
XP_TAXI_SIGN_LABELS
10
276.129483
20
-946.504155
30
0
40
83.940207
1
Y
0
POINT
8
XP_TAXI_SIGNS
10
115.114148
20
-897.731795
30
0
0
LINE
8
XP_TAXI_SIGNS
10
51.357481
20
-961.488463
30
0
11
178.870816
21
-833.975128
31
0
0
LINE
8
XP_TAXI_SIGNS
10
51.357481
20
-833.975128
30
0
11
178.870816
21
-961.488463
31
0
0
TEXT
8
XP_TAXI_SIGN_LABELS
10
251.735579
20
-815.758937
30
0
40
83.940207
1
Y
0
POINT
8
XP_PARKING
10
313.499387
20
81.387347
30
0
0
LINE
8
XP_PARKING
10
267.95891
20
35.84687
30
0
11
359.039864
21
126.927824
31
0
0
LINE
8
XP_PARKING
10
267.95891
20
126.927824
30
0
11
359.039864
21
35.84687
31
0
0
TEXT
8
XP_PARKING_LABELS
10
450.120819
20
26.738775
30
0
40
83.940207
1
G13
0
POINT
8
XP_PARKING
10
305.149654
20
127.658892
30
0
0
LINE
8
XP_PARKING
10
259.609177
20
82.118415
30
0
11
350.690131
21
173.199369
31
0
0
LINE
8
XP_PARKING
10
259.609177
20
173.199369
30
0
11
350.690131
21
82.118415
31
0
0
TEXT
8
XP_PARKING_LABELS
10
441.771085
20
73.01032
30
0
40
83.940207
1
G16
0
POINT
8
XP_PARKING
10
382.128903
20
-10.386273
30
0
0
LINE
8
XP_PARKING
10
336.588426
20
-55.92675
30
0
11
427.66938
21
35.154204
31
0
0
LINE
8
XP_PARKING
10
336.588426
20
35.154204
30
0
11
427.66938
21
-55.92675
31
0
0
TEXT
8
XP_PARKING_LABELS
10
518.750334
20
-65.034846
30
0
40
83.940207
1
G12
0
POINT
8
XP_PARKING
10
367.21861
20
-12.879264
30
0
0
LINE
8
XP_PARKING
10
321.678133
20
-58.419741
30
0
11
412.759087
21
32.661213
31
0
0
LINE
8
XP_PARKING
10
321.678133
20
32.661213
30
0
11
412.759087
21
-58.419741
31
0
0
TEXT
8
XP_PARKING_LABELS
10
503.840042
20
-67.527836
30
0
40
83.940207
1
G11
0
POINT
8
XP_PARKING
10
352.400848
20
-15.741421
30
0
0
LINE
8
XP_PARKING
10
306.860371
20
-61.281898
30
0
11
397.941325
21
29.799056
31
0
0
LINE
8
XP_PARKING
10
306.860371
20
29.799056
30
0
11
397.941325
21
-61.281898
31
0
0
TEXT
8
XP_PARKING_LABELS
10
489.022279
20
-70.389993
30
0
40
83.940207
1
G10
0
POINT
8
XP_PARKING
10
394.277693
20
-73.93195
30
0
0
LINE
8
XP_PARKING
10
348.737216
20
-119.472427
30
0
11
439.81817
21
-28.391473
31
0
0
LINE
8
XP_PARKING
10
348.737216
20
-28.391473
30
0
11
439.81817
21
-119.472427
31
0
0
TEXT
8
XP_PARKING_LABELS
10
530.899124
20
-128.580522
30
0
40
83.940207
1
G4
0
POINT
8
XP_PARKING
10
388.314031
20
-41.687645
30
0
0
LINE
8
XP_PARKING
10
342.773554
20
-87.228122
30
0
11
433.854508
21
3.852832
31
0
0
LINE
8
XP_PARKING
10
342.773554
20
3.852832
30
0
11
433.854508
21
-87.228122
31
0
0
TEXT
8
XP_PARKING_LABELS
10
524.935462
20
-96.336218
30
0
40
83.940207
1
G8
0
POINT
8
XP_PARKING
10
379.257426
20
-76.590621
30
0
0
LINE
8
XP_PARKING
10
333.716949
20
-122.131098
30
0
11
424.797903
21
-31.050144
31
0
0
LINE
8
XP_PARKING
10
333.716949
20
-31.050144
30
0
11
424.797903
21
-122.131098
31
0
0
TEXT
8
XP_PARKING_LABELS
10
515.878857
20
-131.239193
30
0
40
83.940207
1
G3
0
POINT
8
XP_PARKING
10
373.183031
20
-44.568706
30
0
0
LINE
8
XP_PARKING
10
327.642554
20
-90.109183
30
0
11
418.723508
21
0.971771
31
0
0
LINE
8
XP_PARKING
10
327.642554
20
0.971771
30
0
11
418.723508
21
-90.109183
31
0
0
TEXT
8
XP_PARKING_LABELS
10
509.804462
20
-99.217278
30
0
40
83.940207
1
G7
0
POINT
8
XP_PARKING
10
364.237159
20
-79.582876
30
0
0
LINE
8
XP_PARKING
10
318.696682
20
-125.123353
30
0
11
409.777636
21
-34.042399
31
0
0
LINE
8
XP_PARKING
10
318.696682
20
-34.042399
30
0
11
409.777636
21
-125.123353
31
0
0
TEXT
8
XP_PARKING_LABELS
10
500.85859
20
-134.231449
30
0
40
83.940207
1
G2
0
POINT
8
XP_PARKING
10
358.383471
20
-47.560961
30
0
0
LINE
8
XP_PARKING
10
312.842994
20
-93.101438
30
0
11
403.923948
21
-2.020484
31
0
0
LINE
8
XP_PARKING
10
312.842994
20
-2.020484
30
0
11
403.923948
21
-93.101438
31
0
0
TEXT
8
XP_PARKING_LABELS
10
495.004902
20
-102.209534
30
0
40
83.940207
1
G6
0
POINT
8
XP_PARKING
10
416.074677
20
-183.241011
30
0
0
LINE
8
XP_PARKING
10
370.5342
20
-228.781488
30
0
11
461.615154
21
-137.700534
31
0
0
LINE
8
XP_PARKING
10
370.5342
20
-137.700534
30
0
11
461.615154
21
-228.781488
31
0
0
TEXT
8
XP_PARKING_LABELS
10
552.696108
20
-237.889583
30
0
40
83.940207
1
F6
0
POINT
8
XP_PARKING
10
401.602008
20
-199.356491
30
0
0
LINE
8
XP_PARKING
10
356.061531
20
-244.896968
30
0
11
447.142485
21
-153.816014
31
0
0
LINE
8
XP_PARKING
10
356.061531
20
-153.816014
30
0
11
447.142485
21
-244.896968
31
0
0
TEXT
8
XP_PARKING_LABELS
10
538.223439
20
-254.005064
30
0
40
83.940207
1
F5
0
POINT
8
XP_PARKING
10
394.286036
20
-185.633926
30
0
0
LINE
8
XP_PARKING
10
348.745559
20
-231.174403
30
0
11
439.826513
21
-140.093448
31
0
0
LINE
8
XP_PARKING
10
348.745559
20
-140.093448
30
0
11
439.826513
21
-231.174403
31
0
0
TEXT
8
XP_PARKING_LABELS
10
530.907467
20
-240.282498
30
0
40
83.940207
1
F4
0
POINT
8
XP_PARKING
10
384.107689
20
-203.983312
30
0
0
LINE
8
XP_PARKING
10
338.567212
20
-249.523789
30
0
11
429.648166
21
-158.442835
31
0
0
LINE
8
XP_PARKING
10
338.567212
20
-158.442835
30
0
11
429.648166
21
-249.523789
31
0
0
TEXT
8
XP_PARKING_LABELS
10
520.72912
20
-258.631885
30
0
40
83.940207
1
F3
0
POINT
8
XP_PARKING
10
367.726769
20
-191.697385
30
0
0
LINE
8
XP_PARKING
10
322.186292
20
-237.237862
30
0
11
413.267246
21
-146.156908
31
0
0
LINE
8
XP_PARKING
10
322.186292
20
-146.156908
30
0
11
413.267246
21
-237.237862
31
0
0
TEXT
8
XP_PARKING_LABELS
10
504.3482
20
-246.345957
30
0
40
83.940207
1
F2
0
POINT
8
XP_PARKING
10
365.182183
20
-203.025924
30
0
0
LINE
8
XP_PARKING
10
319.641705
20
-248.566401
30
0
11
410.72266
21
-157.485447
31
0
0
LINE
8
XP_PARKING
10
319.641705
20
-157.485447
30
0
11
410.72266
21
-248.566401
31
0
0
TEXT
8
XP_PARKING_LABELS
10
501.803614
20
-257.674496
30
0
40
83.940207
1
F1
0
POINT
8
XP_PARKING
10
354.367499
20
-144.947702
30
0
0
LINE
8
XP_PARKING
10
308.827022
20
-190.488179
30
0
11
399.907976
21
-99.407225
31
0
0
LINE
8
XP_PARKING
10
308.827022
20
-99.407225
30
0
11
399.907976
21
-190.488179
31
0
0
TEXT
8
XP_PARKING_LABELS
10
490.98893
20
-199.596274
30
0
40
83.940207
1
F7
0
POINT
8
XP_PARKING
10
356.594297
20
-131.225136
30
0
0
LINE
8
XP_PARKING
10
311.05382
20
-176.765613
30
0
11
402.134774
21
-85.684659
31
0
0
LINE
8
XP_PARKING
10
311.05382
20
-85.684659
30
0
11
402.134774
21
-176.765613
31
0
0
TEXT
8
XP_PARKING_LABELS
10
493.215728
20
-185.873708
30
0
40
83.940207
1
F8
0
POINT
8
XP_PARKING
10
369.476505
20
-125.481918
30
0
0
LINE
8
XP_PARKING
10
323.936028
20
-171.022395
30
0
11
415.016982
21
-79.941441
31
0
0
LINE
8
XP_PARKING
10
323.936028
20
-79.941441
30
0
11
415.016982
21
-171.022395
31
0
0
TEXT
8
XP_PARKING_LABELS
10
506.097936
20
-180.13049
30
0
40
83.940207
1
F9
0
POINT
8
XP_PARKING
10
385.380362
20
-137.926854
30
0
0
LINE
8
XP_PARKING
10
339.839885
20
-183.467331
30
0
11
430.920839
21
-92.386377
31
0
0
LINE
8
XP_PARKING
10
339.839885
20
-92.386377
30
0
11
430.920839
21
-183.467331
31
0
0
TEXT
8
XP_PARKING_LABELS
10
522.001793
20
-192.575427
30
0
40
83.940207
1
F10
0
POINT
8
XP_PARKING
10
387.130097
20
-122.290624
30
0
0
LINE
8
XP_PARKING
10
341.58962
20
-167.831101
30
0
11
432.670574
21
-76.750147
31
0
0
LINE
8
XP_PARKING
10
341.58962
20
-76.750147
30
0
11
432.670574
21
-167.831101
31
0
0
TEXT
8
XP_PARKING_LABELS
10
523.751528
20
-176.939196
30
0
40
83.940207
1
F11
0
POINT
8
XP_PARKING
10
407.169002
20
-134.576551
30
0
0
LINE
8
XP_PARKING
10
361.628525
20
-180.117028
30
0
11
452.709479
21
-89.036074
31
0
0
LINE
8
XP_PARKING
10
361.628525
20
-89.036074
30
0
11
452.709479
21
-180.117028
31
0
0
TEXT
8
XP_PARKING_LABELS
10
543.790433
20
-189.225123
30
0
40
83.940207
1
F12
0
POINT
8
XP_PARKING
10
349.436841
20
-82.241547
30
0
0
LINE
8
XP_PARKING
10
303.896364
20
-127.782024
30
0
11
394.977318
21
-36.70107
31
0
0
LINE
8
XP_PARKING
10
303.896364
20
-36.70107
30
0
11
394.977318
21
-127.782024
31
0
0
TEXT
8
XP_PARKING_LABELS
10
486.058272
20
-136.890119
30
0
40
83.940207
1
G1
0
POINT
8
XP_PARKING
10
343.362446
20
-49.998354
30
0
0
LINE
8
XP_PARKING
10
297.821969
20
-95.538831
30
0
11
388.902923
21
-4.457877
31
0
0
LINE
8
XP_PARKING
10
297.821969
20
-4.457877
30
0
11
388.902923
21
-95.538831
31
0
0
TEXT
8
XP_PARKING_LABELS
10
479.983877
20
-104.646926
30
0
40
83.940207
1
G5
0
POINT
8
XP_PARKING
10
337.398025
20
-18.418995
30
0
0
LINE
8
XP_PARKING
10
291.857548
20
-63.959472
30
0
11
382.938502
21
27.121482
31
0
0
LINE
8
XP_PARKING
10
291.857548
20
27.121482
30
0
11
382.938502
21
-63.959472
31
0
0
TEXT
8
XP_PARKING_LABELS
10
474.019456
20
-73.067567
30
0
40
83.940207
1
G9
0
POINT
8
XP_PARKING
10
336.561459
20
86.174289
30
0
0
LINE
8
XP_PARKING
10
291.020982
20
40.633812
30
0
11
382.101936
21
131.714766
31
0
0
LINE
8
XP_PARKING
10
291.020982
20
131.714766
30
0
11
382.101936
21
40.633812
31
0
0
TEXT
8
XP_PARKING_LABELS
10
473.18289
20
31.525717
30
0
40
83.940207
1
G14
0
POINT
8
XP_PARKING
10
328.078998
20
131.780888
30
0
0
LINE
8
XP_PARKING
10
282.53852
20
86.240411
30
0
11
373.619475
21
177.321365
31
0
0
LINE
8
XP_PARKING
10
282.53852
20
177.321365
30
0
11
373.619475
21
86.240411
31
0
0
TEXT
8
XP_PARKING_LABELS
10
464.700429
20
77.132316
30
0
40
83.940207
1
G17
0
POINT
8
XP_PARKING
10
359.092619
20
90.296285
30
0
0
LINE
8
XP_PARKING
10
313.552141
20
44.755808
30
0
11
404.633096
21
135.836762
31
0
0
LINE
8
XP_PARKING
10
313.552141
20
135.836762
30
0
11
404.633096
21
44.755808
31
0
0
TEXT
8
XP_PARKING_LABELS
10
495.71405
20
35.647713
30
0
40
83.940207
1
G15
0
POINT
8
XP_PARKING
10
350.610157
20
135.237938
30
0
0
LINE
8
XP_PARKING
10
305.06968
20
89.697461
30
0
11
396.150634
21
180.778415
31
0
0
LINE
8
XP_PARKING
10
305.06968
20
180.778415
30
0
11
396.150634
21
89.697461
31
0
0
TEXT
8
XP_PARKING_LABELS
10
487.231588
20
80.589366
30
0
40
83.940207
1
G18
0
POINT
8
XP_PARKING
10
316.54379
20
196.507455
30
0
0
LINE
8
XP_PARKING
10
271.003313
20
150.966978
30
0
11
362.084267
21
242.047932
31
0
0
LINE
8
XP_PARKING
10
271.003313
20
242.047932
30
0
11
362.084267
21
150.966978
31
0
0
TEXT
8
XP_PARKING_LABELS
10
453.165221
20
141.858883
30
0
40
83.940207
1
G19
0
POINT
8
XP_PARKING
10
339.76286
20
200.755101
30
0
0
LINE
8
XP_PARKING
10
294.222383
20
155.214624
30
0
11
385.303337
21
246.295578
31
0
0
LINE
8
XP_PARKING
10
294.222383
20
246.295578
30
0
11
385.303337
21
155.214624
31
0
0
TEXT
8
XP_PARKING_LABELS
10
476.384291
20
146.106529
30
0
40
83.940207
1
G20
0
POINT
8
XP_PARKING
10
327.482859
20
663.994278
30
0
0
LINE
8
XP_PARKING
10
281.942382
20
618.453801
30
0
11
373.023336
21
709.534755
31
0
0
LINE
8
XP_PARKING
10
281.942382
20
709.534755
30
0
11
373.023336
21
618.453801
31
0
0
TEXT
8
XP_PARKING_LABELS
10
464.10429
20
609.345705
30
0
40
83.940207
1
34
0
POINT
8
XP_PARKING
10
332.647877
20
241.523609
30
0
0
LINE
8
XP_PARKING
10
287.1074
20
195.983132
30
0
11
378.188354
21
287.064086
31
0
0
LINE
8
XP_PARKING
10
287.1074
20
287.064086
30
0
11
378.188354
21
195.983132
31
0
0
TEXT
8
XP_PARKING_LABELS
10
469.269308
20
186.875037
30
0
40
83.940207
1
1
0
POINT
8
XP_PARKING
10
320.87831
20
303.750514
30
0
0
LINE
8
XP_PARKING
10
275.337833
20
258.210037
30
0
11
366.418787
21
349.290991
31
0
0
LINE
8
XP_PARKING
10
275.337833
20
349.290991
30
0
11
366.418787
21
258.210037
31
0
0
TEXT
8
XP_PARKING_LABELS
10
457.499741
20
249.101942
30
0
40
83.940207
1
2
0
POINT
8
XP_PARKING
10
309.572912
20
365.411437
30
0
0
LINE
8
XP_PARKING
10
264.032435
20
319.87096
30
0
11
355.113389
21
410.951914
31
0
0
LINE
8
XP_PARKING
10
264.032435
20
410.951914
30
0
11
355.113389
21
319.87096
31
0
0
TEXT
8
XP_PARKING_LABELS
10
446.194343
20
310.762864
30
0
40
83.940207
1
3
0
POINT
8
XP_PARKING
10
386.881327
20
675.212734
30
0
0
LINE
8
XP_PARKING
10
341.340849
20
629.672257
30
0
11
432.421804
21
720.753211
31
0
0
LINE
8
XP_PARKING
10
341.340849
20
720.753211
30
0
11
432.421804
21
629.672257
31
0
0
TEXT
8
XP_PARKING_LABELS
10
523.502758
20
620.564161
30
0
40
83.940207
1
35
0
POINT
8
XP_PARKING
10
418.026917
20
509.287664
30
0
0
LINE
8
XP_PARKING
10
372.48644
20
463.747187
30
0
11
463.567394
21
554.828141
31
0
0
LINE
8
XP_PARKING
10
372.48644
20
554.828141
30
0
11
463.567394
21
463.747187
31
0
0
TEXT
8
XP_PARKING_LABELS
10
554.648348
20
454.639092
30
0
40
83.940207
1
26
0
POINT
8
XP_PARKING
10
406.230804
20
685.521615
30
0
0
LINE
8
XP_PARKING
10
360.690327
20
639.981138
30
0
11
451.771281
21
731.062092
31
0
0
LINE
8
XP_PARKING
10
360.690327
20
731.062092
30
0
11
451.771281
21
639.981138
31
0
0
TEXT
8
XP_PARKING_LABELS
10
542.852235
20
630.873043
30
0
40
83.940207
1
36
0
POINT
8
XP_PARKING
10
428.366813
20
685.655049
30
0
0
LINE
8
XP_PARKING
10
382.826336
20
640.114572
30
0
11
473.90729
21
731.195526
31
0
0
LINE
8
XP_PARKING
10
382.826336
20
731.195526
30
0
11
473.90729
21
640.114572
31
0
0
TEXT
8
XP_PARKING_LABELS
10
564.988244
20
631.006477
30
0
40
83.940207
1
37
0
POINT
8
XP_PARKING
10
459.662576
20
517.509417
30
0
0
LINE
8
XP_PARKING
10
414.122099
20
471.96894
30
0
11
505.203053
21
563.049894
31
0
0
LINE
8
XP_PARKING
10
414.122099
20
563.049894
30
0
11
505.203053
21
471.96894
31
0
0
TEXT
8
XP_PARKING_LABELS
10
596.284007
20
462.860845
30
0
40
83.940207
1
28
0
POINT
8
XP_PARKING
10
441.769315
20
514.075718
30
0
0
LINE
8
XP_PARKING
10
396.228838
20
468.535241
30
0
11
487.309792
21
559.616195
31
0
0
LINE
8
XP_PARKING
10
396.228838
20
559.616195
30
0
11
487.309792
21
468.535241
31
0
0
TEXT
8
XP_PARKING_LABELS
10
578.390746
20
459.427145
30
0
40
83.940207
1
27
0
POINT
8
XP_PARKING
10
288.353106
20
479.198317
30
0
0
LINE
8
XP_PARKING
10
242.812629
20
433.65784
30
0
11
333.893583
21
524.738794
31
0
0
LINE
8
XP_PARKING
10
242.812629
20
524.738794
30
0
11
333.893583
21
433.65784
31
0
0
TEXT
8
XP_PARKING_LABELS
10
424.974537
20
424.549745
30
0
40
83.940207
1
21
0
POINT
8
XP_PARKING
10
275.539917
20
479.752068
30
0
0
LINE
8
XP_PARKING
10
229.99944
20
434.211591
30
0
11
321.080394
21
525.292545
31
0
0
LINE
8
XP_PARKING
10
229.99944
20
525.292545
30
0
11
321.080394
21
434.211591
31
0
0
TEXT
8
XP_PARKING_LABELS
10
412.161348
20
425.103495
30
0
40
83.940207
1
20
0
POINT
8
XP_PARKING
10
408.786009
20
502.832799
30
0
0
LINE
8
XP_PARKING
10
363.245532
20
457.292322
30
0
11
454.326486
21
548.373276
31
0
0
LINE
8
XP_PARKING
10
363.245532
20
548.373276
30
0
11
454.326486
21
457.292322
31
0
0
TEXT
8
XP_PARKING_LABELS
10
545.40744
20
448.184226
30
0
40
83.940207
1
25
0
POINT
8
XP_PARKING
10
400.133656
20
506.249819
30
0
0
LINE
8
XP_PARKING
10
354.593179
20
460.709342
30
0
11
445.674133
21
551.790296
31
0
0
LINE
8
XP_PARKING
10
354.593179
20
551.790296
30
0
11
445.674133
21
460.709342
31
0
0
TEXT
8
XP_PARKING_LABELS
10
536.755087
20
451.601246
30
0
40
83.940207
1
24B
0
POINT
8
XP_PARKING
10
376.606657
20
501.706394
30
0
0
LINE
8
XP_PARKING
10
331.06618
20
456.165917
30
0
11
422.147134
21
547.246871
31
0
0
LINE
8
XP_PARKING
10
331.06618
20
547.246871
30
0
11
422.147134
21
456.165917
31
0
0
TEXT
8
XP_PARKING_LABELS
10
513.228088
20
447.057822
30
0
40
83.940207
1
24A
0
POINT
8
XP_PARKING
10
348.145207
20
491.552073
30
0
0
LINE
8
XP_PARKING
10
302.60473
20
446.011596
30
0
11
393.685684
21
537.09255
31
0
0
LINE
8
XP_PARKING
10
302.60473
20
537.09255
30
0
11
393.685684
21
446.011596
31
0
0
TEXT
8
XP_PARKING_LABELS
10
484.766638
20
436.903501
30
0
40
83.940207
1
23
0
POINT
8
XP_PARKING
10
358.491929
20
498.266023
30
0
0
LINE
8
XP_PARKING
10
312.951452
20
452.725546
30
0
11
404.032406
21
543.8065
31
0
0
LINE
8
XP_PARKING
10
312.951452
20
543.8065
30
0
11
404.032406
21
452.725546
31
0
0
TEXT
8
XP_PARKING_LABELS
10
495.11336
20
443.617451
30
0
40
83.940207
1
24
0
POINT
8
XP_PARKING
10
317.011752
20
490.462363
30
0
0
LINE
8
XP_PARKING
10
271.471274
20
444.921886
30
0
11
362.552229
21
536.00284
31
0
0
LINE
8
XP_PARKING
10
271.471274
20
536.00284
30
0
11
362.552229
21
444.921886
31
0
0
TEXT
8
XP_PARKING_LABELS
10
453.633183
20
435.813791
30
0
40
83.940207
1
22
0
POINT
8
XP_PARKING
10
315.473623
20
665.635515
30
0
0
LINE
8
XP_PARKING
10
269.933146
20
620.095038
30
0
11
361.0141
21
711.175992
31
0
0
LINE
8
XP_PARKING
10
269.933146
20
711.175992
30
0
11
361.0141
21
620.095038
31
0
0
TEXT
8
XP_PARKING_LABELS
10
452.095054
20
610.986942
30
0
40
83.940207
1
33
0
POINT
8
XP_PARKING
10
286.202153
20
656.125013
30
0
0
LINE
8
XP_PARKING
10
240.661676
20
610.584536
30
0
11
331.74263
21
701.66549
31
0
0
LINE
8
XP_PARKING
10
240.661676
20
701.66549
30
0
11
331.74263
21
610.584536
31
0
0
TEXT
8
XP_PARKING_LABELS
10
422.823584
20
601.47644
30
0
40
83.940207
1
32
0
POINT
8
XP_PARKING
10
255.046702
20
657.062386
30
0
0
LINE
8
XP_PARKING
10
209.506225
20
611.521909
30
0
11
300.587179
21
702.602863
31
0
0
LINE
8
XP_PARKING
10
209.506225
20
702.602863
30
0
11
300.587179
21
611.521909
31
0
0
TEXT
8
XP_PARKING_LABELS
10
391.668133
20
602.413813
30
0
40
83.940207
1
31
0
POINT
8
XP_PARKING
10
307.691965
20
523.997641
30
0
0
LINE
8
XP_PARKING
10
262.151488
20
478.457164
30
0
11
353.232442
21
569.538118
31
0
0
LINE
8
XP_PARKING
10
262.151488
20
569.538118
30
0
11
353.232442
21
478.457164
31
0
0
TEXT
8
XP_PARKING_LABELS
10
444.313396
20
469.349069
30
0
40
83.940207
1
39
0
POINT
8
XP_PARKING
10
289.713
20
618.729047
30
0
0
LINE
8
XP_PARKING
10
244.172523
20
573.18857
30
0
11
335.253477
21
664.269524
31
0
0
LINE
8
XP_PARKING
10
244.172523
20
664.269524
30
0
11
335.253477
21
573.18857
31
0
0
TEXT
8
XP_PARKING_LABELS
10
426.334431
20
564.080474
30
0
40
83.940207
1
38
0
POINT
8
XP_PARKING
10
244.2214
20
648.087843
30
0
0
LINE
8
XP_PARKING
10
198.680923
20
602.547366
30
0
11
289.761877
21
693.62832
31
0
0
LINE
8
XP_PARKING
10
198.680923
20
693.62832
30
0
11
289.761877
21
602.547366
31
0
0
TEXT
8
XP_PARKING_LABELS
10
380.842832
20
593.439271
30
0
40
83.940207
1
30
0
LINE
8
XP_BRANCH_A_G1
10
347.866857
20
-266.836245
30
0
11
260.807859
21
-283.880203
31
0
0
LINE
8
XP_BRANCH_A_G1
10
365.182183
20
-203.025924
30
0
11
347.866857
21
-266.836245
31
0
0
LINE
8
XP_BRANCH_A_G1
10
385.380362
20
-137.926854
30
0
11
347.866857
21
-266.836245
31
0
0
LINE
8
XP_BRANCH_A_G1
10
387.130097
20
-122.290624
30
0
11
347.866857
21
-266.836245
31
0
0
LINE
8
XP_BRANCH_A_G1
10
407.169002
20
-134.576551
30
0
11
347.866857
21
-266.836245
31
0
0
LINE
8
XP_BRANCH_A_G1
10
367.726769
20
-191.697385
30
0
11
347.866857
21
-266.836245
31
0
0
LINE
8
XP_BRANCH_A_G1
10
384.107689
20
-203.983312
30
0
11
347.866857
21
-266.836245
31
0
0
LINE
8
XP_BRANCH_A_G1
10
394.286036
20
-185.633926
30
0
11
347.866857
21
-266.836245
31
0
0
LINE
8
XP_BRANCH_A_G1
10
401.602008
20
-199.356491
30
0
11
347.866857
21
-266.836245
31
0
0
LINE
8
XP_BRANCH_A_G1
10
416.074677
20
-183.241011
30
0
11
347.866857
21
-266.836245
31
0
0
LINE
8
XP_BRANCH_A_G1
10
354.367499
20
-144.947702
30
0
11
347.866857
21
-266.836245
31
0
0
LINE
8
XP_BRANCH_A_G1
10
356.594297
20
-131.225136
30
0
11
347.866857
21
-266.836245
31
0
0
LINE
8
XP_BRANCH_A_G1
10
369.476505
20
-125.481918
30
0
11
347.866857
21
-266.836245
31
0
0
LINE
8
XP_BRANCH_A_G1
10
349.436841
20
-82.241547
30
0
11
347.866857
21
-266.836245
31
0
0
LINE
8
XP_BRANCH_A_G1
10
352.400848
20
-15.741421
30
0
11
347.866857
21
-266.836245
31
0
0
LINE
8
XP_BRANCH_A_G1
10
367.21861
20
-12.879264
30
0
11
347.866857
21
-266.836245
31
0
0
LINE
8
XP_BRANCH_A_G1
10
382.128903
20
-10.386273
30
0
11
347.866857
21
-266.836245
31
0
0
LINE
8
XP_BRANCH_A_G1
10
336.561459
20
86.174289
30
0
11
347.866857
21
-266.836245
31
0
0
LINE
8
XP_BRANCH_A_G1
10
359.092619
20
90.296285
30
0
11
347.866857
21
-266.836245
31
0
0
LINE
8
XP_BRANCH_A_G1
10
350.610157
20
135.237938
30
0
11
347.866857
21
-266.836245
31
0
0
LINE
8
XP_BRANCH_A_G1
10
364.237159
20
-79.582876
30
0
11
347.866857
21
-266.836245
31
0
0
LINE
8
XP_BRANCH_A_G1
10
379.257426
20
-76.590621
30
0
11
347.866857
21
-266.836245
31
0
0
LINE
8
XP_BRANCH_A_G1
10
394.277693
20
-73.93195
30
0
11
347.866857
21
-266.836245
31
0
0
LINE
8
XP_BRANCH_A_G1
10
343.362446
20
-49.998354
30
0
11
347.866857
21
-266.836245
31
0
0
LINE
8
XP_BRANCH_A_G1
10
358.383471
20
-47.560961
30
0
11
347.866857
21
-266.836245
31
0
0
LINE
8
XP_BRANCH_A_G1
10
373.183031
20
-44.568706
30
0
11
347.866857
21
-266.836245
31
0
0
LINE
8
XP_BRANCH_A_G1
10
388.314031
20
-41.687645
30
0
11
347.866857
21
-266.836245
31
0
0
LINE
8
XP_BRANCH_A_G1
10
337.398025
20
-18.418995
30
0
11
347.866857
21
-266.836245
31
0
0
TEXT
8
XP_BRANCH_LABELS
10
304.337358
20
-275.358224
30
0
40
83.940207
1
A/G1
0
LINE
8
XP_BRANCH_A_S1
10
-345.04119
20
246.165997
30
0
11
-306.638029
21
253.17239
31
0
0
LINE
8
XP_BRANCH_A_S1
10
-370.280761
20
214.388711
30
0
11
-345.04119
21
246.165997
31
0
0
LINE
8
XP_BRANCH_A_S1
10
275.539917
20
479.752068
30
0
11
-306.638029
21
253.17239
31
0
0
LINE
8
XP_BRANCH_A_S1
10
244.2214
20
648.087843
30
0
11
-306.638029
21
253.17239
31
0
0
LINE
8
XP_BRANCH_A_S1
10
255.046702
20
657.062386
30
0
11
-306.638029
21
253.17239
31
0
0
LINE
8
XP_BRANCH_A_S1
10
286.202153
20
656.125013
30
0
11
-306.638029
21
253.17239
31
0
0
LINE
8
XP_BRANCH_A_S1
10
315.473623
20
665.635515
30
0
11
-306.638029
21
253.17239
31
0
0
LINE
8
XP_BRANCH_A_S1
10
327.482859
20
663.994278
30
0
11
-306.638029
21
253.17239
31
0
0
LINE
8
XP_BRANCH_A_S1
10
386.881327
20
675.212734
30
0
11
-306.638029
21
253.17239
31
0
0
LINE
8
XP_BRANCH_A_S1
10
406.230804
20
685.521615
30
0
11
-306.638029
21
253.17239
31
0
0
LINE
8
XP_BRANCH_A_S1
10
428.366813
20
685.655049
30
0
11
-306.638029
21
253.17239
31
0
0
LINE
8
XP_BRANCH_A_S1
10
289.713
20
618.729047
30
0
11
-306.638029
21
253.17239
31
0
0
LINE
8
XP_BRANCH_A_S1
10
307.691965
20
523.997641
30
0
11
-306.638029
21
253.17239
31
0
0
TEXT
8
XP_BRANCH_LABELS
10
-341.750293
20
239.973274
30
0
40
83.940207
1
A/S1
0
LINE
8
XP_BRANCH_A_X
10
-139.802632
20
-120.032255
30
0
11
10.981769
21
-90.833579
31
0
0
LINE
8
XP_BRANCH_A_X
10
-189.740242
20
-129.64172
30
0
11
-139.802632
21
-120.032255
31
0
0
LINE
8
XP_BRANCH_A_X
10
-233.620144
20
-137.907951
30
0
11
-189.740242
21
-129.64172
31
0
0
LINE
8
XP_BRANCH_A_X
10
332.647877
20
241.523609
30
0
11
10.981769
21
-90.833579
31
0
0
LINE
8
XP_BRANCH_A_X
10
320.87831
20
303.750514
30
0
11
10.981769
21
-90.833579
31
0
0
LINE
8
XP_BRANCH_A_X
10
288.353106
20
479.198317
30
0
11
10.981769
21
-90.833579
31
0
0
LINE
8
XP_BRANCH_A_X
10
317.011752
20
490.462363
30
0
11
10.981769
21
-90.833579
31
0
0
LINE
8
XP_BRANCH_A_X
10
348.145207
20
491.552073
30
0
11
10.981769
21
-90.833579
31
0
0
LINE
8
XP_BRANCH_A_X
10
358.491929
20
498.266023
30
0
11
10.981769
21
-90.833579
31
0
0
LINE
8
XP_BRANCH_A_X
10
376.606657
20
501.706394
30
0
11
10.981769
21
-90.833579
31
0
0
LINE
8
XP_BRANCH_A_X
10
400.133656
20
506.249819
30
0
11
10.981769
21
-90.833579
31
0
0
LINE
8
XP_BRANCH_A_X
10
408.786009
20
502.832799
30
0
11
10.981769
21
-90.833579
31
0
0
LINE
8
XP_BRANCH_A_X
10
418.026917
20
509.287664
30
0
11
10.981769
21
-90.833579
31
0
0
LINE
8
XP_BRANCH_A_X
10
441.769315
20
514.075718
30
0
11
10.981769
21
-90.833579
31
0
0
LINE
8
XP_BRANCH_A_X
10
459.662576
20
517.509417
30
0
11
10.981769
21
-90.833579
31
0
0
LINE
8
XP_BRANCH_A_X
10
309.572912
20
365.411437
30
0
11
10.981769
21
-90.833579
31
0
0
LINE
8
XP_BRANCH_A_X
10
313.499387
20
81.387347
30
0
11
10.981769
21
-90.833579
31
0
0
LINE
8
XP_BRANCH_A_X
10
305.149654
20
127.658892
30
0
11
10.981769
21
-90.833579
31
0
0
LINE
8
XP_BRANCH_A_X
10
328.078998
20
131.780888
30
0
11
10.981769
21
-90.833579
31
0
0
LINE
8
XP_BRANCH_A_X
10
316.54379
20
196.507455
30
0
11
10.981769
21
-90.833579
31
0
0
LINE
8
XP_BRANCH_A_X
10
339.76286
20
200.755101
30
0
11
10.981769
21
-90.833579
31
0
0
TEXT
8
XP_BRANCH_LABELS
10
-146.954021
20
-121.348247
30
0
40
83.940207
1
A/X
0
POINT
8
OFMX_VFR_POINTS
10
3539.415026
20
2625.436089
30
0
0
LINE
8
OFMX_VFR_POINTS
10
3448.334072
20
2534.355135
30
0
11
3630.49598
21
2716.517043
31
0
0
LINE
8
OFMX_VFR_POINTS
10
3448.334072
20
2716.517043
30
0
11
3630.49598
21
2534.355135
31
0
0
TEXT
8
OFMX_VFR_LABELS
10
3676.036457
20
2762.05752
30
0
40
116.583621
1
AUTOBAHN-OST
0
POINT
8
OFMX_VFR_POINTS
10
-2401.746125
20
803.074668
30
0
0
LINE
8
OFMX_VFR_POINTS
10
-2492.827079
20
711.993714
30
0
11
-2310.665171
21
894.155622
31
0
0
LINE
8
OFMX_VFR_POINTS
10
-2492.827079
20
894.155622
30
0
11
-2310.665171
21
711.993714
31
0
0
TEXT
8
OFMX_VFR_LABELS
10
-2265.124694
20
939.696099
30
0
40
116.583621
1
AUTOBAHN-WEST
0
POINT
8
OFMX_VFR_POINTS
10
20836.200869
20
12354.992171
30
0
0
LINE
8
OFMX_VFR_POINTS
10
20745.119915
20
12263.911217
30
0
11
20927.281823
21
12446.073125
31
0
0
LINE
8
OFMX_VFR_POINTS
10
20745.119915
20
12446.073125
30
0
11
20927.281823
21
12263.911217
31
0
0
TEXT
8
OFMX_VFR_LABELS
10
20972.8223
20
12491.613602
30
0
40
116.583621
1
GLEISDORF
0
POINT
8
OFMX_VFR_POINTS
10
-11692.711299
20
15721.726585
30
0
0
LINE
8
OFMX_VFR_POINTS
10
-11783.792253
20
15630.645631
30
0
11
-11601.630345
21
15812.807539
31
0
0
LINE
8
OFMX_VFR_POINTS
10
-11783.792253
20
15812.807539
30
0
11
-11601.630345
21
15630.645631
31
0
0
TEXT
8
OFMX_VFR_LABELS
10
-11556.089868
20
15858.348016
30
0
40
116.583621
1
GRAZ-NORD
0
POINT
8
OFMX_VFR_POINTS
10
-3432.805107
20
5161.551073
30
0
0
LINE
8
OFMX_VFR_POINTS
10
-3523.886061
20
5070.470119
30
0
11
-3341.724153
21
5252.632027
31
0
0
LINE
8
OFMX_VFR_POINTS
10
-3523.886061
20
5252.632027
30
0
11
-3341.724153
21
5070.470119
31
0
0
TEXT
8
OFMX_VFR_LABELS
10
-3296.183676
20
5298.172504
30
0
40
116.583621
1
GREEN CITY
0
POINT
8
OFMX_VFR_POINTS
10
3960.774328
20
-2625.436312
30
0
0
LINE
8
OFMX_VFR_POINTS
10
3869.693374
20
-2716.517266
30
0
11
4051.855282
21
-2534.355358
31
0
0
LINE
8
OFMX_VFR_POINTS
10
3869.693374
20
-2534.355358
30
0
11
4051.855282
21
-2716.517266
31
0
0
TEXT
8
OFMX_VFR_LABELS
10
4097.395759
20
-2488.814881
30
0
40
116.583621
1
KALSDORF
0
POINT
8
OFMX_VFR_POINTS
10
11755.915346
20
7567.432335
30
0
0
LINE
8
OFMX_VFR_POINTS
10
11664.834392
20
7476.351381
30
0
11
11846.9963
21
7658.513289
31
0
0
LINE
8
OFMX_VFR_POINTS
10
11664.834392
20
7658.513289
30
0
11
11846.9963
21
7476.351381
31
0
0
TEXT
8
OFMX_VFR_LABELS
10
11892.536777
20
7704.053766
30
0
40
116.583621
1
LASSNITZHÖHE
0
POINT
8
OFMX_VFR_POINTS
10
-4529.609234
20
-4664.009596
30
0
0
LINE
8
OFMX_VFR_POINTS
10
-4620.690188
20
-4755.09055
30
0
11
-4438.52828
21
-4572.928642
31
0
0
LINE
8
OFMX_VFR_POINTS
10
-4620.690188
20
-4572.928642
30
0
11
-4438.52828
21
-4755.09055
31
0
0
TEXT
8
OFMX_VFR_LABELS
10
-4392.987803
20
-4527.388165
30
0
40
116.583621
1
SENDER DOBL
0
ENDSEC
0
EOF
