<svg xmlns="http://www.w3.org/2000/svg" width="1040" height="680" viewBox="0 0 1040 680"><rect x="0" y="0" width="1040" height="680" fill="#f7f7f4" /><line x1="20.96" y1="652.00" x2="20.96" y2="28.00" stroke="#e2e1dc" stroke-width="1.00" stroke-opacity="1.000" stroke-linecap="round" /><line x1="28.64" y1="652.00" x2="28.64" y2="28.00" stroke="#e2e1dc" stroke-width="1.00" stroke-opacity="1.000" stroke-linecap="round" /><line x1="36.32" y1="652.00" x2="36.32" y2="28.00" stroke="#e2e1dc" stroke-width="1.00" stroke-opacity="1.000" stroke-linecap="round" /><line x1="43.99" y1="652.00" x2="43.99" y2="28.00" stroke="#e2e1dc" stroke-width="1.00" stroke-opacity="1.000" stroke-linecap="round" /><line x1="51.67" y1="652.00" x2="51.67" y2="28.00" stroke="#e2e1dc" stroke-width="1.00" stroke-opacity="1.000" stroke-linecap="round" /><line x1="59.35" y1="652.00" x2="59.35" y2="28.00" stroke="#e2e1dc" stroke-width="1.00" stroke-opacity="1.000" stroke-linecap="round" /><line x1="67.03" y1="652.00" x2="67.03" y2="28.00" stroke="#e2e1dc" stroke-width="1.00" stroke-opacity="1.000" stroke-linecap="round" /><line x1="74.71" y1="652.00" x2="74.71" y2="28.00" stroke="#e2e1dc" stroke-width="1.00" stroke-opacity="1.000" stroke-linecap="round" /><line x1="82.38" y1="652.00" x2="82.38" y2="28.00" stroke="#e2e1dc" stroke-width="1.00" stroke-opacity="1.000" stroke-linecap="round" /><line x1="90.06" y1="652.00" x2="90.06" y2="28.00" stroke="#e2e1dc" stroke-width="1.00" stroke-opacity="1.000" stroke-linecap="round" /><line x1="97.74" y1="652.00" x2="97.74" y2="28.00" stroke="#e2e1dc" stroke-width="1.00" stroke-opacity="1.000" stroke-linecap="round" /><line x1="105.42" y1="652.00" x2="105.42" y2="28.00" stroke="#e2e1dc" stroke-width="1.00" stroke-opacity="1.000" stroke-linecap="round" /><line x1="113.10" y1="652.00" x2="113.10" y2="28.00" stroke="#e2e1dc" stroke-width="1.00" stroke-opacity="1.000" stroke-linecap="round" /><line x1="120.78" y1="652.00" x2="120.78" y2="28.00" stroke="#e2e1dc" stroke-width="1.00" stroke-opacity="1.000" stroke-linecap="round" /><line x1="128.45" y1="652.00" x2="128.45" y2="28.00" stroke="#e2e1dc" stroke-width="1.00" stroke-opacity="1.000" stroke-linecap="round" /><line x1="136.13" y1="652.00" x2="136.13" y2="28.00" stroke="#e2e1dc" stroke-width="1.00" stroke-opacity="1.000" stroke-linecap="round" /><line x1="143.81" y1="652.00" x2="143.81" y2="28.00" stroke="#e2e1dc" stroke-width="1.00" stroke-opacity="1.000" stroke-linecap="round" /><line x1="151.49" y1="652.00" x2="151.49" y2="28.00" stroke="#e2e1dc" stroke-width="1.00" stroke-opacity="1.000" stroke-linecap="round" /><line x1="159.17" y1="652.00" x2="159.17" y2="28.00" stroke="#e2e1dc" stroke-width="1.00" stroke-opacity="1.000" stroke-linecap="round" /><line x1="166.84" y1="652.00" x2="166.84" y2="28.00" stroke="#e2e1dc" stroke-width="1.00" stroke-opacity="1.000" stroke-linecap="round" /><line x1="174.52" y1="652.00" x2="174.52" y2="28.00" stroke="#e2e1dc" stroke-width="1.00" stroke-opacity="1.000" stroke-linecap="round" /><line x1="182.20" y1="652.00" x2="182.20" y2="28.00" stroke="#e2e1dc" stroke-width="1.00" stroke-opacity="1.000" stroke-linecap="round" /><line x1="189.88" y1="652.00" x2="189.88" y2="28.00" stroke="#e2e1dc" stroke-width="1.00" stroke-opacity="1.000" stroke-linecap="round" /><line x1="197.56" y1="652.00" x2="197.56" y2="28.00" stroke="#e2e1dc" stroke-width="1.00" stroke-opacity="1.000" stroke-linecap="round" /><line x1="205.23" y1="652.00" x2="205.23" y2="28.00" stroke="#e2e1dc" stroke-width="1.00" stroke-opacity="1.000" stroke-linecap="round" /><line x1="212.91" y1="652.00" x2="212.91" y2="28.00" stroke="#e2e1dc" stroke-width="1.00" stroke-opacity="1.000" stroke-linecap="round" /><line x1="220.59" y1="652.00" x2="220.59" y2="28.00" stroke="#e2e1dc" stroke-width="1.00" stroke-opacity="1.000" stroke-linecap="round" /><line x1="228.27" y1="652.00" x2="228.27" y2="28.00" stroke="#e2e1dc" stroke-width="1.00" stroke-opacity="1.000" stroke-linecap="round" /><line x1="235.95" y1="652.00" x2="235.95" y2="28.00" stroke="#e2e1dc" stroke-width="1.00" stroke-opacity="1.000" stroke-linecap="round" /><line x1="243.62" y1="652.00" x2="243.62" y2="28.00" stroke="#e2e1dc" stroke-width="1.00" stroke-opacity="1.000" stroke-linecap="round" /><line x1="251.30" y1="652.00" x2="251.30" y2="28.00" stroke="#e2e1dc" stroke-width="1.00" stroke-opacity="1.000" stroke-linecap="round" /><line x1="258.98" y1="652.00" x2="258.98" y2="28.00" stroke="#e2e1dc" stroke-width="1.00" stroke-opacity="1.000" stroke-linecap="round" /><line x1="266.66" y1="652.00" x2="266.66" y2="28.00" stroke="#e2e1dc" stroke-width="1.00" stroke-opacity="1.000" stroke-linecap="round" /><line x1="274.34" y1="652.00" x2="274.34" y2="28.00" stroke="#e2e1dc" stroke-width="1.00" stroke-opacity="1.000" stroke-linecap="round" /><line x1="282.01" y1="652.00" x2="282.01" y2="28.00" stroke="#e2e1dc" stroke-width="1.00" stroke-opacity="1.000" stroke-linecap="round" /><line x1="289.69" y1="652.00" x2="289.69" y2="28.00" stroke="#e2e1dc" stroke-width="1.00" stroke-opacity="1.000" stroke-linecap="round" /><line x1="297.37" y1="652.00" x2="297.37" y2="28.00" stroke="#e2e1dc" stroke-width="1.00" stroke-opacity="1.000" stroke-linecap="round" /><line x1="305.05" y1="652.00" x2="305.05" y2="28.00" stroke="#e2e1dc" stroke-width="1.00" stroke-opacity="1.000" stroke-linecap="round" /><line x1="312.73" y1="652.00" x2="312.73" y2="28.00" stroke="#e2e1dc" stroke-width="1.00" stroke-opacity="1.000" stroke-linecap="round" /><line x1="320.40" y1="652.00" x2="320.40" y2="28.00" stroke="#e2e1dc" stroke-width="1.00" stroke-opacity="1.000" stroke-linecap="round" /><line x1="328.08" y1="652.00" x2="328.08" y2="28.00" stroke="#e2e1dc" stroke-width="1.00" stroke-opacity="1.000" stroke-linecap="round" /><line x1="335.76" y1="652.00" x2="335.76" y2="28.00" stroke="#e2e1dc" stroke-width="1.00" stroke-opacity="1.000" stroke-linecap="round" /><line x1="343.44" y1="652.00" x2="343.44" y2="28.00" stroke="#e2e1dc" stroke-width="1.00" stroke-opacity="1.000" stroke-linecap="round" /><line x1="351.12" y1="652.00" x2="351.12" y2="28.00" stroke="#e2e1dc" stroke-width="1.00" stroke-opacity="1.000" stroke-linecap="round" /><line x1="358.79" y1="652.00" x2="358.79" y2="28.00" stroke="#e2e1dc" stroke-width="1.00" stroke-opacity="1.000" stroke-linecap="round" /><line x1="366.47" y1="652.00" x2="366.47" y2="28.00" stroke="#e2e1dc" stroke-width="1.00" stroke-opacity="1.000" stroke-linecap="round" /><line x1="374.15" y1="652.00" x2="374.15" y2="28.00" stroke="#e2e1dc" stroke-width="1.00" stroke-opacity="1.000" stroke-linecap="round" /><line x1="381.83" y1="652.00" x2="381.83" y2="28.00" stroke="#e2e1dc" stroke-width="1.00" stroke-opacity="1.000" stroke-linecap="round" /><line x1="389.51" y1="652.00" x2="389.51" y2="28.00" stroke="#e2e1dc" stroke-width="1.00" stroke-opacity="1.000" stroke-linecap="round" /><line x1="397.18" y1="652.00" x2="397.18" y2="28.00" stroke="#e2e1dc" stroke-width="1.00" stroke-opacity="1.000" stroke-linecap="round" /><line x1="404.86" y1="652.00" x2="404.86" y2="28.00" stroke="#e2e1dc" stroke-width="1.00" stroke-opacity="1.000" stroke-linecap="round" /><line x1="412.54" y1="652.00" x2="412.54" y2="28.00" stroke="#e2e1dc" stroke-width="1.00" stroke-opacity="1.000" stroke-linecap="round" /><line x1="420.22" y1="652.00" x2="420.22" y2="28.00" stroke="#e2e1dc" stroke-width="1.00" stroke-opacity="1.000" stroke-linecap="round" /><line x1="427.90" y1="652.00" x2="427.90" y2="28.00" stroke="#e2e1dc" stroke-width="1.00" stroke-opacity="1.000" stroke-linecap="round" /><line x1="435.57" y1="652.00" x2="435.57" y2="28.00" stroke="#e2e1dc" stroke-width="1.00" stroke-opacity="1.000" stroke-linecap="round" /><line x1="443.25" y1="652.00" x2="443.25" y2="28.00" stroke="#e2e1dc" stroke-width="1.00" stroke-opacity="1.000" stroke-linecap="round" /><line x1="450.93" y1="652.00" x2="450.93" y2="28.00" stroke="#e2e1dc" stroke-width="1.00" stroke-opacity="1.000" stroke-linecap="round" /><line x1="458.61" y1="652.00" x2="458.61" y2="28.00" stroke="#e2e1dc" stroke-width="1.00" stroke-opacity="1.000" stroke-linecap="round" /><line x1="466.29" y1="652.00" x2="466.29" y2="28.00" stroke="#e2e1dc" stroke-width="1.00" stroke-opacity="1.000" stroke-linecap="round" /><line x1="473.96" y1="652.00" x2="473.96" y2="28.00" stroke="#e2e1dc" stroke-width="1.00" stroke-opacity="1.000" stroke-linecap="round" /><line x1="481.64" y1="652.00" x2="481.64" y2="28.00" stroke="#e2e1dc" stroke-width="1.00" stroke-opacity="1.000" stroke-linecap="round" /><line x1="489.32" y1="652.00" x2="489.32" y2="28.00" stroke="#e2e1dc" stroke-width="1.00" stroke-opacity="1.000" stroke-linecap="round" /><line x1="497.00" y1="652.00" x2="497.00" y2="28.00" stroke="#e2e1dc" stroke-width="1.00" stroke-opacity="1.000" stroke-linecap="round" /><line x1="504.68" y1="652.00" x2="504.68" y2="28.00" stroke="#e2e1dc" stroke-width="1.00" stroke-opacity="1.000" stroke-linecap="round" /><line x1="512.35" y1="652.00" x2="512.35" y2="28.00" stroke="#e2e1dc" stroke-width="1.00" stroke-opacity="1.000" stroke-linecap="round" /><line x1="520.03" y1="652.00" x2="520.03" y2="28.00" stroke="#e2e1dc" stroke-width="1.00" stroke-opacity="1.000" stroke-linecap="round" /><line x1="527.71" y1="652.00" x2="527.71" y2="28.00" stroke="#e2e1dc" stroke-width="1.00" stroke-opacity="1.000" stroke-linecap="round" /><line x1="535.39" y1="652.00" x2="535.39" y2="28.00" stroke="#e2e1dc" stroke-width="1.00" stroke-opacity="1.000" stroke-linecap="round" /><line x1="543.07" y1="652.00" x2="543.07" y2="28.00" stroke="#e2e1dc" stroke-width="1.00" stroke-opacity="1.000" stroke-linecap="round" /><line x1="550.75" y1="652.00" x2="550.75" y2="28.00" stroke="#e2e1dc" stroke-width="1.00" stroke-opacity="1.000" stroke-linecap="round" /><line x1="558.42" y1="652.00" x2="558.42" y2="28.00" stroke="#e2e1dc" stroke-width="1.00" stroke-opacity="1.000" stroke-linecap="round" /><line x1="566.10" y1="652.00" x2="566.10" y2="28.00" stroke="#e2e1dc" stroke-width="1.00" stroke-opacity="1.000" stroke-linecap="round" /><line x1="573.78" y1="652.00" x2="573.78" y2="28.00" stroke="#e2e1dc" stroke-width="1.00" stroke-opacity="1.000" stroke-linecap="round" /><line x1="581.46" y1="652.00" x2="581.46" y2="28.00" stroke="#e2e1dc" stroke-width="1.00" stroke-opacity="1.000" stroke-linecap="round" /><line x1="589.14" y1="652.00" x2="589.14" y2="28.00" stroke="#e2e1dc" stroke-width="1.00" stroke-opacity="1.000" stroke-linecap="round" /><line x1="596.81" y1="652.00" x2="596.81" y2="28.00" stroke="#e2e1dc" stroke-width="1.00" stroke-opacity="1.000" stroke-linecap="round" /><line x1="604.49" y1="652.00" x2="604.49" y2="28.00" stroke="#e2e1dc" stroke-width="1.00" stroke-opacity="1.000" stroke-linecap="round" /><line x1="612.17" y1="652.00" x2="612.17" y2="28.00" stroke="#e2e1dc" stroke-width="1.00" stroke-opacity="1.000" stroke-linecap="round" /><line x1="619.85" y1="652.00" x2="619.85" y2="28.00" stroke="#e2e1dc" stroke-width="1.00" stroke-opacity="1.000" stroke-linecap="round" /><line x1="627.53" y1="652.00" x2="627.53" y2="28.00" stroke="#e2e1dc" stroke-width="1.00" stroke-opacity="1.000" stroke-linecap="round" /><line x1="635.20" y1="652.00" x2="635.20" y2="28.00" stroke="#e2e1dc" stroke-width="1.00" stroke-opacity="1.000" stroke-linecap="round" /><line x1="642.88" y1="652.00" x2="642.88" y2="28.00" stroke="#e2e1dc" stroke-width="1.00" stroke-opacity="1.000" stroke-linecap="round" /><line x1="650.56" y1="652.00" x2="650.56" y2="28.00" stroke="#e2e1dc" stroke-width="1.00" stroke-opacity="1.000" stroke-linecap="round" /><line x1="658.24" y1="652.00" x2="658.24" y2="28.00" stroke="#e2e1dc" stroke-width="1.00" stroke-opacity="1.000" stroke-linecap="round" /><line x1="665.92" y1="652.00" x2="665.92" y2="28.00" stroke="#e2e1dc" stroke-width="1.00" stroke-opacity="1.000" stroke-linecap="round" /><line x1="673.59" y1="652.00" x2="673.59" y2="28.00" stroke="#e2e1dc" stroke-width="1.00" stroke-opacity="1.000" stroke-linecap="round" /><line x1="681.27" y1="652.00" x2="681.27" y2="28.00" stroke="#e2e1dc" stroke-width="1.00" stroke-opacity="1.000" stroke-linecap="round" /><line x1="688.95" y1="652.00" x2="688.95" y2="28.00" stroke="#e2e1dc" stroke-width="1.00" stroke-opacity="1.000" stroke-linecap="round" /><line x1="696.63" y1="652.00" x2="696.63" y2="28.00" stroke="#e2e1dc" stroke-width="1.00" stroke-opacity="1.000" stroke-linecap="round" /><line x1="704.31" y1="652.00" x2="704.31" y2="28.00" stroke="#e2e1dc" stroke-width="1.00" stroke-opacity="1.000" stroke-linecap="round" /><line x1="711.98" y1="652.00" x2="711.98" y2="28.00" stroke="#e2e1dc" stroke-width="1.00" stroke-opacity="1.000" stroke-linecap="round" /><line x1="719.66" y1="652.00" x2="719.66" y2="28.00" stroke="#e2e1dc" stroke-width="1.00" stroke-opacity="1.000" stroke-linecap="round" /><line x1="727.34" y1="652.00" x2="727.34" y2="28.00" stroke="#e2e1dc" stroke-width="1.00" stroke-opacity="1.000" stroke-linecap="round" /><line x1="735.02" y1="652.00" x2="735.02" y2="28.00" stroke="#e2e1dc" stroke-width="1.00" stroke-opacity="1.000" stroke-linecap="round" /><line x1="742.70" y1="652.00" x2="742.70" y2="28.00" stroke="#e2e1dc" stroke-width="1.00" stroke-opacity="1.000" stroke-linecap="round" /><line x1="750.37" y1="652.00" x2="750.37" y2="28.00" stroke="#e2e1dc" stroke-width="1.00" stroke-opacity="1.000" stroke-linecap="round" /><line x1="758.05" y1="652.00" x2="758.05" y2="28.00" stroke="#e2e1dc" stroke-width="1.00" stroke-opacity="1.000" stroke-linecap="round" /><line x1="765.73" y1="652.00" x2="765.73" y2="28.00" stroke="#e2e1dc" stroke-width="1.00" stroke-opacity="1.000" stroke-linecap="round" /><line x1="773.41" y1="652.00" x2="773.41" y2="28.00" stroke="#e2e1dc" stroke-width="1.00" stroke-opacity="1.000" stroke-linecap="round" /><line x1="781.09" y1="652.00" x2="781.09" y2="28.00" stroke="#e2e1dc" stroke-width="1.00" stroke-opacity="1.000" stroke-linecap="round" /><line x1="788.76" y1="652.00" x2="788.76" y2="28.00" stroke="#e2e1dc" stroke-width="1.00" stroke-opacity="1.000" stroke-linecap="round" /><line x1="796.44" y1="652.00" x2="796.44" y2="28.00" stroke="#e2e1dc" stroke-width="1.00" stroke-opacity="1.000" stroke-linecap="round" /><line x1="804.12" y1="652.00" x2="804.12" y2="28.00" stroke="#e2e1dc" stroke-width="1.00" stroke-opacity="1.000" stroke-linecap="round" /><line x1="811.80" y1="652.00" x2="811.80" y2="28.00" stroke="#e2e1dc" stroke-width="1.00" stroke-opacity="1.000" stroke-linecap="round" /><line x1="819.48" y1="652.00" x2="819.48" y2="28.00" stroke="#e2e1dc" stroke-width="1.00" stroke-opacity="1.000" stroke-linecap="round" /><line x1="827.15" y1="652.00" x2="827.15" y2="28.00" stroke="#e2e1dc" stroke-width="1.00" stroke-opacity="1.000" stroke-linecap="round" /><line x1="834.83" y1="652.00" x2="834.83" y2="28.00" stroke="#e2e1dc" stroke-width="1.00" stroke-opacity="1.000" stroke-linecap="round" /><line x1="842.51" y1="652.00" x2="842.51" y2="28.00" stroke="#e2e1dc" stroke-width="1.00" stroke-opacity="1.000" stroke-linecap="round" /><line x1="850.19" y1="652.00" x2="850.19" y2="28.00" stroke="#e2e1dc" stroke-width="1.00" stroke-opacity="1.000" stroke-linecap="round" /><line x1="857.87" y1="652.00" x2="857.87" y2="28.00" stroke="#e2e1dc" stroke-width="1.00" stroke-opacity="1.000" stroke-linecap="round" /><line x1="865.54" y1="652.00" x2="865.54" y2="28.00" stroke="#e2e1dc" stroke-width="1.00" stroke-opacity="1.000" stroke-linecap="round" /><line x1="873.22" y1="652.00" x2="873.22" y2="28.00" stroke="#e2e1dc" stroke-width="1.00" stroke-opacity="1.000" stroke-linecap="round" /><line x1="880.90" y1="652.00" x2="880.90" y2="28.00" stroke="#e2e1dc" stroke-width="1.00" stroke-opacity="1.000" stroke-linecap="round" /><line x1="888.58" y1="652.00" x2="888.58" y2="28.00" stroke="#e2e1dc" stroke-width="1.00" stroke-opacity="1.000" stroke-linecap="round" /><line x1="896.26" y1="652.00" x2="896.26" y2="28.00" stroke="#e2e1dc" stroke-width="1.00" stroke-opacity="1.000" stroke-linecap="round" /><line x1="903.93" y1="652.00" x2="903.93" y2="28.00" stroke="#e2e1dc" stroke-width="1.00" stroke-opacity="1.000" stroke-linecap="round" /><line x1="911.61" y1="652.00" x2="911.61" y2="28.00" stroke="#e2e1dc" stroke-width="1.00" stroke-opacity="1.000" stroke-linecap="round" /><line x1="919.29" y1="652.00" x2="919.29" y2="28.00" stroke="#e2e1dc" stroke-width="1.00" stroke-opacity="1.000" stroke-linecap="round" /><line x1="926.97" y1="652.00" x2="926.97" y2="28.00" stroke="#e2e1dc" stroke-width="1.00" stroke-opacity="1.000" stroke-linecap="round" /><line x1="934.65" y1="652.00" x2="934.65" y2="28.00" stroke="#e2e1dc" stroke-width="1.00" stroke-opacity="1.000" stroke-linecap="round" /><line x1="28.00" y1="652.85" x2="932.40" y2="652.85" stroke="#e2e1dc" stroke-width="1.00" stroke-opacity="1.000" stroke-linecap="round" /><line x1="28.00" y1="645.17" x2="932.40" y2="645.17" stroke="#e2e1dc" stroke-width="1.00" stroke-opacity="1.000" stroke-linecap="round" /><line x1="28.00" y1="637.49" x2="932.40" y2="637.49" stroke="#e2e1dc" stroke-width="1.00" stroke-opacity="1.000" stroke-linecap="round" /><line x1="28.00" y1="629.81" x2="932.40" y2="629.81" stroke="#e2e1dc" stroke-width="1.00" stroke-opacity="1.000" stroke-linecap="round" /><line x1="28.00" y1="622.13" x2="932.40" y2="622.13" stroke="#e2e1dc" stroke-width="1.00" stroke-opacity="1.000" stroke-linecap="round" /><line x1="28.00" y1="614.46" x2="932.40" y2="614.46" stroke="#e2e1dc" stroke-width="1.00" stroke-opacity="1.000" stroke-linecap="round" /><line x1="28.00" y1="606.78" x2="932.40" y2="606.78" stroke="#e2e1dc" stroke-width="1.00" stroke-opacity="1.000" stroke-linecap="round" /><line x1="28.00" y1="599.10" x2="932.40" y2="599.10" stroke="#e2e1dc" stroke-width="1.00" stroke-opacity="1.000" stroke-linecap="round" /><line x1="28.00" y1="591.42" x2="932.40" y2="591.42" stroke="#e2e1dc" stroke-width="1.00" stroke-opacity="1.000" stroke-linecap="round" /><line x1="28.00" y1="583.74" x2="932.40" y2="583.74" stroke="#e2e1dc" stroke-width="1.00" stroke-opacity="1.000" stroke-linecap="round" /><line x1="28.00" y1="576.07" x2="932.40" y2="576.07" stroke="#e2e1dc" stroke-width="1.00" stroke-opacity="1.000" stroke-linecap="round" /><line x1="28.00" y1="568.39" x2="932.40" y2="568.39" stroke="#e2e1dc" stroke-width="1.00" stroke-opacity="1.000" stroke-linecap="round" /><line x1="28.00" y1="560.71" x2="932.40" y2="560.71" stroke="#e2e1dc" stroke-width="1.00" stroke-opacity="1.000" stroke-linecap="round" /><line x1="28.00" y1="553.03" x2="932.40" y2="553.03" stroke="#e2e1dc" stroke-width="1.00" stroke-opacity="1.000" stroke-linecap="round" /><line x1="28.00" y1="545.35" x2="932.40" y2="545.35" stroke="#e2e1dc" stroke-width="1.00" stroke-opacity="1.000" stroke-linecap="round" /><line x1="28.00" y1="537.67" x2="932.40" y2="537.67" stroke="#e2e1dc" stroke-width="1.00" stroke-opacity="1.000" stroke-linecap="round" /><line x1="28.00" y1="530.00" x2="932.40" y2="530.00" stroke="#e2e1dc" stroke-width="1.00" stroke-opacity="1.000" stroke-linecap="round" /><line x1="28.00" y1="522.32" x2="932.40" y2="522.32" stroke="#e2e1dc" stroke-width="1.00" stroke-opacity="1.000" stroke-linecap="round" /><line x1="28.00" y1="514.64" x2="932.40" y2="514.64" stroke="#e2e1dc" stroke-width="1.00" stroke-opacity="1.000" stroke-linecap="round" /><line x1="28.00" y1="506.96" x2="932.40" y2="506.96" stroke="#e2e1dc" stroke-width="1.00" stroke-opacity="1.000" stroke-linecap="round" /><line x1="28.00" y1="499.28" x2="932.40" y2="499.28" stroke="#e2e1dc" stroke-width="1.00" stroke-opacity="1.000" stroke-linecap="round" /><line x1="28.00" y1="491.61" x2="932.40" y2="491.61" stroke="#e2e1dc" stroke-width="1.00" stroke-opacity="1.000" stroke-linecap="round" /><line x1="28.00" y1="483.93" x2="932.40" y2="483.93" stroke="#e2e1dc" stroke-width="1.00" stroke-opacity="1.000" stroke-linecap="round" /><line x1="28.00" y1="476.25" x2="932.40" y2="476.25" stroke="#e2e1dc" stroke-width="1.00" stroke-opacity="1.000" stroke-linecap="round" /><line x1="28.00" y1="468.57" x2="932.40" y2="468.57" stroke="#e2e1dc" stroke-width="1.00" stroke-opacity="1.000" stroke-linecap="round" /><line x1="28.00" y1="460.89" x2="932.40" y2="460.89" stroke="#e2e1dc" stroke-width="1.00" stroke-opacity="1.000" stroke-linecap="round" /><line x1="28.00" y1="453.22" x2="932.40" y2="453.22" stroke="#e2e1dc" stroke-width="1.00" stroke-opacity="1.000" stroke-linecap="round" /><line x1="28.00" y1="445.54" x2="932.40" y2="445.54" stroke="#e2e1dc" stroke-width="1.00" stroke-opacity="1.000" stroke-linecap="round" /><line x1="28.00" y1="437.86" x2="932.40" y2="437.86" stroke="#e2e1dc" stroke-width="1.00" stroke-opacity="1.000" stroke-linecap="round" /><line x1="28.00" y1="430.18" x2="932.40" y2="430.18" stroke="#e2e1dc" stroke-width="1.00" stroke-opacity="1.000" stroke-linecap="round" /><line x1="28.00" y1="422.50" x2="932.40" y2="422.50" stroke="#e2e1dc" stroke-width="1.00" stroke-opacity="1.000" stroke-linecap="round" /><line x1="28.00" y1="414.83" x2="932.40" y2="414.83" stroke="#e2e1dc" stroke-width="1.00" stroke-opacity="1.000" stroke-linecap="round" /><line x1="28.00" y1="407.15" x2="932.40" y2="407.15" stroke="#e2e1dc" stroke-width="1.00" stroke-opacity="1.000" stroke-linecap="round" /><line x1="28.00" y1="399.47" x2="932.40" y2="399.47" stroke="#e2e1dc" stroke-width="1.00" stroke-opacity="1.000" stroke-linecap="round" /><line x1="28.00" y1="391.79" x2="932.40" y2="391.79" stroke="#e2e1dc" stroke-width="1.00" stroke-opacity="1.000" stroke-linecap="round" /><line x1="28.00" y1="384.11" x2="932.40" y2="384.11" stroke="#e2e1dc" stroke-width="1.00" stroke-opacity="1.000" stroke-linecap="round" /><line x1="28.00" y1="376.44" x2="932.40" y2="376.44" stroke="#e2e1dc" stroke-width="1.00" stroke-opacity="1.000" stroke-linecap="round" /><line x1="28.00" y1="368.76" x2="932.40" y2="368.76" stroke="#e2e1dc" stroke-width="1.00" stroke-opacity="1.000" stroke-linecap="round" /><line x1="28.00" y1="361.08" x2="932.40" y2="361.08" stroke="#e2e1dc" stroke-width="1.00" stroke-opacity="1.000" stroke-linecap="round" /><line x1="28.00" y1="353.40" x2="932.40" y2="353.40" stroke="#e2e1dc" stroke-width="1.00" stroke-opacity="1.000" stroke-linecap="round" /><line x1="28.00" y1="345.72" x2="932.40" y2="345.72" stroke="#e2e1dc" stroke-width="1.00" stroke-opacity="1.000" stroke-linecap="round" /><line x1="28.00" y1="338.05" x2="932.40" y2="338.05" stroke="#e2e1dc" stroke-width="1.00" stroke-opacity="1.000" stroke-linecap="round" /><line x1="28.00" y1="330.37" x2="932.40" y2="330.37" stroke="#e2e1dc" stroke-width="1.00" stroke-opacity="1.000" stroke-linecap="round" /><line x1="28.00" y1="322.69" x2="932.40" y2="322.69" stroke="#e2e1dc" stroke-width="1.00" stroke-opacity="1.000" stroke-linecap="round" /><line x1="28.00" y1="315.01" x2="932.40" y2="315.01" stroke="#e2e1dc" stroke-width="1.00" stroke-opacity="1.000" stroke-linecap="round" /><line x1="28.00" y1="307.33" x2="932.40" y2="307.33" stroke="#e2e1dc" stroke-width="1.00" stroke-opacity="1.000" stroke-linecap="round" /><line x1="28.00" y1="299.66" x2="932.40" y2="299.66" stroke="#e2e1dc" stroke-width="1.00" stroke-opacity="1.000" stroke-linecap="round" /><line x1="28.00" y1="291.98" x2="932.40" y2="291.98" stroke="#e2e1dc" stroke-width="1.00" stroke-opacity="1.000" stroke-linecap="round" /><line x1="28.00" y1="284.30" x2="932.40" y2="284.30" stroke="#e2e1dc" stroke-width="1.00" stroke-opacity="1.000" stroke-linecap="round" /><line x1="28.00" y1="276.62" x2="932.40" y2="276.62" stroke="#e2e1dc" stroke-width="1.00" stroke-opacity="1.000" stroke-linecap="round" /><line x1="28.00" y1="268.94" x2="932.40" y2="268.94" stroke="#e2e1dc" stroke-width="1.00" stroke-opacity="1.000" stroke-linecap="round" /><line x1="28.00" y1="261.27" x2="932.40" y2="261.27" stroke="#e2e1dc" stroke-width="1.00" stroke-opacity="1.000" stroke-linecap="round" /><line x1="28.00" y1="253.59" x2="932.40" y2="253.59" stroke="#e2e1dc" stroke-width="1.00" stroke-opacity="1.000" stroke-linecap="round" /><line x1="28.00" y1="245.91" x2="932.40" y2="245.91" stroke="#e2e1dc" stroke-width="1.00" stroke-opacity="1.000" stroke-linecap="round" /><line x1="28.00" y1="238.23" x2="932.40" y2="238.23" stroke="#e2e1dc" stroke-width="1.00" stroke-opacity="1.000" stroke-linecap="round" /><line x1="28.00" y1="230.55" x2="932.40" y2="230.55" stroke="#e2e1dc" stroke-width="1.00" stroke-opacity="1.000" stroke-linecap="round" /><line x1="28.00" y1="222.88" x2="932.40" y2="222.88" stroke="#e2e1dc" stroke-width="1.00" stroke-opacity="1.000" stroke-linecap="round" /><line x1="28.00" y1="215.20" x2="932.40" y2="215.20" stroke="#e2e1dc" stroke-width="1.00" stroke-opacity="1.000" stroke-linecap="round" /><line x1="28.00" y1="207.52" x2="932.40" y2="207.52" stroke="#e2e1dc" stroke-width="1.00" stroke-opacity="1.000" stroke-linecap="round" /><line x1="28.00" y1="199.84" x2="932.40" y2="199.84" stroke="#e2e1dc" stroke-width="1.00" stroke-opacity="1.000" stroke-linecap="round" /><line x1="28.00" y1="192.16" x2="932.40" y2="192.16" stroke="#e2e1dc" stroke-width="1.00" stroke-opacity="1.000" stroke-linecap="round" /><line x1="28.00" y1="184.49" x2="932.40" y2="184.49" stroke="#e2e1dc" stroke-width="1.00" stroke-opacity="1.000" stroke-linecap="round" /><line x1="28.00" y1="176.81" x2="932.40" y2="176.81" stroke="#e2e1dc" stroke-width="1.00" stroke-opacity="1.000" stroke-linecap="round" /><line x1="28.00" y1="169.13" x2="932.40" y2="169.13" stroke="#e2e1dc" stroke-width="1.00" stroke-opacity="1.000" stroke-linecap="round" /><line x1="28.00" y1="161.45" x2="932.40" y2="161.45" stroke="#e2e1dc" stroke-width="1.00" stroke-opacity="1.000" stroke-linecap="round" /><line x1="28.00" y1="153.77" x2="932.40" y2="153.77" stroke="#e2e1dc" stroke-width="1.00" stroke-opacity="1.000" stroke-linecap="round" /><line x1="28.00" y1="146.09" x2="932.40" y2="146.09" stroke="#e2e1dc" stroke-width="1.00" stroke-opacity="1.000" stroke-linecap="round" /><line x1="28.00" y1="138.42" x2="932.40" y2="138.42" stroke="#e2e1dc" stroke-width="1.00" stroke-opacity="1.000" stroke-linecap="round" /><line x1="28.00" y1="130.74" x2="932.40" y2="130.74" stroke="#e2e1dc" stroke-width="1.00" stroke-opacity="1.000" stroke-linecap="round" /><line x1="28.00" y1="123.06" x2="932.40" y2="123.06" stroke="#e2e1dc" stroke-width="1.00" stroke-opacity="1.000" stroke-linecap="round" /><line x1="28.00" y1="115.38" x2="932.40" y2="115.38" stroke="#e2e1dc" stroke-width="1.00" stroke-opacity="1.000" stroke-linecap="round" /><line x1="28.00" y1="107.70" x2="932.40" y2="107.70" stroke="#e2e1dc" stroke-width="1.00" stroke-opacity="1.000" stroke-linecap="round" /><line x1="28.00" y1="100.03" x2="932.40" y2="100.03" stroke="#e2e1dc" stroke-width="1.00" stroke-opacity="1.000" stroke-linecap="round" /><line x1="28.00" y1="92.35" x2="932.40" y2="92.35" stroke="#e2e1dc" stroke-width="1.00" stroke-opacity="1.000" stroke-linecap="round" /><line x1="28.00" y1="84.67" x2="932.40" y2="84.67" stroke="#e2e1dc" stroke-width="1.00" stroke-opacity="1.000" stroke-linecap="round" /><line x1="28.00" y1="76.99" x2="932.40" y2="76.99" stroke="#e2e1dc" stroke-width="1.00" stroke-opacity="1.000" stroke-linecap="round" /><line x1="28.00" y1="69.31" x2="932.40" y2="69.31" stroke="#e2e1dc" stroke-width="1.00" stroke-opacity="1.000" stroke-linecap="round" /><line x1="28.00" y1="61.64" x2="932.40" y2="61.64" stroke="#e2e1dc" stroke-width="1.00" stroke-opacity="1.000" stroke-linecap="round" /><line x1="28.00" y1="53.96" x2="932.40" y2="53.96" stroke="#e2e1dc" stroke-width="1.00" stroke-opacity="1.000" stroke-linecap="round" /><line x1="28.00" y1="46.28" x2="932.40" y2="46.28" stroke="#e2e1dc" stroke-width="1.00" stroke-opacity="1.000" stroke-linecap="round" /><line x1="28.00" y1="38.60" x2="932.40" y2="38.60" stroke="#e2e1dc" stroke-width="1.00" stroke-opacity="1.000" stroke-linecap="round" /><line x1="28.00" y1="30.92" x2="932.40" y2="30.92" stroke="#e2e1dc" stroke-width="1.00" stroke-opacity="1.000" stroke-linecap="round" /><line x1="28.00" y1="23.25" x2="932.40" y2="23.25" stroke="#e2e1dc" stroke-width="1.00" stroke-opacity="1.000" stroke-linecap="round" /><polygon points="671.02,195.89 676.33,203.82 676.18,203.92 670.87,195.98" fill="#ffffff" fill-opacity="1.000" stroke="#0f1114" stroke-width="1.80" stroke-opacity="1.000" stroke-linejoin="round" stroke-linecap="round" /><line x1="670.94" y1="195.94" x2="676.25" y2="203.87" stroke="#4d4d4d" stroke-width="1.20" stroke-opacity="1.000" stroke-linecap="round" stroke-dasharray="10 7" /><g><rect x="646.77" y="184.90" width="53.65" height="21.00" fill="#ffffff" stroke="#111111" stroke-width="1.0" rx="2.5" /><text x="673.60" y="199.90" fill="#111111" font-family="monospace" font-size="13.0" text-anchor="center">14/32</text></g><polygon points="672.35,197.27 674.92,201.10 674.72,201.23 672.16,197.40" fill="#ffffff" fill-opacity="1.000" stroke="#0f1114" stroke-width="1.80" stroke-opacity="1.000" stroke-linejoin="round" stroke-linecap="round" /><line x1="672.25" y1="197.33" x2="674.82" y2="201.16" stroke="#4d4d4d" stroke-width="1.20" stroke-opacity="1.000" stroke-linecap="round" stroke-dasharray="10 7" /><g><rect x="638.78" y="184.25" width="69.51" height="21.00" fill="#ffffff" stroke="#111111" stroke-width="1.0" rx="2.5" /><text x="673.54" y="199.25" fill="#111111" font-family="monospace" font-size="13.0" text-anchor="center">14L/32R</text></g><circle cx="679.23" cy="179.45" r="5.50" fill="#1e3f6d" fill-opacity="1.000" stroke="#ffffff" stroke-width="1.40" /><g><rect x="637.92" y="150.95" width="82.62" height="20.50" fill="#ffffff" stroke="#444444" stroke-width="1.0" rx="2.5" /><text x="679.23" y="165.45" fill="#111111" font-family="monospace" font-size="12.5" text-anchor="center">HOLDING E</text></g><circle cx="669.67" cy="218.34" r="5.50" fill="#1e3f6d" fill-opacity="1.000" stroke="#ffffff" stroke-width="1.40" /><g><rect x="628.36" y="189.84" width="82.62" height="20.50" fill="#ffffff" stroke="#444444" stroke-width="1.0" rx="2.5" /><text x="669.67" y="204.34" fill="#111111" font-family="monospace" font-size="12.5" text-anchor="center">HOLDING W</text></g><circle cx="739.65" cy="231.62" r="5.50" fill="#1e3f6d" fill-opacity="1.000" stroke="#ffffff" stroke-width="1.40" /><g><rect x="721.21" y="203.12" width="36.88" height="20.50" fill="#ffffff" stroke="#444444" stroke-width="1.0" rx="2.5" /><text x="739.65" y="217.62" fill="#111111" font-family="monospace" font-size="12.5" text-anchor="center">ME1</text></g><circle cx="717.85" cy="157.86" r="5.50" fill="#1e3f6d" fill-opacity="1.000" stroke="#ffffff" stroke-width="1.40" /><g><rect x="699.41" y="129.36" width="36.88" height="20.50" fill="#ffffff" stroke="#444444" stroke-width="1.0" rx="2.5" /><text x="717.85" y="143.86" fill="#111111" font-family="monospace" font-size="12.5" text-anchor="center">ME2</text></g><circle cx="665.92" cy="116.01" r="5.50" fill="#1e3f6d" fill-opacity="1.000" stroke="#ffffff" stroke-width="1.40" /><g><rect x="647.48" y="87.51" width="36.88" height="20.50" fill="#ffffff" stroke="#444444" stroke-width="1.0" rx="2.5" /><text x="665.92" y="102.01" fill="#111111" font-family="monospace" font-size="12.5" text-anchor="center">MN1</text></g><circle cx="639.95" cy="236.13" r="5.50" fill="#1e3f6d" fill-opacity="1.000" stroke="#ffffff" stroke-width="1.40" /><g><rect x="621.52" y="207.63" width="36.88" height="20.50" fill="#ffffff" stroke="#444444" stroke-width="1.0" rx="2.5" /><text x="639.95" y="222.13" fill="#111111" font-family="monospace" font-size="12.5" text-anchor="center">MS1</text></g><circle cx="788.15" cy="125.73" r="5.50" fill="#1e3f6d" fill-opacity="1.000" stroke="#ffffff" stroke-width="1.40" /><g><rect x="769.72" y="97.23" width="36.88" height="20.50" fill="#ffffff" stroke="#444444" stroke-width="1.0" rx="2.5" /><text x="788.15" y="111.73" fill="#111111" font-family="monospace" font-size="12.5" text-anchor="center">ME3</text></g><circle cx="671.80" cy="143.64" r="5.50" fill="#1e3f6d" fill-opacity="1.000" stroke="#ffffff" stroke-width="1.40" /><g><rect x="653.36" y="115.14" width="36.88" height="20.50" fill="#ffffff" stroke="#444444" stroke-width="1.0" rx="2.5" /><text x="671.80" y="129.64" fill="#111111" font-family="monospace" font-size="12.5" text-anchor="center">MN2</text></g><circle cx="606.15" cy="268.85" r="5.50" fill="#1e3f6d" fill-opacity="1.000" stroke="#ffffff" stroke-width="1.40" /><g><rect x="587.71" y="240.35" width="36.88" height="20.50" fill="#ffffff" stroke="#444444" stroke-width="1.0" rx="2.5" /><text x="606.15" y="254.85" fill="#111111" font-family="monospace" font-size="12.5" text-anchor="center">MS2</text></g><circle cx="618.89" cy="172.69" r="5.50" fill="#1e3f6d" fill-opacity="1.000" stroke="#ffffff" stroke-width="1.40" /><g><rect x="600.45" y="144.19" width="36.88" height="20.50" fill="#ffffff" stroke="#444444" stroke-width="1.0" rx="2.5" /><text x="618.89" y="158.69" fill="#111111" font-family="monospace" font-size="12.5" text-anchor="center">MW1</text></g><circle cx="642.57" cy="113.16" r="5.50" fill="#1e3f6d" fill-opacity="1.000" stroke="#ffffff" stroke-width="1.40" /><g><rect x="616.50" y="84.66" width="52.12" height="20.50" fill="#ffffff" stroke="#444444" stroke-width="1.0" rx="2.5" /><text x="642.57" y="99.16" fill="#111111" font-family="monospace" font-size="12.5" text-anchor="center">OSMOT</text></g><circle cx="624.93" cy="176.13" r="5.50" fill="#1e3f6d" fill-opacity="1.000" stroke="#ffffff" stroke-width="1.40" /><g><rect x="598.87" y="147.63" width="52.12" height="20.50" fill="#ffffff" stroke="#444444" stroke-width="1.0" rx="2.5" /><text x="624.93" y="162.13" fill="#111111" font-family="monospace" font-size="12.5" text-anchor="center">LAPNA</text></g><circle cx="675.96" cy="224.39" r="5.50" fill="#1e3f6d" fill-opacity="1.000" stroke="#ffffff" stroke-width="1.40" /><g><rect x="649.90" y="195.89" width="52.12" height="20.50" fill="#ffffff" stroke="#444444" stroke-width="1.0" rx="2.5" /><text x="675.96" y="210.39" fill="#111111" font-family="monospace" font-size="12.5" text-anchor="center">IRLIX</text></g><circle cx="719.40" cy="201.50" r="5.50" fill="#1e3f6d" fill-opacity="1.000" stroke="#ffffff" stroke-width="1.40" /><g><rect x="693.34" y="173.00" width="52.12" height="20.50" fill="#ffffff" stroke="#444444" stroke-width="1.0" rx="2.5" /><text x="719.40" y="187.50" fill="#111111" font-family="monospace" font-size="12.5" text-anchor="center">MIRSO</text></g><circle cx="663.71" cy="102.13" r="5.50" fill="#1e3f6d" fill-opacity="1.000" stroke="#ffffff" stroke-width="1.40" /><g><rect x="637.65" y="73.63" width="52.12" height="20.50" fill="#ffffff" stroke="#444444" stroke-width="1.0" rx="2.5" /><text x="663.71" y="88.13" fill="#111111" font-family="monospace" font-size="12.5" text-anchor="center">GOLVA</text></g><circle cx="709.44" cy="103.08" r="5.50" fill="#1e3f6d" fill-opacity="1.000" stroke="#ffffff" stroke-width="1.40" /><g><rect x="683.38" y="74.58" width="52.12" height="20.50" fill="#ffffff" stroke="#444444" stroke-width="1.0" rx="2.5" /><text x="709.44" y="89.08" fill="#111111" font-family="monospace" font-size="12.5" text-anchor="center">MUREG</text></g><circle cx="758.86" cy="272.55" r="5.50" fill="#1e3f6d" fill-opacity="1.000" stroke="#ffffff" stroke-width="1.40" /><g><rect x="732.79" y="244.05" width="52.12" height="20.50" fill="#ffffff" stroke="#444444" stroke-width="1.0" rx="2.5" /><text x="758.86" y="258.55" fill="#111111" font-family="monospace" font-size="12.5" text-anchor="center">PETOV</text></g><circle cx="846.45" cy="243.24" r="5.50" fill="#1e3f6d" fill-opacity="1.000" stroke="#ffffff" stroke-width="1.40" /><g><rect x="820.39" y="214.74" width="52.12" height="20.50" fill="#ffffff" stroke="#444444" stroke-width="1.0" rx="2.5" /><text x="846.45" y="229.24" fill="#111111" font-family="monospace" font-size="12.5" text-anchor="center">OBUTI</text></g><circle cx="764.56" cy="61.46" r="5.50" fill="#1e3f6d" fill-opacity="1.000" stroke="#ffffff" stroke-width="1.40" /><g><rect x="738.49" y="32.96" width="52.12" height="20.50" fill="#ffffff" stroke="#444444" stroke-width="1.0" rx="2.5" /><text x="764.56" y="47.46" fill="#111111" font-family="monospace" font-size="12.5" text-anchor="center">NIDLO</text></g><circle cx="763.49" cy="113.40" r="5.50" fill="#1e3f6d" fill-opacity="1.000" stroke="#ffffff" stroke-width="1.40" /><g><rect x="737.43" y="84.90" width="52.12" height="20.50" fill="#ffffff" stroke="#444444" stroke-width="1.0" rx="2.5" /><text x="763.49" y="99.40" fill="#111111" font-family="monospace" font-size="12.5" text-anchor="center">TISKO</text></g><circle cx="890.14" cy="112.92" r="5.50" fill="#1e3f6d" fill-opacity="1.000" stroke="#ffffff" stroke-width="1.40" /><g><rect x="864.08" y="84.42" width="52.12" height="20.50" fill="#ffffff" stroke="#444444" stroke-width="1.0" rx="2.5" /><text x="890.14" y="98.92" fill="#111111" font-family="monospace" font-size="12.5" text-anchor="center">DIMLO</text></g><circle cx="649.42" cy="302.41" r="5.50" fill="#1e3f6d" fill-opacity="1.000" stroke="#ffffff" stroke-width="1.40" /><g><rect x="630.99" y="273.91" width="36.88" height="20.50" fill="#ffffff" stroke="#444444" stroke-width="1.0" rx="2.5" /><text x="649.42" y="288.41" fill="#111111" font-family="monospace" font-size="12.5" text-anchor="center">MS3</text></g><circle cx="819.84" cy="174.47" r="5.50" fill="#1e3f6d" fill-opacity="1.000" stroke="#ffffff" stroke-width="1.40" /><g><rect x="801.40" y="145.97" width="36.88" height="20.50" fill="#ffffff" stroke="#444444" stroke-width="1.0" rx="2.5" /><text x="819.84" y="160.47" fill="#111111" font-family="monospace" font-size="12.5" text-anchor="center">ME4</text></g><g><rect x="648.59" y="165.44" width="47.55" height="19.00" fill="#ffffff" stroke="#7e7e7e" stroke-width="1.0" rx="2.5" /><text x="672.37" y="178.44" fill="#6a5151" font-family="monospace" font-size="11.0" text-anchor="center">tower</text></g></svg>