<svg xmlns="http://www.w3.org/2000/svg" width="1040" height="680" viewBox="0 0 1040 680"><rect x="0" y="0" width="1040" height="680" fill="#f7f7f4" /><line x1="21.84" y1="652.00" x2="21.84" y2="28.00" stroke="#e2e1dc" stroke-width="1.00" stroke-opacity="1.000" stroke-linecap="round" /><line x1="28.59" y1="652.00" x2="28.59" y2="28.00" stroke="#e2e1dc" stroke-width="1.00" stroke-opacity="1.000" stroke-linecap="round" /><line x1="35.34" y1="652.00" x2="35.34" y2="28.00" stroke="#e2e1dc" stroke-width="1.00" stroke-opacity="1.000" stroke-linecap="round" /><line x1="42.09" y1="652.00" x2="42.09" y2="28.00" stroke="#e2e1dc" stroke-width="1.00" stroke-opacity="1.000" stroke-linecap="round" /><line x1="48.83" y1="652.00" x2="48.83" y2="28.00" stroke="#e2e1dc" stroke-width="1.00" stroke-opacity="1.000" stroke-linecap="round" /><line x1="55.58" y1="652.00" x2="55.58" y2="28.00" stroke="#e2e1dc" stroke-width="1.00" stroke-opacity="1.000" stroke-linecap="round" /><line x1="62.33" y1="652.00" x2="62.33" y2="28.00" stroke="#e2e1dc" stroke-width="1.00" stroke-opacity="1.000" stroke-linecap="round" /><line x1="69.07" y1="652.00" x2="69.07" y2="28.00" stroke="#e2e1dc" stroke-width="1.00" stroke-opacity="1.000" stroke-linecap="round" /><line x1="75.82" y1="652.00" x2="75.82" y2="28.00" stroke="#e2e1dc" stroke-width="1.00" stroke-opacity="1.000" stroke-linecap="round" /><line x1="82.57" y1="652.00" x2="82.57" y2="28.00" stroke="#e2e1dc" stroke-width="1.00" stroke-opacity="1.000" stroke-linecap="round" /><line x1="89.32" y1="652.00" x2="89.32" y2="28.00" stroke="#e2e1dc" stroke-width="1.00" stroke-opacity="1.000" stroke-linecap="round" /><line x1="96.06" y1="652.00" x2="96.06" y2="28.00" stroke="#e2e1dc" stroke-width="1.00" stroke-opacity="1.000" stroke-linecap="round" /><line x1="102.81" y1="652.00" x2="102.81" y2="28.00" stroke="#e2e1dc" stroke-width="1.00" stroke-opacity="1.000" stroke-linecap="round" /><line x1="109.56" y1="652.00" x2="109.56" y2="28.00" stroke="#e2e1dc" stroke-width="1.00" stroke-opacity="1.000" stroke-linecap="round" /><line x1="116.30" y1="652.00" x2="116.30" y2="28.00" stroke="#e2e1dc" stroke-width="1.00" stroke-opacity="1.000" stroke-linecap="round" /><line x1="123.05" y1="652.00" x2="123.05" y2="28.00" stroke="#e2e1dc" stroke-width="1.00" stroke-opacity="1.000" stroke-linecap="round" /><line x1="129.80" y1="652.00" x2="129.80" y2="28.00" stroke="#e2e1dc" stroke-width="1.00" stroke-opacity="1.000" stroke-linecap="round" /><line x1="136.55" y1="652.00" x2="136.55" y2="28.00" stroke="#e2e1dc" stroke-width="1.00" stroke-opacity="1.000" stroke-linecap="round" /><line x1="143.29" y1="652.00" x2="143.29" y2="28.00" stroke="#e2e1dc" stroke-width="1.00" stroke-opacity="1.000" stroke-linecap="round" /><line x1="150.04" y1="652.00" x2="150.04" y2="28.00" stroke="#e2e1dc" stroke-width="1.00" stroke-opacity="1.000" stroke-linecap="round" /><line x1="156.79" y1="652.00" x2="156.79" y2="28.00" stroke="#e2e1dc" stroke-width="1.00" stroke-opacity="1.000" stroke-linecap="round" /><line x1="163.53" y1="652.00" x2="163.53" y2="28.00" stroke="#e2e1dc" stroke-width="1.00" stroke-opacity="1.000" stroke-linecap="round" /><line x1="170.28" y1="652.00" x2="170.28" y2="28.00" stroke="#e2e1dc" stroke-width="1.00" stroke-opacity="1.000" stroke-linecap="round" /><line x1="177.03" y1="652.00" x2="177.03" y2="28.00" stroke="#e2e1dc" stroke-width="1.00" stroke-opacity="1.000" stroke-linecap="round" /><line x1="183.78" y1="652.00" x2="183.78" y2="28.00" stroke="#e2e1dc" stroke-width="1.00" stroke-opacity="1.000" stroke-linecap="round" /><line x1="190.52" y1="652.00" x2="190.52" y2="28.00" stroke="#e2e1dc" stroke-width="1.00" stroke-opacity="1.000" stroke-linecap="round" /><line x1="197.27" y1="652.00" x2="197.27" y2="28.00" stroke="#e2e1dc" stroke-width="1.00" stroke-opacity="1.000" stroke-linecap="round" /><line x1="204.02" y1="652.00" x2="204.02" y2="28.00" stroke="#e2e1dc" stroke-width="1.00" stroke-opacity="1.000" stroke-linecap="round" /><line x1="210.76" y1="652.00" x2="210.76" y2="28.00" stroke="#e2e1dc" stroke-width="1.00" stroke-opacity="1.000" stroke-linecap="round" /><line x1="217.51" y1="652.00" x2="217.51" y2="28.00" stroke="#e2e1dc" stroke-width="1.00" stroke-opacity="1.000" stroke-linecap="round" /><line x1="224.26" y1="652.00" x2="224.26" y2="28.00" stroke="#e2e1dc" stroke-width="1.00" stroke-opacity="1.000" stroke-linecap="round" /><line x1="231.01" y1="652.00" x2="231.01" y2="28.00" stroke="#e2e1dc" stroke-width="1.00" stroke-opacity="1.000" stroke-linecap="round" /><line x1="237.75" y1="652.00" x2="237.75" y2="28.00" stroke="#e2e1dc" stroke-width="1.00" stroke-opacity="1.000" stroke-linecap="round" /><line x1="244.50" y1="652.00" x2="244.50" y2="28.00" stroke="#e2e1dc" stroke-width="1.00" stroke-opacity="1.000" stroke-linecap="round" /><line x1="251.25" y1="652.00" x2="251.25" y2="28.00" stroke="#e2e1dc" stroke-width="1.00" stroke-opacity="1.000" stroke-linecap="round" /><line x1="258.00" y1="652.00" x2="258.00" y2="28.00" stroke="#e2e1dc" stroke-width="1.00" stroke-opacity="1.000" stroke-linecap="round" /><line x1="264.74" y1="652.00" x2="264.74" y2="28.00" stroke="#e2e1dc" stroke-width="1.00" stroke-opacity="1.000" stroke-linecap="round" /><line x1="271.49" y1="652.00" x2="271.49" y2="28.00" stroke="#e2e1dc" stroke-width="1.00" stroke-opacity="1.000" stroke-linecap="round" /><line x1="278.24" y1="652.00" x2="278.24" y2="28.00" stroke="#e2e1dc" stroke-width="1.00" stroke-opacity="1.000" stroke-linecap="round" /><line x1="284.98" y1="652.00" x2="284.98" y2="28.00" stroke="#e2e1dc" stroke-width="1.00" stroke-opacity="1.000" stroke-linecap="round" /><line x1="291.73" y1="652.00" x2="291.73" y2="28.00" stroke="#e2e1dc" stroke-width="1.00" stroke-opacity="1.000" stroke-linecap="round" /><line x1="298.48" y1="652.00" x2="298.48" y2="28.00" stroke="#e2e1dc" stroke-width="1.00" stroke-opacity="1.000" stroke-linecap="round" /><line x1="305.23" y1="652.00" x2="305.23" y2="28.00" stroke="#e2e1dc" stroke-width="1.00" stroke-opacity="1.000" stroke-linecap="round" /><line x1="311.97" y1="652.00" x2="311.97" y2="28.00" stroke="#e2e1dc" stroke-width="1.00" stroke-opacity="1.000" stroke-linecap="round" /><line x1="318.72" y1="652.00" x2="318.72" y2="28.00" stroke="#e2e1dc" stroke-width="1.00" stroke-opacity="1.000" stroke-linecap="round" /><line x1="325.47" y1="652.00" x2="325.47" y2="28.00" stroke="#e2e1dc" stroke-width="1.00" stroke-opacity="1.000" stroke-linecap="round" /><line x1="332.21" y1="652.00" x2="332.21" y2="28.00" stroke="#e2e1dc" stroke-width="1.00" stroke-opacity="1.000" stroke-linecap="round" /><line x1="338.96" y1="652.00" x2="338.96" y2="28.00" stroke="#e2e1dc" stroke-width="1.00" stroke-opacity="1.000" stroke-linecap="round" /><line x1="345.71" y1="652.00" x2="345.71" y2="28.00" stroke="#e2e1dc" stroke-width="1.00" stroke-opacity="1.000" stroke-linecap="round" /><line x1="352.46" y1="652.00" x2="352.46" y2="28.00" stroke="#e2e1dc" stroke-width="1.00" stroke-opacity="1.000" stroke-linecap="round" /><line x1="359.20" y1="652.00" x2="359.20" y2="28.00" stroke="#e2e1dc" stroke-width="1.00" stroke-opacity="1.000" stroke-linecap="round" /><line x1="365.95" y1="652.00" x2="365.95" y2="28.00" stroke="#e2e1dc" stroke-width="1.00" stroke-opacity="1.000" stroke-linecap="round" /><line x1="372.70" y1="652.00" x2="372.70" y2="28.00" stroke="#e2e1dc" stroke-width="1.00" stroke-opacity="1.000" stroke-linecap="round" /><line x1="379.44" y1="652.00" x2="379.44" y2="28.00" stroke="#e2e1dc" stroke-width="1.00" stroke-opacity="1.000" stroke-linecap="round" /><line x1="386.19" y1="652.00" x2="386.19" y2="28.00" stroke="#e2e1dc" stroke-width="1.00" stroke-opacity="1.000" stroke-linecap="round" /><line x1="392.94" y1="652.00" x2="392.94" y2="28.00" stroke="#e2e1dc" stroke-width="1.00" stroke-opacity="1.000" stroke-linecap="round" /><line x1="399.69" y1="652.00" x2="399.69" y2="28.00" stroke="#e2e1dc" stroke-width="1.00" stroke-opacity="1.000" stroke-linecap="round" /><line x1="406.43" y1="652.00" x2="406.43" y2="28.00" stroke="#e2e1dc" stroke-width="1.00" stroke-opacity="1.000" stroke-linecap="round" /><line x1="413.18" y1="652.00" x2="413.18" y2="28.00" stroke="#e2e1dc" stroke-width="1.00" stroke-opacity="1.000" stroke-linecap="round" /><line x1="419.93" y1="652.00" x2="419.93" y2="28.00" stroke="#e2e1dc" stroke-width="1.00" stroke-opacity="1.000" stroke-linecap="round" /><line x1="426.67" y1="652.00" x2="426.67" y2="28.00" stroke="#e2e1dc" stroke-width="1.00" stroke-opacity="1.000" stroke-linecap="round" /><line x1="433.42" y1="652.00" x2="433.42" y2="28.00" stroke="#e2e1dc" stroke-width="1.00" stroke-opacity="1.000" stroke-linecap="round" /><line x1="440.17" y1="652.00" x2="440.17" y2="28.00" stroke="#e2e1dc" stroke-width="1.00" stroke-opacity="1.000" stroke-linecap="round" /><line x1="446.92" y1="652.00" x2="446.92" y2="28.00" stroke="#e2e1dc" stroke-width="1.00" stroke-opacity="1.000" stroke-linecap="round" /><line x1="453.66" y1="652.00" x2="453.66" y2="28.00" stroke="#e2e1dc" stroke-width="1.00" stroke-opacity="1.000" stroke-linecap="round" /><line x1="28.00" y1="657.71" x2="452.67" y2="657.71" stroke="#e2e1dc" stroke-width="1.00" stroke-opacity="1.000" stroke-linecap="round" /><line x1="28.00" y1="650.97" x2="452.67" y2="650.97" stroke="#e2e1dc" stroke-width="1.00" stroke-opacity="1.000" stroke-linecap="round" /><line x1="28.00" y1="644.22" x2="452.67" y2="644.22" stroke="#e2e1dc" stroke-width="1.00" stroke-opacity="1.000" stroke-linecap="round" /><line x1="28.00" y1="637.47" x2="452.67" y2="637.47" stroke="#e2e1dc" stroke-width="1.00" stroke-opacity="1.000" stroke-linecap="round" /><line x1="28.00" y1="630.73" x2="452.67" y2="630.73" stroke="#e2e1dc" stroke-width="1.00" stroke-opacity="1.000" stroke-linecap="round" /><line x1="28.00" y1="623.98" x2="452.67" y2="623.98" stroke="#e2e1dc" stroke-width="1.00" stroke-opacity="1.000" stroke-linecap="round" /><line x1="28.00" y1="617.23" x2="452.67" y2="617.23" stroke="#e2e1dc" stroke-width="1.00" stroke-opacity="1.000" stroke-linecap="round" /><line x1="28.00" y1="610.48" x2="452.67" y2="610.48" stroke="#e2e1dc" stroke-width="1.00" stroke-opacity="1.000" stroke-linecap="round" /><line x1="28.00" y1="603.74" x2="452.67" y2="603.74" stroke="#e2e1dc" stroke-width="1.00" stroke-opacity="1.000" stroke-linecap="round" /><line x1="28.00" y1="596.99" x2="452.67" y2="596.99" stroke="#e2e1dc" stroke-width="1.00" stroke-opacity="1.000" stroke-linecap="round" /><line x1="28.00" y1="590.24" x2="452.67" y2="590.24" stroke="#e2e1dc" stroke-width="1.00" stroke-opacity="1.000" stroke-linecap="round" /><line x1="28.00" y1="583.50" x2="452.67" y2="583.50" stroke="#e2e1dc" stroke-width="1.00" stroke-opacity="1.000" stroke-linecap="round" /><line x1="28.00" y1="576.75" x2="452.67" y2="576.75" stroke="#e2e1dc" stroke-width="1.00" stroke-opacity="1.000" stroke-linecap="round" /><line x1="28.00" y1="570.00" x2="452.67" y2="570.00" stroke="#e2e1dc" stroke-width="1.00" stroke-opacity="1.000" stroke-linecap="round" /><line x1="28.00" y1="563.25" x2="452.67" y2="563.25" stroke="#e2e1dc" stroke-width="1.00" stroke-opacity="1.000" stroke-linecap="round" /><line x1="28.00" y1="556.51" x2="452.67" y2="556.51" stroke="#e2e1dc" stroke-width="1.00" stroke-opacity="1.000" stroke-linecap="round" /><line x1="28.00" y1="549.76" x2="452.67" y2="549.76" stroke="#e2e1dc" stroke-width="1.00" stroke-opacity="1.000" stroke-linecap="round" /><line x1="28.00" y1="543.01" x2="452.67" y2="543.01" stroke="#e2e1dc" stroke-width="1.00" stroke-opacity="1.000" stroke-linecap="round" /><line x1="28.00" y1="536.27" x2="452.67" y2="536.27" stroke="#e2e1dc" stroke-width="1.00" stroke-opacity="1.000" stroke-linecap="round" /><line x1="28.00" y1="529.52" x2="452.67" y2="529.52" stroke="#e2e1dc" stroke-width="1.00" stroke-opacity="1.000" stroke-linecap="round" /><line x1="28.00" y1="522.77" x2="452.67" y2="522.77" stroke="#e2e1dc" stroke-width="1.00" stroke-opacity="1.000" stroke-linecap="round" /><line x1="28.00" y1="516.02" x2="452.67" y2="516.02" stroke="#e2e1dc" stroke-width="1.00" stroke-opacity="1.000" stroke-linecap="round" /><line x1="28.00" y1="509.28" x2="452.67" y2="509.28" stroke="#e2e1dc" stroke-width="1.00" stroke-opacity="1.000" stroke-linecap="round" /><line x1="28.00" y1="502.53" x2="452.67" y2="502.53" stroke="#e2e1dc" stroke-width="1.00" stroke-opacity="1.000" stroke-linecap="round" /><line x1="28.00" y1="495.78" x2="452.67" y2="495.78" stroke="#e2e1dc" stroke-width="1.00" stroke-opacity="1.000" stroke-linecap="round" /><line x1="28.00" y1="489.04" x2="452.67" y2="489.04" stroke="#e2e1dc" stroke-width="1.00" stroke-opacity="1.000" stroke-linecap="round" /><line x1="28.00" y1="482.29" x2="452.67" y2="482.29" stroke="#e2e1dc" stroke-width="1.00" stroke-opacity="1.000" stroke-linecap="round" /><line x1="28.00" y1="475.54" x2="452.67" y2="475.54" stroke="#e2e1dc" stroke-width="1.00" stroke-opacity="1.000" stroke-linecap="round" /><line x1="28.00" y1="468.79" x2="452.67" y2="468.79" stroke="#e2e1dc" stroke-width="1.00" stroke-opacity="1.000" stroke-linecap="round" /><line x1="28.00" y1="462.05" x2="452.67" y2="462.05" stroke="#e2e1dc" stroke-width="1.00" stroke-opacity="1.000" stroke-linecap="round" /><line x1="28.00" y1="455.30" x2="452.67" y2="455.30" stroke="#e2e1dc" stroke-width="1.00" stroke-opacity="1.000" stroke-linecap="round" /><line x1="28.00" y1="448.55" x2="452.67" y2="448.55" stroke="#e2e1dc" stroke-width="1.00" stroke-opacity="1.000" stroke-linecap="round" /><line x1="28.00" y1="441.81" x2="452.67" y2="441.81" stroke="#e2e1dc" stroke-width="1.00" stroke-opacity="1.000" stroke-linecap="round" /><line x1="28.00" y1="435.06" x2="452.67" y2="435.06" stroke="#e2e1dc" stroke-width="1.00" stroke-opacity="1.000" stroke-linecap="round" /><line x1="28.00" y1="428.31" x2="452.67" y2="428.31" stroke="#e2e1dc" stroke-width="1.00" stroke-opacity="1.000" stroke-linecap="round" /><line x1="28.00" y1="421.56" x2="452.67" y2="421.56" stroke="#e2e1dc" stroke-width="1.00" stroke-opacity="1.000" stroke-linecap="round" /><line x1="28.00" y1="414.82" x2="452.67" y2="414.82" stroke="#e2e1dc" stroke-width="1.00" stroke-opacity="1.000" stroke-linecap="round" /><line x1="28.00" y1="408.07" x2="452.67" y2="408.07" stroke="#e2e1dc" stroke-width="1.00" stroke-opacity="1.000" stroke-linecap="round" /><line x1="28.00" y1="401.32" x2="452.67" y2="401.32" stroke="#e2e1dc" stroke-width="1.00" stroke-opacity="1.000" stroke-linecap="round" /><line x1="28.00" y1="394.58" x2="452.67" y2="394.58" stroke="#e2e1dc" stroke-width="1.00" stroke-opacity="1.000" stroke-linecap="round" /><line x1="28.00" y1="387.83" x2="452.67" y2="387.83" stroke="#e2e1dc" stroke-width="1.00" stroke-opacity="1.000" stroke-linecap="round" /><line x1="28.00" y1="381.08" x2="452.67" y2="381.08" stroke="#e2e1dc" stroke-width="1.00" stroke-opacity="1.000" stroke-linecap="round" /><line x1="28.00" y1="374.33" x2="452.67" y2="374.33" stroke="#e2e1dc" stroke-width="1.00" stroke-opacity="1.000" stroke-linecap="round" /><line x1="28.00" y1="367.59" x2="452.67" y2="367.59" stroke="#e2e1dc" stroke-width="1.00" stroke-opacity="1.000" stroke-linecap="round" /><line x1="28.00" y1="360.84" x2="452.67" y2="360.84" stroke="#e2e1dc" stroke-width="1.00" stroke-opacity="1.000" stroke-linecap="round" /><line x1="28.00" y1="354.09" x2="452.67" y2="354.09" stroke="#e2e1dc" stroke-width="1.00" stroke-opacity="1.000" stroke-linecap="round" /><line x1="28.00" y1="347.35" x2="452.67" y2="347.35" stroke="#e2e1dc" stroke-width="1.00" stroke-opacity="1.000" stroke-linecap="round" /><line x1="28.00" y1="340.60" x2="452.67" y2="340.60" stroke="#e2e1dc" stroke-width="1.00" stroke-opacity="1.000" stroke-linecap="round" /><line x1="28.00" y1="333.85" x2="452.67" y2="333.85" stroke="#e2e1dc" stroke-width="1.00" stroke-opacity="1.000" stroke-linecap="round" /><line x1="28.00" y1="327.10" x2="452.67" y2="327.10" stroke="#e2e1dc" stroke-width="1.00" stroke-opacity="1.000" stroke-linecap="round" /><line x1="28.00" y1="320.36" x2="452.67" y2="320.36" stroke="#e2e1dc" stroke-width="1.00" stroke-opacity="1.000" stroke-linecap="round" /><line x1="28.00" y1="313.61" x2="452.67" y2="313.61" stroke="#e2e1dc" stroke-width="1.00" stroke-opacity="1.000" stroke-linecap="round" /><line x1="28.00" y1="306.86" x2="452.67" y2="306.86" stroke="#e2e1dc" stroke-width="1.00" stroke-opacity="1.000" stroke-linecap="round" /><line x1="28.00" y1="300.11" x2="452.67" y2="300.11" stroke="#e2e1dc" stroke-width="1.00" stroke-opacity="1.000" stroke-linecap="round" /><line x1="28.00" y1="293.37" x2="452.67" y2="293.37" stroke="#e2e1dc" stroke-width="1.00" stroke-opacity="1.000" stroke-linecap="round" /><line x1="28.00" y1="286.62" x2="452.67" y2="286.62" stroke="#e2e1dc" stroke-width="1.00" stroke-opacity="1.000" stroke-linecap="round" /><line x1="28.00" y1="279.87" x2="452.67" y2="279.87" stroke="#e2e1dc" stroke-width="1.00" stroke-opacity="1.000" stroke-linecap="round" /><line x1="28.00" y1="273.13" x2="452.67" y2="273.13" stroke="#e2e1dc" stroke-width="1.00" stroke-opacity="1.000" stroke-linecap="round" /><line x1="28.00" y1="266.38" x2="452.67" y2="266.38" stroke="#e2e1dc" stroke-width="1.00" stroke-opacity="1.000" stroke-linecap="round" /><line x1="28.00" y1="259.63" x2="452.67" y2="259.63" stroke="#e2e1dc" stroke-width="1.00" stroke-opacity="1.000" stroke-linecap="round" /><line x1="28.00" y1="252.88" x2="452.67" y2="252.88" stroke="#e2e1dc" stroke-width="1.00" stroke-opacity="1.000" stroke-linecap="round" /><line x1="28.00" y1="246.14" x2="452.67" y2="246.14" stroke="#e2e1dc" stroke-width="1.00" stroke-opacity="1.000" stroke-linecap="round" /><line x1="28.00" y1="239.39" x2="452.67" y2="239.39" stroke="#e2e1dc" stroke-width="1.00" stroke-opacity="1.000" stroke-linecap="round" /><line x1="28.00" y1="232.64" x2="452.67" y2="232.64" stroke="#e2e1dc" stroke-width="1.00" stroke-opacity="1.000" stroke-linecap="round" /><line x1="28.00" y1="225.90" x2="452.67" y2="225.90" stroke="#e2e1dc" stroke-width="1.00" stroke-opacity="1.000" stroke-linecap="round" /><line x1="28.00" y1="219.15" x2="452.67" y2="219.15" stroke="#e2e1dc" stroke-width="1.00" stroke-opacity="1.000" stroke-linecap="round" /><line x1="28.00" y1="212.40" x2="452.67" y2="212.40" stroke="#e2e1dc" stroke-width="1.00" stroke-opacity="1.000" stroke-linecap="round" /><line x1="28.00" y1="205.65" x2="452.67" y2="205.65" stroke="#e2e1dc" stroke-width="1.00" stroke-opacity="1.000" stroke-linecap="round" /><line x1="28.00" y1="198.91" x2="452.67" y2="198.91" stroke="#e2e1dc" stroke-width="1.00" stroke-opacity="1.000" stroke-linecap="round" /><line x1="28.00" y1="192.16" x2="452.67" y2="192.16" stroke="#e2e1dc" stroke-width="1.00" stroke-opacity="1.000" stroke-linecap="round" /><line x1="28.00" y1="185.41" x2="452.67" y2="185.41" stroke="#e2e1dc" stroke-width="1.00" stroke-opacity="1.000" stroke-linecap="round" /><line x1="28.00" y1="178.67" x2="452.67" y2="178.67" stroke="#e2e1dc" stroke-width="1.00" stroke-opacity="1.000" stroke-linecap="round" /><line x1="28.00" y1="171.92" x2="452.67" y2="171.92" stroke="#e2e1dc" stroke-width="1.00" stroke-opacity="1.000" stroke-linecap="round" /><line x1="28.00" y1="165.17" x2="452.67" y2="165.17" stroke="#e2e1dc" stroke-width="1.00" stroke-opacity="1.000" stroke-linecap="round" /><line x1="28.00" y1="158.42" x2="452.67" y2="158.42" stroke="#e2e1dc" stroke-width="1.00" stroke-opacity="1.000" stroke-linecap="round" /><line x1="28.00" y1="151.68" x2="452.67" y2="151.68" stroke="#e2e1dc" stroke-width="1.00" stroke-opacity="1.000" stroke-linecap="round" /><line x1="28.00" y1="144.93" x2="452.67" y2="144.93" stroke="#e2e1dc" stroke-width="1.00" stroke-opacity="1.000" stroke-linecap="round" /><line x1="28.00" y1="138.18" x2="452.67" y2="138.18" stroke="#e2e1dc" stroke-width="1.00" stroke-opacity="1.000" stroke-linecap="round" /><line x1="28.00" y1="131.44" x2="452.67" y2="131.44" stroke="#e2e1dc" stroke-width="1.00" stroke-opacity="1.000" stroke-linecap="round" /><line x1="28.00" y1="124.69" x2="452.67" y2="124.69" stroke="#e2e1dc" stroke-width="1.00" stroke-opacity="1.000" stroke-linecap="round" /><line x1="28.00" y1="117.94" x2="452.67" y2="117.94" stroke="#e2e1dc" stroke-width="1.00" stroke-opacity="1.000" stroke-linecap="round" /><line x1="28.00" y1="111.19" x2="452.67" y2="111.19" stroke="#e2e1dc" stroke-width="1.00" stroke-opacity="1.000" stroke-linecap="round" /><line x1="28.00" y1="104.45" x2="452.67" y2="104.45" stroke="#e2e1dc" stroke-width="1.00" stroke-opacity="1.000" stroke-linecap="round" /><line x1="28.00" y1="97.70" x2="452.67" y2="97.70" stroke="#e2e1dc" stroke-width="1.00" stroke-opacity="1.000" stroke-linecap="round" /><line x1="28.00" y1="90.95" x2="452.67" y2="90.95" stroke="#e2e1dc" stroke-width="1.00" stroke-opacity="1.000" stroke-linecap="round" /><line x1="28.00" y1="84.21" x2="452.67" y2="84.21" stroke="#e2e1dc" stroke-width="1.00" stroke-opacity="1.000" stroke-linecap="round" /><line x1="28.00" y1="77.46" x2="452.67" y2="77.46" stroke="#e2e1dc" stroke-width="1.00" stroke-opacity="1.000" stroke-linecap="round" /><line x1="28.00" y1="70.71" x2="452.67" y2="70.71" stroke="#e2e1dc" stroke-width="1.00" stroke-opacity="1.000" stroke-linecap="round" /><line x1="28.00" y1="63.96" x2="452.67" y2="63.96" stroke="#e2e1dc" stroke-width="1.00" stroke-opacity="1.000" stroke-linecap="round" /><line x1="28.00" y1="57.22" x2="452.67" y2="57.22" stroke="#e2e1dc" stroke-width="1.00" stroke-opacity="1.000" stroke-linecap="round" /><line x1="28.00" y1="50.47" x2="452.67" y2="50.47" stroke="#e2e1dc" stroke-width="1.00" stroke-opacity="1.000" stroke-linecap="round" /><line x1="28.00" y1="43.72" x2="452.67" y2="43.72" stroke="#e2e1dc" stroke-width="1.00" stroke-opacity="1.000" stroke-linecap="round" /><line x1="28.00" y1="36.98" x2="452.67" y2="36.98" stroke="#e2e1dc" stroke-width="1.00" stroke-opacity="1.000" stroke-linecap="round" /><line x1="28.00" y1="30.23" x2="452.67" y2="30.23" stroke="#e2e1dc" stroke-width="1.00" stroke-opacity="1.000" stroke-linecap="round" /><line x1="28.00" y1="23.48" x2="452.67" y2="23.48" stroke="#e2e1dc" stroke-width="1.00" stroke-opacity="1.000" stroke-linecap="round" /><polygon points="72.91,309.26 96.79,304.68 198.57,285.29 218.75,281.33 240.36,290.30 290.26,555.59 126.07,586.85 89.26,394.08 72.91,309.26" fill="#f1d6d6" fill-opacity="0.180" stroke="#748ea8" stroke-width="1.40" stroke-opacity="0.950" stroke-linejoin="round" stroke-linecap="round" /><polygon points="168.81,379.37 172.54,399.25 172.24,399.31 168.51,379.43" fill="#ffffff" fill-opacity="1.000" stroke="#0f1114" stroke-width="1.80" stroke-opacity="1.000" stroke-linejoin="round" stroke-linecap="round" /><line x1="168.66" y1="379.40" x2="172.39" y2="399.28" stroke="#4d4d4d" stroke-width="1.20" stroke-opacity="1.000" stroke-linecap="round" stroke-dasharray="10 7" /><g><rect x="135.77" y="374.34" width="69.51" height="21.00" fill="#ffffff" stroke="#111111" stroke-width="1.0" rx="2.5" /><text x="170.52" y="389.34" fill="#111111" font-family="monospace" font-size="13.0" text-anchor="center">16C/34C</text></g><polygon points="168.29,386.06 169.23,391.10 169.07,391.13 168.12,386.09" fill="#ffffff" fill-opacity="1.000" stroke="#0f1114" stroke-width="1.80" stroke-opacity="1.000" stroke-linejoin="round" stroke-linecap="round" /><line x1="168.20" y1="386.07" x2="169.15" y2="391.12" stroke="#4d4d4d" stroke-width="1.20" stroke-opacity="1.000" stroke-linecap="round" stroke-dasharray="10 7" /><g><rect x="133.92" y="373.59" width="69.51" height="21.00" fill="#ffffff" stroke="#111111" stroke-width="1.0" rx="2.5" /><text x="168.68" y="388.59" fill="#111111" font-family="monospace" font-size="13.0" text-anchor="center">16R/34L</text></g><polygon points="172.12,389.66 172.92,393.90 172.72,393.93 171.92,389.69" fill="#ffffff" fill-opacity="1.000" stroke="#0f1114" stroke-width="1.80" stroke-opacity="1.000" stroke-linejoin="round" stroke-linecap="round" /><line x1="172.02" y1="389.67" x2="172.82" y2="393.92" stroke="#4d4d4d" stroke-width="1.20" stroke-opacity="1.000" stroke-linecap="round" stroke-dasharray="10 7" /><g><rect x="137.66" y="376.79" width="69.51" height="21.00" fill="#ffffff" stroke="#111111" stroke-width="1.0" rx="2.5" /><text x="172.42" y="391.79" fill="#111111" font-family="monospace" font-size="13.0" text-anchor="center">16L/34R</text></g><polyline points="139.72,419.30 154.08,382.41 147.12,353.00 94.12,285.24 91.39,281.75" fill="none" fill-opacity="0.000" stroke="#1e3f6d" stroke-width="3.40" stroke-opacity="0.980" stroke-linejoin="round" stroke-linecap="round" /><g transform="rotate(103.31 140.76 344.87)"><rect x="38.44" y="330.37" width="204.62" height="20.50" fill="#1e3f6d" stroke="#1e3f6d" stroke-width="1.0" rx="2.5" /><text x="140.76" y="344.87" fill="#ffffff" font-family="monospace" font-size="12.5" text-anchor="center">vfr_western_corridor_path</text></g><circle cx="91.39" cy="281.75" r="5.50" fill="#1e3f6d" fill-opacity="1.000" stroke="#ffffff" stroke-width="1.40" /><g><rect x="50.08" y="253.25" width="82.62" height="20.50" fill="#ffffff" stroke="#444444" stroke-width="1.0" rx="2.5" /><text x="91.39" y="267.75" fill="#111111" font-family="monospace" font-size="12.5" text-anchor="center">GRAZ-NORD</text></g><circle cx="147.12" cy="353.00" r="5.50" fill="#1e3f6d" fill-opacity="1.000" stroke="#ffffff" stroke-width="1.40" /><g><rect x="102.00" y="324.50" width="90.25" height="20.50" fill="#ffffff" stroke="#444444" stroke-width="1.0" rx="2.5" /><text x="147.12" y="339.00" fill="#111111" font-family="monospace" font-size="12.5" text-anchor="center">GREEN CITY</text></g><circle cx="154.08" cy="382.41" r="5.50" fill="#1e3f6d" fill-opacity="1.000" stroke="#ffffff" stroke-width="1.40" /><g><rect x="97.51" y="353.91" width="113.12" height="20.50" fill="#ffffff" stroke="#444444" stroke-width="1.0" rx="2.5" /><text x="154.08" y="368.41" fill="#111111" font-family="monospace" font-size="12.5" text-anchor="center">AUTOBAHN-WEST</text></g></svg>