<svg xmlns="http://www.w3.org/2000/svg" width="1600" height="1361" viewBox="0 0 1600 1361">
  <rect x="0" y="0" width="1600" height="1361" fill="#0b0f14" />
  <text x="32" y="36" fill="#f0f6fc" font-size="22" font-family="monospace">LJMB VFR procedure overlay</text>
<line x1="585.43" y1="709.33" x2="628.91" y2="774.27" stroke="#4f5b68" stroke-width="4.00" stroke-opacity="0.280" stroke-linecap="round" />
<text x="607.17" y="741.80" dx="8.00" dy="-10.00" fill="#a8b6c5" font-size="16.0" font-family="monospace" text-anchor="start">14/32</text>
<line x1="596.13" y1="720.78" x2="617.16" y2="752.12" stroke="#4f5b68" stroke-width="4.00" stroke-opacity="0.280" stroke-linecap="round" />
<text x="606.65" y="736.45" dx="8.00" dy="-10.00" fill="#a8b6c5" font-size="16.0" font-family="monospace" text-anchor="start">14L/32R</text>
<line x1="599.72" y1="741.47" x2="599.45" y2="742.45" stroke="#243241" stroke-width="1.80" stroke-opacity="0.450" stroke-linecap="round" />
<line x1="599.45" y1="742.45" x2="603.40" y2="748.34" stroke="#243241" stroke-width="1.80" stroke-opacity="0.450" stroke-linecap="round" />
<line x1="603.40" y1="748.34" x2="604.67" y2="748.90" stroke="#243241" stroke-width="1.80" stroke-opacity="0.450" stroke-linecap="round" />
<line x1="601.55" y1="745.58" x2="599.77" y2="746.88" stroke="#243241" stroke-width="1.80" stroke-opacity="0.450" stroke-linecap="round" />
<line x1="604.65" y1="748.91" x2="602.07" y2="750.50" stroke="#243241" stroke-width="1.80" stroke-opacity="0.450" stroke-linecap="round" />
<line x1="603.40" y1="748.34" x2="603.15" y2="749.84" stroke="#243241" stroke-width="1.80" stroke-opacity="0.450" stroke-linecap="round" />
<line x1="599.45" y1="742.45" x2="598.45" y2="742.32" stroke="#243241" stroke-width="1.80" stroke-opacity="0.450" stroke-linecap="round" />
<line x1="602.57" y1="734.96" x2="609.90" y2="729.59" stroke="#243241" stroke-width="1.80" stroke-opacity="0.450" stroke-linecap="round" />
<line x1="609.90" y1="729.59" x2="610.05" y2="729.78" stroke="#243241" stroke-width="1.80" stroke-opacity="0.450" stroke-linecap="round" />
<line x1="609.90" y1="729.59" x2="609.77" y2="729.43" stroke="#243241" stroke-width="1.80" stroke-opacity="0.450" stroke-linecap="round" />
<line x1="609.62" y1="729.57" x2="609.88" y2="729.90" stroke="#243241" stroke-width="1.80" stroke-opacity="0.450" stroke-linecap="round" />
<line x1="603.97" y1="738.62" x2="604.36" y2="737.62" stroke="#243241" stroke-width="1.80" stroke-opacity="0.450" stroke-linecap="round" />
<line x1="603.97" y1="738.62" x2="605.04" y2="738.64" stroke="#243241" stroke-width="1.80" stroke-opacity="0.450" stroke-linecap="round" />
<line x1="603.97" y1="738.62" x2="597.36" y2="743.04" stroke="#243241" stroke-width="1.80" stroke-opacity="0.450" stroke-linecap="round" />
<line x1="608.91" y1="746.06" x2="609.31" y2="745.02" stroke="#243241" stroke-width="1.80" stroke-opacity="0.450" stroke-linecap="round" />
<line x1="608.91" y1="746.06" x2="610.08" y2="746.16" stroke="#243241" stroke-width="1.80" stroke-opacity="0.450" stroke-linecap="round" />
<line x1="604.67" y1="748.90" x2="608.91" y2="746.06" stroke="#243241" stroke-width="1.80" stroke-opacity="0.450" stroke-linecap="round" />
<line x1="544.28" y1="54.92" x2="592.42" y2="281.12" stroke="#6ee7b7" stroke-width="3.00" stroke-opacity="0.920" stroke-linecap="round" />
<line x1="692.66" y1="728.25" x2="759.45" y2="827.27" stroke="#ffb347" stroke-width="4.00" stroke-opacity="0.950" stroke-linecap="round" />
<line x1="757.75" y1="835.99" x2="759.45" y2="827.27" stroke="#ffb347" stroke-width="4.00" stroke-opacity="0.950" stroke-linecap="round" />
<line x1="757.75" y1="835.99" x2="703.03" y2="872.90" stroke="#ffb347" stroke-width="4.00" stroke-opacity="0.950" stroke-linecap="round" />
<line x1="694.31" y1="871.21" x2="703.03" y2="872.90" stroke="#ffb347" stroke-width="4.00" stroke-opacity="0.950" stroke-linecap="round" />
<line x1="627.51" y1="772.19" x2="694.31" y2="871.21" stroke="#ffb347" stroke-width="4.00" stroke-opacity="0.950" stroke-linecap="round" />
<line x1="692.61" y1="879.93" x2="694.31" y2="871.21" stroke="#ffb347" stroke-width="4.00" stroke-opacity="0.950" stroke-linecap="round" />
<line x1="637.89" y1="916.85" x2="692.61" y2="879.93" stroke="#ffb347" stroke-width="4.00" stroke-opacity="0.950" stroke-linecap="round" />
<line x1="629.16" y1="915.15" x2="637.89" y2="916.85" stroke="#ffb347" stroke-width="4.00" stroke-opacity="0.950" stroke-linecap="round" />
<line x1="562.37" y1="816.13" x2="629.16" y2="915.15" stroke="#ffb347" stroke-width="4.00" stroke-opacity="0.950" stroke-linecap="round" />
<text x="684.74" y="857.02" dx="8.00" dy="6.00" fill="#f0f6fc" font-size="16.0" font-family="monospace" text-anchor="middle">V1</text>
<line x1="596.89" y1="721.90" x2="565.26" y2="675.00" stroke="#ffd580" stroke-width="3.00" stroke-opacity="0.950" stroke-linecap="round" />
<line x1="566.95" y1="666.27" x2="565.26" y2="675.00" stroke="#ffd580" stroke-width="3.00" stroke-opacity="0.950" stroke-linecap="round" />
<line x1="595.61" y1="646.94" x2="566.95" y2="666.27" stroke="#ffd580" stroke-width="3.00" stroke-opacity="0.950" stroke-linecap="round" />
<line x1="604.34" y1="648.64" x2="595.61" y2="646.94" stroke="#ffd580" stroke-width="3.00" stroke-opacity="0.950" stroke-linecap="round" />
<line x1="604.34" y1="648.64" x2="687.20" y2="771.61" stroke="#ffd580" stroke-width="3.00" stroke-opacity="0.950" stroke-linecap="round" />
<line x1="685.50" y1="780.34" x2="687.20" y2="771.61" stroke="#ffd580" stroke-width="3.00" stroke-opacity="0.950" stroke-linecap="round" />
<line x1="656.83" y1="799.67" x2="685.50" y2="780.34" stroke="#ffd580" stroke-width="3.00" stroke-opacity="0.950" stroke-linecap="round" />
<line x1="648.10" y1="797.98" x2="656.83" y2="799.67" stroke="#ffd580" stroke-width="3.00" stroke-opacity="0.950" stroke-linecap="round" />
<line x1="616.47" y1="751.07" x2="648.10" y2="797.98" stroke="#ffd580" stroke-width="3.00" stroke-opacity="0.950" stroke-linecap="round" />
<text x="624.05" y="724.77" dx="8.00" dy="6.00" fill="#f0f6fc" font-size="16.0" font-family="monospace" text-anchor="middle">V2</text>
<line x1="521.59" y1="755.24" x2="454.79" y2="656.22" stroke="#ffd580" stroke-width="3.00" stroke-opacity="0.950" stroke-linecap="round" />
<line x1="456.49" y1="647.50" x2="454.79" y2="656.22" stroke="#ffd580" stroke-width="3.00" stroke-opacity="0.950" stroke-linecap="round" />
<line x1="456.49" y1="647.50" x2="511.21" y2="610.58" stroke="#ffd580" stroke-width="3.00" stroke-opacity="0.950" stroke-linecap="round" />
<line x1="519.94" y1="612.28" x2="511.21" y2="610.58" stroke="#ffd580" stroke-width="3.00" stroke-opacity="0.950" stroke-linecap="round" />
<line x1="521.65" y1="603.56" x2="519.94" y2="612.28" stroke="#ffd580" stroke-width="3.00" stroke-opacity="0.950" stroke-linecap="round" />
<line x1="576.43" y1="566.73" x2="521.65" y2="603.56" stroke="#ffd580" stroke-width="3.00" stroke-opacity="0.950" stroke-linecap="round" />
<line x1="586.73" y1="711.30" x2="519.94" y2="612.28" stroke="#ffd580" stroke-width="3.00" stroke-opacity="0.950" stroke-linecap="round" />
<text x="509.49" y="636.13" dx="8.00" dy="6.00" fill="#f0f6fc" font-size="16.0" font-family="monospace" text-anchor="middle">V3</text>
<line x1="651.88" y1="667.36" x2="585.09" y2="568.34" stroke="#ffd580" stroke-width="3.00" stroke-opacity="0.950" stroke-linecap="round" />
<line x1="585.09" y1="568.34" x2="576.36" y2="566.64" stroke="#ffd580" stroke-width="3.00" stroke-opacity="0.950" stroke-linecap="round" />
<text x="599.60" y="592.67" dx="8.00" dy="6.00" fill="#f0f6fc" font-size="16.0" font-family="monospace" text-anchor="middle">V4</text>
<line x1="521.44" y1="755.02" x2="537.28" y2="778.68" stroke="#ffd580" stroke-width="3.00" stroke-opacity="0.950" stroke-linecap="round" />
<text x="529.36" y="766.85" dx="8.00" dy="6.00" fill="#f0f6fc" font-size="16.0" font-family="monospace" text-anchor="middle">V5</text>
<line x1="652.03" y1="667.58" x2="667.87" y2="691.25" stroke="#ffd580" stroke-width="3.00" stroke-opacity="0.950" stroke-linecap="round" />
<text x="659.95" y="679.42" dx="8.00" dy="6.00" fill="#f0f6fc" font-size="16.0" font-family="monospace" text-anchor="middle">V6</text>
<line x1="674.95" y1="701.81" x2="692.79" y2="728.44" stroke="#ffd580" stroke-width="3.00" stroke-opacity="0.950" stroke-linecap="round" />
<text x="683.87" y="715.13" dx="8.00" dy="6.00" fill="#f0f6fc" font-size="16.0" font-family="monospace" text-anchor="middle">V7</text>
<line x1="544.39" y1="789.29" x2="562.23" y2="815.93" stroke="#ffd580" stroke-width="3.00" stroke-opacity="0.950" stroke-linecap="round" />
<text x="553.31" y="802.61" dx="8.00" dy="6.00" fill="#f0f6fc" font-size="16.0" font-family="monospace" text-anchor="middle">V8</text>
<line x1="539.40" y1="781.85" x2="544.37" y2="789.27" stroke="#ffd580" stroke-width="3.00" stroke-opacity="0.950" stroke-linecap="round" />
<text x="541.89" y="785.56" dx="8.00" dy="6.00" fill="#f0f6fc" font-size="16.0" font-family="monospace" text-anchor="middle">V9</text>
<line x1="669.99" y1="694.41" x2="674.96" y2="701.83" stroke="#ffd580" stroke-width="3.00" stroke-opacity="0.950" stroke-linecap="round" />
<text x="672.48" y="698.12" dx="8.00" dy="6.00" fill="#f0f6fc" font-size="16.0" font-family="monospace" text-anchor="middle">V10</text>
<line x1="537.32" y1="778.74" x2="539.45" y2="781.91" stroke="#ffd580" stroke-width="3.00" stroke-opacity="0.950" stroke-linecap="round" />
<text x="538.38" y="780.33" dx="8.00" dy="6.00" fill="#f0f6fc" font-size="16.0" font-family="monospace" text-anchor="middle">V11</text>
<line x1="667.83" y1="691.18" x2="669.95" y2="694.35" stroke="#ffd580" stroke-width="3.00" stroke-opacity="0.950" stroke-linecap="round" />
<text x="668.89" y="692.77" dx="8.00" dy="6.00" fill="#f0f6fc" font-size="16.0" font-family="monospace" text-anchor="middle">V12</text>
<line x1="588.09" y1="737.20" x2="606.09" y2="755.20" stroke="#ffffff" stroke-width="2.20" />
<line x1="588.09" y1="755.20" x2="606.09" y2="737.20" stroke="#ffffff" stroke-width="2.20" />
<text x="597.09" y="746.20" dx="8.00" dy="-8.00" fill="#ffffff" font-size="16.0" font-family="monospace" text-anchor="start">TWR</text>
<circle cx="653.26" cy="574.32" r="5.00" fill="#2dd4bf" fill-opacity="1.000" stroke="#0b0f14" stroke-width="1.00" />
<text x="653.26" y="574.32" dx="10.00" dy="-10.00" fill="#9ff3e6" font-size="14.0" font-family="monospace" text-anchor="start">HOLDING E</text>
<circle cx="575.04" cy="892.76" r="5.00" fill="#2dd4bf" fill-opacity="1.000" stroke="#0b0f14" stroke-width="1.00" />
<text x="575.04" y="892.76" dx="10.00" dy="-10.00" fill="#9ff3e6" font-size="14.0" font-family="monospace" text-anchor="start">HOLDING W</text>
<circle cx="1147.97" cy="1001.50" r="5.00" fill="#2dd4bf" fill-opacity="1.000" stroke="#0b0f14" stroke-width="1.00" />
<text x="1147.97" y="1001.50" dx="10.00" dy="-10.00" fill="#9ff3e6" font-size="14.0" font-family="monospace" text-anchor="start">ME1</text>
<circle cx="969.47" cy="397.63" r="5.00" fill="#2dd4bf" fill-opacity="1.000" stroke="#0b0f14" stroke-width="1.00" />
<text x="969.47" y="397.63" dx="10.00" dy="-10.00" fill="#9ff3e6" font-size="14.0" font-family="monospace" text-anchor="start">ME2</text>
<circle cx="544.28" cy="54.92" r="5.00" fill="#2dd4bf" fill-opacity="1.000" stroke="#0b0f14" stroke-width="1.00" />
<text x="544.28" y="54.92" dx="10.00" dy="-10.00" fill="#9ff3e6" font-size="14.0" font-family="monospace" text-anchor="start">MN1</text>
<circle cx="331.69" cy="1038.39" r="5.00" fill="#2dd4bf" fill-opacity="1.000" stroke="#0b0f14" stroke-width="1.00" />
<text x="331.69" y="1038.39" dx="10.00" dy="-10.00" fill="#9ff3e6" font-size="14.0" font-family="monospace" text-anchor="start">MS1</text>
<circle cx="1545.08" cy="134.53" r="5.00" fill="#2dd4bf" fill-opacity="1.000" stroke="#0b0f14" stroke-width="1.00" />
<text x="1545.08" y="134.53" dx="10.00" dy="-10.00" fill="#9ff3e6" font-size="14.0" font-family="monospace" text-anchor="start">ME3</text>
<circle cx="592.42" cy="281.12" r="5.00" fill="#2dd4bf" fill-opacity="1.000" stroke="#0b0f14" stroke-width="1.00" />
<text x="592.42" y="281.12" dx="10.00" dy="-10.00" fill="#9ff3e6" font-size="14.0" font-family="monospace" text-anchor="start">MN2</text>
<circle cx="54.92" cy="1306.35" r="5.00" fill="#2dd4bf" fill-opacity="1.000" stroke="#0b0f14" stroke-width="1.00" />
<text x="54.92" y="1306.35" dx="10.00" dy="-10.00" fill="#9ff3e6" font-size="14.0" font-family="monospace" text-anchor="start">MS2</text>
<circle cx="159.21" cy="518.98" r="5.00" fill="#2dd4bf" fill-opacity="1.000" stroke="#0b0f14" stroke-width="1.00" />
<text x="159.21" y="518.98" dx="10.00" dy="-10.00" fill="#9ff3e6" font-size="14.0" font-family="monospace" text-anchor="start">MW1</text>
<rect x="18.00" y="50.00" width="380" height="204.00" fill="#0f141a" fill-opacity="0.88" stroke="#3a4653" stroke-width="1.0" rx="8" />
<text x="36.00" y="74.00" fill="#f0f6fc" font-size="17" font-family="monospace">Legend</text>
<circle cx="44.00" cy="91.00" r="5" fill="#ffb347" />
<text x="60.00" y="96.00" fill="#d0d7de" font-size="15" font-family="monospace">VFR circuit graph</text>
<circle cx="44.00" cy="113.00" r="5" fill="#6ee7b7" />
<text x="60.00" y="118.00" fill="#d0d7de" font-size="15" font-family="monospace">VFR route paths</text>
<circle cx="44.00" cy="135.00" r="5" fill="#ff6b6b" />
<text x="60.00" y="140.00" fill="#d0d7de" font-size="15" font-family="monospace">working VFR operational sectors</text>
<circle cx="44.00" cy="157.00" r="5" fill="#ff5ae0" />
<text x="60.00" y="162.00" fill="#d0d7de" font-size="15" font-family="monospace">endpoint-on-segment attachment</text>
<circle cx="44.00" cy="179.00" r="5" fill="#7ee787" />
<text x="60.00" y="184.00" fill="#d0d7de" font-size="15" font-family="monospace">circuit join anchors</text>
<circle cx="44.00" cy="201.00" r="5" fill="#2dd4bf" />
<text x="60.00" y="206.00" fill="#d0d7de" font-size="15" font-family="monospace">OFMX VFR reporting point</text>
<circle cx="44.00" cy="223.00" r="5" fill="#4f5b68" />
<text x="60.00" y="228.00" fill="#d0d7de" font-size="15" font-family="monospace">apt.dat runways</text>
<circle cx="44.00" cy="245.00" r="5" fill="#243241" />
<text x="60.00" y="250.00" fill="#d0d7de" font-size="15" font-family="monospace">ground DXF context</text>
</svg>
