<svg xmlns="http://www.w3.org/2000/svg" width="1600" height="1757" viewBox="0 0 1600 1757">
  <rect x="0" y="0" width="1600" height="1757" fill="#0b0f14" />
  <text x="32" y="36" fill="#f0f6fc" font-size="22" font-family="monospace">LOWG VFR circuit overlay</text>
<line x1="523.15" y1="643.00" x2="545.56" y2="762.35" stroke="#4f5b68" stroke-width="4.00" stroke-opacity="0.280" stroke-linecap="round" />
<text x="534.36" y="702.67" dx="8.00" dy="-10.00" fill="#a8b6c5" font-size="16.0" font-family="monospace" text-anchor="start">16C/34C</text>
<line x1="543.36" y1="704.67" x2="548.12" y2="730.13" stroke="#4f5b68" stroke-width="4.00" stroke-opacity="0.280" stroke-linecap="round" />
<text x="545.74" y="717.40" dx="8.00" dy="-10.00" fill="#a8b6c5" font-size="16.0" font-family="monospace" text-anchor="start">16L/34R</text>
<line x1="520.44" y1="683.06" x2="526.11" y2="713.33" stroke="#4f5b68" stroke-width="4.00" stroke-opacity="0.280" stroke-linecap="round" />
<text x="523.27" y="698.19" dx="8.00" dy="-10.00" fill="#a8b6c5" font-size="16.0" font-family="monospace" text-anchor="start">16R/34L</text>
<line x1="523.15" y1="643.00" x2="545.56" y2="762.35" stroke="#243241" stroke-width="1.80" stroke-opacity="0.450" stroke-linecap="round" />
<line x1="543.45" y1="704.77" x2="548.15" y2="730.17" stroke="#243241" stroke-width="1.80" stroke-opacity="0.450" stroke-linecap="round" />
<line x1="520.39" y1="683.06" x2="526.08" y2="713.42" stroke="#243241" stroke-width="1.80" stroke-opacity="0.450" stroke-linecap="round" />
<line x1="523.65" y1="645.63" x2="524.24" y2="643.70" stroke="#243241" stroke-width="1.80" stroke-opacity="0.450" stroke-linecap="round" />
<line x1="524.24" y1="643.70" x2="526.31" y2="643.04" stroke="#243241" stroke-width="1.80" stroke-opacity="0.450" stroke-linecap="round" />
<line x1="526.31" y1="643.04" x2="529.05" y2="643.95" stroke="#243241" stroke-width="1.80" stroke-opacity="0.450" stroke-linecap="round" />
<line x1="529.05" y1="643.95" x2="535.05" y2="648.00" stroke="#243241" stroke-width="1.80" stroke-opacity="0.450" stroke-linecap="round" />
<line x1="535.05" y1="648.00" x2="536.37" y2="649.23" stroke="#243241" stroke-width="1.80" stroke-opacity="0.450" stroke-linecap="round" />
<line x1="536.37" y1="649.23" x2="536.88" y2="650.36" stroke="#243241" stroke-width="1.80" stroke-opacity="0.450" stroke-linecap="round" />
<line x1="536.88" y1="650.36" x2="551.13" y2="726.27" stroke="#243241" stroke-width="1.80" stroke-opacity="0.450" stroke-linecap="round" />
<line x1="551.13" y1="726.27" x2="550.42" y2="727.98" stroke="#243241" stroke-width="1.80" stroke-opacity="0.450" stroke-linecap="round" />
<line x1="550.42" y1="727.98" x2="549.14" y2="729.35" stroke="#243241" stroke-width="1.80" stroke-opacity="0.450" stroke-linecap="round" />
<line x1="549.14" y1="729.35" x2="548.15" y2="730.17" stroke="#243241" stroke-width="1.80" stroke-opacity="0.450" stroke-linecap="round" />
<line x1="543.45" y1="704.77" x2="544.07" y2="705.06" stroke="#243241" stroke-width="1.80" stroke-opacity="0.450" stroke-linecap="round" />
<line x1="544.07" y1="705.06" x2="547.05" y2="704.57" stroke="#243241" stroke-width="1.80" stroke-opacity="0.450" stroke-linecap="round" />
<line x1="543.76" y1="687.04" x2="538.29" y2="692.40" stroke="#243241" stroke-width="1.80" stroke-opacity="0.450" stroke-linecap="round" />
<line x1="538.29" y1="692.40" x2="534.69" y2="695.75" stroke="#243241" stroke-width="1.80" stroke-opacity="0.450" stroke-linecap="round" />
<line x1="534.69" y1="695.75" x2="532.92" y2="695.04" stroke="#243241" stroke-width="1.80" stroke-opacity="0.450" stroke-linecap="round" />
<line x1="534.69" y1="695.75" x2="533.45" y2="697.82" stroke="#243241" stroke-width="1.80" stroke-opacity="0.450" stroke-linecap="round" />
<line x1="539.88" y1="666.33" x2="538.36" y2="665.31" stroke="#243241" stroke-width="1.80" stroke-opacity="0.450" stroke-linecap="round" />
<line x1="538.36" y1="665.31" x2="539.40" y2="663.79" stroke="#243241" stroke-width="1.80" stroke-opacity="0.450" stroke-linecap="round" />
<line x1="523.41" y1="699.19" x2="533.38" y2="697.44" stroke="#243241" stroke-width="1.80" stroke-opacity="0.450" stroke-linecap="round" />
<line x1="539.62" y1="730.68" x2="538.19" y2="732.60" stroke="#243241" stroke-width="1.80" stroke-opacity="0.450" stroke-linecap="round" />
<line x1="538.19" y1="732.60" x2="540.27" y2="734.17" stroke="#243241" stroke-width="1.80" stroke-opacity="0.450" stroke-linecap="round" />
<line x1="538.19" y1="732.60" x2="532.11" y2="730.34" stroke="#243241" stroke-width="1.80" stroke-opacity="0.450" stroke-linecap="round" />
<line x1="532.11" y1="730.34" x2="530.35" y2="729.88" stroke="#243241" stroke-width="1.80" stroke-opacity="0.450" stroke-linecap="round" />
<line x1="530.35" y1="729.88" x2="528.83" y2="729.98" stroke="#243241" stroke-width="1.80" stroke-opacity="0.450" stroke-linecap="round" />
<line x1="528.83" y1="729.98" x2="525.86" y2="731.04" stroke="#243241" stroke-width="1.80" stroke-opacity="0.450" stroke-linecap="round" />
<line x1="525.86" y1="731.04" x2="521.11" y2="717.61" stroke="#243241" stroke-width="1.80" stroke-opacity="0.450" stroke-linecap="round" />
<line x1="521.11" y1="717.61" x2="526.08" y2="713.42" stroke="#243241" stroke-width="1.80" stroke-opacity="0.450" stroke-linecap="round" />
<line x1="538.36" y1="665.31" x2="535.12" y2="666.01" stroke="#243241" stroke-width="1.80" stroke-opacity="0.450" stroke-linecap="round" />
<line x1="535.12" y1="666.01" x2="533.93" y2="666.73" stroke="#243241" stroke-width="1.80" stroke-opacity="0.450" stroke-linecap="round" />
<line x1="533.93" y1="666.73" x2="533.62" y2="667.11" stroke="#243241" stroke-width="1.80" stroke-opacity="0.450" stroke-linecap="round" />
<line x1="533.62" y1="667.11" x2="532.34" y2="670.62" stroke="#243241" stroke-width="1.80" stroke-opacity="0.450" stroke-linecap="round" />
<line x1="532.34" y1="670.62" x2="531.42" y2="674.86" stroke="#243241" stroke-width="1.80" stroke-opacity="0.450" stroke-linecap="round" />
<line x1="531.42" y1="674.86" x2="530.42" y2="675.38" stroke="#243241" stroke-width="1.80" stroke-opacity="0.450" stroke-linecap="round" />
<line x1="530.42" y1="675.38" x2="529.17" y2="675.03" stroke="#243241" stroke-width="1.80" stroke-opacity="0.450" stroke-linecap="round" />
<line x1="531.42" y1="674.86" x2="530.30" y2="681.07" stroke="#243241" stroke-width="1.80" stroke-opacity="0.450" stroke-linecap="round" />
<line x1="1376.72" y1="193.25" x2="1008.99" y2="387.14" stroke="#6ee7b7" stroke-width="3.00" stroke-opacity="0.920" stroke-linecap="round" />
<line x1="1008.99" y1="387.14" x2="676.25" y2="587.27" stroke="#6ee7b7" stroke-width="3.00" stroke-opacity="0.920" stroke-linecap="round" />
<line x1="676.25" y1="587.27" x2="578.59" y2="589.09" stroke="#6ee7b7" stroke-width="3.00" stroke-opacity="0.920" stroke-linecap="round" />
<line x1="349.47" y1="882.48" x2="435.65" y2="661.07" stroke="#6ee7b7" stroke-width="3.00" stroke-opacity="0.920" stroke-linecap="round" />
<line x1="435.65" y1="661.07" x2="393.89" y2="484.57" stroke="#6ee7b7" stroke-width="3.00" stroke-opacity="0.920" stroke-linecap="round" />
<line x1="393.89" y1="484.57" x2="59.39" y2="56.91" stroke="#6ee7b7" stroke-width="3.00" stroke-opacity="0.920" stroke-linecap="round" />
<line x1="349.47" y1="882.48" x2="447.49" y2="801.80" stroke="#6ee7b7" stroke-width="3.00" stroke-opacity="0.920" stroke-linecap="round" />
<line x1="693.31" y1="799.92" x2="656.51" y2="764.09" stroke="#6ee7b7" stroke-width="3.00" stroke-opacity="0.920" stroke-linecap="round" />
<line x1="185.51" y1="1458.50" x2="56.91" y2="785.16" stroke="#ff6b6b" stroke-width="3.20" stroke-opacity="0.920" stroke-linecap="round" stroke-dasharray="12 8" />
<line x1="349.35" y1="882.60" x2="221.62" y2="875.41" stroke="#ff6b6b" stroke-width="3.20" stroke-opacity="0.920" stroke-linecap="round" stroke-dasharray="12 8" />
<line x1="221.62" y1="875.41" x2="56.91" y2="785.16" stroke="#ff6b6b" stroke-width="3.20" stroke-opacity="0.920" stroke-linecap="round" stroke-dasharray="12 8" />
<line x1="185.51" y1="1458.50" x2="349.35" y2="882.60" stroke="#ff6b6b" stroke-width="3.20" stroke-opacity="0.920" stroke-linecap="round" stroke-dasharray="12 8" />
<line x1="693.31" y1="799.92" x2="1350.05" y2="587.57" stroke="#ff6b6b" stroke-width="3.20" stroke-opacity="0.920" stroke-linecap="round" stroke-dasharray="12 8" />
<line x1="1350.05" y1="587.57" x2="1543.09" y2="1646.75" stroke="#ff6b6b" stroke-width="3.20" stroke-opacity="0.920" stroke-linecap="round" stroke-dasharray="12 8" />
<line x1="1543.09" y1="1646.75" x2="1253.00" y2="1700.54" stroke="#ff6b6b" stroke-width="3.20" stroke-opacity="0.920" stroke-linecap="round" stroke-dasharray="12 8" />
<line x1="1253.00" y1="1700.54" x2="1210.67" y2="1475.46" stroke="#ff6b6b" stroke-width="3.20" stroke-opacity="0.920" stroke-linecap="round" stroke-dasharray="12 8" />
<line x1="1210.67" y1="1475.46" x2="693.31" y2="799.92" stroke="#ff6b6b" stroke-width="3.20" stroke-opacity="0.920" stroke-linecap="round" stroke-dasharray="12 8" />
<line x1="443.23" y1="635.87" x2="450.67" y2="632.98" stroke="#ffb347" stroke-width="4.00" stroke-opacity="0.950" stroke-linecap="round" />
<line x1="445.07" y1="798.60" x2="443.23" y2="635.87" stroke="#ffb347" stroke-width="4.00" stroke-opacity="0.950" stroke-linecap="round" />
<line x1="447.49" y1="801.80" x2="445.07" y2="798.60" stroke="#ffb347" stroke-width="4.00" stroke-opacity="0.950" stroke-linecap="round" />
<line x1="553.41" y1="817.99" x2="447.49" y2="801.80" stroke="#ffb347" stroke-width="4.00" stroke-opacity="0.950" stroke-linecap="round" />
<line x1="554.88" y1="811.98" x2="553.41" y2="817.99" stroke="#ffb347" stroke-width="4.00" stroke-opacity="0.950" stroke-linecap="round" />
<line x1="554.88" y1="811.98" x2="518.42" y2="617.78" stroke="#ffb347" stroke-width="4.00" stroke-opacity="0.950" stroke-linecap="round" />
<line x1="556.76" y1="816.93" x2="554.88" y2="811.98" stroke="#ffb347" stroke-width="4.00" stroke-opacity="0.950" stroke-linecap="round" />
<line x1="560.43" y1="818.38" x2="556.76" y2="816.93" stroke="#ffb347" stroke-width="4.00" stroke-opacity="0.950" stroke-linecap="round" />
<line x1="567.92" y1="818.64" x2="560.43" y2="818.38" stroke="#ffb347" stroke-width="4.00" stroke-opacity="0.950" stroke-linecap="round" />
<line x1="649.14" y1="787.11" x2="567.92" y2="818.64" stroke="#ffb347" stroke-width="4.00" stroke-opacity="0.950" stroke-linecap="round" />
<line x1="660.66" y1="782.04" x2="649.14" y2="787.11" stroke="#ffb347" stroke-width="4.00" stroke-opacity="0.950" stroke-linecap="round" />
<line x1="662.16" y1="777.69" x2="660.66" y2="782.04" stroke="#ffb347" stroke-width="4.00" stroke-opacity="0.950" stroke-linecap="round" />
<line x1="584.36" y1="590.44" x2="662.16" y2="777.69" stroke="#ffb347" stroke-width="4.00" stroke-opacity="0.950" stroke-linecap="round" />
<line x1="578.59" y1="589.09" x2="584.36" y2="590.44" stroke="#ffb347" stroke-width="4.00" stroke-opacity="0.950" stroke-linecap="round" />
<line x1="537.33" y1="605.82" x2="578.59" y2="589.09" stroke="#ffb347" stroke-width="4.00" stroke-opacity="0.950" stroke-linecap="round" />
<line x1="521.18" y1="613.38" x2="537.33" y2="605.82" stroke="#ffb347" stroke-width="4.00" stroke-opacity="0.950" stroke-linecap="round" />
<line x1="518.42" y1="617.78" x2="521.18" y2="613.38" stroke="#ffb347" stroke-width="4.00" stroke-opacity="0.950" stroke-linecap="round" />
<line x1="511.88" y1="616.85" x2="518.42" y2="617.78" stroke="#ffb347" stroke-width="4.00" stroke-opacity="0.950" stroke-linecap="round" />
<line x1="450.67" y1="632.98" x2="511.88" y2="616.85" stroke="#ffb347" stroke-width="4.00" stroke-opacity="0.950" stroke-linecap="round" />
<text x="544.22" y="718.33" dx="8.00" dy="6.00" fill="#f0f6fc" font-size="16.0" font-family="monospace" text-anchor="middle">V1</text>
<line x1="589.95" y1="603.90" x2="581.20" y2="602.49" stroke="#ffd580" stroke-width="3.00" stroke-opacity="0.950" stroke-linecap="round" />
<line x1="581.20" y1="602.49" x2="531.46" y2="625.67" stroke="#ffd580" stroke-width="3.00" stroke-opacity="0.950" stroke-linecap="round" />
<line x1="531.46" y1="625.67" x2="528.72" y2="630.31" stroke="#ffd580" stroke-width="3.00" stroke-opacity="0.950" stroke-linecap="round" />
<line x1="528.72" y1="630.31" x2="530.07" y2="637.26" stroke="#ffd580" stroke-width="3.00" stroke-opacity="0.950" stroke-linecap="round" />
<line x1="530.07" y1="637.26" x2="532.08" y2="644.34" stroke="#ffd580" stroke-width="3.00" stroke-opacity="0.950" stroke-linecap="round" />
<line x1="532.08" y1="644.34" x2="558.10" y2="783.50" stroke="#ffd580" stroke-width="3.00" stroke-opacity="0.950" stroke-linecap="round" />
<line x1="558.10" y1="783.50" x2="559.89" y2="788.00" stroke="#ffd580" stroke-width="3.00" stroke-opacity="0.950" stroke-linecap="round" />
<line x1="559.89" y1="788.00" x2="563.18" y2="791.89" stroke="#ffd580" stroke-width="3.00" stroke-opacity="0.950" stroke-linecap="round" />
<line x1="563.18" y1="791.89" x2="567.36" y2="794.33" stroke="#ffd580" stroke-width="3.00" stroke-opacity="0.950" stroke-linecap="round" />
<line x1="567.36" y1="794.33" x2="571.85" y2="794.49" stroke="#ffd580" stroke-width="3.00" stroke-opacity="0.950" stroke-linecap="round" />
<line x1="571.85" y1="794.49" x2="648.55" y2="773.07" stroke="#ffd580" stroke-width="3.00" stroke-opacity="0.950" stroke-linecap="round" />
<line x1="648.55" y1="773.07" x2="652.73" y2="770.12" stroke="#ffd580" stroke-width="3.00" stroke-opacity="0.950" stroke-linecap="round" />
<line x1="652.73" y1="770.12" x2="656.51" y2="764.09" stroke="#ffd580" stroke-width="3.00" stroke-opacity="0.950" stroke-linecap="round" />
<text x="572.96" y="716.88" dx="8.00" dy="6.00" fill="#f0f6fc" font-size="16.0" font-family="monospace" text-anchor="middle">V2</text>
<line x1="443.60" y1="668.97" x2="448.48" y2="663.27" stroke="#ffd580" stroke-width="3.00" stroke-opacity="0.950" stroke-linecap="round" />
<line x1="448.48" y1="663.27" x2="506.16" y2="634.85" stroke="#ffd580" stroke-width="3.00" stroke-opacity="0.950" stroke-linecap="round" />
<line x1="506.16" y1="634.85" x2="509.88" y2="635.91" stroke="#ffd580" stroke-width="3.00" stroke-opacity="0.950" stroke-linecap="round" />
<line x1="509.88" y1="635.91" x2="512.30" y2="641.10" stroke="#ffd580" stroke-width="3.00" stroke-opacity="0.950" stroke-linecap="round" />
<line x1="512.30" y1="641.10" x2="513.66" y2="646.87" stroke="#ffd580" stroke-width="3.00" stroke-opacity="0.950" stroke-linecap="round" />
<line x1="513.66" y1="646.87" x2="537.29" y2="773.00" stroke="#ffd580" stroke-width="3.00" stroke-opacity="0.950" stroke-linecap="round" />
<line x1="537.29" y1="773.00" x2="538.03" y2="778.07" stroke="#ffd580" stroke-width="3.00" stroke-opacity="0.950" stroke-linecap="round" />
<line x1="538.03" y1="778.07" x2="537.71" y2="783.01" stroke="#ffd580" stroke-width="3.00" stroke-opacity="0.950" stroke-linecap="round" />
<line x1="537.71" y1="783.01" x2="534.95" y2="785.56" stroke="#ffd580" stroke-width="3.00" stroke-opacity="0.950" stroke-linecap="round" />
<line x1="534.95" y1="785.56" x2="451.69" y2="796.76" stroke="#ffd580" stroke-width="3.00" stroke-opacity="0.950" stroke-linecap="round" />
<line x1="451.69" y1="796.76" x2="445.01" y2="793.51" stroke="#ffd580" stroke-width="3.00" stroke-opacity="0.950" stroke-linecap="round" />
<text x="503.13" y="715.42" dx="8.00" dy="6.00" fill="#f0f6fc" font-size="16.0" font-family="monospace" text-anchor="middle">V3</text>
<circle cx="589.95" cy="603.90" r="6.00" fill="#ff5ae0" fill-opacity="1.000" stroke="#0b0f14" stroke-width="1.20" />
<circle cx="656.51" cy="764.09" r="6.00" fill="#ff5ae0" fill-opacity="1.000" stroke="#0b0f14" stroke-width="1.20" />
<circle cx="443.60" cy="668.97" r="6.00" fill="#ff5ae0" fill-opacity="1.000" stroke="#0b0f14" stroke-width="1.20" />
<circle cx="445.01" cy="793.51" r="6.00" fill="#ff5ae0" fill-opacity="1.000" stroke="#0b0f14" stroke-width="1.20" />
<circle cx="523.15" cy="643.00" r="6.00" fill="#66e2ff" fill-opacity="1.000" stroke="#0b0f14" stroke-width="1.20" />
<text x="523.15" y="643.00" dx="8.00" dy="-8.00" fill="#f0f6fc" font-size="16.0" font-family="monospace" text-anchor="start">P1</text>
<circle cx="545.56" cy="762.35" r="6.00" fill="#66e2ff" fill-opacity="1.000" stroke="#0b0f14" stroke-width="1.20" />
<text x="545.56" y="762.35" dx="8.00" dy="-8.00" fill="#f0f6fc" font-size="16.0" font-family="monospace" text-anchor="start">P2</text>
<circle cx="551.68" cy="680.21" r="6.00" fill="#66e2ff" fill-opacity="1.000" stroke="#0b0f14" stroke-width="1.20" />
<text x="551.68" y="680.21" dx="8.00" dy="-8.00" fill="#f0f6fc" font-size="16.0" font-family="monospace" text-anchor="start">P3</text>
<circle cx="578.59" cy="589.09" r="6.00" fill="#66e2ff" fill-opacity="1.000" stroke="#0b0f14" stroke-width="1.20" />
<text x="578.59" y="589.09" dx="8.00" dy="-8.00" fill="#f0f6fc" font-size="16.0" font-family="monospace" text-anchor="start">P4</text>
<circle cx="447.49" cy="801.80" r="6.00" fill="#66e2ff" fill-opacity="1.000" stroke="#0b0f14" stroke-width="1.20" />
<text x="447.49" y="801.80" dx="8.00" dy="-8.00" fill="#f0f6fc" font-size="16.0" font-family="monospace" text-anchor="start">P5</text>
<circle cx="578.59" cy="589.09" r="7.00" fill="#7ee787" fill-opacity="1.000" stroke="#0b0f14" stroke-width="1.40" />
<text x="578.59" y="589.09" dx="12.00" dy="-12.00" fill="#d8ffd8" font-size="15.0" font-family="monospace" text-anchor="start">NE</text>
<circle cx="443.60" cy="668.97" r="7.00" fill="#7ee787" fill-opacity="1.000" stroke="#0b0f14" stroke-width="1.40" />
<text x="443.60" y="668.97" dx="12.00" dy="-12.00" fill="#d8ffd8" font-size="15.0" font-family="monospace" text-anchor="start">NW / AUTOBAHN-WEST</text>
<circle cx="656.51" cy="764.09" r="7.00" fill="#7ee787" fill-opacity="1.000" stroke="#0b0f14" stroke-width="1.40" />
<text x="656.51" y="764.09" dx="12.00" dy="-12.00" fill="#d8ffd8" font-size="15.0" font-family="monospace" text-anchor="start">SE</text>
<circle cx="447.49" cy="801.80" r="7.00" fill="#7ee787" fill-opacity="1.000" stroke="#0b0f14" stroke-width="1.40" />
<text x="447.49" y="801.80" dx="12.00" dy="-12.00" fill="#d8ffd8" font-size="15.0" font-family="monospace" text-anchor="start">SW</text>
<line x1="543.78" y1="671.13" x2="561.78" y2="689.13" stroke="#ffffff" stroke-width="2.20" />
<line x1="543.78" y1="689.13" x2="561.78" y2="671.13" stroke="#ffffff" stroke-width="2.20" />
<text x="552.78" y="680.13" dx="8.00" dy="-8.00" fill="#ffffff" font-size="16.0" font-family="monospace" text-anchor="start">TWR</text>
<circle cx="1376.72" cy="193.25" r="5.00" fill="#2dd4bf" fill-opacity="1.000" stroke="#0b0f14" stroke-width="1.00" />
<text x="1376.72" y="193.25" dx="10.00" dy="-10.00" fill="#9ff3e6" font-size="14.0" font-family="monospace" text-anchor="start">GLEISDORF</text>
<circle cx="59.39" cy="56.91" r="5.00" fill="#2dd4bf" fill-opacity="1.000" stroke="#0b0f14" stroke-width="1.00" />
<text x="59.39" y="56.91" dx="10.00" dy="-10.00" fill="#9ff3e6" font-size="14.0" font-family="monospace" text-anchor="start">GRAZ-NORD</text>
<circle cx="1008.99" cy="387.14" r="5.00" fill="#2dd4bf" fill-opacity="1.000" stroke="#0b0f14" stroke-width="1.00" />
<text x="1008.99" y="387.14" dx="10.00" dy="-10.00" fill="#9ff3e6" font-size="14.0" font-family="monospace" text-anchor="start">LASSNITZHÖHE</text>
<circle cx="676.25" cy="587.27" r="5.00" fill="#2dd4bf" fill-opacity="1.000" stroke="#0b0f14" stroke-width="1.00" />
<text x="676.25" y="587.27" dx="10.00" dy="-10.00" fill="#9ff3e6" font-size="14.0" font-family="monospace" text-anchor="start">AUTOBAHN-OST</text>
<circle cx="435.65" cy="661.07" r="5.00" fill="#2dd4bf" fill-opacity="1.000" stroke="#0b0f14" stroke-width="1.00" />
<text x="435.65" y="661.07" dx="10.00" dy="-10.00" fill="#9ff3e6" font-size="14.0" font-family="monospace" text-anchor="start">AUTOBAHN-WEST</text>
<circle cx="393.89" cy="484.57" r="5.00" fill="#2dd4bf" fill-opacity="1.000" stroke="#0b0f14" stroke-width="1.00" />
<text x="393.89" y="484.57" dx="10.00" dy="-10.00" fill="#9ff3e6" font-size="14.0" font-family="monospace" text-anchor="start">GREEN CITY</text>
<circle cx="693.31" cy="799.92" r="5.00" fill="#2dd4bf" fill-opacity="1.000" stroke="#0b0f14" stroke-width="1.00" />
<text x="693.31" y="799.92" dx="10.00" dy="-10.00" fill="#9ff3e6" font-size="14.0" font-family="monospace" text-anchor="start">KALSDORF</text>
<circle cx="349.47" cy="882.48" r="5.00" fill="#2dd4bf" fill-opacity="1.000" stroke="#0b0f14" stroke-width="1.00" />
<text x="349.47" y="882.48" dx="10.00" dy="-10.00" fill="#9ff3e6" font-size="14.0" font-family="monospace" text-anchor="start">SENDER DOBL</text>
<rect x="18.00" y="50.00" width="380" height="204.00" fill="#0f141a" fill-opacity="0.88" stroke="#3a4653" stroke-width="1.0" rx="8" />
<text x="36.00" y="74.00" fill="#f0f6fc" font-size="17" font-family="monospace">Legend</text>
<circle cx="44.00" cy="91.00" r="5" fill="#ffb347" />
<text x="60.00" y="96.00" fill="#d0d7de" font-size="15" font-family="monospace">VFR circuit graph</text>
<circle cx="44.00" cy="113.00" r="5" fill="#6ee7b7" />
<text x="60.00" y="118.00" fill="#d0d7de" font-size="15" font-family="monospace">VFR route paths</text>
<circle cx="44.00" cy="135.00" r="5" fill="#ff6b6b" />
<text x="60.00" y="140.00" fill="#d0d7de" font-size="15" font-family="monospace">working VFR operational sectors</text>
<circle cx="44.00" cy="157.00" r="5" fill="#ff5ae0" />
<text x="60.00" y="162.00" fill="#d0d7de" font-size="15" font-family="monospace">endpoint-on-segment attachment</text>
<circle cx="44.00" cy="179.00" r="5" fill="#7ee787" />
<text x="60.00" y="184.00" fill="#d0d7de" font-size="15" font-family="monospace">circuit join anchors</text>
<circle cx="44.00" cy="201.00" r="5" fill="#2dd4bf" />
<text x="60.00" y="206.00" fill="#d0d7de" font-size="15" font-family="monospace">OFMX VFR reporting point</text>
<circle cx="44.00" cy="223.00" r="5" fill="#4f5b68" />
<text x="60.00" y="228.00" fill="#d0d7de" font-size="15" font-family="monospace">apt.dat runways</text>
<circle cx="44.00" cy="245.00" r="5" fill="#243241" />
<text x="60.00" y="250.00" fill="#d0d7de" font-size="15" font-family="monospace">ground DXF context</text>
</svg>
